<svg id="Layer_1" data-name="Layer 1" xmlns="http://www.w3.org/2000/svg" viewBox="0 0 350 350"><defs><style>.cls-1{fill:#6a2e1e;}.cls-2{fill:#a93418;}.cls-3{fill:#fff;}</style></defs><title>Ketshup</title><path class="cls-1" d="M193.71,97.72c-2-.62-3.87-1.28-5.82-1.82-1-.3-1.94-.54-2.92-.78s-1.94-.51-2.92-.71c-1.95-.46-3.91-.8-5.85-1.16l-2.94-.43c-1-.13-2-.23-2.93-.35a92.73,92.73,0,0,0-23.15.39,81.91,81.91,0,0,0-11.06,2.37A72.7,72.7,0,0,0,125.71,99,61.71,61.71,0,0,0,108.06,111c-.64.59-1.22,1.24-1.81,1.87s-1.15,1.29-1.7,1.95-1.1,1.32-1.61,2l-.77,1c-.18.24-.08.21.2-.29a6.73,6.73,0,0,0,.09-5.91,5.78,5.78,0,0,0-1-1.55c-.24-.26-.4-.36-.4-.39s.25.06.61.14c.2.05.34.06.62.12l1.42.25a230.91,230.91,0,0,0,23.17,3c15.8,1.28,32.36,1.9,49.22,4.92a151.93,151.93,0,0,1,25.07,6.59,132.06,132.06,0,0,1,23.5,11.19,159,159,0,0,1,20.78,15c.81.68,1.61,1.39,2.4,2.09s1.59,1.4,2.37,2.12a48.81,48.81,0,0,1,4.8,4.83,17.76,17.76,0,0,1,2.25,3.35,12.53,12.53,0,0,1,1.32,4.36,12,12,0,0,1-2.58,8.62,13.16,13.16,0,0,1-3.2,2.91,13.66,13.66,0,0,1-3.84,1.7,22.73,22.73,0,0,1-7.34.64,47.23,47.23,0,0,1-6.58-1c-2.06-.46-4.12-.86-6.15-1.36s-4.07-1-6.07-1.57-4-1.11-6-1.68c-4-1.21-7.95-2.41-11.87-3.69-7.87-2.53-15.65-5.12-23.44-7.43-3.9-1.14-7.79-2.25-11.69-3.17-1.95-.5-3.89-.91-5.84-1.36s-3.86-.8-5.79-1.12c-3.86-.67-7.74-1.11-11.58-1.43-1-.07-1.92-.1-2.88-.16s-1.91-.1-2.86-.1l-2.84,0-2.81.09-1.4,0-1.38.12c-.92.08-1.84.14-2.76.24-1.8.26-3.62.45-5.35.85s-3.44.78-5.12,1.21c-.82.25-1.62.55-2.42.82a19.25,19.25,0,0,0-2.34.9,41.5,41.5,0,0,0-4.39,2.13,37.4,37.4,0,0,0-3.87,2.64c-.59.48-1.27.94-1.73,1.4a13.37,13.37,0,0,0-1.22,1.29,3.31,3.31,0,0,0-.88,1.57.45.45,0,0,0,0,.24s.06.11,0,.16a1.08,1.08,0,0,1,.07.28,8.32,8.32,0,0,0,1,2.05,15.19,15.19,0,0,0,5,4.66c.45.26,1.07.58,1.68.85s1.25.53,1.91.76a32.21,32.21,0,0,0,4.32,1.16A84.08,84.08,0,0,0,127,182.12c8,.57,16.2,1,24.51,1.63,16.61,1.25,33.95,3.4,51.06,9.14a113.23,113.23,0,0,1,24.7,11.69c.49.3,1,.59,1.47.91l1.42,1,2.83,2,1.41,1c.47.32.94.68,1.48,1.11a32.85,32.85,0,0,1,3.68,3.31,20.68,20.68,0,0,1,3.89,5.7,18.62,18.62,0,0,1,0,16,21.6,21.6,0,0,1-3.89,5.6,25.48,25.48,0,0,1-9.44,6.12,26.8,26.8,0,0,1-2.64.81l-1.37.32-1.05.16c-.69.1-1.4.22-2.08.28l-2.05.16a58.46,58.46,0,0,1-15-1.31,130.22,130.22,0,0,1-12.8-3.49c-4-1.26-7.84-2.57-11.5-3.69-7.33-2.24-14.25-3.75-19.57-2.53l-1,.24c-.33.09-.64.22-1,.32-.71.21-1,.4-1,.28s.15-.23.29-.52a3.44,3.44,0,0,0,.21-.5,1.65,1.65,0,0,0,.11-.49c.09-.69-.14-1.22-.23-1.2s0,.33.23.74a7.65,7.65,0,0,0,1.09,1.37,12.81,12.81,0,0,0,1.56,1.35c.28.21.57.4.85.58l.44.27.59.31a90.23,90.23,0,0,0,10.73,4.35,84.48,84.48,0,0,1,12,5.08A33.69,33.69,0,0,1,197.28,259a22.13,22.13,0,0,1,3.33,6,14.63,14.63,0,0,1,.87,6.78h-2.4c-.55-3.71-2.9-6.73-5.71-9.1a28.5,28.5,0,0,0-9.64-5.21c-7.05-2.33-15.2-2.4-24.12-5.22l-.83-.27-1-.36c-.64-.26-1.26-.54-1.87-.84a26,26,0,0,1-3.51-2.1,22,22,0,0,1-3.32-2.9,15.49,15.49,0,0,1-3-4.47l-.3-.72c-.09-.26-.17-.54-.25-.82a9.67,9.67,0,0,1-.37-1.75,11.74,11.74,0,0,1,.13-3.92,14.2,14.2,0,0,1,.56-2,11.82,11.82,0,0,1,.92-1.86,13.34,13.34,0,0,1,2.32-2.81,19.18,19.18,0,0,1,4.23-2.89c.61-.31,1.22-.64,1.84-.93l1.9-.79a36.34,36.34,0,0,1,7.76-1.94,52.27,52.27,0,0,1,7.51-.38A86.18,86.18,0,0,1,186,222.08c4.3.79,8.34,1.72,12.26,2.56s7.66,1.54,11.15,1.94a36.33,36.33,0,0,0,9.49.08l1-.17c.33-.06.63-.16.95-.22l.46-.11.12-.07c.08,0,.18-.11.27-.14.39-.22.79-.63.69-.65s-.24.13-.45.54a4.41,4.41,0,0,0-.51,2,5.7,5.7,0,0,0,.35,2.09c.23.48.45.77.37.71l-1-.7c-.28-.19-.63-.44-1-.67l-1.14-.71-2.27-1.43-1.13-.72c-.39-.23-.79-.43-1.18-.64a101.26,101.26,0,0,0-20-8.55c-14.08-4.47-29.46-6.6-45.42-8.46-8-.89-16.14-1.75-24.43-2.73a102.09,102.09,0,0,1-13.69-2.4,54.87,54.87,0,0,1-7.4-2.48c-1.24-.52-2.47-1.1-3.69-1.74a40.68,40.68,0,0,1-3.67-2.18,37.88,37.88,0,0,1-6.64-5.66,35.75,35.75,0,0,1-5.24-7.22A28.7,28.7,0,0,1,81.09,175c-.12-.91-.21-1.84-.25-2.77a26.74,26.74,0,0,1,.1-2.9,22.09,22.09,0,0,1,1.33-5.74A25.17,25.17,0,0,1,88,154.83a33.29,33.29,0,0,1,3.27-2.89c1.09-.87,2.15-1.51,3.22-2.22a53,53,0,0,1,6.64-3.69,61.09,61.09,0,0,1,7-2.57,59.57,59.57,0,0,1,7-1.7c2.34-.34,4.68-.72,7-.84s4.6-.17,6.88-.2c1.13,0,2.26.09,3.39.14l1.69.08,1.67.16a121.1,121.1,0,0,1,25.58,5.3c8.23,2.52,15.93,5.73,23.6,8.88s15.16,6.43,22.74,9.35a189.43,189.43,0,0,0,23,7.51A63.45,63.45,0,0,0,242,174.2a13.36,13.36,0,0,0,4.83-.5,5.9,5.9,0,0,0,1.72-.86,5.46,5.46,0,0,0,1.26-1.27,3.64,3.64,0,0,0,.68-2.89,6.69,6.69,0,0,0-1.93-3.07,39.11,39.11,0,0,0-4.25-3.47q-1.18-.9-2.4-1.75t-2.45-1.68a116.15,116.15,0,0,0-20.81-11,119.16,119.16,0,0,0-22.2-6.66,205.86,205.86,0,0,0-23.05-3.09c-15.62-1.31-31.88-1.59-48.68-3.52a199.19,199.19,0,0,1-25.39-4.32l-1.59-.36c-.72-.18-1.57-.42-2.34-.69a22.87,22.87,0,0,1-5-2.38,17.47,17.47,0,0,1-2.84-2.25,14.69,14.69,0,0,1-2.89-4,13.39,13.39,0,0,1-1.34-6,13.09,13.09,0,0,1,1.5-5.8,16.47,16.47,0,0,1,1.91-2.84l1.2-1.37c.79-.9,1.57-1.79,2.43-2.62s1.67-1.69,2.57-2.47,1.75-1.6,2.68-2.32A73.09,73.09,0,0,1,120,83.86a84,84,0,0,1,13.17-3A88.49,88.49,0,0,1,146.42,80a85.77,85.77,0,0,1,48.4,15.57Z"/><path class="cls-2" d="M198.09,99.74a94,94,0,0,0-21.76-4.22,71.73,71.73,0,0,0-21,1.71,61.69,61.69,0,0,0-33.56,20.56c-.5.65-1.06,1.24-1.53,1.91l-.74,1a7.64,7.64,0,0,0-.54.74,1,1,0,0,0,.19-.25,5.19,5.19,0,0,0,.44-.89,7.14,7.14,0,0,0,.4-3.36,7,7,0,0,0-1-2.9,5.88,5.88,0,0,0-1-1.2c-.44-.37-.37-.3-.16-.27l.4.07.86.15c1.74.32,3.49.6,5.25.85,7.06,1,14.3,1.6,21.7,2,14.79.85,30.37,1.47,46.16,4.77a127.13,127.13,0,0,1,23.28,7.09A122.21,122.21,0,0,1,236.75,139a146,146,0,0,1,18.67,14.83,33.63,33.63,0,0,1,4.52,4.89,14.07,14.07,0,0,1,1.89,3.61,11.26,11.26,0,0,1,.57,4.44,12,12,0,0,1-3.63,7.56,12.74,12.74,0,0,1-3.3,2.32,14.74,14.74,0,0,1-3.62,1.18,23.34,23.34,0,0,1-6.76.28,53,53,0,0,1-6-1c-3.84-.73-7.63-1.66-11.39-2.64-7.51-2-14.86-4.31-22.16-6.55s-14.56-4.46-21.81-6.27a136.91,136.91,0,0,0-21.6-3.79,84,84,0,0,0-20.8.59,43.59,43.59,0,0,0-17.35,6.45,29.59,29.59,0,0,0-3.32,2.59,9.82,9.82,0,0,0-1.85,2.15c-.28.52-.19.65-.13.63s.09.2.32.71a11,11,0,0,0,3.39,4,11.76,11.76,0,0,0,1.24.81c.22.12.39.21.64.33s.51.25.78.37a22.3,22.3,0,0,0,3.52,1.18,50.77,50.77,0,0,0,9.06,1.23l5.46.3,5.64.27c7.57.32,15.28.74,23.15,1.37a199.91,199.91,0,0,1,23.93,3.41c4,.86,8.08,1.86,12.1,3.09a114.93,114.93,0,0,1,12,4.41,97,97,0,0,1,11.51,5.91l2.76,1.72,2.71,1.82c.9.61,1.77,1.27,2.65,1.91s1.83,1.35,3,2.39a24.18,24.18,0,0,1,3.92,4.25,19.87,19.87,0,0,1,1.82,3.14,19,19,0,0,1,1.26,3.76,18,18,0,0,1-.11,8.27,19.33,19.33,0,0,1-3,6.52,23.47,23.47,0,0,1-8.51,7.2,25.07,25.07,0,0,1-4.86,1.88c-.42.12-.87.22-1.31.32s-.69.13-1,.19c-.67.12-1.32.2-2,.29a52.5,52.5,0,0,1-14.34-.49,107.44,107.44,0,0,1-12.2-2.78c-7.63-2.1-14.64-4.53-21.17-5.79a35.55,35.55,0,0,0-9-.83,18.59,18.59,0,0,0-3.77.6c-.29.09-.58.17-.86.28s-.31.12-.36.09,0,0,.16-.17.19-.14.54-.44a7.43,7.43,0,0,0,1.36-1.57c.52-.87-.18.35-.69.89a7.39,7.39,0,0,1-1.19,1.1,6.68,6.68,0,0,1-.63.42c-.19.12-.29.16-.42.23l-.33.16-.26.12a2.53,2.53,0,0,0,.41-.29,3.35,3.35,0,0,0,.94-1.15c.25-.61.06-.59,0-.38a3,3,0,0,0-.16,1.06,10.38,10.38,0,0,0,.3,2s-.09,0-.23,0l-.28-.08c-.06,0,0,0,.06,0l.16.08.31.15,2.52,1.22,5.13,2.42L185,243l5.19,2.51,2.6,1.3c.39.2,1,.49,1.48.79a16.55,16.55,0,0,1,6.24,6.4,20.14,20.14,0,0,1,2.12,6.28,30.19,30.19,0,0,1,.35,6.15,45.52,45.52,0,0,1-.59,5.89l-2.4-.08a38.57,38.57,0,0,0-2.31-10.61,14.28,14.28,0,0,0-2.44-4.13,9.52,9.52,0,0,0-3.41-2.49c-.32-.14-.64-.27-1-.38l-1.13-.35-2.69-.84-5.44-1.65-11-3.33-5.5-1.73-2.78-.91-.35-.12-.17-.06-.27-.1a10.73,10.73,0,0,1-1.53-.75,12,12,0,0,1-2.4-1.87,15.46,15.46,0,0,1-2.87-4.08,18.75,18.75,0,0,1-1.48-4.2,17.56,17.56,0,0,1-.43-4.62,12.9,12.9,0,0,1,1.58-5.81,10.74,10.74,0,0,1,2.82-3.27c.33-.24.66-.47,1-.68.05,0,0,0,0-.06s0,0,0,0,0,0-.12,0a2.14,2.14,0,0,0-.34.21,5.58,5.58,0,0,0-.93.86c-.43.45-1.07,1.56-.5.59a8.5,8.5,0,0,1,1.6-1.83c.44-.37.59-.47.83-.64l.77-.53a9.08,9.08,0,0,1,.91-.55c.57-.33,1.15-.61,1.74-.9a31.89,31.89,0,0,1,7.22-2.37,51.53,51.53,0,0,1,13.74-.7c8.6.67,16.28,2.4,23.49,3.65,3.59.62,7.05,1.11,10.24,1.34a30.16,30.16,0,0,0,8.42-.4c.28-.07.57-.13.83-.21l.36-.1.07,0a3.1,3.1,0,0,0,.41-.29c.29-.2.41-.55.06-.19a3.39,3.39,0,0,0-.68,1.35,5.85,5.85,0,0,0-.1,2.61,5.35,5.35,0,0,0,.32,1.07,3.74,3.74,0,0,0,.36.7c.22.34.24.33,0,.15s-.8-.57-1.53-1-1.36-.9-2.06-1.32l-2.11-1.25-2.15-1.18a94.93,94.93,0,0,0-9-4.09c-3.1-1.2-6.28-2.29-9.55-3.21s-6.61-1.78-10-2.48c-6.84-1.37-13.93-2.48-21.22-3.26s-14.75-1.52-22.36-2.3l-5.74-.58c-1.92-.21-3.83-.4-5.91-.66a72.5,72.5,0,0,1-13.38-2.77,44.83,44.83,0,0,1-7.1-3c-.59-.3-1.16-.65-1.74-1s-1.22-.75-1.8-1.14a34.93,34.93,0,0,1-9-8.85,29.56,29.56,0,0,1-4-8.14,23.26,23.26,0,0,1-.85-10.54,22.47,22.47,0,0,1,4.19-9.82,29.46,29.46,0,0,1,6.07-6,50.12,50.12,0,0,1,6.07-3.89,53.48,53.48,0,0,1,13-4.9A64.85,64.85,0,0,1,139.71,141a95.26,95.26,0,0,1,24.69,2.77A162.3,162.3,0,0,1,187,151.13c7.25,2.83,14.28,5.87,21.33,8.68s14.09,5.45,21.25,7.58q5.37,1.56,10.81,2.67c3.6.71,7.11,1.16,9.84.52a5.73,5.73,0,0,0,3-1.69,3.65,3.65,0,0,0,1.06-2.57,3.16,3.16,0,0,0-.29-1.16,6.1,6.1,0,0,0-.9-1.35,22,22,0,0,0-3.6-3.1,100,100,0,0,0-18.78-11.17,110.19,110.19,0,0,0-20.36-6.91,154,154,0,0,0-21.17-3.13c-14.35-1.2-29.28-1.11-44.85-2.43a211.32,211.32,0,0,1-23.65-3.1c-2-.39-4-.81-6-1.28l-.76-.17c-.39-.09-.78-.19-1.17-.3-.77-.22-1.53-.49-2.32-.8a19.64,19.64,0,0,1-5.15-3,14.88,14.88,0,0,1-3-3.26,13.13,13.13,0,0,1-2.09-5.53,12.51,12.51,0,0,1-.11-1.56,12.21,12.21,0,0,1,.09-1.63,12.79,12.79,0,0,1,.73-3,14.36,14.36,0,0,1,2-3.62c.6-.79.87-1,1.24-1.49l1.08-1.22c.71-.83,1.49-1.59,2.25-2.37a75.53,75.53,0,0,1,10-8.35,72.26,72.26,0,0,1,11.26-6.36,69.91,69.91,0,0,1,49-3.11A71.08,71.08,0,0,1,199.18,97.6Z"/><path class="cls-3" d="M115,112.77a4.33,4.33,0,0,0-3.68,1.93,6.46,6.46,0,0,0-1,4.13,4.17,4.17,0,0,0,.4,1.65,2.74,2.74,0,0,0,5.16-1.27c0-1.21-.78-2.26-1.3-3.35s-.71-2.59.23-3.36"/><path class="cls-3" d="M157.08,89.6c-.68-1-2.1-.94-3.27-.8l-4.41.51c-5.18.6-10.65,1.32-14.75,4.55-.25.19-.51.5-.38.78a.71.71,0,0,0,.53.3c5.24,1.13,10.64-.77,15.51-3a16.42,16.42,0,0,1,6-1.92"/><path class="cls-3" d="M251.29,156.16a13.21,13.21,0,0,0-6.39-6,52,52,0,0,0-8.47-2.88A107.21,107.21,0,0,1,214.29,138c.42-1.33,2.3-1.26,3.65-.93l9.52,2.39a44.94,44.94,0,0,1,8.33,2.68c3.94,1.86,7.24,4.82,10.48,7.73,2.3,2.07,4.71,4.29,5.63,7.25"/><path class="cls-3" d="M117,153.69a13.39,13.39,0,0,0-10.89,5.51,20.35,20.35,0,0,0,1.41,24.69c3.23,3.35,8.24,5.12,12.73,3.88a54.28,54.28,0,0,1-11.8-16.09c-2.06-4.3-3.48-9.45.23-13.28,1.94-2,4.61-2.92,6.56-4.88"/><path class="cls-3" d="M221.55,195.45a60.56,60.56,0,0,0-15.38-6.69,30.63,30.63,0,0,0-16.61.08,1.53,1.53,0,0,0-1,.71c-.24.56.23,1.16.68,1.56,3.17,2.82,7.46,3.92,11.55,5.09a178.52,178.52,0,0,1,23.68,8.6,1.35,1.35,0,0,0,1,.16c.54-.22.55-1,.41-1.56-.92-3.85-3.9-6.83-6.75-9.58"/><path class="cls-3" d="M245.89,219.13c-1.66-2.37-4.86-5.66-7.69-2.75-1.38,1.42-1.82,3.48-2.58,5.31a15,15,0,0,1-6.3,7.19c-4.53,2.62-10.3,2.79-14.45,6a1.62,1.62,0,0,0-.67.84c-.14.61.39,1.16.93,1.48,2,1.22,4.57,1.06,6.89.64,7.63-1.4,25.82-9,21.31-19.63"/><path class="cls-3" d="M162.37,230.59a2.06,2.06,0,0,0-2.68-1.58,3.53,3.53,0,0,0-2.13,2.69c-.67,3,1.25,6,3.23,8.41a12.19,12.19,0,0,0,3.34,3.08,4.68,4.68,0,0,0,4.37.26,1.18,1.18,0,0,0,.63-.65,1.43,1.43,0,0,0-.37-1.14l-5-7.26c-1-1.42-2-3.32-1-4.73"/></svg>