<svg id="Layer_1" data-name="Layer 1" xmlns="http://www.w3.org/2000/svg" viewBox="0 0 350 350"><defs><style>.cls-1{fill:#576c3f;}.cls-2{fill:#abd251;}.cls-3{fill:#ecf7a9;}.cls-4{fill:#bac48c;}.cls-5{fill:#e4e6cc;}.cls-6{fill:#e2e3d2;}</style></defs><title>CucumberFull</title><ellipse class="cls-1" cx="138.17" cy="223.12" rx="59.09" ry="38.1"/><ellipse class="cls-2" cx="139.47" cy="218.17" rx="60.06" ry="33.15"/><ellipse class="cls-3" cx="138.58" cy="216.55" rx="50.58" ry="28.94"/><path class="cls-4" d="M136.11,197.76s-19-6-28.72-.54c0,0-2.29,10,7,20.15C114.36,217.37,133.9,220.24,136.11,197.76Z"/><path class="cls-4" d="M114.32,221.41s1.58,14.23,11.15,19.9c0,0,23.39-1.8,27.5-14.89C153,226.42,134.88,212,114.32,221.41Z"/><path class="cls-4" d="M153.15,223.8s29.51-8.18,27.57-19.14c0,0-27.61-10.29-40.22-4.87C140.5,199.8,132.65,214.32,153.15,223.8Z"/><path class="cls-5" d="M112.26,212.09a15,15,0,0,1-2.8-3.66,8.82,8.82,0,0,1-.83-2.34,7.39,7.39,0,0,1,0-2.67,6.66,6.66,0,0,1,1.06-2.65,5.73,5.73,0,0,1,2.39-2,8.12,8.12,0,0,1,2.77-.64c.86-.05,1.57,0,2.3,0a87.06,87.06,0,0,1,8.78.46,51.45,51.45,0,0,1,8.77,1.61,51.46,51.46,0,0,1-8.78,1.54,87.06,87.06,0,0,1-8.78.39,13.35,13.35,0,0,0-3.61.18,3.1,3.1,0,0,0-1.85,1.94,6.81,6.81,0,0,0-.33,3.62C111.48,209.19,111.94,210.6,112.26,212.09Z"/><path class="cls-5" d="M112.61,200.77a15.67,15.67,0,0,1,5.08,1.12,23.16,23.16,0,0,1,4.46,2.33,22.88,22.88,0,0,1,3.86,3.22,15.6,15.6,0,0,1,3,4.27,21.07,21.07,0,0,1-4.84-1.73,35.4,35.4,0,0,1-4.22-2.43,36.37,36.37,0,0,1-3.86-3A21.51,21.51,0,0,1,112.61,200.77Z"/><path class="cls-6" d="M146.46,202.32a20.09,20.09,0,0,1,7.81-.84,15.86,15.86,0,0,1,4,.93,10.36,10.36,0,0,1,3.86,2.41,5.31,5.31,0,0,1,.86,1.27,4.19,4.19,0,0,1,.39,1.71,5.18,5.18,0,0,1-.22,1.46c-.12.4-.21.66-.33,1-.43,1.18-.89,2.35-1.4,3.51a38.51,38.51,0,0,1-3.68,6.76,38.51,38.51,0,0,1,.67-7.66c.21-1.25.48-2.48.78-3.7l.2-.84a1,1,0,0,0,0-.4c0-.07,0-.09-.25-.37a9.47,9.47,0,0,0-2.43-1.65,25.24,25.24,0,0,0-3.15-1.34C151.4,203.75,149,203.21,146.46,202.32Z"/><path class="cls-6" d="M160.91,206.78a13.23,13.23,0,0,1-3.55,3.23,19.86,19.86,0,0,1-8.63,3,13.66,13.66,0,0,1-4.78-.31,17.48,17.48,0,0,1,3.88-2.71,28.4,28.4,0,0,1,4.08-1.76,29.87,29.87,0,0,1,4.29-1.13A18.77,18.77,0,0,1,160.91,206.78Z"/><path class="cls-6" d="M139.46,230.63a20.09,20.09,0,0,1-5.69,5.42,15.86,15.86,0,0,1-3.75,1.7,10.36,10.36,0,0,1-4.53.44,5.32,5.32,0,0,1-1.46-.48,4.19,4.19,0,0,1-1.36-1.12,5.18,5.18,0,0,1-.71-1.3c-.15-.39-.23-.66-.33-1-.37-1.2-.73-2.41-1-3.64a38.51,38.51,0,0,1-1.19-7.6,38.5,38.5,0,0,1,4.13,6.49c.59,1.12,1.12,2.26,1.63,3.41l.35.79a1,1,0,0,0,.22.33c.05,0,.07.07.42.14a9.47,9.47,0,0,0,2.93-.17,25.27,25.27,0,0,0,3.32-.86C134.67,232.5,136.94,231.44,139.46,230.63Z"/><path class="cls-6" d="M125.27,235.88a13.23,13.23,0,0,1,.85-4.72,19.86,19.86,0,0,1,5-7.62,13.66,13.66,0,0,1,4-2.67,17.47,17.47,0,0,1-1.43,4.51,28.4,28.4,0,0,1-2.17,3.87,29.85,29.85,0,0,1-2.71,3.5A18.77,18.77,0,0,1,125.27,235.88Z"/><ellipse class="cls-1" cx="153.17" cy="128.12" rx="59.09" ry="38.1"/><ellipse class="cls-2" cx="154.47" cy="123.17" rx="60.06" ry="33.15"/><ellipse class="cls-3" cx="153.58" cy="121.55" rx="50.58" ry="28.94"/><path class="cls-4" d="M151.11,102.76s-19-6-28.72-.54c0,0-2.29,10,7,20.15C129.36,122.37,148.9,125.24,151.11,102.76Z"/><path class="cls-4" d="M129.32,126.41s1.58,14.23,11.15,19.9c0,0,23.39-1.8,27.5-14.89C168,131.42,149.88,117,129.32,126.41Z"/><path class="cls-4" d="M168.15,128.8s29.51-8.18,27.57-19.14c0,0-27.61-10.29-40.22-4.87C155.5,104.8,147.65,119.32,168.15,128.8Z"/><path class="cls-5" d="M127.26,117.09a15,15,0,0,1-2.8-3.66,8.82,8.82,0,0,1-.83-2.34,7.39,7.39,0,0,1,0-2.67,6.66,6.66,0,0,1,1.06-2.65,5.73,5.73,0,0,1,2.39-2,8.12,8.12,0,0,1,2.77-.64c.86-.05,1.57,0,2.3,0a87.06,87.06,0,0,1,8.78.46,51.45,51.45,0,0,1,8.77,1.61,51.46,51.46,0,0,1-8.78,1.54,87.06,87.06,0,0,1-8.78.39,13.35,13.35,0,0,0-3.61.18,3.1,3.1,0,0,0-1.85,1.94,6.81,6.81,0,0,0-.33,3.62C126.48,114.19,126.94,115.6,127.26,117.09Z"/><path class="cls-5" d="M127.61,105.77a15.67,15.67,0,0,1,5.08,1.12,23.16,23.16,0,0,1,4.46,2.33,22.88,22.88,0,0,1,3.86,3.22,15.6,15.6,0,0,1,3,4.27,21.07,21.07,0,0,1-4.84-1.73,35.4,35.4,0,0,1-4.22-2.43,36.37,36.37,0,0,1-3.86-3A21.51,21.51,0,0,1,127.61,105.77Z"/><path class="cls-6" d="M161.46,107.32a20.09,20.09,0,0,1,7.81-.84,15.86,15.86,0,0,1,4,.93,10.36,10.36,0,0,1,3.86,2.41,5.31,5.31,0,0,1,.86,1.27,4.19,4.19,0,0,1,.39,1.71,5.18,5.18,0,0,1-.22,1.46c-.12.4-.21.66-.33,1-.43,1.18-.89,2.35-1.4,3.51a38.51,38.51,0,0,1-3.68,6.76,38.51,38.51,0,0,1,.67-7.66c.21-1.25.48-2.48.78-3.7l.2-.84a1,1,0,0,0,0-.4c0-.07,0-.09-.25-.37a9.47,9.47,0,0,0-2.43-1.65,25.24,25.24,0,0,0-3.15-1.34C166.4,108.75,164,108.21,161.46,107.32Z"/><path class="cls-6" d="M175.91,111.78a13.23,13.23,0,0,1-3.55,3.23,19.86,19.86,0,0,1-8.63,3,13.66,13.66,0,0,1-4.78-.31,17.48,17.48,0,0,1,3.88-2.71,28.4,28.4,0,0,1,4.08-1.76,29.87,29.87,0,0,1,4.29-1.13A18.77,18.77,0,0,1,175.91,111.78Z"/><path class="cls-6" d="M154.46,135.63a20.09,20.09,0,0,1-5.69,5.42,15.86,15.86,0,0,1-3.75,1.7,10.36,10.36,0,0,1-4.53.44,5.32,5.32,0,0,1-1.46-.48,4.19,4.19,0,0,1-1.36-1.12,5.18,5.18,0,0,1-.71-1.3c-.15-.39-.23-.66-.33-1-.37-1.2-.73-2.41-1-3.64a38.51,38.51,0,0,1-1.19-7.6,38.5,38.5,0,0,1,4.13,6.49c.59,1.12,1.12,2.26,1.63,3.41l.35.79a1,1,0,0,0,.22.33c.05,0,.07.07.42.14a9.47,9.47,0,0,0,2.93-.17,25.27,25.27,0,0,0,3.32-.86C149.67,137.5,151.94,136.44,154.46,135.63Z"/><path class="cls-6" d="M140.27,140.88a13.23,13.23,0,0,1,.85-4.72,19.86,19.86,0,0,1,5-7.62,13.66,13.66,0,0,1,4-2.67,17.47,17.47,0,0,1-1.43,4.51,28.4,28.4,0,0,1-2.17,3.87,29.85,29.85,0,0,1-2.71,3.5A18.77,18.77,0,0,1,140.27,140.88Z"/><ellipse class="cls-1" cx="232.17" cy="185.12" rx="59.09" ry="38.1"/><ellipse class="cls-2" cx="233.47" cy="180.17" rx="60.06" ry="33.15"/><ellipse class="cls-3" cx="232.58" cy="178.55" rx="50.58" ry="28.94"/><path class="cls-4" d="M230.11,159.76s-19-6-28.72-.54c0,0-2.29,10,7,20.15C208.36,179.37,227.9,182.24,230.11,159.76Z"/><path class="cls-4" d="M208.32,183.41s1.58,14.23,11.15,19.9c0,0,23.39-1.8,27.5-14.89C247,188.42,228.88,174,208.32,183.41Z"/><path class="cls-4" d="M247.15,185.8s29.51-8.18,27.57-19.14c0,0-27.61-10.29-40.22-4.87C234.5,161.8,226.65,176.32,247.15,185.8Z"/><path class="cls-5" d="M206.26,174.09a15,15,0,0,1-2.8-3.66,8.82,8.82,0,0,1-.83-2.34,7.39,7.39,0,0,1,0-2.67,6.66,6.66,0,0,1,1.06-2.65,5.73,5.73,0,0,1,2.39-2,8.12,8.12,0,0,1,2.77-.64c.86-.05,1.57,0,2.3,0a87.06,87.06,0,0,1,8.78.46,51.45,51.45,0,0,1,8.77,1.61,51.46,51.46,0,0,1-8.78,1.54,87.06,87.06,0,0,1-8.78.39,13.35,13.35,0,0,0-3.61.18,3.1,3.1,0,0,0-1.85,1.94,6.81,6.81,0,0,0-.33,3.62C205.48,171.19,205.94,172.6,206.26,174.09Z"/><path class="cls-5" d="M206.61,162.77a15.67,15.67,0,0,1,5.08,1.12,23.16,23.16,0,0,1,4.46,2.33,22.88,22.88,0,0,1,3.86,3.22,15.6,15.6,0,0,1,3,4.27,21.07,21.07,0,0,1-4.84-1.73,35.4,35.4,0,0,1-4.22-2.43,36.37,36.37,0,0,1-3.86-3A21.51,21.51,0,0,1,206.61,162.77Z"/><path class="cls-6" d="M240.46,164.32a20.09,20.09,0,0,1,7.81-.84,15.86,15.86,0,0,1,4,.93,10.36,10.36,0,0,1,3.86,2.41,5.31,5.31,0,0,1,.86,1.27,4.19,4.19,0,0,1,.39,1.71,5.18,5.18,0,0,1-.22,1.46c-.12.4-.21.66-.33,1-.43,1.18-.89,2.35-1.4,3.51a38.51,38.51,0,0,1-3.68,6.76,38.51,38.51,0,0,1,.67-7.66c.21-1.25.48-2.48.78-3.7l.2-.84a1,1,0,0,0,0-.4c0-.07,0-.09-.25-.37a9.47,9.47,0,0,0-2.43-1.65,25.24,25.24,0,0,0-3.15-1.34C245.4,165.75,243,165.21,240.46,164.32Z"/><path class="cls-6" d="M254.91,168.78a13.23,13.23,0,0,1-3.55,3.23,19.86,19.86,0,0,1-8.63,3,13.66,13.66,0,0,1-4.78-.31,17.48,17.48,0,0,1,3.88-2.71,28.4,28.4,0,0,1,4.08-1.76,29.87,29.87,0,0,1,4.29-1.13A18.77,18.77,0,0,1,254.91,168.78Z"/><path class="cls-6" d="M233.46,192.63a20.09,20.09,0,0,1-5.69,5.42,15.86,15.86,0,0,1-3.75,1.7,10.36,10.36,0,0,1-4.53.44,5.32,5.32,0,0,1-1.46-.48,4.19,4.19,0,0,1-1.36-1.12,5.18,5.18,0,0,1-.71-1.3c-.15-.39-.23-.66-.33-1-.37-1.2-.73-2.41-1-3.64a38.51,38.51,0,0,1-1.19-7.6,38.5,38.5,0,0,1,4.13,6.49c.59,1.12,1.12,2.26,1.63,3.41l.35.79a1,1,0,0,0,.22.33c.05,0,.07.07.42.14a9.47,9.47,0,0,0,2.93-.17,25.27,25.27,0,0,0,3.32-.86C228.67,194.5,230.94,193.44,233.46,192.63Z"/><path class="cls-6" d="M219.27,197.88a13.23,13.23,0,0,1,.85-4.72,19.86,19.86,0,0,1,5-7.62,13.66,13.66,0,0,1,4-2.67,17.47,17.47,0,0,1-1.43,4.51,28.4,28.4,0,0,1-2.17,3.87,29.85,29.85,0,0,1-2.71,3.5A18.77,18.77,0,0,1,219.27,197.88Z"/></svg>