<svg id="Layer_1" data-name="Layer 1" xmlns="http://www.w3.org/2000/svg" viewBox="0 0 350 350"><defs><style>.cls-1{fill:#576c3f;}.cls-2{fill:#abd251;}.cls-3{fill:#ecf7a9;}.cls-4{fill:#bac48c;}.cls-5{fill:#e4e6cc;}.cls-6{fill:#e2e3d2;}</style></defs><title>Cucumber</title><ellipse class="cls-1" cx="172.61" cy="179.05" rx="124.24" ry="80.1"/><ellipse class="cls-2" cx="175.34" cy="168.66" rx="126.28" ry="69.7"/><ellipse class="cls-3" cx="173.47" cy="165.25" rx="106.34" ry="60.84"/><path class="cls-4" d="M168.28,125.74s-40-12.55-60.39-1.13c0,0-4.82,21.08,14.66,42.36C122.56,167,163.63,173,168.28,125.74Z"/><path class="cls-4" d="M122.47,175.47s3.33,29.92,23.45,41.84c0,0,49.18-3.78,57.81-31.31C203.73,186,165.69,155.77,122.47,175.47Z"/><path class="cls-4" d="M204.11,180.48s62-17.2,58-40.23c0,0-58.06-21.64-84.56-10.23C177.52,130,161,160.56,204.11,180.48Z"/><path class="cls-5" d="M118.14,155.87a38.87,38.87,0,0,1-4.87-8,19.9,19.9,0,0,1-1.32-4.71,14.55,14.55,0,0,1,.19-5.07,12.55,12.55,0,0,1,2.07-4.82,10.12,10.12,0,0,1,4.27-3.48,15.11,15.11,0,0,1,5.13-1.1c1.66-.09,3.18,0,4.72-.06,6.15,0,12.3.17,18.45.51s12.3.77,18.45,1.63c-6.16.81-12.31,1.22-18.46,1.49s-12.31.39-18.46.37c-3.11,0-6.11-.22-8.39.66s-3.94,3-4.78,5.58a15.25,15.25,0,0,0,0,8.38A69.07,69.07,0,0,0,118.14,155.87Z"/><path class="cls-5" d="M118.87,132.07a54.89,54.89,0,0,1,9.79,3.83A82.86,82.86,0,0,1,146,147.48a54.87,54.87,0,0,1,7.29,7.58,99.86,99.86,0,0,1-9.15-5q-4.41-2.69-8.67-5.55c-2.85-1.91-5.66-3.86-8.44-5.89A103.44,103.44,0,0,1,118.87,132.07Z"/><path class="cls-6" d="M190,135.32a56.5,56.5,0,0,1,16.06-.08,36,36,0,0,1,8,2.19,21.14,21.14,0,0,1,7.32,4.64,9,9,0,0,1,1.45,2.12,6.64,6.64,0,0,1,.63,2.72,9,9,0,0,1-.37,2.49c-.21.73-.41,1.33-.62,2-.83,2.5-1.69,5-2.59,7.48-1.83,5-3.75,9.89-6.07,14.7.72-5.29,1.84-10.47,3.06-15.61.61-2.57,1.28-5.12,2-7.67.16-.64.37-1.29.5-1.84a5.08,5.08,0,0,0,.17-1.42,3.39,3.39,0,0,0-1.08-2.22,20.23,20.23,0,0,0-5.89-3.88,44.47,44.47,0,0,0-7.1-2.59C200.52,136.92,195.29,136.29,190,135.32Z"/><path class="cls-6" d="M220.43,144.7a45.09,45.09,0,0,1-8.1,5.18,68.88,68.88,0,0,1-8.79,3.72,70.49,70.49,0,0,1-9.2,2.5,48.07,48.07,0,0,1-9.56,1,77.37,77.37,0,0,1,8.66-4c2.92-1.17,5.84-2.25,8.8-3.27s5.92-2,8.93-2.85A90,90,0,0,1,220.43,144.7Z"/><path class="cls-6" d="M175.32,194.84a56.5,56.5,0,0,1-12.7,9.84,36,36,0,0,1-7.65,3.11,21.14,21.14,0,0,1-8.64.77,9,9,0,0,1-2.44-.8,6.64,6.64,0,0,1-2.15-1.77,9,9,0,0,1-1.22-2.2c-.28-.71-.48-1.3-.7-1.93-.86-2.49-1.71-5-2.5-7.52-1.57-5-3-10.13-4.13-15.36,2.65,4.64,4.91,9.43,7.07,14.25,1.08,2.41,2.1,4.85,3.1,7.29.26.6.5,1.25.72,1.76a5.08,5.08,0,0,0,.73,1.23,3.39,3.39,0,0,0,2.21,1.11,20.23,20.23,0,0,0,7-.51,44.47,44.47,0,0,0,7.21-2.26C166,199.95,170.56,197.27,175.32,194.84Z"/><path class="cls-6" d="M145.49,205.88a45.09,45.09,0,0,1,3.28-9,68.88,68.88,0,0,1,4.71-8.3,70.49,70.49,0,0,1,5.78-7.58,48.07,48.07,0,0,1,7-6.62,77.37,77.37,0,0,1-4.42,8.47c-1.6,2.71-3.27,5.35-5,7.95s-3.5,5.16-5.35,7.7A90,90,0,0,1,145.49,205.88Z"/></svg>