<svg id="Layer_1" data-name="Layer 1" xmlns="http://www.w3.org/2000/svg" viewBox="0 0 350 350"><defs><style>.cls-1{fill:#f8f8fa;}.cls-2{fill:#629734;}.cls-3{fill:#79ca57;}.cls-4{fill:#c3d478;}.cls-5{fill:#e0e8b0;}</style></defs><title>GreenPepper</title><ellipse class="cls-1" cx="105.51" cy="231.14" rx="2.07" ry="5.79" transform="translate(-146.11 266.45) rotate(-73.45)"/><ellipse class="cls-1" cx="116.95" cy="234.45" rx="2.62" ry="1.24" transform="translate(-89.47 73.1) rotate(-25.48)"/><path class="cls-2" d="M314.69,161.17c-1-2.58-3.19-4.44-5.32-6.18-12.82-10.43-26-21.06-41.57-26.56-8.62-3-17.72-4.41-26.75-5.77-17.19-2.58-34.49-5.16-51.85-4.92-20.3-5.64-41.06-10.06-62.12-10.69-21.23-.64-42.85,2.72-61.92,12.06-6.55,3.21-12.85,7.17-17.66,12.66-9.06,10.33-11.75,24.72-12.72,38.43a10.62,10.62,0,0,0,.47,5c.94,2.16,3.13,3.46,5.2,4.59,12.21,6.67,25,12.89,34.82,22.75,7.16,7.2,12.64,16.25,21.13,21.83,5.34,3.51,11.55,5.42,17.66,7.28,7.39,2.25,14.8,4.51,22.37,6.08,10.76,2.23,21.75,3.06,32.71,3.69q30.78,1.78,61.63,1.58c7.86,0,15.83-.21,23.39-2.39s14.76-6.63,18.65-13.46c3.38-5.94,4.26-13.56,9.48-18,7.12-6,18.9-3.1,26-9.1,5.42-4.57,6.12-12.52,6.41-19.61l.54-13.19A15.64,15.64,0,0,0,314.69,161.17ZM245,179.61a287.55,287.55,0,0,1-29.6-2.44c-3.76-.51-8.15-.89-10.81,1.82s-2,7.88.67,10.87,6.57,4.46,10.33,5.82l18.07,6.53c-2,2.36-5.22,3.25-8.26,3.84-12.3,2.42-25,2.09-37.49,1.76-7.06-.19-14.13-.37-21.15-1.15a128.13,128.13,0,0,1-46.46-14.42c4.73-5.41,14.63-2.33,19.77-7.34,2.59-2.52,3.2-6.41,3.42-10a5,5,0,0,0-.29-2.49c-.71-1.47-2.57-1.89-4.19-2.1-10.2-1.3-20.54-.69-30.8-1.31s-20.8-2.6-29.27-8.44c-2.85-2-5.67-5.34-4.31-8.52.75-1.74,2.54-2.76,4.21-3.66,9.64-5.16,19.52-10.41,30.34-12,6.11-.91,12.33-.63,18.5-.35l15,.69c4.55.21,9.21.44,13.39,2.25s7.84,5.54,8.2,10.08c.28,3.49-1,7.87,1.82,9.88,3.05,2.15,7.05-1.12,10.8-1.07,8-8.69,19.92-13.24,31.74-13.85s23.85,2.52,34.84,7.25a87.6,87.6,0,0,1,18.23,10.33,68.21,68.21,0,0,1,10.39,9.7C266.1,179,254.84,179.91,245,179.61Z"/><path class="cls-3" d="M314.63,157.8c-1-2.18-3.19-3.75-5.32-5.22-12.82-8.81-26-17.78-41.56-22.43-8.61-2.57-17.71-3.72-26.74-4.87-17.18-2.18-34.48-4.36-51.84-4.16-20.29-4.76-41.05-8.5-62.1-9-21.22-.54-42.84,2.29-61.9,10.18C58.62,125,52.31,128.34,47.51,133c-9.05,8.73-11.75,20.88-12.72,32.45a7.66,7.66,0,0,0,.47,4.22c.94,1.83,3.13,2.92,5.2,3.87,12.21,5.64,25,10.88,34.81,19.22,7.16,6.08,12.63,13.73,21.12,18.44,5.34,3,11.55,4.58,17.66,6.15,7.39,1.9,14.8,3.81,22.37,5.14,10.75,1.88,21.74,2.58,32.71,3.12q30.77,1.5,61.61,1.34c7.86,0,15.83-.18,23.38-2s14.76-5.6,18.64-11.37c3.37-5,4.25-11.45,9.48-15.17,7.12-5.06,18.89-2.62,26-7.68,5.42-3.86,6.12-10.58,6.41-16.56L315.2,163A11.25,11.25,0,0,0,314.63,157.8ZM245,179.61a287.55,287.55,0,0,1-29.6-2.44c-3.76-.51-8.15-.89-10.81,1.82s-2,7.88.67,10.87,6.57,4.46,10.33,5.82l18.07,6.53c-2,2.36-5.22,3.25-8.26,3.84-12.3,2.42-25,2.09-37.49,1.76-7.06-.19-14.13-.37-21.15-1.15a128.13,128.13,0,0,1-46.46-14.42c4.73-5.41,14.63-2.33,19.77-7.34,2.59-2.52,3.2-6.41,3.42-10a5,5,0,0,0-.29-2.49c-.71-1.47-2.57-1.89-4.19-2.1-10.2-1.3-20.54-.69-30.8-1.31s-20.8-2.6-29.27-8.44c-2.85-2-5.67-5.34-4.31-8.52.75-1.74,2.54-2.76,4.21-3.66,9.64-5.16,19.52-10.41,30.34-12,6.11-.91,12.33-.63,18.5-.35l15,.69c4.55.21,9.21.44,13.39,2.25s7.84,5.54,8.2,10.08c.28,3.49-1,7.87,1.82,9.88,3.05,2.15,7.05-1.12,10.8-1.07,8-8.69,19.92-13.24,31.74-13.85s23.85,2.52,34.84,7.25a87.6,87.6,0,0,1,18.23,10.33,68.21,68.21,0,0,1,10.39,9.7C266.1,179,254.84,179.91,245,179.61Z"/><path class="cls-4" d="M289.42,160.13c-16.07-14.56-37.13-22.66-58.46-26.59-17.69-3.26-37.45-3.37-52.08,6.86a22.54,22.54,0,0,0-6-9.28c-4.46-5.73-11.58-9.47-18.87-9.14l.74.57c-6.19-1.12-12.62-1.15-18.95-1.14-13.35,0-26.78.16-39.89,2.68a73.65,73.65,0,0,0-15.4,4.55c-6.43,2.79-12.26,6.77-18,10.72-2.65,1.81-5.53,4-6,7.16a9.25,9.25,0,0,0,.56,4.08c2.57,7.82,9.2,13.77,16.61,17.36s15.6,5.13,23.69,6.64L120.86,179c-3.95,5.49-12.54,8.3-12.71,15.06-.13,5.52,5.7,9.06,10.83,11.1,29.1,11.6,61.21,14,92.44,11.51,12.41-1,25.15-2.82,35.87-9.16,1.88-1.11,3.79-2.48,4.57-4.52,1.67-4.37-2.52-8.61-6.26-11.43a28.64,28.64,0,0,0-7-4.19q10.81.86,21.67.68a42.23,42.23,0,0,0,11.6-1.38c6.7-2,12.08-6.94,17.22-11.7,2.26-2.1,4.7-4.58,4.67-7.66C293.74,164.42,291.55,162.06,289.42,160.13Zm-111-19.37c-.36.26-.71.51-1.06.78-.08-.63-.2-1.25-.34-1.86ZM245,179.61a287.55,287.55,0,0,1-29.6-2.44c-3.76-.51-8.15-.89-10.81,1.82s-2,7.88.67,10.87,6.57,4.46,10.33,5.82l18.07,6.53c-2,2.36-5.22,3.25-8.26,3.84-12.3,2.42-25,2.09-37.49,1.76-7.06-.19-14.13-.37-21.15-1.15a128.13,128.13,0,0,1-46.46-14.42c4.73-5.41,14.63-2.33,19.77-7.34,2.59-2.52,3.2-6.41,3.42-10a5,5,0,0,0-.29-2.49c-.71-1.47-2.57-1.89-4.19-2.1-10.2-1.3-20.54-.69-30.8-1.31s-20.8-2.6-29.27-8.44c-2.85-2-5.67-5.34-4.31-8.52.75-1.74,2.54-2.76,4.21-3.66,9.64-5.16,19.52-10.41,30.34-12,6.11-.91,12.33-.63,18.5-.35l15,.69c4.55.21,9.21.44,13.39,2.25s7.84,5.54,8.2,10.08c.28,3.49-1,7.87,1.82,9.88,3.05,2.15,7.05-1.12,10.8-1.07,8-8.69,19.92-13.24,31.74-13.85s23.85,2.52,34.84,7.25a87.6,87.6,0,0,1,18.23,10.33,68.21,68.21,0,0,1,10.39,9.7C266.1,179,254.84,179.91,245,179.61Z"/><path class="cls-5" d="M245,179.61a287.55,287.55,0,0,1-29.6-2.44c-3.76-.51-8.15-.89-10.81,1.82s-2,7.88.67,10.87,6.57,4.46,10.33,5.82L230.22,201q2.07-.83,4.08-1.84c2.57-1.3,5.37-3.45,5.1-6.32a6.61,6.61,0,0,0-1.58-3.32,20.91,20.91,0,0,0-13-7.66c8.25,1.09,16.61,2,24.84.8,7.09-1,14.15-3.67,19.49-8.35C262.78,179.25,253.38,179.86,245,179.61Z"/><path class="cls-5" d="M271.34,160.46c-8.4-8.07-19.5-12.67-30.54-16.35-10.13-3.38-20.56-6.15-31.22-6.78-11.15-.66-22.91,1.1-32.6,6.9-3.3-9.81-13.62-13.58-23.15-14.83-2.06-.27-4.17-.48-6.29-.63a24.72,24.72,0,0,0-4.75-.35l.21.1a183.75,183.75,0,0,0-27.05,1.2c-12.78,1.44-25.53,5-36.26,12.1-2.76,1.82-5.54,4.11-6.35,7.31-1.1,4.35,1.82,8.71,5.2,11.66,12.92,11.28,32,10.63,48.61,14.84-2.53,4.82-10.09,6.66-10.28,12.1-.14,4.07,4.13,6.72,7.9,8.28a129,129,0,0,0,21.44,6.66,128,128,0,0,1-25.87-10.41c4.73-5.41,14.63-2.33,19.77-7.34,2.59-2.52,3.2-6.41,3.42-10a5,5,0,0,0-.29-2.49c-.71-1.47-2.57-1.89-4.19-2.1-10.2-1.3-20.54-.69-30.8-1.31s-20.8-2.6-29.27-8.44c-2.85-2-5.67-5.34-4.31-8.52.75-1.74,2.54-2.76,4.21-3.66,9.64-5.16,19.52-10.41,30.34-12,6.11-.91,12.33-.63,18.5-.35l15,.69c4.55.21,9.21.44,13.39,2.25s7.84,5.54,8.2,10.08c.28,3.49-1,7.87,1.82,9.88,3.05,2.15,7.05-1.12,10.8-1.07,8-8.69,19.92-13.24,31.74-13.85s23.85,2.52,34.84,7.25a87.6,87.6,0,0,1,18.23,10.33,68.22,68.22,0,0,1,10.35,9.66l.15-.17c1.24-1.51,2.35-3.32,2.24-5.27C274.37,163.67,272.86,161.92,271.34,160.46Zm-95.63-16.1.59.28-.41.25C175.84,144.71,175.77,144.53,175.71,144.36Z"/><ellipse class="cls-1" cx="106.21" cy="222.43" rx="2.05" ry="5.73" transform="translate(-137.26 260.89) rotate(-73.45)"/></svg>