<svg id="Layer_1" data-name="Layer 1" xmlns="http://www.w3.org/2000/svg" viewBox="0 0 350 350"><defs><style>.cls-1{fill:#526417;}.cls-2{fill:#798720;}.cls-3{fill:#8ca026;}.cls-4{fill:#b4c730;}.cls-5{fill:#526217;}.cls-6{fill:#e1ec8f;}.cls-7{fill:#fcf8ef;}.cls-8{fill:#eef0bf;}.cls-9{fill:#cfd663;}</style></defs><title>Pepper</title><ellipse class="cls-1" cx="172.88" cy="182.59" rx="69.21" ry="109.84" transform="translate(-52.94 293.2) rotate(-72.66)"/><ellipse class="cls-2" cx="177.12" cy="167.41" rx="69.21" ry="109.84" transform="translate(-35.47 286.59) rotate(-72.66)"/><ellipse class="cls-3" cx="176.69" cy="164.48" rx="65.54" ry="104.01" transform="translate(-27.93 292.54) rotate(-74.99)"/><ellipse class="cls-4" cx="179.66" cy="158.48" rx="50.21" ry="86.58" transform="translate(-19.94 290.96) rotate(-74.99)"/><ellipse class="cls-5" cx="178.26" cy="153.62" rx="43.18" ry="72.63" transform="translate(-16.29 286.01) rotate(-74.99)"/><path class="cls-6" d="M147.94,134s-13.71-4.82-13.71-5.56,2.59-7.78-2.22-8.53-27.43,8.53-22.24,11.86,11.12,1.85,13,2.22,13.71,6.3,13.71,6.3-5.19,14.83,26.69,35.21c0,0,4.45,8.15-2.22,8.53s-10.94,2.72-5.84,4.51,32.9,5.5,30.67-.06c0,0-7-2.59-7.41-4.08a41,41,0,0,1-.37-5.93s46.71-14.09,46-27.43l14.46-.74s3.34,4.45,5.93,5.19,5.93-8.15,0-14.09-11.49-5.19-11.49-3.34v4.82s-10,2.59-10.75,2.59S179.45,125.06,147.94,134Z"/><ellipse class="cls-7" cx="197.61" cy="185.67" rx="3.34" ry="6.86" transform="translate(-71.75 154.56) rotate(-36.63)"/><ellipse class="cls-7" cx="147.2" cy="174.55" rx="3.34" ry="6.86" transform="translate(-75.07 122.29) rotate(-36.63)"/><ellipse class="cls-7" cx="152.76" cy="119.69" rx="3.34" ry="6.86" transform="translate(-41.24 114.77) rotate(-36.63)"/><ellipse class="cls-7" cx="213.55" cy="182.7" rx="3.34" ry="6.86" transform="translate(-57.29 257.73) rotate(-56.03)"/><ellipse class="cls-7" cx="203.54" cy="125.99" rx="6.86" ry="3.34" transform="translate(-14.67 224.4) rotate(-56.03)"/><ellipse class="cls-7" cx="233.57" cy="160.83" rx="6.86" ry="3.34" transform="translate(-26.46 47.67) rotate(-11.03)"/><ellipse class="cls-7" cx="132.92" cy="167.33" rx="6.86" ry="3.34" transform="translate(-69.12 97.72) rotate(-32.53)"/><ellipse class="cls-7" cx="128.38" cy="157.66" rx="6.86" ry="3.34" transform="translate(-27.8 27.48) rotate(-11.03)"/><path class="cls-8" d="M147.2,142.48s34.1-11.49,66.35,6.3a56.34,56.34,0,0,1-40.77,22.61S153.87,165.46,147.2,142.48Z"/><ellipse class="cls-9" cx="160.63" cy="146.91" rx="4.29" ry="2.09" transform="translate(-25.15 33.45) rotate(-11.03)"/><ellipse class="cls-9" cx="175.46" cy="163.97" rx="4.29" ry="2.09" transform="translate(-28.13 36.61) rotate(-11.03)"/><ellipse class="cls-9" cx="194.36" cy="150.99" rx="2.09" ry="4.29" transform="translate(-39.46 227.82) rotate(-56.03)"/></svg>