<svg id="Layer_1" data-name="Layer 1" xmlns="http://www.w3.org/2000/svg" viewBox="0 0 350 350"><defs><style>.cls-1{fill:#526417;}.cls-2{fill:#798720;}.cls-3{fill:#8ca026;}.cls-4{fill:#b4c730;}.cls-5{fill:#526217;}.cls-6{fill:#e1ec8f;}.cls-7{fill:#fcf8ef;}.cls-8{fill:#eef0bf;}.cls-9{fill:#cfd663;}</style></defs><title>PepperFull</title><ellipse class="cls-1" cx="164.2" cy="221.05" rx="40.22" ry="63.83" transform="translate(-95.74 311.91) rotate(-72.66)"/><ellipse class="cls-2" cx="166.66" cy="212.22" rx="40.22" ry="63.83" transform="translate(-85.59 308.06) rotate(-72.66)"/><ellipse class="cls-3" cx="166.41" cy="210.52" rx="38.09" ry="60.44" transform="translate(-80.02 316.74) rotate(-74.99)"/><ellipse class="cls-4" cx="168.14" cy="207.04" rx="29.18" ry="50.32" transform="translate(-75.38 315.82) rotate(-74.99)"/><ellipse class="cls-5" cx="167.32" cy="204.21" rx="25.09" ry="42.21" transform="translate(-73.26 312.94) rotate(-74.99)"/><path class="cls-6" d="M149.7,192.78s-8-2.8-8-3.23,1.51-4.52-1.29-5-15.94,5-12.93,6.89,6.46,1.08,7.54,1.29,8,3.66,8,3.66-3,8.62,15.51,20.46c0,0,2.59,4.74-1.29,5s-6.36,1.58-3.39,2.62,19.12,3.2,17.83,0c0,0-4.09-1.51-4.31-2.37a23.8,23.8,0,0,1-.22-3.45s27.14-8.19,26.71-15.94l8.4-.43s1.94,2.59,3.45,3,3.45-4.74,0-8.19-6.68-3-6.68-1.94V198s-5.82,1.51-6.25,1.51S168,187.61,149.7,192.78Z"/><ellipse class="cls-7" cx="178.57" cy="222.83" rx="1.94" ry="3.99" transform="translate(-97.68 150.54) rotate(-36.63)"/><ellipse class="cls-7" cx="149.27" cy="216.37" rx="1.94" ry="3.99" transform="matrix(0.8, -0.6, 0.6, 0.8, -99.61, 131.79)"/><ellipse class="cls-7" cx="152.5" cy="184.49" rx="1.94" ry="3.99" transform="translate(-79.95 127.42) rotate(-36.63)"/><ellipse class="cls-7" cx="187.83" cy="221.11" rx="1.94" ry="3.99" transform="translate(-100.49 253.35) rotate(-56.03)"/><ellipse class="cls-7" cx="182.02" cy="188.15" rx="3.99" ry="1.94" transform="translate(-75.72 233.98) rotate(-56.03)"/><ellipse class="cls-7" cx="199.47" cy="208.4" rx="3.99" ry="1.94" transform="translate(-36.19 42.02) rotate(-11.03)"/><ellipse class="cls-7" cx="140.98" cy="212.18" rx="3.99" ry="1.94" transform="translate(-91.97 109.08) rotate(-32.53)"/><ellipse class="cls-7" cx="138.34" cy="206.56" rx="3.99" ry="1.94" transform="translate(-36.97 30.29) rotate(-11.03)"/><path class="cls-8" d="M149.27,197.74s19.82-6.68,38.56,3.66a32.74,32.74,0,0,1-23.7,13.14S153.15,211.09,149.27,197.74Z"/><ellipse class="cls-9" cx="157.08" cy="200.31" rx="2.49" ry="1.21" transform="translate(-35.43 33.76) rotate(-11.03)"/><ellipse class="cls-9" cx="165.7" cy="210.22" rx="2.49" ry="1.21" transform="translate(-37.17 35.59) rotate(-11.03)"/><ellipse class="cls-9" cx="176.68" cy="202.68" rx="1.21" ry="2.49" transform="translate(-90.13 235.97) rotate(-56.03)"/><path class="cls-1" d="M106.33,141.07c5.28,21.21,31.31,29.88,58.14,19.37s44.3-36.22,39-57.42-31.31-29.88-58.14-19.37S101.05,119.87,106.33,141.07Z"/><path class="cls-2" d="M104.37,132.25c5.28,21.21,31.31,29.88,58.14,19.37s44.3-36.22,39-57.42-31.31-29.88-58.14-19.37S99.09,111,104.37,132.25Z"/><path class="cls-3" d="M106.6,127.17c4.34,20.32,28.7,29.78,54.41,21.13s43-32.12,38.68-52.44S171,66.09,145.28,74.73,102.26,106.86,106.6,127.17Z"/><path class="cls-4" d="M113,121.07c3.33,15.56,23.37,22.35,44.77,15.15s36-25.65,32.72-41.21-23.37-22.35-44.77-15.15S109.7,105.5,113,121.07Z"/><path class="cls-5" d="M119.92,116.15c2.86,13.39,19.73,19.34,37.68,13.31s30.18-21.78,27.32-35.17S165.19,74.94,147.24,81,117.05,102.76,119.92,116.15Z"/><path class="cls-6" d="M166.47,93.78s6.35-2.8,6.35-3.23-1.2-4.52,1-5,12.71,5,10.3,6.89-5.15,1.08-6,1.29-6.35,3.66-6.35,3.66,2.4,8.62-12.37,20.46c0,0-2.06,4.74,1,5s5.07,1.58,2.7,2.62-15.24,3.2-14.21,0c0,0,3.26-1.51,3.43-2.37a29.78,29.78,0,0,0,.17-3.45s-21.64-8.19-21.3-15.94l-6.7-.43s-1.55,2.59-2.75,3-2.75-4.74,0-8.19,5.32-3,5.32-1.94V99s4.64,1.51,5,1.51S151.87,88.61,166.47,93.78Z"/><path class="cls-7" d="M142.21,122.68c-1,1.77-1.34,3.72-.66,4.35s2.09-.28,3.14-2,1.34-3.72.66-4.35S143.26,120.91,142.21,122.68Z"/><path class="cls-7" d="M165.57,116.22c-1,1.77-1.34,3.72-.66,4.35s2.09-.28,3.14-2,1.34-3.72.66-4.35S166.62,114.45,165.57,116.22Z"/><path class="cls-7" d="M163,84.33c-1,1.77-1.34,3.72-.66,4.35s2.09-.28,3.14-2,1.34-3.72.66-4.35S164,82.57,163,84.33Z"/><path class="cls-7" d="M135.2,120.5c-1.46,1.23-2.25,2.95-1.77,3.83s2,.61,3.5-.62,2.25-2.95,1.77-3.83S136.66,119.27,135.2,120.5Z"/><path class="cls-7" d="M139.42,90.24c1,1.83,2.35,2.82,3.06,2.22s.49-2.56-.49-4.39-2.35-2.82-3.06-2.22S138.44,88.41,139.42,90.24Z"/><path class="cls-7" d="M126.5,111.3c1.72.42,3.25-.09,3.41-1.14s-1.1-2.24-2.82-2.67-3.25.09-3.41,1.14S124.78,110.88,126.5,111.3Z"/><path class="cls-7" d="M174.25,111.54c-1.48-1.18-3.05-1.41-3.51-.51s.37,2.59,1.85,3.78,3.05,1.41,3.51.51S175.73,112.72,174.25,111.54Z"/><path class="cls-7" d="M175.82,105.66c-1.72-.42-3.25.09-3.41,1.14s1.1,2.24,2.82,2.67,3.25-.09,3.41-1.14S177.55,106.08,175.82,105.66Z"/><path class="cls-8" d="M166.81,98.74s-15.8-6.68-30.74,3.66c0,0,6.18,11.85,18.89,13.14C155,115.54,163.72,112.09,166.81,98.74Z"/><path class="cls-9" d="M160.77,100.12c-1.08-.26-2,.06-2.13.71s.69,1.4,1.76,1.67,2-.06,2.13-.71S161.85,100.39,160.77,100.12Z"/><path class="cls-9" d="M153.9,110c-1.08-.26-2,.06-2.13.71s.69,1.4,1.76,1.67,2-.06,2.13-.71S155,110.3,153.9,110Z"/><path class="cls-9" d="M145.5,104.69c.91-.77,1.41-1.84,1.11-2.4s-1.28-.38-2.19.39-1.41,1.84-1.11,2.4S144.59,105.46,145.5,104.69Z"/><path class="cls-1" d="M176.62,190.07c5.28,21.21,31.31,29.88,58.14,19.37s44.3-36.22,39-57.42-31.31-29.88-58.14-19.37S171.34,168.87,176.62,190.07Z"/><path class="cls-2" d="M174.66,181.25c5.28,21.21,31.31,29.88,58.14,19.37s44.3-36.22,39-57.42-31.31-29.88-58.14-19.37S169.38,160,174.66,181.25Z"/><path class="cls-3" d="M176.89,176.17c4.34,20.32,28.7,29.78,54.41,21.13s43-32.12,38.68-52.44-28.7-29.78-54.41-21.13S172.55,155.86,176.89,176.17Z"/><path class="cls-4" d="M183.32,170.07c3.33,15.56,23.37,22.35,44.77,15.15s36-25.65,32.72-41.21S237.44,121.66,216,128.85,180,154.5,183.32,170.07Z"/><path class="cls-5" d="M190.21,165.15c2.86,13.39,19.73,19.34,37.68,13.31s30.18-21.78,27.32-35.17S235.48,123.94,217.53,130,187.34,151.76,190.21,165.15Z"/><path class="cls-6" d="M236.76,142.78s6.35-2.8,6.35-3.23-1.2-4.52,1-5,12.71,5,10.3,6.89-5.15,1.08-6,1.29-6.35,3.66-6.35,3.66,2.4,8.62-12.37,20.46c0,0-2.06,4.74,1,5s5.07,1.58,2.7,2.62-15.24,3.2-14.21,0c0,0,3.26-1.51,3.43-2.37a29.78,29.78,0,0,0,.17-3.45s-21.64-8.19-21.3-15.94l-6.7-.43s-1.55,2.59-2.75,3-2.75-4.74,0-8.19,5.32-3,5.32-1.94V148s4.64,1.51,5,1.51S222.16,137.61,236.76,142.78Z"/><path class="cls-7" d="M212.5,171.68c-1,1.77-1.34,3.72-.66,4.35s2.09-.28,3.14-2,1.34-3.72.66-4.35S213.55,169.91,212.5,171.68Z"/><path class="cls-7" d="M235.86,165.22c-1,1.77-1.34,3.72-.66,4.35s2.09-.28,3.14-2,1.34-3.72.66-4.35S236.91,163.45,235.86,165.22Z"/><path class="cls-7" d="M233.28,133.33c-1,1.77-1.34,3.72-.66,4.35s2.09-.28,3.14-2,1.34-3.72.66-4.35S234.33,131.57,233.28,133.33Z"/><path class="cls-7" d="M205.49,169.5c-1.46,1.23-2.25,2.95-1.77,3.83s2,.61,3.5-.62,2.25-2.95,1.77-3.83S207,168.27,205.49,169.5Z"/><path class="cls-7" d="M209.71,139.24c1,1.83,2.35,2.82,3.06,2.22s.49-2.56-.49-4.39-2.35-2.82-3.06-2.22S208.73,137.41,209.71,139.24Z"/><path class="cls-7" d="M196.79,160.3c1.72.42,3.25-.09,3.41-1.14s-1.1-2.24-2.82-2.67-3.25.09-3.41,1.14S195.07,159.88,196.79,160.3Z"/><path class="cls-7" d="M244.55,160.54c-1.48-1.18-3.05-1.41-3.51-.51s.37,2.59,1.85,3.78,3.05,1.41,3.51.51S246,161.72,244.55,160.54Z"/><path class="cls-7" d="M246.11,154.66c-1.72-.42-3.25.09-3.41,1.14s1.1,2.24,2.82,2.67,3.25-.09,3.41-1.14S247.84,155.08,246.11,154.66Z"/><path class="cls-8" d="M237.1,147.74s-15.8-6.68-30.74,3.66c0,0,6.18,11.85,18.89,13.14C225.25,164.54,234,161.09,237.1,147.74Z"/><path class="cls-9" d="M231.06,149.12c-1.08-.26-2,.06-2.13.71s.69,1.4,1.76,1.67,2-.06,2.13-.71S232.14,149.39,231.06,149.12Z"/><path class="cls-9" d="M224.19,159c-1.08-.26-2,.06-2.13.71s.69,1.4,1.76,1.67,2-.06,2.13-.71S225.27,159.3,224.19,159Z"/><path class="cls-9" d="M215.79,153.69c.91-.77,1.41-1.84,1.11-2.4s-1.28-.38-2.19.39-1.41,1.84-1.11,2.4S214.88,154.46,215.79,153.69Z"/></svg>