<svg id="Layer_1" data-name="Layer 1" xmlns="http://www.w3.org/2000/svg" xmlns:xlink="http://www.w3.org/1999/xlink" viewBox="0 0 350 350"><defs><style>.cls-1{fill:none;}.cls-2{fill:#9cc430;}.cls-3{clip-path:url(#clip-path);}.cls-4{fill:#a3d038;}.cls-5{fill:#e2f490;}</style><clipPath id="clip-path"><path class="cls-1" d="M27.2,211.35l-18.57,20c-2.24,2.41-4.63,5.24-4.36,8.52.25,3,2.68,5.32,5.09,7.13,17,12.75,41.94,13.86,60.06,2.68,4.73-2.92,9.32-6.69,14.86-7.17,9.13-.78,18.19,7.69,26.65,4.16,7.88-3.29,12.21-16,20.37-13.46,2.5.78,4.27,2.93,6.28,4.61a19.78,19.78,0,0,0,24.25.25c3.92-3.14,7.12-8.05,12.13-8.43,6.91-.53,11,7.76,17.47,10.35,11.23,4.52,21.67-9.59,33.76-10.28,6-.34,11.57,2.68,17.3,4.45s13,1.85,16.63-2.89c2-2.57,2.48-6,4.23-8.78,4.73-7.43,15.58-6.56,24.34-5.63s20.31-1.07,21.83-9.75c.37-2.14,0-4.39.64-6.46,3.09-10.1,24-5.8,24.75-16.34.51-7.25-10.91-12.35-8.35-19.15s16.33-6.59,14.55-13.48c-2.18-2.82-7-1.33-9.9-3.4-4.2-3-.86-9.81,3.5-12.57s10.08-4.94,11.2-10a150.36,150.36,0,0,0-32.29-2.46c-2.67-4.9,7.75-7,9.26-12.39s-6.73-8.1-12.34-7.08-13.37,1.67-15-3.78c-.49-1.61-.21-3.35-.4-5-.61-5.3-6-9-11.35-9.48S273.23,87,268.24,88.85c2.83-5.32-1-12.35-6.66-14.53s-12-.61-17.4,2.12c-2.66,1.35-5.43,3-8.4,2.69-3.83-.45-6.36-4-8.68-7.1-3.89-5.16-9-10-15.34-11.06s-13.88,3.21-14.14,9.67c-.07,1.87.44,3.79-.05,5.6-.89,3.28-4.86,4.91-8.21,4.36s-6.21-2.67-8.91-4.72c-5.93-1.07-8.43,7.27-8.47,13.3s-2.85,14.35-8.73,13c-5.54-1.29-7.11-10.93-12.76-10.22-5.26.66-4.39,8.84-1,12.92s8.12,9,5.72,13.77A32.85,32.85,0,0,1,136.6,117a57.47,57.47,0,0,1-14.86,45,10,10,0,0,1-3.91,2.91c-6.87,2.3-15.83-8.72-19.93-2.75-1.22,1.78-.88,4.18-1.64,6.2-2.81,7.51-15.37,3.06-21.44,8.29-3.08,2.65-3.74,7.26-6.52,10.22-8.87,9.44-29.32-4.67-36.18,6.32-1.4,2.25-1.66,5-2.24,7.57-2.65,11.78-12.12,20.61-21.12,28.66"/></clipPath></defs><title>Lettuce</title><path class="cls-2" d="M30.72,221.19l-18.57,20c-2.24,2.41-8.33-4.42-8.05-1.14.25,3,20.79,13.66,23.2,15.47,17,12.75,30.23,5.62,45.65,4,5.53-.58,9.32-6.69,14.86-7.17,9.13-.78,18.19,7.69,26.65,4.16,7.88-3.29,12.21-16,20.37-13.46,2.5.78,4.27,2.93,6.28,4.61a19.78,19.78,0,0,0,24.25.25c3.92-3.14,7.12-8.05,12.13-8.43,6.91-.53,11,7.76,17.47,10.35,11.23,4.52,21.67-9.59,33.76-10.28,6-.34,11.57,2.68,17.3,4.45s13,1.85,16.63-2.89c2-2.57,2.48-6,4.23-8.78,4.73-7.43,15.58-6.56,24.34-5.63S311.51,225.64,313,217c.37-2.14,0-4.39.64-6.46,3.09-10.1,24-5.8,24.75-16.34.51-7.25-22-14.08-19.41-20.87s23.58-12.09,21.79-19c-2.18-2.82-6.94-1.45-9.84-3.51-4.2-3-.14-8.49,4.22-11.25s9.42-9,10.54-14.06c-10.63-2-17.79,7.3-28.6,7.64-2.67-4.9,3.18-10,4.7-15.38s-2.12-15.07-7.73-14.06-13.41,11.63-15.09,6.18c-.49-1.61-7.21-1.7-7.41-3.37-.61-5.3,1-10.64-4.34-11.13s-10.52,1.43-15.51,3.33c2.83-5.32-1-12.35-6.66-14.53s-12-.61-17.4,2.12c-2.66,1.35-5.43,3-8.4,2.69-3.83-.45-6.36-4-8.68-7.1-3.89-5.16-9-10-15.34-11.06S201.39,74,201.14,80.47c-.07,1.87.44,3.79-.05,5.6-.89,3.28-4.86,4.91-8.21,4.36s-6.21-2.67-8.91-4.72C178,84.64,175.55,93,175.5,99s-2.85,14.35-8.73,13c-5.54-1.29-7.11-10.93-12.76-10.22-5.26.66-4.39,8.84-1,12.92s8.12,9,5.72,13.77a32.85,32.85,0,0,1-18.62-1.6,57.47,57.47,0,0,1-14.86,45,10,10,0,0,1-3.91,2.91c-6.87,2.3-15.83-8.72-19.93-2.75-1.22,1.78-.88,4.18-1.64,6.2-2.81,7.51-15.37,3.06-21.44,8.29-3.08,2.65-3.74,7.26-6.52,10.22-8.87,9.44-29.32-4.67-36.18,6.32-1.4,2.25-1.66,5-2.24,7.57-2.65,11.78-12.12,20.61-21.12,28.66"/><g class="cls-3"><path class="cls-4" d="M27.2,211.35l-18.57,20c-2.24,2.41-4.63,5.24-4.36,8.52.25,3,2.68,5.32,5.09,7.13,17,12.75,41.94,13.86,60.06,2.68,4.73-2.92,9.32-6.69,14.86-7.17,9.13-.78,18.19,7.69,26.65,4.16,7.88-3.29,12.21-16,20.37-13.46,2.5.78,4.27,2.93,6.28,4.61a19.78,19.78,0,0,0,24.25.25c3.92-3.14,7.12-8.05,12.13-8.43,6.91-.53,11,7.76,17.47,10.35,11.23,4.52,21.67-9.59,33.76-10.28,6-.34,11.57,2.68,17.3,4.45s13,1.85,16.63-2.89c2-2.57,2.48-6,4.23-8.78,4.73-7.43,15.58-6.56,24.34-5.63s20.31-1.07,21.83-9.75c.37-2.14,0-4.39.64-6.46,3.09-10.1,24-5.8,24.75-16.34.51-7.25-10.91-12.35-8.35-19.15s16.33-6.59,14.55-13.48c-2.18-2.82-7-1.33-9.9-3.4-4.2-3-.86-9.81,3.5-12.57s10.08-4.94,11.2-10a150.36,150.36,0,0,0-32.29-2.46c-2.67-4.9,10.92-7.19,12.43-12.56s-9.89-7.92-15.5-6.91-13.37,1.67-15-3.78c-.49-1.61-.21-3.35-.4-5-.61-5.3-6-9-11.35-9.48S273.23,87,268.24,88.85c2.83-5.32-1-12.35-6.66-14.53s-12-.61-17.4,2.12c-2.66,1.35-5.43,3-8.4,2.69-3.83-.45-6.36-4-8.68-7.1-3.89-5.16-9-10-15.34-11.06s-13.88,3.21-14.14,9.67c-.07,1.87.44,3.79-.05,5.6-.89,3.28-4.86,4.91-8.21,4.36s-6.21-2.67-8.91-4.72c-5.93-1.07-8.43,7.27-8.47,13.3s-2.85,14.35-8.73,13c-5.54-1.29-7.11-10.93-12.76-10.22-5.26.66-4.39,8.84-1,12.92s8.12,9,5.72,13.77A32.85,32.85,0,0,1,136.6,117a57.47,57.47,0,0,1-14.86,45,10,10,0,0,1-3.91,2.91c-6.87,2.3-15.83-8.72-19.93-2.75-1.22,1.78-.88,4.18-1.64,6.2-2.81,7.51-15.37,3.06-21.44,8.29-3.08,2.65-3.74,7.26-6.52,10.22-8.87,9.44-29.32-4.67-36.18,6.32-1.4,2.25-1.66,5-2.24,7.57-2.65,11.78-12.12,20.61-21.12,28.66"/><polyline class="cls-5" points="1.29 243.58 271.22 124.08 17.45 256.94"/><path class="cls-5" d="M218,219.31c-17.57.27-35.09.62-52.62,1.23l-13.15.43q-6.57.29-13.14.72c-4.37.35-8.74.81-13.1,1.24s-8.7,1.12-13.05,1.67l-13,2-13,2.15L74,231.12l-12.9,2.54c-17.2,3.42-34.29,7.35-51.37,11.42l-.05-.19c16.75-5.29,33.79-9.7,51-13.32,4.31-.87,8.63-1.69,12.95-2.5l13-2.17c4.34-.67,8.7-1.26,13.05-1.87s8.73-1,13.1-1.51,8.75-.81,13.11-1.29,8.75-.76,13.12-1.19,8.75-.79,13.12-1.19,8.76-.7,13.15-1a459.77,459.77,0,0,1,52.7.24Z"/><path class="cls-5" d="M270.69,196.47q-28.9,5.18-58,9.1c-9.7,1.25-19.43,2.36-29.12,3.68s-19.36,2.84-29,4.41-19.32,3.12-29,4.57-19.35,2.92-29,4.33c-19.36,2.79-38.74,5.44-58.19,7.7l0-.2c19.25-3.51,38.58-6.63,57.92-9.62,9.68-1.46,19.37-2.74,29.06-4.08s19.39-2.59,29.1-3.8,19.41-2.51,29.08-4,19.31-3.15,29-4.69q29-4.43,58.2-7.65Z"/><path class="cls-5" d="M291.8,171.29q-22.63,4.43-45.4,7.89c-7.6,1.11-15.22,2.09-22.8,3.31s-15.12,2.67-22.65,4.18-15.05,3-22.59,4.5-15.07,3-22.61,4.38c-15.1,2.79-30.2,5.55-45.38,8l0-.2c14.92-3.71,29.94-6.93,45-9.92,3.77-.72,7.54-1.45,11.33-2.13l11.35-2q11.35-2,22.74-3.73c3.79-.6,7.6-1.14,11.38-1.81s7.58-1.24,11.36-1.93,7.55-1.41,11.32-2.15l11.32-2.16q22.7-4,45.64-6.45Z"/><path class="cls-5" d="M292.8,148.32a80.88,80.88,0,0,0-16.06.51c-2.65.34-5.3.76-7.93,1.25l-7.9,1.58q-4,.78-7.92,1.62c-2.64.55-5.28,1.11-7.91,1.75-5.25,1.26-10.44,2.74-15.6,4.32S219.16,162.52,214,164l-15.5,4.64c-10.36,3-20.73,6-31.18,8.75l-.06-.19c10.06-4,20.3-7.43,30.63-10.6,5.17-1.57,10.38-3,15.6-4.41s10.46-2.72,15.72-3.94,10.51-2.48,15.73-3.89,10.37-3,15.62-4.37a99,99,0,0,1,16-2.75,56.24,56.24,0,0,1,16.24.83Z"/><path class="cls-5" d="M224.64,99.78c-1.06,1.74-2.16,3.46-3.28,5.16s-2.29,3.36-3.47,5c-2.37,3.31-4.79,6.57-7.38,9.72l-4,4.63c-1.35,1.53-2.68,3.06-4,4.63-2.6,3.12-5.06,6.36-7.51,9.61s-4.93,6.47-7.51,9.62l-3.88,4.71c-1.3,1.56-2.64,3.09-4,4.63-5.4,6.08-11,12-17,17.55l-.15-.14c5-6.41,10.25-12.63,15.51-18.81,2.64-3.08,5.34-6.11,8-9.16s5.37-6.09,8.1-9.1c1.34-1.53,2.71-3,4-4.59s2.58-3.14,3.83-4.73c2.48-3.22,4.76-6.59,7.14-9.88q1.79-2.46,3.68-4.85t3.78-4.78c2.53-3.17,5.12-6.31,7.82-9.36Z"/><path class="cls-5" d="M161.53,129.78q-3.82,6.48-8,12.71c-2.81,4.15-5.71,8.24-8.84,12.17s-6.52,7.63-9.83,11.4-6.63,7.52-10.06,11.18c-6.78,7.42-14.83,13.72-23,19.39a137.57,137.57,0,0,0-11.83,9.05c-3.77,3.23-7.56,6.71-12.08,9l-.1-.17c4.14-2.83,7.53-6.46,11.12-10a99,99,0,0,1,11.65-9.63c4.06-2.95,8.23-5.68,12.11-8.77s7.72-6.27,11.38-9.66a111.83,111.83,0,0,0,10.34-10.83c1.6-1.92,3.12-3.9,4.6-5.92s2.94-4,4.4-6.07c2.92-4,5.92-8,8.9-12.06s6-8,9.13-11.93Z"/><path class="cls-5" d="M22.55,237c3.59-2.66,7.23-5.19,10.86-7.76l5.45-3.82c1.81-1.29,3.64-2.54,5.48-3.78l5.54-3.7,2.76-1.88,2.7-2c1.79-1.32,3.52-2.71,5.24-4.12s3.38-2.88,5-4.37l9.86-9c3.26-3,6.49-6.05,9.71-9.1s6.44-6.12,9.84-9a65.92,65.92,0,0,1,10.9-7.81l.11.17c-7.11,5.38-12.94,12-19.38,18.22-3.2,3.1-6.56,6-9.94,9s-6.85,5.71-10.41,8.39-7.1,5.38-10.58,8.16S48.84,220.31,45.3,223s-7.26,5.18-11,7.54-7.65,4.59-11.61,6.64Z"/></g></svg>