<svg id="Layer_1" data-name="Layer 1" xmlns="http://www.w3.org/2000/svg" xmlns:xlink="http://www.w3.org/1999/xlink" viewBox="0 0 350 350"><defs><style>.cls-1,.cls-4{fill:none;}.cls-2{clip-path:url(#clip-path);}.cls-3{fill:#dc3eb9;}.cls-4{stroke:#7e266e;stroke-miterlimit:10;stroke-width:6px;}.cls-5{fill:#b62993;}.cls-6{fill:#f3d9ef;}.cls-7{fill:#f6e3f9;}.cls-8{fill:#e8c6ee;}</style><clipPath id="clip-path"><ellipse class="cls-1" cx="175.1" cy="175.29" rx="149.14" ry="94.98"/></clipPath></defs><title>Onion</title><g class="cls-2"><path class="cls-3" d="M175.08,79.73c-82.37,0-149.14,42.52-149.14,95s66.77,95,149.14,95,149.14-42.52,149.14-95S257.45,79.73,175.08,79.73Zm.21,143c-59.36,0-107.49-23.33-107.49-52.11s48.12-52.11,107.49-52.11,107.49,23.33,107.49,52.11S234.66,222.7,175.29,222.7Z"/><line class="cls-4" x1="60.95" y1="161.69" x2="60.95" y2="238.69"/><line class="cls-4" x1="88.95" y1="202.69" x2="88.95" y2="265.69"/><line class="cls-4" x1="119.95" y1="216.69" x2="119.95" y2="274.69"/><line class="cls-4" x1="154.95" y1="223.69" x2="154.95" y2="278.69"/><line class="cls-4" x1="187.95" y1="224.69" x2="187.95" y2="278.69"/><line class="cls-4" x1="217.95" y1="219.69" x2="217.95" y2="275.69"/><line class="cls-4" x1="251.95" y1="211.69" x2="251.95" y2="270.69"/><line class="cls-4" x1="281.95" y1="185.69" x2="281.95" y2="249.69"/></g><path class="cls-5" d="M174.35,79.73c-82.06,0-148.59,37.93-148.59,84.72s66.53,84.72,148.59,84.72,148.59-37.93,148.59-84.72S256.42,79.73,174.35,79.73Zm-.06,143c-59.36,0-107.49-23.33-107.49-52.11s48.12-52.11,107.49-52.11,107.49,23.33,107.49,52.11S233.66,222.7,174.29,222.7Z"/><path class="cls-6" d="M176.45,82.69c-79.81,0-144.5,35-144.5,78.27s64.69,78.27,144.5,78.27,144.5-35,144.5-78.27S256.25,82.69,176.45,82.69Zm-2.15,140c-59.36,0-107.49-23.33-107.49-52.11s48.12-52.11,107.49-52.11,107.49,23.33,107.49,52.11S233.66,222.7,174.29,222.7Z"/><path class="cls-7" d="M175.45,89.69c-67.65,0-122.5,31.78-122.5,71s54.85,71,122.5,71,122.5-31.78,122.5-71S243.1,89.69,175.45,89.69Zm-1.15,133c-59.36,0-107.49-23.33-107.49-52.11s48.12-52.11,107.49-52.11,107.49,23.33,107.49,52.11S233.66,222.7,174.29,222.7Z"/><path class="cls-8" d="M66.8,170.59c0-28.78,48.12-52.11,107.49-52.11,57.93,0,105.15,22.22,107.4,50a34.56,34.56,0,0,0,.27-4.27c0-33.52-48.62-60.69-108.59-60.69S64.77,130.73,64.77,164.25a36.42,36.42,0,0,0,4.13,16.64A26.79,26.79,0,0,1,66.8,170.59Z"/><path class="cls-8" d="M174.29,222.7c-36.4,0-68.56-8.77-88-22.19,19.8,14.83,51.43,24.43,87.08,24.43,27.59,0,52.78-5.75,71.93-15.23C226.36,217.8,201.51,222.7,174.29,222.7Z"/></svg>