<svg id="Layer_1" data-name="Layer 1" xmlns="http://www.w3.org/2000/svg" xmlns:xlink="http://www.w3.org/1999/xlink" viewBox="0 0 350 350"><defs><style>.cls-1,.cls-4{fill:none;}.cls-2{clip-path:url(#clip-path);}.cls-3{fill:#dc3eb9;}.cls-4{stroke:#7e266e;stroke-miterlimit:10;stroke-width:6px;}.cls-5{fill:#b62993;}.cls-6{fill:#f3d9ef;}.cls-7{fill:#f6e3f9;}.cls-8{fill:#e8c6ee;}.cls-9{clip-path:url(#clip-path-2);}</style><clipPath id="clip-path"><ellipse class="cls-1" cx="224.2" cy="201.96" rx="99.7" ry="63.49"/></clipPath><clipPath id="clip-path-2"><ellipse class="cls-1" cx="125.26" cy="154.93" rx="99.7" ry="63.49" transform="translate(-45.29 51.95) rotate(-19.92)"/></clipPath></defs><title>OnionFull</title><g class="cls-2"><path class="cls-3" d="M224.18,138.08c-55.06,0-99.7,28.43-99.7,63.49s44.64,63.49,99.7,63.49,99.7-28.43,99.7-63.49S279.25,138.08,224.18,138.08Zm.14,95.58c-39.69,0-71.86-15.6-71.86-34.84S184.64,164,224.32,164s71.86,15.6,71.86,34.84S264,233.66,224.32,233.66Z"/><line class="cls-4" x1="147.88" y1="192.87" x2="147.88" y2="244.34"/><line class="cls-4" x1="166.6" y1="220.28" x2="166.6" y2="262.39"/><line class="cls-4" x1="187.32" y1="229.64" x2="187.32" y2="268.41"/><line class="cls-4" x1="210.72" y1="234.32" x2="210.72" y2="271.09"/><line class="cls-4" x1="232.78" y1="234.99" x2="232.78" y2="271.09"/><line class="cls-4" x1="252.84" y1="231.64" x2="252.84" y2="269.08"/><line class="cls-4" x1="275.57" y1="226.29" x2="275.57" y2="265.74"/><line class="cls-4" x1="295.62" y1="208.91" x2="295.62" y2="251.7"/></g><path class="cls-5" d="M223.7,138.08c-54.86,0-99.34,25.36-99.34,56.64s44.47,56.64,99.34,56.64S323,226,323,194.72,278.56,138.08,223.7,138.08Zm0,95.58c-39.69,0-71.86-15.6-71.86-34.84S184,164,223.66,164s71.86,15.6,71.86,34.84S263.34,233.66,223.66,233.66Z"/><path class="cls-6" d="M225.09,140.06c-53.35,0-96.6,23.43-96.6,52.32s43.25,52.32,96.6,52.32,96.6-23.43,96.6-52.32S278.45,140.06,225.09,140.06Zm-1.44,93.6c-39.69,0-71.86-15.6-71.86-34.84S184,164,223.66,164s71.86,15.6,71.86,34.84S263.34,233.66,223.66,233.66Z"/><path class="cls-7" d="M224.43,144.74c-45.23,0-81.89,21.25-81.89,47.45s36.66,47.45,81.89,47.45,81.89-21.25,81.89-47.45S269.65,144.74,224.43,144.74Zm-.77,88.92c-39.69,0-71.86-15.6-71.86-34.84S184,164,223.66,164s71.86,15.6,71.86,34.84S263.34,233.66,223.66,233.66Z"/><path class="cls-8" d="M151.8,198.82C151.8,179.58,184,164,223.66,164c38.73,0,70.29,14.85,71.8,33.45a23.11,23.11,0,0,0,.18-2.85c0-22.41-32.5-40.57-72.6-40.57s-72.6,18.16-72.6,40.57a24.35,24.35,0,0,0,2.76,11.13A17.91,17.91,0,0,1,151.8,198.82Z"/><path class="cls-8" d="M223.66,233.66c-24.33,0-45.83-5.86-58.83-14.83,13.24,9.91,34.38,16.33,58.22,16.33,18.45,0,35.28-3.85,48.09-10.18C258.47,230.38,241.85,233.66,223.66,233.66Z"/><g class="cls-9"><path class="cls-3" d="M103.48,94.87c-51.77,18.76-84,60.7-72.1,93.67S95,233,146.75,214.26s84-60.7,72.1-93.67S155.25,76.11,103.48,94.87Zm32.7,89.81c-37.31,13.52-72.87,9.82-79.43-8.27s18.38-43.71,55.69-57.24,72.87-9.82,79.43,8.27S173.49,171.16,136.18,184.68Z"/><line class="cls-4" x1="50.41" y1="172.38" x2="67.95" y2="220.78"/><line class="cls-4" x1="77.35" y1="191.77" x2="91.7" y2="231.37"/><line class="cls-4" x1="100.02" y1="193.51" x2="113.23" y2="229.96"/><line class="cls-4" x1="123.61" y1="189.94" x2="136.14" y2="224.51"/><line class="cls-4" x1="144.58" y1="183.05" x2="156.88" y2="216.99"/><line class="cls-4" x1="162.3" y1="173.07" x2="175.06" y2="208.27"/><line class="cls-4" x1="181.85" y1="160.3" x2="195.29" y2="197.38"/><line class="cls-4" x1="194.78" y1="137.12" x2="209.36" y2="177.35"/></g><path class="cls-5" d="M103,95c-51.58,18.69-84.75,57.69-74.09,87.09S90,220.23,141.62,201.53s84.75-57.69,74.09-87.09S154.6,76.35,103,95Zm32.53,89.87c-37.31,13.52-72.87,9.82-79.43-8.27s18.38-43.71,55.69-57.24,72.87-9.82,79.43,8.27S172.86,171.39,135.55,184.91Z"/><path class="cls-6" d="M105,96.42c-50.16,18.18-82.84,54.94-73,82.11S90.51,213,140.67,194.8s82.84-54.94,73-82.11S155.17,78.24,105,96.42Zm30.54,88.49c-37.31,13.52-72.87,9.82-79.43-8.27s18.38-43.71,55.69-57.24,72.87-9.82,79.43,8.27S172.86,171.39,135.55,184.91Z"/><path class="cls-7" d="M106,101c-42.52,15.41-69.75,47.88-60.82,72.52s50.64,32.12,93.16,16.71,69.75-47.88,60.82-72.52S148.5,85.64,106,101Zm29.57,83.86c-37.31,13.52-72.87,9.82-79.43-8.27s18.38-43.71,55.69-57.24,72.87-9.82,79.43,8.27S172.86,171.39,135.55,184.91Z"/><path class="cls-8" d="M56.12,176.65c-6.56-18.09,18.38-43.71,55.69-57.24,36.41-13.2,71.15-10,78.9,7a23.11,23.11,0,0,0-.8-2.74c-7.64-21.07-44.38-27.07-82.08-13.41S45.77,152.05,53.4,173.12a24.35,24.35,0,0,0,6.39,9.52A17.91,17.91,0,0,1,56.12,176.65Z"/><path class="cls-8" d="M135.55,184.91C112.67,193.2,90.46,195,75.18,191c15.82,4.81,37.89,3.64,60.3-4.48,17.34-6.29,31.86-15.64,41.74-26C167.16,170,152.66,178.71,135.55,184.91Z"/></svg>