<svg id="Layer_1" data-name="Layer 1" xmlns="http://www.w3.org/2000/svg" viewBox="0 0 350 350"><defs><style>.cls-1{fill:#e17828;}.cls-2{fill:#e79d2f;}.cls-3{fill:#eabb44;}.cls-4{fill:#d77a1d;}.cls-5{fill:#f8f8fa;}</style></defs><title>OrangePepper</title><path class="cls-1" d="M316.11,169.26c-1-2.6-3.22-4.48-5.38-6.24-13-10.54-26.25-21.27-42-26.83-8.7-3.07-17.9-4.46-27-5.82-17.36-2.61-34.84-5.21-52.38-5-20.5-5.69-41.48-10.16-62.75-10.8-21.44-.64-43.28,2.74-62.55,12.18-6.61,3.24-13,7.25-17.84,12.79-9.15,10.44-11.87,25-12.85,38.82a10.73,10.73,0,0,0,.47,5c.95,2.18,3.16,3.49,5.25,4.63,12.34,6.74,25.26,13,35.17,23,7.24,7.28,12.77,16.42,21.34,22.06,5.39,3.55,11.67,5.47,17.84,7.35,7.47,2.28,15,4.56,22.6,6.14,10.86,2.25,22,3.09,33,3.73q31.09,1.8,62.25,1.6c7.94-.05,16-.21,23.62-2.41s14.91-6.7,18.84-13.6c3.41-6,4.3-13.7,9.58-18.14,7.19-6.06,19.09-3.13,26.28-9.19,5.48-4.61,6.18-12.65,6.48-19.81l.55-13.32A15.8,15.8,0,0,0,316.11,169.26Zm-70.39,18.63a290.47,290.47,0,0,1-29.9-2.46c-3.8-.51-8.24-.9-10.92,1.84s-2,8,.68,11,6.64,4.51,10.44,5.88l18.25,6.59c-2,2.38-5.27,3.28-8.34,3.88-12.43,2.44-25.21,2.12-37.87,1.78-7.13-.19-14.28-.38-21.37-1.16a129.43,129.43,0,0,1-46.93-14.57c4.77-5.46,14.78-2.35,20-7.42,2.61-2.55,3.23-6.47,3.46-10.12a5,5,0,0,0-.29-2.52c-.72-1.48-2.6-1.91-4.24-2.12-10.3-1.31-20.75-.7-31.12-1.32s-21-2.63-29.56-8.53c-2.87-2-5.73-5.39-4.35-8.6.75-1.76,2.56-2.79,4.25-3.7,9.74-5.22,19.72-10.52,30.65-12.15,6.17-.92,12.45-.64,18.69-.35l15.18.7c4.59.21,9.31.45,13.53,2.27s7.92,5.6,8.29,10.18c.28,3.52-1,7.95,1.84,10,3.08,2.17,7.13-1.13,10.91-1.08,8.11-8.78,20.12-13.38,32.07-14s24.09,2.55,35.19,7.33a88.49,88.49,0,0,1,18.42,10.43,68.91,68.91,0,0,1,10.49,9.8C267,187.31,255.65,188.19,245.72,187.89Z"/><path class="cls-2" d="M316.06,165.86c-1-2.2-3.22-3.79-5.38-5.27-12.95-8.9-26.24-18-42-22.66-8.7-2.59-17.89-3.76-27-4.92-17.36-2.2-34.83-4.4-52.37-4.2-20.5-4.81-41.47-8.58-62.73-9.12C105.14,119.15,83.3,122,64,130c-6.61,2.74-13,6.12-17.83,10.8-9.15,8.82-11.86,21.09-12.85,32.78a7.74,7.74,0,0,0,.47,4.26c.95,1.84,3.16,2.95,5.25,3.91,12.34,5.69,25.25,11,35.17,19.41C81.49,207.29,87,215,95.59,219.77c5.39,3,11.66,4.62,17.84,6.21,7.47,1.92,14.95,3.85,22.59,5.19,10.86,1.9,22,2.61,33,3.15q31.08,1.52,62.24,1.35c7.94,0,16-.18,23.62-2s14.91-5.65,18.83-11.49c3.41-5.07,4.3-11.57,9.58-15.32,7.19-5.11,19.09-2.64,26.28-7.76,5.48-3.9,6.18-10.68,6.48-16.73l.55-11.25A11.36,11.36,0,0,0,316.06,165.86Zm-70.34,22a290.47,290.47,0,0,1-29.9-2.46c-3.8-.51-8.24-.9-10.92,1.84s-2,8,.68,11,6.64,4.51,10.44,5.88l18.25,6.59c-2,2.38-5.27,3.28-8.34,3.88-12.43,2.44-25.21,2.12-37.87,1.78-7.13-.19-14.28-.38-21.37-1.16a129.43,129.43,0,0,1-46.93-14.57c4.77-5.46,14.78-2.35,20-7.42,2.61-2.55,3.23-6.47,3.46-10.12a5,5,0,0,0-.29-2.52c-.72-1.48-2.6-1.91-4.24-2.12-10.3-1.31-20.75-.7-31.12-1.32s-21-2.63-29.56-8.53c-2.87-2-5.73-5.39-4.35-8.6.75-1.76,2.56-2.79,4.25-3.7,9.74-5.22,19.72-10.52,30.65-12.15,6.17-.92,12.45-.64,18.69-.35l15.18.7c4.59.21,9.31.45,13.53,2.27s7.92,5.6,8.29,10.18c.28,3.52-1,7.95,1.84,10,3.08,2.17,7.13-1.13,10.91-1.08,8.11-8.78,20.12-13.38,32.07-14s24.09,2.55,35.19,7.33a88.49,88.49,0,0,1,18.42,10.43,68.91,68.91,0,0,1,10.49,9.8C267,187.31,255.65,188.19,245.72,187.89Z"/><path class="cls-3" d="M290.58,168.21c-16.24-14.7-37.51-22.89-59.05-26.86-17.87-3.29-37.84-3.4-52.61,6.93a22.77,22.77,0,0,0-6.09-9.37c-4.51-5.78-11.7-9.57-19.06-9.24l.75.57c-6.26-1.14-12.75-1.17-19.14-1.15-13.48,0-27.05.16-40.29,2.71a74.4,74.4,0,0,0-15.55,4.6c-6.5,2.82-12.38,6.84-18.23,10.83-2.67,1.83-5.59,4-6,7.24a9.34,9.34,0,0,0,.57,4.12c2.59,7.9,9.3,13.91,16.78,17.54s15.76,5.18,23.94,6.71l23.75,4.42c-4,5.54-12.67,8.38-12.84,15.21-.13,5.57,5.76,9.15,10.94,11.21,29.4,11.71,61.83,14.12,93.38,11.63,12.54-1,25.4-2.85,36.23-9.25,1.9-1.12,3.82-2.5,4.61-4.57,1.69-4.42-2.55-8.7-6.33-11.54a28.93,28.93,0,0,0-7.07-4.23q10.92.87,21.89.68a42.66,42.66,0,0,0,11.72-1.4c6.77-2.06,12.21-7,17.4-11.82,2.29-2.12,4.75-4.62,4.72-7.74C294.95,172.55,292.74,170.16,290.58,168.21ZM178.42,148.64c-.36.26-.72.52-1.07.79-.08-.63-.2-1.26-.34-1.88Zm67.3,39.24a290.47,290.47,0,0,1-29.9-2.46c-3.8-.51-8.24-.9-10.92,1.84s-2,8,.68,11,6.64,4.51,10.44,5.88l18.25,6.59c-2,2.38-5.27,3.28-8.34,3.88-12.43,2.44-25.21,2.12-37.87,1.78-7.13-.19-14.28-.38-21.37-1.16a129.43,129.43,0,0,1-46.93-14.57c4.77-5.46,14.78-2.35,20-7.42,2.61-2.55,3.23-6.47,3.46-10.12a5,5,0,0,0-.29-2.52c-.72-1.48-2.6-1.91-4.24-2.12-10.3-1.31-20.75-.7-31.12-1.32s-21-2.63-29.56-8.53c-2.87-2-5.73-5.39-4.35-8.6.75-1.76,2.56-2.79,4.25-3.7,9.74-5.22,19.72-10.52,30.65-12.15,6.17-.92,12.45-.64,18.69-.35l15.18.7c4.59.21,9.31.45,13.53,2.27s7.92,5.6,8.29,10.18c.28,3.52-1,7.95,1.84,10,3.08,2.17,7.13-1.13,10.91-1.08,8.11-8.78,20.12-13.38,32.07-14s24.09,2.55,35.19,7.33a88.49,88.49,0,0,1,18.42,10.43,68.91,68.91,0,0,1,10.49,9.8C267,187.31,255.65,188.19,245.72,187.89Z"/><path class="cls-4" d="M245.72,187.89a290.47,290.47,0,0,1-29.9-2.46c-3.8-.51-8.24-.9-10.92,1.84s-2,8,.68,11,6.64,4.51,10.44,5.88l14.77,5.34q2.1-.84,4.12-1.86c2.6-1.31,5.42-3.48,5.15-6.38a6.67,6.67,0,0,0-1.6-3.35,21.12,21.12,0,0,0-13.17-7.74c8.33,1.1,16.78,2,25.09.81,7.17-1,14.3-3.71,19.69-8.44C263.67,187.53,254.18,188.14,245.72,187.89Z"/><path class="cls-4" d="M272.32,168.54c-8.49-8.15-19.69-12.8-30.86-16.52-10.24-3.41-20.77-6.21-31.54-6.85-11.27-.66-23.14,1.11-32.94,7-3.33-9.91-13.76-13.71-23.39-15-2.09-.28-4.21-.48-6.36-.64a25,25,0,0,0-4.8-.35l.21.1a185.62,185.62,0,0,0-27.33,1.21c-12.91,1.46-25.79,5.07-36.63,12.22-2.79,1.84-5.6,4.15-6.42,7.39-1.11,4.39,1.84,8.8,5.25,11.78,13.06,11.4,32.3,10.74,49.1,15-2.55,4.87-10.2,6.73-10.39,12.23-.14,4.11,4.18,6.79,8,8.36a130.27,130.27,0,0,0,21.66,6.73,129.27,129.27,0,0,1-26.13-10.52c4.77-5.46,14.78-2.35,20-7.42,2.61-2.55,3.23-6.47,3.46-10.12a5,5,0,0,0-.29-2.52c-.72-1.48-2.6-1.91-4.24-2.12-10.3-1.31-20.75-.7-31.12-1.32s-21-2.63-29.56-8.53c-2.87-2-5.73-5.39-4.35-8.6.75-1.76,2.56-2.79,4.25-3.7,9.74-5.22,19.72-10.52,30.65-12.15,6.17-.92,12.45-.64,18.69-.35l15.18.7c4.59.21,9.31.45,13.53,2.27s7.92,5.6,8.29,10.18c.28,3.52-1,7.95,1.84,10,3.08,2.17,7.13-1.13,10.91-1.08,8.11-8.78,20.12-13.38,32.07-14s24.09,2.55,35.19,7.33a88.49,88.49,0,0,1,18.42,10.43,68.91,68.91,0,0,1,10.45,9.76l.15-.17c1.25-1.53,2.38-3.35,2.27-5.33C275.38,171.79,273.86,170,272.32,168.54Zm-96.6-16.26.59.29-.41.25C175.85,152.63,175.78,152.45,175.72,152.27Z"/><ellipse class="cls-5" cx="105.51" cy="231.14" rx="2.07" ry="5.79" transform="translate(-146.11 266.45) rotate(-73.45)"/><ellipse class="cls-5" cx="116.95" cy="234.45" rx="2.62" ry="1.24" transform="translate(-89.47 73.1) rotate(-25.48)"/></svg>