<svg id="Layer_1" data-name="Layer 1" xmlns="http://www.w3.org/2000/svg" viewBox="0 0 350 350"><defs><style>.cls-1{fill:#636b3e;}.cls-2{fill:#e0e34a;}.cls-3{fill:#d3cc32;}.cls-4{fill:#c8d663;}.cls-5{fill:#bdbd52;}.cls-6{fill:#e4e6cc;}.cls-7{fill:#e2e3d2;}</style></defs><title>Pickle</title><ellipse class="cls-1" cx="163.75" cy="186.43" rx="120" ry="77.37"/><ellipse class="cls-2" cx="166.39" cy="176.39" rx="121.98" ry="67.33"/><ellipse class="cls-3" cx="166.06" cy="171.29" rx="121.31" ry="62.23"/><ellipse class="cls-4" cx="164.58" cy="173.1" rx="102.72" ry="58.77"/><path class="cls-5" d="M159.57,134.93s-38.61-12.12-58.33-1.09c0,0-4.65,20.36,14.16,40.92C115.4,174.76,155.07,180.59,159.57,134.93Z"/><path class="cls-5" d="M115.32,183s3.21,28.9,22.65,40.41c0,0,47.5-3.65,55.84-30.25C193.81,193.13,157.06,163.94,115.32,183Z"/><path class="cls-5" d="M194.18,187.81s59.93-16.62,56-38.86c0,0-56.08-20.9-81.68-9.88C168.49,139.07,152.53,168.57,194.18,187.81Z"/><path class="cls-6" d="M111.13,164a37.25,37.25,0,0,1-4.73-7.74,19.23,19.23,0,0,1-1.29-4.55,14.08,14.08,0,0,1,.18-4.91,12.16,12.16,0,0,1,2-4.68,9.82,9.82,0,0,1,4.15-3.38,14.66,14.66,0,0,1,5-1.07c1.61-.09,3.07,0,4.56-.06,5.94,0,11.88.17,17.83.51s11.88.77,17.82,1.63c-5.95.81-11.89,1.22-17.83,1.49s-11.89.39-17.83.37c-3,0-5.9-.21-8.08.63a8.09,8.09,0,0,0-4.59,5.34,14.7,14.7,0,0,0,0,8.07A67.54,67.54,0,0,0,111.13,164Z"/><path class="cls-6" d="M111.84,141a51.73,51.73,0,0,1,9.49,3.65,78.29,78.29,0,0,1,16.76,11.19,51.7,51.7,0,0,1,7,7.36,92.16,92.16,0,0,1-8.87-4.83q-4.27-2.59-8.38-5.35c-2.75-1.84-5.46-3.73-8.14-5.7A95.35,95.35,0,0,1,111.84,141Z"/><path class="cls-7" d="M180.58,144.19a54,54,0,0,1,15.53-.13,34.66,34.66,0,0,1,7.7,2.11,20.43,20.43,0,0,1,7.1,4.5,8.79,8.79,0,0,1,1.41,2.07,6.49,6.49,0,0,1,.62,2.65,8.74,8.74,0,0,1-.36,2.42c-.2.71-.4,1.29-.6,1.89-.81,2.42-1.63,4.83-2.52,7.23a152,152,0,0,1-5.92,14.19A152,152,0,0,1,206.46,166c.59-2.48,1.23-5,1.9-7.41.16-.61.35-1.25.48-1.77a4.83,4.83,0,0,0,.16-1.35,3.21,3.21,0,0,0-1-2.1,19.53,19.53,0,0,0-5.67-3.74,43.16,43.16,0,0,0-6.84-2.51C190.7,145.78,185.66,145.15,180.58,144.19Z"/><path class="cls-7" d="M209.94,153.25a42.53,42.53,0,0,1-7.81,5.05,65.05,65.05,0,0,1-8.49,3.61,66.5,66.5,0,0,1-8.89,2.4,45.25,45.25,0,0,1-9.24.93,71.71,71.71,0,0,1,8.35-3.94c2.81-1.14,5.64-2.19,8.49-3.17s5.72-1.89,8.63-2.74A82.9,82.9,0,0,1,209.94,153.25Z"/><path class="cls-7" d="M166.37,201.68a54,54,0,0,1-12.25,9.55,34.67,34.67,0,0,1-7.4,3,20.44,20.44,0,0,1-8.37.75,8.8,8.8,0,0,1-2.38-.78,6.49,6.49,0,0,1-2.1-1.73,8.74,8.74,0,0,1-1.19-2.14c-.27-.69-.47-1.26-.68-1.87-.83-2.41-1.64-4.83-2.4-7.27a152.07,152.07,0,0,1-3.94-14.86,152,152,0,0,1,6.88,13.75c1,2.33,2,4.68,3,7,.25.58.48,1.21.7,1.7A4.83,4.83,0,0,0,137,210a3.21,3.21,0,0,0,2.09,1,19.53,19.53,0,0,0,6.77-.48,43.18,43.18,0,0,0,7-2.17C157.37,206.58,161.75,204,166.37,201.68Z"/><path class="cls-7" d="M137.56,212.35a42.53,42.53,0,0,1,3.12-8.76,65.07,65.07,0,0,1,4.54-8,66.54,66.54,0,0,1,5.6-7.32,45.27,45.27,0,0,1,6.77-6.36,71.74,71.74,0,0,1-4.22,8.21c-1.54,2.62-3.14,5.17-4.81,7.68s-3.39,5-5.18,7.42A82.91,82.91,0,0,1,137.56,212.35Z"/></svg>