<svg id="Layer_1" data-name="Layer 1" xmlns="http://www.w3.org/2000/svg" viewBox="0 0 350 350"><defs><style>.cls-1{fill:#636b3e;}.cls-2{fill:#e0e34a;}.cls-3{fill:#c8d663;}.cls-4{fill:#bdbd52;}.cls-5{fill:#e4e6cc;}.cls-6{fill:#e2e3d2;}</style></defs><title>PickleFull</title><ellipse class="cls-1" cx="129.87" cy="183" rx="59.09" ry="38.1"/><ellipse class="cls-2" cx="131.16" cy="178.06" rx="60.06" ry="33.15"/><ellipse class="cls-3" cx="130.27" cy="176.43" rx="50.58" ry="28.94"/><path class="cls-4" d="M127.8,157.64s-19-6-28.72-.54c0,0-2.29,10,7,20.15C106.06,177.25,125.59,180.13,127.8,157.64Z"/><path class="cls-4" d="M106,181.3s1.58,14.23,11.15,19.9c0,0,23.39-1.8,27.5-14.89C144.66,186.3,126.57,171.93,106,181.3Z"/><path class="cls-4" d="M144.85,183.68s29.51-8.18,27.57-19.14c0,0-27.61-10.29-40.22-4.87C132.2,159.68,124.34,174.2,144.85,183.68Z"/><path class="cls-5" d="M104,172a15,15,0,0,1-2.8-3.66,8.82,8.82,0,0,1-.83-2.34,7.39,7.39,0,0,1,0-2.67,6.66,6.66,0,0,1,1.06-2.65,5.73,5.73,0,0,1,2.39-2,8.12,8.12,0,0,1,2.77-.64c.86-.05,1.57,0,2.3,0a87.06,87.06,0,0,1,8.78.46,51.45,51.45,0,0,1,8.77,1.61,51.46,51.46,0,0,1-8.78,1.54,87.06,87.06,0,0,1-8.78.39,13.35,13.35,0,0,0-3.61.18,3.1,3.1,0,0,0-1.85,1.94,6.81,6.81,0,0,0-.33,3.62C103.17,169.07,103.63,170.48,104,172Z"/><path class="cls-5" d="M104.3,160.65a15.67,15.67,0,0,1,5.08,1.12,23.16,23.16,0,0,1,4.46,2.33,22.88,22.88,0,0,1,3.86,3.22,15.6,15.6,0,0,1,3,4.27,21.07,21.07,0,0,1-4.84-1.73,35.4,35.4,0,0,1-4.22-2.43,36.37,36.37,0,0,1-3.86-3A21.51,21.51,0,0,1,104.3,160.65Z"/><path class="cls-6" d="M138.15,162.2a20.09,20.09,0,0,1,7.81-.84,15.86,15.86,0,0,1,4,.93,10.36,10.36,0,0,1,3.86,2.41,5.31,5.31,0,0,1,.86,1.27,4.19,4.19,0,0,1,.39,1.71,5.18,5.18,0,0,1-.22,1.46c-.12.4-.21.66-.33,1-.43,1.18-.89,2.35-1.4,3.51a38.51,38.51,0,0,1-3.68,6.76,38.51,38.51,0,0,1,.67-7.66c.21-1.25.48-2.48.78-3.7l.2-.84a1,1,0,0,0,0-.4c0-.07,0-.09-.25-.37a9.47,9.47,0,0,0-2.43-1.65,25.24,25.24,0,0,0-3.15-1.34C143.09,163.63,140.65,163.09,138.15,162.2Z"/><path class="cls-6" d="M152.61,166.66a13.23,13.23,0,0,1-3.55,3.23,19.86,19.86,0,0,1-8.63,3,13.66,13.66,0,0,1-4.78-.31,17.48,17.48,0,0,1,3.88-2.71,28.4,28.4,0,0,1,4.08-1.76A29.87,29.87,0,0,1,147.9,167,18.77,18.77,0,0,1,152.61,166.66Z"/><path class="cls-6" d="M131.15,190.51a20.09,20.09,0,0,1-5.69,5.42,15.86,15.86,0,0,1-3.75,1.7,10.36,10.36,0,0,1-4.53.44,5.32,5.32,0,0,1-1.46-.48,4.19,4.19,0,0,1-1.36-1.12,5.18,5.18,0,0,1-.71-1.3c-.15-.39-.23-.66-.33-1-.37-1.2-.73-2.41-1-3.64a38.51,38.51,0,0,1-1.19-7.6,38.5,38.5,0,0,1,4.13,6.49c.59,1.12,1.12,2.26,1.63,3.41l.35.79a1,1,0,0,0,.22.33c.05,0,.07.07.42.14a9.47,9.47,0,0,0,2.93-.17,25.27,25.27,0,0,0,3.32-.86C126.37,192.38,128.63,191.32,131.15,190.51Z"/><path class="cls-6" d="M117,195.76a13.23,13.23,0,0,1,.85-4.72,19.86,19.86,0,0,1,5-7.62,13.66,13.66,0,0,1,4-2.67,17.47,17.47,0,0,1-1.43,4.51,28.4,28.4,0,0,1-2.17,3.87,29.85,29.85,0,0,1-2.71,3.5A18.77,18.77,0,0,1,117,195.76Z"/><ellipse class="cls-1" cx="217.87" cy="167" rx="59.09" ry="38.1"/><ellipse class="cls-2" cx="219.16" cy="162.06" rx="60.06" ry="33.15"/><ellipse class="cls-3" cx="218.27" cy="160.43" rx="50.58" ry="28.94"/><path class="cls-4" d="M215.8,141.64s-19-6-28.72-.54c0,0-2.29,10,7,20.15C194.06,161.25,213.59,164.13,215.8,141.64Z"/><path class="cls-4" d="M194,165.3s1.58,14.23,11.15,19.9c0,0,23.39-1.8,27.5-14.89C232.66,170.3,214.57,155.93,194,165.3Z"/><path class="cls-4" d="M232.85,167.68s29.51-8.18,27.57-19.14c0,0-27.61-10.29-40.22-4.87C220.2,143.68,212.34,158.2,232.85,167.68Z"/><path class="cls-5" d="M192,156a15,15,0,0,1-2.8-3.66,8.82,8.82,0,0,1-.83-2.34,7.39,7.39,0,0,1,0-2.67,6.66,6.66,0,0,1,1.06-2.65,5.73,5.73,0,0,1,2.39-2,8.12,8.12,0,0,1,2.77-.64c.86-.05,1.57,0,2.3,0a87.06,87.06,0,0,1,8.78.46,51.45,51.45,0,0,1,8.77,1.61,51.46,51.46,0,0,1-8.78,1.54,87.06,87.06,0,0,1-8.78.39,13.35,13.35,0,0,0-3.61.18,3.1,3.1,0,0,0-1.85,1.94,6.81,6.81,0,0,0-.33,3.62C191.17,153.07,191.63,154.48,192,156Z"/><path class="cls-5" d="M192.3,144.65a15.67,15.67,0,0,1,5.08,1.12,23.16,23.16,0,0,1,4.46,2.33,22.88,22.88,0,0,1,3.86,3.22,15.6,15.6,0,0,1,3,4.27,21.07,21.07,0,0,1-4.84-1.73,35.4,35.4,0,0,1-4.22-2.43,36.37,36.37,0,0,1-3.86-3A21.51,21.51,0,0,1,192.3,144.65Z"/><path class="cls-6" d="M226.15,146.2a20.09,20.09,0,0,1,7.81-.84,15.86,15.86,0,0,1,4,.93,10.36,10.36,0,0,1,3.86,2.41,5.31,5.31,0,0,1,.86,1.27,4.19,4.19,0,0,1,.39,1.71,5.18,5.18,0,0,1-.22,1.46c-.12.4-.21.66-.33,1-.43,1.18-.89,2.35-1.4,3.51a38.51,38.51,0,0,1-3.68,6.76,38.51,38.51,0,0,1,.67-7.66c.21-1.25.48-2.48.78-3.7l.2-.84a1,1,0,0,0,0-.4c0-.07,0-.09-.25-.37a9.47,9.47,0,0,0-2.43-1.65,25.24,25.24,0,0,0-3.15-1.34C231.09,147.63,228.65,147.09,226.15,146.2Z"/><path class="cls-6" d="M240.61,150.66a13.23,13.23,0,0,1-3.55,3.23,19.86,19.86,0,0,1-8.63,3,13.66,13.66,0,0,1-4.78-.31,17.48,17.48,0,0,1,3.88-2.71,28.4,28.4,0,0,1,4.08-1.76A29.87,29.87,0,0,1,235.9,151,18.77,18.77,0,0,1,240.61,150.66Z"/><path class="cls-6" d="M219.15,174.51a20.09,20.09,0,0,1-5.69,5.42,15.86,15.86,0,0,1-3.75,1.7,10.36,10.36,0,0,1-4.53.44,5.32,5.32,0,0,1-1.46-.48,4.19,4.19,0,0,1-1.36-1.12,5.18,5.18,0,0,1-.71-1.3c-.15-.39-.23-.66-.33-1-.37-1.2-.73-2.41-1-3.64a38.51,38.51,0,0,1-1.19-7.6,38.5,38.5,0,0,1,4.13,6.49c.59,1.12,1.12,2.26,1.63,3.41l.35.79a1,1,0,0,0,.22.33c.05,0,.07.07.42.14a9.47,9.47,0,0,0,2.93-.17,25.27,25.27,0,0,0,3.32-.86C214.37,176.38,216.63,175.32,219.15,174.51Z"/><path class="cls-6" d="M205,179.76a13.23,13.23,0,0,1,.85-4.72,19.86,19.86,0,0,1,5-7.62,13.66,13.66,0,0,1,4-2.67,17.47,17.47,0,0,1-1.43,4.51,28.4,28.4,0,0,1-2.17,3.87,29.85,29.85,0,0,1-2.71,3.5A18.77,18.77,0,0,1,205,179.76Z"/></svg>