<svg id="Layer_1" data-name="Layer 1" xmlns="http://www.w3.org/2000/svg" viewBox="0 0 350 350"><defs><style>.cls-1{fill:#c21b1a;}.cls-2{fill:#d51d19;}.cls-3{fill:#e29978;opacity:0.48;}.cls-4{fill:#b00000;}.cls-5{fill:#ca5d4a;}.cls-6{fill:#e79d77;}</style></defs><title>Tomato</title><ellipse class="cls-1" cx="172.09" cy="188.02" rx="151.78" ry="97.85"/><ellipse class="cls-2" cx="175.42" cy="175.32" rx="154.27" ry="85.15"/><ellipse class="cls-3" cx="173.13" cy="171.16" rx="129.92" ry="74.33"/><path class="cls-4" d="M83.6,123.48s25.82,31.65,89.11,36.64c0,0,49.13-7.5,79.12-42.47C251.82,117.65,173.54,76,83.6,123.48Z"/><path class="cls-4" d="M287.22,146S235,138.24,184,175.94c0,0-1.67,30,26.88,60.09C210.84,236,317.2,213.42,287.22,146Z"/><path class="cls-4" d="M52.74,160s49.11-14.58,105.63,14.29c0,0,7.22,28.34-14.81,61C143.55,235.31,36.3,228.47,52.74,160Z"/><path class="cls-5" d="M159.55,158.42c.65-5.4-3.42-10.44-8.29-12.86s-10.44-2.89-15.81-3.74c-5.81-.91-12.62-3.33-13.84-9.09-.87-4.12,1.78-8.34,5.33-10.59s7.85-3,12-3.54a325.37,325.37,0,0,1,45.88-3.43c9.8,0,21.22,1.49,26.21,9.92a5.89,5.89,0,0,1,1,3.33,6.67,6.67,0,0,1-2.39,4,35.66,35.66,0,0,1-15.47,8.82c-4,1.09-9,2.13-10.16,6.12-1,3.53,1.55,8.11-1.12,10.65a6.76,6.76,0,0,1-3.76,1.43,79.75,79.75,0,0,1-15.63.83c-2.26-.1-3.73-.19-4.14-1.85h0"/><path class="cls-5" d="M153,171.93c-3.59-3-8.55-3.67-13.21-3.57s-9.34.85-14,.27c-6.6-.83-12.57-4.31-19-6s-14.45-1-18.1,4.61c-2.71,4.15-2.05,9.84.48,14.1S95.81,188.7,100,191.4a112.88,112.88,0,0,0,34.76,15,23.87,23.87,0,0,0,9.18.87c3.06-.47,6.08-2.21,7.32-5,1.6-3.67-.11-7.84-1.38-11.63s-1.82-8.65,1.25-11.21c1.27-1.06,3.06-1.62,3.78-3.11a3.88,3.88,0,0,0-1.18-4.34,11.38,11.38,0,0,0-4.29-2.11"/><path class="cls-5" d="M190.32,172.35c3.59-3,8.55-3.67,13.21-3.57s9.34.85,14,.27c6.6-.83,12.57-4.31,19-6s14.45-1,18.1,4.61c2.71,4.15,2.05,9.84-.48,14.1s-6.62,7.35-10.78,10.05a112.88,112.88,0,0,1-34.76,15,23.87,23.87,0,0,1-9.18.87c-3.06-.47-6.08-2.21-7.32-5-1.6-3.67.11-7.84,1.38-11.63s1.82-8.65-1.25-11.21c-1.27-1.06-3.06-1.62-3.78-3.11a3.88,3.88,0,0,1,1.18-4.34,11.38,11.38,0,0,1,4.29-2.11"/><ellipse class="cls-6" cx="136.48" cy="218.83" rx="6.66" ry="3.33" transform="translate(-118.27 259.06) rotate(-67.02)"/><path class="cls-6" d="M117.26,219.66c-1.2,3.05-.32,6,1.95,6.61s5.09-1.39,6.28-4.44.32-6-1.95-6.61S118.46,216.61,117.26,219.66Z"/><path class="cls-6" d="M97.51,215.62a4.24,4.24,0,0,0,3.43,5.79,6.44,6.44,0,0,0,6.9-4.06,4.24,4.24,0,0,0-3.43-5.79A6.44,6.44,0,0,0,97.51,215.62Z"/><path class="cls-6" d="M83.92,209.38c-.72,2.38,1.48,4.61,4.92,5s6.8-1.28,7.52-3.67-1.48-4.61-4.92-5S84.64,207,83.92,209.38Z"/><path class="cls-6" d="M70.86,197.11c-.48,2,2.39,3.9,6.4,4.14S84.91,200,85.39,198s-2.39-3.9-6.4-4.14S71.33,195.06,70.86,197.11Z"/><path class="cls-6" d="M64.24,179.66c-.24,1.71,3.29,3.2,7.89,3.32s8.51-1.17,8.75-2.89-3.29-3.2-7.89-3.32S64.48,177.95,64.24,179.66Z"/><ellipse class="cls-6" cx="74.23" cy="166.78" rx="9.37" ry="2.5"/><ellipse class="cls-6" cx="209.63" cy="215.92" rx="3.33" ry="6.66" transform="translate(-67.65 98.96) rotate(-22.98)"/><path class="cls-6" d="M228.85,216.75c1.2,3.05.32,6-1.95,6.61s-5.09-1.39-6.28-4.44-.32-6,1.95-6.61S227.65,213.7,228.85,216.75Z"/><path class="cls-6" d="M248.6,212.71a4.24,4.24,0,0,1-3.43,5.79,6.44,6.44,0,0,1-6.9-4.06,4.24,4.24,0,0,1,3.43-5.79A6.44,6.44,0,0,1,248.6,212.71Z"/><path class="cls-6" d="M262.19,206.46c.72,2.38-1.48,4.61-4.92,5s-6.8-1.28-7.52-3.67,1.48-4.61,4.92-5S261.47,204.08,262.19,206.46Z"/><path class="cls-6" d="M275.25,194.2c.48,2-2.39,3.9-6.4,4.14s-7.66-1.23-8.14-3.28,2.39-3.9,6.4-4.14S274.78,192.15,275.25,194.2Z"/><path class="cls-6" d="M281.87,176.75c.24,1.71-3.29,3.2-7.89,3.32s-8.51-1.17-8.75-2.89,3.29-3.2,7.89-3.32S281.63,175,281.87,176.75Z"/><ellipse class="cls-6" cx="271.88" cy="163.87" rx="9.37" ry="2.5"/><ellipse class="cls-6" cx="109.42" cy="128.06" rx="2.71" ry="8.33" transform="translate(-57.44 151.11) rotate(-57.35)"/><ellipse class="cls-6" cx="121.91" cy="118.68" rx="2.46" ry="7.58" transform="translate(-37.11 179.19) rotate(-65.07)"/><ellipse class="cls-6" cx="136.27" cy="113.23" rx="2.27" ry="6.99" transform="matrix(0.27, -0.96, 0.96, 0.27, -9.68, 213.67)"/><ellipse class="cls-6" cx="151.4" cy="109.38" rx="2.15" ry="6.62" transform="translate(28.76 250.25) rotate(-84.8)"/><ellipse class="cls-6" cx="166.54" cy="105.53" rx="6.49" ry="2.11" transform="translate(-10.39 18.53) rotate(-6.18)"/><ellipse class="cls-6" cx="181.87" cy="106.84" rx="6.62" ry="2.15" transform="translate(-23.75 59.82) rotate(-17.55)"/><ellipse class="cls-6" cx="197.26" cy="109.49" rx="6.99" ry="2.27" transform="translate(-28.32 105.8) rotate(-28.09)"/><ellipse class="cls-6" cx="211.39" cy="114.77" rx="7.58" ry="2.46" transform="matrix(0.8, -0.61, 0.61, 0.8, -26.32, 151.53)"/><ellipse class="cls-6" cx="223.09" cy="125.11" rx="8.33" ry="2.71" transform="translate(-23.12 194.39) rotate(-45)"/></svg>