<svg id="Layer_1" data-name="Layer 1" xmlns="http://www.w3.org/2000/svg" viewBox="0 0 350 350"><defs><style>.cls-1{fill:#c21b1a;}.cls-2{fill:#d51d19;}.cls-3{fill:#e29978;opacity:0.5;}.cls-4{fill:#b00000;}.cls-5{fill:#ca5d4a;}.cls-6{fill:#e79d77;}</style></defs><title>TomatoFull</title><ellipse class="cls-1" cx="111.26" cy="173.69" rx="89.78" ry="57.88"/><ellipse class="cls-2" cx="113.24" cy="166.18" rx="91.25" ry="50.37"/><ellipse class="cls-3" cx="111.88" cy="163.72" rx="76.85" ry="43.96"/><path class="cls-4" d="M58.93,135.52s15.27,18.72,52.71,21.67c0,0,29.06-4.43,46.8-25.12C158.43,132.07,112.13,107.44,58.93,135.52Z"/><path class="cls-4" d="M179.37,148.82s-30.87-4.57-61.08,17.73c0,0-1,17.73,15.9,35.54C134.19,202.09,197.1,188.72,179.37,148.82Z"/><path class="cls-4" d="M40.67,157.14s29-8.63,62.48,8.45c0,0,4.27,16.77-8.76,36.08C94.39,201.67,30.95,197.62,40.67,157.14Z"/><path class="cls-5" d="M103.85,156.19c.39-3.19-2-6.17-4.91-7.61s-6.17-1.71-9.35-2.21c-3.44-.54-7.47-2-8.18-5.37-.51-2.44,1.05-4.93,3.15-6.27a17.67,17.67,0,0,1,7.11-2.09,192.45,192.45,0,0,1,27.14-2c5.79,0,12.55.88,15.51,5.87a3.49,3.49,0,0,1,.6,2,4,4,0,0,1-1.41,2.39,21.09,21.09,0,0,1-9.15,5.22c-2.37.64-5.32,1.26-6,3.62-.62,2.09.91,4.8-.66,6.3a4,4,0,0,1-2.22.85,47.18,47.18,0,0,1-9.25.49c-1.33-.06-2.2-.11-2.45-1.1h0"/><path class="cls-5" d="M100,164.18c-2.12-1.76-5.06-2.17-7.81-2.11s-5.52.5-8.26.16c-3.91-.49-7.43-2.55-11.24-3.55s-8.55-.57-10.7,2.73c-1.61,2.45-1.21,5.82.28,8.34a19.23,19.23,0,0,0,6.37,5.95,66.77,66.77,0,0,0,20.56,8.86,14.12,14.12,0,0,0,5.43.51,5.56,5.56,0,0,0,4.33-3c.95-2.17-.07-4.64-.82-6.88s-1.08-5.11.74-6.63c.75-.63,1.81-1,2.23-1.84a2.3,2.3,0,0,0-.7-2.57,6.73,6.73,0,0,0-2.54-1.25"/><path class="cls-5" d="M122.05,164.42c2.12-1.76,5.06-2.17,7.81-2.11s5.52.5,8.26.16c3.91-.49,7.43-2.55,11.24-3.55s8.55-.57,10.7,2.73c1.61,2.45,1.21,5.82-.28,8.34a19.23,19.23,0,0,1-6.37,5.95,66.77,66.77,0,0,1-20.56,8.86,14.12,14.12,0,0,1-5.43.51,5.56,5.56,0,0,1-4.33-3c-.95-2.17.07-4.64.82-6.88s1.08-5.11-.74-6.63c-.75-.63-1.81-1-2.23-1.84a2.3,2.3,0,0,1,.7-2.57,6.73,6.73,0,0,1,2.54-1.25"/><ellipse class="cls-6" cx="90.21" cy="191.92" rx="3.94" ry="1.97" transform="translate(-121.7 200.05) rotate(-67.02)"/><path class="cls-6" d="M78.83,192.41c-.71,1.81-.19,3.56,1.15,3.91s3-.82,3.72-2.63.19-3.56-1.15-3.91S79.54,190.61,78.83,192.41Z"/><path class="cls-6" d="M67.15,190a2.51,2.51,0,0,0,2,3.42,3.81,3.81,0,0,0,4.08-2.4,2.51,2.51,0,0,0-2-3.42A3.81,3.81,0,0,0,67.15,190Z"/><path class="cls-6" d="M59.11,186.33c-.42,1.41.88,2.73,2.91,2.94s4-.76,4.45-2.17-.88-2.73-2.91-2.94S59.54,184.92,59.11,186.33Z"/><path class="cls-6" d="M51.39,179.07c-.28,1.21,1.41,2.31,3.79,2.45s4.53-.73,4.81-1.94-1.41-2.31-3.79-2.45S51.67,177.86,51.39,179.07Z"/><path class="cls-6" d="M47.47,168.75c-.14,1,1.95,1.89,4.66,2s5-.69,5.18-1.71-1.95-1.89-4.66-2S47.62,167.74,47.47,168.75Z"/><ellipse class="cls-6" cx="53.38" cy="161.13" rx="5.54" ry="1.48"/><ellipse class="cls-6" cx="133.47" cy="190.2" rx="1.97" ry="3.94" transform="translate(-63.66 67.19) rotate(-22.98)"/><path class="cls-6" d="M144.84,190.69c.71,1.81.19,3.56-1.15,3.91s-3-.82-3.72-2.63-.19-3.56,1.15-3.91S144.13,188.88,144.84,190.69Z"/><path class="cls-6" d="M156.52,188.3a2.51,2.51,0,0,1-2,3.42,3.81,3.81,0,0,1-4.08-2.4,2.51,2.51,0,0,1,2-3.42A3.81,3.81,0,0,1,156.52,188.3Z"/><path class="cls-6" d="M164.56,184.6c.42,1.41-.88,2.73-2.91,2.94s-4-.76-4.45-2.17.88-2.73,2.91-2.94S164.14,183.19,164.56,184.6Z"/><path class="cls-6" d="M172.29,177.35c.28,1.21-1.41,2.31-3.79,2.45s-4.53-.73-4.81-1.94,1.41-2.31,3.79-2.45S172,176.14,172.29,177.35Z"/><path class="cls-6" d="M176.2,167c.14,1-1.95,1.89-4.66,2s-5-.69-5.18-1.71,1.95-1.89,4.66-2S176.06,166,176.2,167Z"/><ellipse class="cls-6" cx="170.29" cy="159.41" rx="5.54" ry="1.48"/><ellipse class="cls-6" cx="74.2" cy="138.23" rx="1.6" ry="4.93" transform="translate(-82.22 126.14) rotate(-57.35)"/><ellipse class="cls-6" cx="81.58" cy="132.68" rx="1.46" ry="4.48" transform="translate(-73.12 150.73) rotate(-65.07)"/><ellipse class="cls-6" cx="90.08" cy="129.45" rx="1.34" ry="4.14" transform="translate(-58.96 181.04) rotate(-74.26)"/><ellipse class="cls-6" cx="99.03" cy="127.18" rx="1.27" ry="3.91" transform="translate(-36.59 214.28) rotate(-84.8)"/><ellipse class="cls-6" cx="107.98" cy="124.9" rx="3.84" ry="1.25" transform="translate(-12.81 12.34) rotate(-6.18)"/><ellipse class="cls-6" cx="117.06" cy="125.68" rx="3.91" ry="1.27" transform="translate(-32.45 41.15) rotate(-17.55)"/><ellipse class="cls-6" cx="126.16" cy="127.24" rx="4.14" ry="1.34" transform="translate(-45.06 74.4) rotate(-28.09)"/><ellipse class="cls-6" cx="134.52" cy="130.36" rx="4.48" ry="1.46" transform="translate(-51.48 108.14) rotate(-37.29)"/><ellipse class="cls-6" cx="141.44" cy="136.48" rx="4.93" ry="1.6" transform="translate(-55.08 139.99) rotate(-45)"/><ellipse class="cls-1" cx="248.59" cy="184.68" rx="57.88" ry="89.78" transform="matrix(0.59, -0.81, 0.81, 0.59, -46.75, 277.86)"/><ellipse class="cls-2" cx="254.59" cy="179.75" rx="50.37" ry="91.25" transform="matrix(0.59, -0.81, 0.81, 0.59, -40.27, 280.67)"/><ellipse class="cls-3" cx="254.94" cy="176.96" rx="43.96" ry="76.85" transform="translate(-37.86 279.8) rotate(-54.12)"/><path class="cls-4" d="M228.56,123.08s1.4,24.12,30,48.45c0,0,26.15,13.44,52.64,7.07C311.2,178.6,288.12,131.51,228.56,123.08Z"/><path class="cls-4" d="M318.35,204.44S296,182.65,258.47,183c0,0-11.19,13.79-7.95,38.12C250.52,221.13,309.33,247.17,318.35,204.44Z"/><path class="cls-4" d="M201.1,129.9s28.59,10,45.67,43.47c0,0-6.37,16.09-28.24,24.09C218.52,197.46,169.49,157,201.1,129.9Z"/><path class="cls-5" d="M252.84,166.15c2.19-2.36,2-6.19.49-9s-4-5-6.28-7.27c-2.47-2.45-4.9-6-3.48-9.15,1-2.28,3.74-3.38,6.23-3.23a17.67,17.67,0,0,1,7,2.47A192.45,192.45,0,0,1,280,154.19c4.69,3.4,9.65,8.07,9.12,13.84a3.49,3.49,0,0,1-.67,1.95,4,4,0,0,1-2.54,1.11A21.09,21.09,0,0,1,275.39,170c-2.3-.87-5-2.09-7-.59-1.72,1.33-2.07,4.42-4.23,4.72a4,4,0,0,1-2.3-.62,47.18,47.18,0,0,1-7.78-5c-1-.83-1.72-1.38-1.34-2.33h0"/><path class="cls-5" d="M245,170.35c-.69-2.67-2.83-4.72-5.09-6.29s-4.77-2.83-6.79-4.71c-2.88-2.69-4.53-6.42-7-9.46s-6.59-5.47-10.27-4.06c-2.74,1-4.39,4-4.66,6.92a19.23,19.23,0,0,0,1.68,8.55,66.77,66.77,0,0,0,11.47,19.23,14.12,14.12,0,0,0,4.1,3.6,5.56,5.56,0,0,0,5.26.12c2-1.2,2.66-3.79,3.37-6.05s2.12-4.78,4.49-4.94c1-.07,2,.29,2.89-.18a2.3,2.3,0,0,0,.94-2.49,6.73,6.73,0,0,0-1.33-2.5"/><path class="cls-5" d="M262.77,183.5c2.75-.18,5.37,1.21,7.57,2.87s4.18,3.65,6.6,5c3.45,1.89,7.52,2.29,11.19,3.72s7.26,4.55,7.08,8.48c-.14,2.93-2.43,5.43-5.12,6.59a19.23,19.23,0,0,1-8.65,1.08,66.77,66.77,0,0,1-21.85-4.88,14.12,14.12,0,0,1-4.7-2.77,5.56,5.56,0,0,1-1.76-5c.5-2.31,2.77-3.72,4.7-5.1s3.87-3.51,3.29-5.81c-.24-.95-.91-1.84-.73-2.8a2.3,2.3,0,0,1,2.07-1.67,6.73,6.73,0,0,1,2.79.48"/><ellipse class="cls-6" cx="220.85" cy="187.11" rx="3.94" ry="1.97" transform="translate(-64.94 141.18) rotate(-31.14)"/><path class="cls-6" d="M215.45,185.76c2-.71,3.2-2,2.78-2.9s-2.33-1-4.28-.33-3.2,2-2.78,2.9S213.5,186.47,215.45,185.76Z"/><path class="cls-6" d="M207.78,178.3c2-.29,3.48-1.22,3.21-2.07s-2.13-1.31-4.17-1-3.48,1.22-3.21,2.07S205.74,178.6,207.78,178.3Z"/><path class="cls-6" d="M202.88,171.07c2.13.13,3.76-.43,3.64-1.25s-1.94-1.58-4.06-1.7-3.76.43-3.64,1.25S200.75,170.95,202.88,171.07Z"/><path class="cls-6" d="M200.91,164.43c2.22.54,4,.35,4.07-.42s-1.74-1.85-4-2.39-4-.35-4.07.42S198.7,163.89,200.91,164.43Z"/><path class="cls-6" d="M200,155.24c2.3,1,4.32,1.14,4.5.4s-1.54-2.12-3.84-3.07-4.32-1.14-4.5-.4S197.66,154.28,200,155.24Z"/><path class="cls-6" d="M204.2,146.16c2.39,1.38,4.6,1.93,4.93,1.23s-1.34-2.38-3.73-3.76-4.6-1.93-4.93-1.23S201.81,144.78,204.2,146.16Z"/><ellipse class="cls-6" cx="209.06" cy="140.58" rx="1.48" ry="5.54" transform="translate(-27.38 227.57) rotate(-54.12)"/><ellipse class="cls-6" cx="256.91" cy="211.07" rx="3.94" ry="1.97" transform="translate(-6.2 414.35) rotate(-77.1)"/><path class="cls-6" d="M263.94,216.82c-.48,1.91-1.9,3.09-3.17,2.62s-1.89-2.39-1.41-4.3,1.9-3.09,3.17-2.62S264.42,214.91,263.94,216.82Z"/><path class="cls-6" d="M273.64,221.94a2.53,2.53,0,0,1-3.53,1.84,3.74,3.74,0,0,1-1.78-4.33,2.53,2.53,0,0,1,3.53-1.84A3.74,3.74,0,0,1,273.64,221.94Z"/><path class="cls-6" d="M282.25,224.5c-.48,1.5-2.23,2-3.9,1.06a4,4,0,0,1-2.15-4.35c.48-1.5,2.23-2,3.9-1.06A4,4,0,0,1,282.25,224.5Z"/><path class="cls-6" d="M289.39,224.45c-.48,1.29-2.39,1.42-4.26.29s-3-3.09-2.52-4.38,2.39-1.42,4.26-.29S289.87,223.17,289.39,224.45Z"/><path class="cls-6" d="M298.64,222.65c-.48,1.08-2.55.86-4.63-.49s-3.37-3.32-2.89-4.4,2.55-.86,4.63.49S299.12,221.57,298.64,222.65Z"/><path class="cls-6" d="M306.15,216c-.48.87-2.71.3-5-1.27s-3.73-3.55-3.25-4.42,2.71-.3,5,1.27S306.63,215.08,306.15,216Z"/><ellipse class="cls-6" cx="304.79" cy="207.71" rx="1.48" ry="5.54" transform="translate(-42.14 332.92) rotate(-54.12)"/><ellipse class="cls-6" cx="239.35" cy="134.22" rx="1.6" ry="4.93" transform="translate(-32.52 96.93) rotate(-21.47)"/><path class="cls-6" d="M247,129.85c1.06-.34,2.63,1.27,3.52,3.6s.75,4.48-.3,4.82-2.63-1.27-3.52-3.6S245.92,130.19,247,129.85Z"/><path class="cls-6" d="M255.94,132.59c1.29-.35,3,1.08,3.75,3.2s.37,4.12-.92,4.47-3-1.08-3.75-3.2S254.65,132.94,255.94,132.59Z"/><path class="cls-6" d="M264.72,136.37c1.52-.36,3.3.89,4,2.8s0,3.75-1.53,4.12-3.3-.89-4-2.8S263.2,136.73,264.72,136.37Z"/><path class="cls-6" d="M273.5,140.15a3.71,3.71,0,0,1,4.21,2.4,2.84,2.84,0,0,1-2.15,3.77,3.71,3.71,0,0,1-4.21-2.4A2.84,2.84,0,0,1,273.5,140.15Z"/><path class="cls-6" d="M280.59,146.47c2-.39,4,.5,4.43,2s-.78,3-2.76,3.41-4-.5-4.43-2S278.6,146.86,280.59,146.47Z"/><path class="cls-6" d="M287.24,153.45c2.22-.4,4.31.31,4.66,1.6s-1.16,2.66-3.38,3.06-4.31-.31-4.66-1.6S285,153.85,287.24,153.45Z"/><path class="cls-6" d="M292.38,161.25c2.45-.42,4.64.12,4.89,1.2s-1.54,2.29-4,2.71-4.64-.12-4.89-1.2S289.93,161.67,292.38,161.25Z"/><ellipse class="cls-6" cx="294.85" cy="172.22" rx="4.93" ry="1.6" transform="translate(-23.57 48.9) rotate(-9.12)"/></svg>