<svg id="Layer_1" data-name="Layer 1" xmlns="http://www.w3.org/2000/svg" viewBox="0 0 350 350"><defs><style>.cls-1{fill:#a0641d;}.cls-2{fill:#b67623;}.cls-3{fill:#d89f55;}.cls-4{fill:#865f2c;}.cls-5{fill:#c79d6b;}.cls-6{fill:#d7c086;}.cls-7{fill:#b5956b;}.cls-8{fill:#d2ac7c;}</style></defs><title>Highbran</title><path class="cls-1" d="M13.45,155S.12,165.37,1.37,185.78c.43,7,.52,14,.66,21,.14,7.15-1.56,14.56.15,21.62,2.1,8.7,9.15,16.11,17.1,19.88,15.83,7.5,120,65.4,120,65.4s38.74,17.08,75.39-17.08l73.73-73.73s11.25-11.25,32.07-9.16a24.59,24.59,0,0,0,20.74-8.21c5.49-6,7.64-11.75,7.5-19.84,0-8.53-.3-17.08-.45-25.61-.11-6.23.85-13.58-.63-19.63-2.25-9.25-11.24-16.75-19.25-20.85C311.28,110.8,153,26.25,153,26.24c-2.85-1.55-5.43-3.73-8.54-4.58-6.54-1.79-13.61-2.8-20.36-1.68-12.74,2.12-23.18,14.65-19.84,28.33,1.1,4.5,3.37,8.3,3.75,12.91C108.72,70,98.91,75,93.34,80.11S82.5,90.16,77.09,95.2Q67,104.58,57,114L37.08,132.71,21.3,147.56l-7.65,7.2C13.59,154.83,13.52,154.9,13.45,155Z"/><path class="cls-2" d="M13.86,155s-14,10.47-12.08,30.82c.83,8.75,7.5,15,7.5,15s2.5,3.75,18.33,11.25c20.92,9.91,41,21.92,61.27,33.12,16.08,8.89,31.61,18.93,48.63,26,8.7,3.61,17.07,6.19,26.56,6.13a67.7,67.7,0,0,0,28-6.47c9.88-4.59,17.45-11.39,25.53-18.56q19.8-17.57,38.67-36.13,9.43-9.28,18.63-18.8c5.55-5.75,10.64-12.22,17.16-16.92a43.66,43.66,0,0,1,29.19-7.93c12.34,1.07,23.66-7.36,26.76-19.26,3.83-14.72-6.84-27.28-19.26-33.64-4.81-2.46-9.56-5-14.32-7.6q-12.85-6.89-25.67-13.84-16.16-8.74-32.31-17.51L222.21,62,190.71,44.85,166.66,31.76c-12.18-6.63-26.32-14-40.64-12.55a27.94,27.94,0,0,0-10.78,3.86c-8.08,4.5-14.81,14.59-12.76,24,1,4.75,4,9,4.7,13.78C108.33,68.53,101,73.43,96,78s-9.86,9.1-14.77,13.68q-9.64,9-19.25,18l-20,18.73L25.18,144.3l-10,9.45A15.71,15.71,0,0,1,13.86,155Z"/><path class="cls-3" d="M81.67,99.58q5.5-5.23,11-10.41c6.07-5.68,14.59-11.06,18.56-18.51,3.56-6.67.75-15.49-2.43-22.34-5.52-11.89,9.61-31.75,34.25-21.13s184.69,99.35,184.77,99.39c5.29,2.93,10.92,7.56,13.66,13,3.64,7.28-1.23,14.88-7.23,19-7.35,5.09-16,3.78-24.51,4.29a33.76,33.76,0,0,0-4.87.53c-10.11,2.12-20.62,11.14-28,17.91-21.53,19.69-41.44,41.18-62.3,61.54-5.83,5.68-11.07,12.12-17.86,16.71-5.71,3.85-12.62,6.24-19.31,7.75-16.72,3.78-33.94.59-48.76-7.85-28-15.95-56.1-31.65-84.22-47.35L25.37,201.56c-7.89-4.39-16.17-8.24-17.86-18.07-1.62-9.41,4-17.74,10.71-23.77C39.85,140.2,60.56,119.67,81.67,99.58Z"/><path class="cls-4" d="M13.46,155S.13,165.41,1.38,185.82c.43,7,.53,14,.66,21,.14,7.15-1.56,14.57.15,21.62,2.1,8.7,9.15,16.12,17.1,19.88,15.83,7.5,120,65.41,120,65.41S178,330.81,214.7,296.65l73.75-73.75s11.25-11.25,32.08-9.17a24.59,24.59,0,0,0,20.75-8.21c5.49-6,7.64-11.76,7.5-19.84,0-8.53-.3-17.08-.45-25.62-.11-6.23.85-13.58-.63-19.63-2.25-9.26-11.24-16.75-19.26-20.86C311.36,110.82,153,26.25,153,26.25c-2.85-1.55-5.43-3.73-8.54-4.58-6.54-1.79-13.62-2.8-20.37-1.68-12.74,2.12-23.18,14.65-19.84,28.34,1.1,4.5,3.37,8.3,3.75,12.92C108.76,70,98.95,75,93.37,80.13s-10.85,10-16.25,15.09Q67.06,104.6,57,114L37.1,132.74,21.31,147.59l-7.65,7.21C13.6,154.86,13.53,154.93,13.46,155Z"/><path class="cls-5" d="M13.88,155s-14,10.47-12.08,30.83c.83,8.75,7.5,15,7.5,15s2.5,3.75,18.33,11.25c20.93,9.91,41,21.92,61.28,33.12,16.08,8.9,31.62,18.93,48.64,26,8.7,3.61,17.07,6.19,26.56,6.13a67.71,67.71,0,0,0,28-6.47c9.88-4.59,17.46-11.4,25.53-18.56q19.8-17.57,38.68-36.14,9.44-9.28,18.63-18.81c5.55-5.75,10.64-12.23,17.17-16.92a43.67,43.67,0,0,1,29.2-7.93c12.34,1.07,23.67-7.37,26.77-19.27,3.83-14.72-6.84-27.28-19.27-33.65-4.81-2.46-9.56-5-14.32-7.6q-12.85-6.9-25.67-13.84-16.17-8.74-32.32-17.51L222.28,62,190.76,44.86l-24.06-13.1c-12.18-6.63-26.32-14-40.65-12.55a27.94,27.94,0,0,0-10.78,3.86c-8.08,4.5-14.82,14.59-12.76,24,1,4.75,4,9,4.7,13.79,1.14,7.7-6.15,12.61-11.15,17.2S86.21,87.14,81.3,91.71q-9.64,9-19.26,18l-20,18.73L25.19,144.33l-10,9.45A15.71,15.71,0,0,1,13.88,155Z"/><path class="cls-6" d="M81.7,99.6q5.5-5.23,11-10.42c6.08-5.68,14.59-11.06,18.56-18.52,3.56-6.67.75-15.5-2.43-22.34-5.52-11.9,9.62-31.75,34.26-21.13s184.74,99.37,184.81,99.42c5.29,2.93,10.93,7.56,13.66,13,3.64,7.28-1.23,14.88-7.24,19-7.35,5.09-16,3.78-24.51,4.29a33.77,33.77,0,0,0-4.87.53c-10.12,2.12-20.62,11.14-28,17.91-21.54,19.69-41.45,41.19-62.32,61.55-5.83,5.69-11.07,12.13-17.87,16.72-5.71,3.85-12.63,6.24-19.32,7.75-16.72,3.78-33.95.6-48.77-7.85-28-16-56.12-31.65-84.24-47.36L25.38,201.6c-7.89-4.4-16.17-8.24-17.87-18.07-1.62-9.41,4-17.74,10.71-23.78C39.87,140.23,60.59,119.7,81.7,99.6Z"/><path class="cls-4" d="M12.47,155.25S-.88,165.69.37,186.15c.43,7,.53,14,.66,21,.14,7.17-1.56,14.6.15,21.66,2.11,8.72,9.17,16.15,17.14,19.92,15.86,7.51,120.23,65.54,120.23,65.54s38.82,17.12,75.56-17.12L288,223.3s11.27-11.27,32.14-9.18a24.64,24.64,0,0,0,20.79-8.23c5.5-6,7.66-11.78,7.52-19.88,0-8.55-.3-17.11-.45-25.67-.11-6.25.85-13.61-.63-19.67-2.26-9.27-11.26-16.78-19.3-20.9C311,111,152.33,26.26,152.32,26.26c-2.86-1.56-5.44-3.74-8.55-4.59-6.55-1.8-13.64-2.8-20.41-1.68-12.77,2.12-23.23,14.68-19.88,28.39,1.1,4.5,3.38,8.32,3.76,12.94.72,8.79-9.11,13.78-14.69,18.92S81.68,90.31,76.26,95.37q-10.08,9.4-20.13,18.83L36.16,133,20.34,147.84l-7.66,7.22C12.61,155.12,12.55,155.2,12.47,155.25Z"/><path class="cls-7" d="M12.89,155.25s-14,10.49-12.11,30.89c.83,8.77,7.51,15,7.51,15s2.5,3.76,18.37,11.27c21,9.93,41.11,22,61.4,33.19,16.11,8.91,31.68,19,48.74,26,8.71,3.61,17.11,6.2,26.62,6.14a67.84,67.84,0,0,0,28.08-6.48c9.9-4.6,17.49-11.42,25.58-18.6q19.84-17.6,38.76-36.21,9.45-9.3,18.67-18.84c5.56-5.76,10.66-12.25,17.2-17A43.76,43.76,0,0,1,321,172.79c12.37,1.08,23.72-7.38,26.82-19.3,3.84-14.75-6.85-27.34-19.31-33.71-4.82-2.47-9.58-5.06-14.35-7.62q-12.87-6.91-25.72-13.87Q272.22,89.52,256,80.73L221.7,62.08,190.12,44.91,166,31.79c-12.21-6.65-26.38-14-40.73-12.57a28,28,0,0,0-10.8,3.87c-8.09,4.51-14.85,14.62-12.79,24,1,4.76,4,9,4.71,13.81,1.14,7.72-6.17,12.64-11.18,17.23s-9.88,9.12-14.8,13.71q-9.66,9-19.29,18l-20,18.77L24.23,144.58,14.17,154A15.74,15.74,0,0,1,12.89,155.25Z"/><path class="cls-8" d="M80.85,99.76q5.51-5.24,11.06-10.44c6.09-5.69,14.62-11.08,18.6-18.55,3.56-6.69.75-15.53-2.43-22.38-5.53-11.92,9.63-31.82,34.32-21.17s185.1,99.57,185.17,99.61c5.3,2.94,10.95,7.57,13.69,13.05,3.65,7.3-1.23,14.91-7.25,19.08-7.37,5.1-16.07,3.79-24.56,4.3a33.84,33.84,0,0,0-4.88.54c-10.14,2.12-20.66,11.16-28.08,17.95C254.91,201.46,235,223,214,243.41c-5.84,5.7-11.09,12.15-17.9,16.75-5.72,3.86-12.65,6.25-19.35,7.77-16.75,3.79-34,.6-48.87-7.87-28-16-56.23-31.72-84.41-47.45L24.42,202c-7.9-4.4-16.2-8.26-17.9-18.11-1.63-9.43,4-17.78,10.73-23.83C38.93,140.46,59.69,119.89,80.85,99.76Z"/></svg>