<svg id="Layer_1" data-name="Layer 1" xmlns="http://www.w3.org/2000/svg" viewBox="0 0 350 350"><defs><style>.cls-1{fill:#865f2c;}.cls-2{fill:#c79d6b;}.cls-3{fill:#d2ac7c;}.cls-4{fill:#987b55;}.cls-5{fill:#dec5a5;}</style></defs><title>Multigrain</title><path class="cls-1" d="M13,138.64S-.36,149.07.89,169.52c.43,7,.53,14,.66,21,.14,7.16-1.56,14.59.15,21.66,2.11,8.72,9.17,16.14,17.13,19.92C34.69,239.63,139,297.64,139,297.64s38.81,17.11,75.54-17.11l73.87-73.87s11.27-11.27,32.13-9.18a24.63,24.63,0,0,0,20.78-8.23c5.5-6,7.66-11.78,7.51-19.87,0-8.55-.3-17.11-.45-25.66-.11-6.24.85-13.6-.63-19.66-2.26-9.27-11.26-16.78-19.29-20.89C311.38,94.4,152.8,9.69,152.8,9.68c-2.86-1.56-5.44-3.74-8.55-4.59-6.55-1.8-13.64-2.8-20.4-1.68C111.08,5.54,100.63,18.09,104,31.8c1.1,4.5,3.38,8.32,3.76,12.94.72,8.78-9.11,13.77-14.69,18.91S82.17,73.72,76.76,78.77Q66.69,88.17,56.64,97.6l-20,18.75L20.86,131.23l-7.66,7.22C13.13,138.51,13.07,138.58,13,138.64Z"/><path class="cls-2" d="M13.41,138.64s-14,10.49-12.1,30.88c.83,8.76,7.51,15,7.51,15s2.5,3.76,18.36,11.27c21,9.93,41.1,22,61.38,33.18,16.11,8.91,31.67,19,48.72,26,8.71,3.61,17.1,6.2,26.61,6.14A67.82,67.82,0,0,0,192,254.69c9.9-4.6,17.48-11.42,25.57-18.59q19.83-17.6,38.75-36.2,9.45-9.3,18.66-18.84c5.56-5.76,10.66-12.25,17.2-16.95a43.74,43.74,0,0,1,29.25-7.94c12.36,1.07,23.71-7.38,26.81-19.3,3.84-14.75-6.85-27.33-19.3-33.7-4.82-2.47-9.57-5.06-14.34-7.61q-12.87-6.91-25.71-13.87-16.19-8.76-32.37-17.54L222.15,45.5,190.59,28.33l-24.1-13.12c-12.2-6.65-26.37-14-40.71-12.57A28,28,0,0,0,115,6.5c-8.09,4.51-14.84,14.62-12.78,24,1,4.76,4,9,4.71,13.81C108.05,52,100.75,57,95.74,61.55s-9.88,9.12-14.79,13.7q-9.66,9-19.29,18l-20,18.76L24.74,128l-10.05,9.47A15.74,15.74,0,0,1,13.41,138.64Z"/><path class="cls-3" d="M81.34,83.16q5.51-5.24,11.06-10.43C98.48,67,107,61.65,111,54.18c3.56-6.69.75-15.52-2.43-22.38C103,19.89,118.19,0,142.87,10.63s185,99.54,185.11,99.58c5.3,2.94,10.94,7.57,13.69,13,3.65,7.29-1.23,14.91-7.25,19.07-7.37,5.1-16.07,3.78-24.55,4.3a33.83,33.83,0,0,0-4.88.54c-10.13,2.12-20.66,11.16-28.07,17.94-21.57,19.72-41.52,41.26-62.42,61.66-5.84,5.7-11.09,12.15-17.9,16.75-5.72,3.86-12.65,6.25-19.35,7.76-16.75,3.78-34,.6-48.85-7.86-28-16-56.21-31.71-84.38-47.44L24.93,185.33c-7.9-4.4-16.2-8.26-17.9-18.1-1.63-9.43,4-17.77,10.73-23.82C39.44,123.85,60.2,103.29,81.34,83.16Z"/><path class="cls-4" d="M149.88,98.16c-4.46-1.65-7.37-1.35-12.1-1.83a5.5,5.5,0,0,0-3.09.31,2,2,0,0,0-1,2.62,3,3,0,0,0,1.41,1c2.62,1.22,5.35,2.47,8.25,2.45s6-1.72,6.64-4.54"/><path class="cls-4" d="M264.84,105.07c-1.12-2.44-2.41-3.48-4.1-5.57a3.11,3.11,0,0,0-1.36-1.11,1.14,1.14,0,0,0-1.46.63,1.68,1.68,0,0,0,.15,1,11.08,11.08,0,0,0,2.32,4.28,3.79,3.79,0,0,0,4.47.84"/><path class="cls-4" d="M199.81,95.1c-2.44,1.12-3.48,2.41-5.57,4.1a3.11,3.11,0,0,0-1.11,1.36,1.14,1.14,0,0,0,.63,1.46,1.68,1.68,0,0,0,1-.15A11.08,11.08,0,0,0,199,99.55a3.79,3.79,0,0,0,.84-4.47"/><path class="cls-4" d="M237.75,132.11c.93-2.5.76-4.14,1-6.79a3.09,3.09,0,0,0-.17-1.73,1.14,1.14,0,0,0-1.47-.58,1.67,1.67,0,0,0-.59.79,11,11,0,0,0-1.38,4.63,3.76,3.76,0,0,0,2.55,3.73"/><path class="cls-4" d="M102.57,152a14.06,14.06,0,0,0,3.3-2.43,1.84,1.84,0,0,0,.66-.8.68.68,0,0,0-.38-.86,1,1,0,0,0-.58.09,6.56,6.56,0,0,0-2.53,1.37,2.24,2.24,0,0,0-.5,2.65"/><path class="cls-4" d="M153.28,234.1c3.8,1,6.45.4,10.63.3a5.32,5.32,0,0,0,2.8-.64c.89-.56,1.59-1.77,1.23-2.56a1.86,1.86,0,0,0-1.14-.81c-2.21-.84-4.51-1.68-7.11-1.33s-5.57,2.3-6.47,5"/><path class="cls-4" d="M158.42,135.12c-1.12-2.44-2.41-3.48-4.1-5.57a3.11,3.11,0,0,0-1.36-1.11,1.14,1.14,0,0,0-1.46.63,1.68,1.68,0,0,0,.15,1,11.08,11.08,0,0,0,2.32,4.28,3.79,3.79,0,0,0,4.47.84"/><path class="cls-4" d="M93.39,125.14c-2.44,1.12-3.48,2.41-5.57,4.1a3.11,3.11,0,0,0-1.11,1.36,1.14,1.14,0,0,0,.63,1.46,1.68,1.68,0,0,0,1-.15,11.08,11.08,0,0,0,4.28-2.32,3.79,3.79,0,0,0,.84-4.47"/><path class="cls-4" d="M130.27,168.8c1.3-3.5,1.06-5.78,1.44-9.5a4.31,4.31,0,0,0-.24-2.42,1.59,1.59,0,0,0-2.06-.81,2.33,2.33,0,0,0-.82,1.1,15.38,15.38,0,0,0-1.92,6.47c0,2.27,1.35,4.7,3.57,5.21"/><path class="cls-4" d="M181.85,56c-1.85-2-3.4-2.53-5.67-4a3.11,3.11,0,0,0-1.64-.62,1.14,1.14,0,0,0-1.18,1.07,1.68,1.68,0,0,0,.45.88,11.08,11.08,0,0,0,3.57,3.31,3.79,3.79,0,0,0,4.5-.64"/><path class="cls-4" d="M130.68,29.61c2-1.85,2.53-3.4,4-5.67a3.11,3.11,0,0,0,.62-1.64,1.14,1.14,0,0,0-1.07-1.18,1.68,1.68,0,0,0-.88.45A11.08,11.08,0,0,0,130,25.13a3.79,3.79,0,0,0,.64,4.5"/><path class="cls-4" d="M90,172.26c-1.12-2.44-2.41-3.48-4.1-5.57a3.11,3.11,0,0,0-1.36-1.11,1.14,1.14,0,0,0-1.46.63,1.68,1.68,0,0,0,.15,1,11.08,11.08,0,0,0,2.32,4.28,3.79,3.79,0,0,0,4.47.84"/><path class="cls-4" d="M25,162.29c-2.44,1.12-3.48,2.41-5.57,4.1a3.11,3.11,0,0,0-1.11,1.36,1.14,1.14,0,0,0,.63,1.46,1.68,1.68,0,0,0,1-.15,11.08,11.08,0,0,0,4.28-2.32,3.79,3.79,0,0,0,.84-4.47"/><path class="cls-5" d="M206.66,167.48a2.93,2.93,0,0,0-1.35.35,2.15,2.15,0,0,0-.93,1.49,4,4,0,0,0,.19,1.82c.18.56.46,1.1.85,1.24.57.2,1.09-.53,1.43-1.27a5,5,0,0,0,.54-2.2c0-.8-.4-1.62-.9-1.64"/><path class="cls-5" d="M144.66,56.5a6.16,6.16,0,0,0-2.69.65,4,4,0,0,0-1.86,2.79,7.06,7.06,0,0,0,.38,3.43c.36,1.06.92,2.07,1.69,2.33,1.13.37,2.18-1,2.86-2.39a9,9,0,0,0,1.08-4.13c0-1.5-.8-3.05-1.8-3.07"/><path class="cls-5" d="M112.94,169.6a6.16,6.16,0,0,0-2.69.65,4,4,0,0,0-1.86,2.79,7.06,7.06,0,0,0,.38,3.43c.36,1.06.92,2.07,1.69,2.33,1.13.37,2.18-1,2.86-2.39a9,9,0,0,0,1.08-4.13c0-1.5-.8-3.05-1.8-3.07"/><path class="cls-5" d="M47.75,153.23a4.73,4.73,0,0,0-.08-2.12,3.1,3.1,0,0,0-1.82-1.83,5.43,5.43,0,0,0-2.64-.23,2.72,2.72,0,0,0-2,.92c-.45.79.42,1.79,1.37,2.52a6.92,6.92,0,0,0,2.94,1.44c1.14.2,2.42-.14,2.59-.89"/><path class="cls-5" d="M102.13,101a2.34,2.34,0,0,0-1.08.28,1.72,1.72,0,0,0-.75,1.19,3.19,3.19,0,0,0,.15,1.46c.14.45.37.88.68,1s.87-.42,1.15-1a4,4,0,0,0,.43-1.76c0-.64-.32-1.3-.72-1.31"/><path class="cls-5" d="M167.6,116.11a6.16,6.16,0,0,0,.64-2.69,4,4,0,0,0-1.65-2.93,7.06,7.06,0,0,0-3.23-1.21,3.54,3.54,0,0,0-2.84.45c-.84.84-.1,2.39.84,3.63a9,9,0,0,0,3.19,2.83c1.36.65,3.08.67,3.56-.21"/><path class="cls-5" d="M187.23,151.65a6.16,6.16,0,0,0-2.69.65,4,4,0,0,0-1.86,2.79,7.06,7.06,0,0,0,.38,3.43c.36,1.06.92,2.07,1.69,2.33,1.13.37,2.18-1,2.86-2.39a9,9,0,0,0,1.08-4.13c0-1.5-.8-3.05-1.8-3.07"/><path class="cls-5" d="M122,135.29a4.73,4.73,0,0,0-.08-2.12,3.1,3.1,0,0,0-1.82-1.83,5.43,5.43,0,0,0-2.64-.23,2.72,2.72,0,0,0-2,.92c-.45.79.42,1.79,1.37,2.52a6.92,6.92,0,0,0,2.94,1.44c1.14.2,2.42-.14,2.59-.89"/><path class="cls-5" d="M232.68,93.16a2.14,2.14,0,0,0-.38-1.5,4.85,4.85,0,0,0-2.53-1.44,12.58,12.58,0,0,0-3.34-.38,4,4,0,0,0-2.4.48c-.46.52.76,1.29,2,1.89A15.13,15.13,0,0,0,230,93.47c1.45.24,3,.1,3.13-.42"/><path class="cls-5" d="M160.27,222.62a1.62,1.62,0,0,0-.29-1.14,3.68,3.68,0,0,0-1.92-1.09,9.54,9.54,0,0,0-2.53-.29,3.06,3.06,0,0,0-1.82.37c-.35.4.58,1,1.55,1.43a11.48,11.48,0,0,0,2.95.95c1.1.18,2.29.08,2.37-.32"/><path class="cls-4" d="M213.24,118.8c1,2.12,2.09,3,3.56,4.83a2.7,2.7,0,0,0,1.18,1,1,1,0,0,0,1.26-.55,1.45,1.45,0,0,0-.13-.85,9.61,9.61,0,0,0-2-3.71,3.29,3.29,0,0,0-3.88-.73"/><path class="cls-4" d="M109.89,209.86c-.93,2.52-.76,4.16-1,6.84a3.11,3.11,0,0,0,.17,1.75,1.14,1.14,0,0,0,1.48.58,1.68,1.68,0,0,0,.59-.8,11.08,11.08,0,0,0,1.38-4.66,3.79,3.79,0,0,0-2.57-3.75"/><path class="cls-4" d="M235.46,169.4c-.93,2.52-.76,4.16-1,6.84a3.11,3.11,0,0,0,.17,1.75,1.14,1.14,0,0,0,1.48.58,1.68,1.68,0,0,0,.59-.8,11.08,11.08,0,0,0,1.38-4.66,3.79,3.79,0,0,0-2.57-3.75"/><path class="cls-5" d="M217.34,155a6.16,6.16,0,0,0,2.36,1.44,4,4,0,0,0,3.29-.66,7.06,7.06,0,0,0,2.15-2.69,3.54,3.54,0,0,0,.45-2.84c-.54-1.06-2.24-.84-3.71-.33a9,9,0,0,0-3.68,2.16c-1,1.09-1.59,2.72-.9,3.45"/><path class="cls-5" d="M176.51,211.16a2.34,2.34,0,0,0,1,.57,1.72,1.72,0,0,0,1.37-.31,3.19,3.19,0,0,0,.93-1.14,1.5,1.5,0,0,0,.22-1.18c-.21-.43-.92-.32-1.53-.09a4,4,0,0,0-1.55.94c-.44.46-.69,1.14-.42,1.44"/><path class="cls-5" d="M152.43,179.14A4.73,4.73,0,0,0,151,180.7a3.1,3.1,0,0,0,0,2.58,5.43,5.43,0,0,0,1.7,2,2.72,2.72,0,0,0,2.07.77c.88-.24,1-1.56.81-2.75a6.92,6.92,0,0,0-1.07-3.1c-.66-.95-1.81-1.61-2.46-1.2"/><path class="cls-5" d="M258.35,125.36a2.93,2.93,0,0,0-1.2-.71,2.15,2.15,0,0,0-1.71.39,4,4,0,0,0-1.16,1.42,1.88,1.88,0,0,0-.28,1.47c.26.54,1.14.4,1.91.11a5,5,0,0,0,1.93-1.17c.55-.58.87-1.43.52-1.79"/><path class="cls-5" d="M311.77,124.59a2.14,2.14,0,0,0,.79-1.33,4.85,4.85,0,0,0-.77-2.8,12.58,12.58,0,0,0-2.09-2.63c-.75-.74-1.56-1.38-2-1.35-.7,0-.38,1.45.11,2.78a15.13,15.13,0,0,0,1.86,3.63c.86,1.2,2.06,2.2,2.51,1.92"/><path class="cls-4" d="M272.74,125c-.56,1.77-.35,3-.42,4.88a2.31,2.31,0,0,0,.21,1.27c.23.39.76.68,1.12.49a1,1,0,0,0,.39-.54,7.09,7.09,0,0,0,.79-3.29,3.23,3.23,0,0,0-2.07-2.83"/></svg>