<svg id="Layer_1" data-name="Layer 1" xmlns="http://www.w3.org/2000/svg" viewBox="0 0 350 350"><defs><style>.cls-1{fill:#463a2c;}.cls-2{fill:#4d4031;}.cls-3{fill:#766047;}</style></defs><title>Rye</title><path class="cls-1" d="M13.14,139S-.21,149.45,1,169.89c.43,7,.53,14,.66,21,.14,7.16-1.56,14.59.15,21.65C4,221.28,11,228.7,19,232.47,34.83,240,139.13,298,139.13,298s38.8,17.11,75.51-17.11L288.49,207s11.26-11.26,32.12-9.18a24.63,24.63,0,0,0,20.77-8.23c5.5-6,7.65-11.77,7.51-19.87,0-8.55-.3-17.1-.45-25.65-.11-6.24.85-13.6-.63-19.66-2.26-9.27-11.25-16.77-19.28-20.89C311.44,94.8,152.91,10.11,152.9,10.1c-2.85-1.56-5.44-3.73-8.55-4.59C137.8,3.72,130.71,2.72,124,3.84,111.19,6,100.74,18.51,104.09,32.22c1.1,4.5,3.38,8.31,3.75,12.93.72,8.78-9.1,13.77-14.69,18.91S82.3,74.12,76.88,79.17Q66.81,88.57,56.77,98l-20,18.74L21,131.61l-7.66,7.22C13.27,138.89,13.21,139,13.14,139Z"/><path class="cls-2" d="M13.55,139s-14,10.48-12.1,30.87c.83,8.76,7.51,15,7.51,15s2.5,3.75,18.36,11.26c21,9.93,41.09,22,61.37,33.17,16.1,8.91,31.66,19,48.71,26,8.71,3.61,17.09,6.2,26.6,6.14A67.8,67.8,0,0,0,192.06,255c9.89-4.6,17.48-11.41,25.57-18.59q19.83-17.59,38.74-36.19,9.45-9.3,18.66-18.83c5.56-5.76,10.66-12.24,17.19-16.94a43.73,43.73,0,0,1,29.24-7.94c12.36,1.07,23.7-7.38,26.8-19.29,3.84-14.74-6.85-27.32-19.29-33.69-4.82-2.47-9.57-5.05-14.34-7.61Q301.75,89,288.91,82.08q-16.19-8.76-32.36-17.54L222.23,45.9,190.68,28.74,166.59,15.63c-12.2-6.64-26.36-14-40.7-12.57a28,28,0,0,0-10.79,3.86c-8.09,4.51-14.84,14.61-12.78,24,1,4.76,4,9,4.71,13.8,1.14,7.71-6.16,12.63-11.17,17.22S86,71.08,81.07,75.66q-9.66,9-19.28,18l-20,18.76L24.88,128.35l-10.05,9.47A15.73,15.73,0,0,1,13.55,139Z"/><path class="cls-3" d="M81.47,83.56Q87,78.32,92.52,73.13c6.08-5.69,14.61-11.07,18.59-18.54,3.56-6.68.75-15.52-2.43-22.37C103.15,20.3,118.3.42,143,11.05S328,110.56,328,110.6c5.3,2.94,10.94,7.57,13.68,13,3.65,7.29-1.23,14.9-7.24,19.07-7.36,5.1-16.06,3.78-24.54,4.3a33.82,33.82,0,0,0-4.88.54c-10.13,2.12-20.65,11.16-28.06,17.93-21.57,19.72-41.51,41.25-62.4,61.64-5.83,5.69-11.08,12.14-17.89,16.74-5.71,3.86-12.64,6.25-19.34,7.76-16.74,3.78-34,.6-48.84-7.86-28-16-56.19-31.7-84.36-47.42L25.07,185.69c-7.9-4.4-16.19-8.26-17.89-18.1-1.63-9.42,4-17.77,10.72-23.81C39.58,124.24,60.32,103.68,81.47,83.56Z"/></svg>