<svg id="Layer_1" data-name="Layer 1" xmlns="http://www.w3.org/2000/svg" viewBox="0 0 350 350"><defs><style>.cls-1{fill:#f0e8cd;}.cls-2{fill:#f3e6e3;}.cls-3{fill:#fff;}</style></defs><title>Mayo</title><path class="cls-1" d="M99.9,158.86c-.42,2-.89,4-1.24,6-.2,1-.35,2-.49,3s-.31,2-.42,3c-.26,2-.41,4-.58,5.94l-.14,3c0,1,0,2-.06,3a92.74,92.74,0,0,0,2.67,23,81.91,81.91,0,0,0,3.45,10.77,72.68,72.68,0,0,0,4.82,10,61.71,61.71,0,0,0,13.6,16.4c.65.58,1.35,1.09,2,1.62s1.39,1,2.1,1.5,1.42,1,2.15,1.4l1.07.66c.26.15.21.05-.31-.17a6.73,6.73,0,0,0-5.89.49,5.78,5.78,0,0,0-1.44,1.19c-.24.27-.32.43-.35.44s0-.25.08-.63c0-.21,0-.34.05-.63l.11-1.44a231,231,0,0,0,.72-23.35c-.28-15.85-1.3-32.39.06-49.47a152,152,0,0,1,4.09-25.6,132.05,132.05,0,0,1,8.83-24.49,159.09,159.09,0,0,1,12.9-22.15c.6-.88,1.23-1.73,1.84-2.6s1.24-1.72,1.88-2.56a48.83,48.83,0,0,1,4.34-5.25,17.79,17.79,0,0,1,3.12-2.57,12.53,12.53,0,0,1,4.21-1.74,12,12,0,0,1,8.83,1.72,13.16,13.16,0,0,1,3.21,2.9,13.65,13.65,0,0,1,2.07,3.66,22.72,22.72,0,0,1,1.36,7.24,47.22,47.22,0,0,1-.3,6.64c-.26,2.1-.45,4.18-.75,6.26s-.59,4.14-1,6.2-.71,4.1-1.08,6.15c-.81,4.07-1.62,8.15-2.5,12.18-1.74,8.08-3.56,16.08-5.09,24.06-.75,4-1.47,8-2,11.94-.3,2-.52,4-.78,5.94s-.42,3.92-.54,5.88c-.29,3.91-.34,7.81-.29,11.66,0,1,.09,1.92.12,2.88s.09,1.91.18,2.86l.24,2.83.36,2.79.18,1.39.25,1.37c.17.91.32,1.82.51,2.72.44,1.77.81,3.56,1.37,5.24s1.12,3.35,1.7,5c.33.79.71,1.55,1.05,2.33a19.32,19.32,0,0,0,1.13,2.24,41.5,41.5,0,0,0,2.55,4.16,37.33,37.33,0,0,0,3,3.59c.53.54,1.06,1.17,1.57,1.59a13.29,13.29,0,0,0,1.41,1.09,3.31,3.31,0,0,0,1.65.72.45.45,0,0,0,.24-.07s.11-.07.16-.06a1.09,1.09,0,0,1,.27-.1,8.33,8.33,0,0,0,1.95-1.19,15.19,15.19,0,0,0,4.15-5.43c.21-.47.47-1.12.68-1.75s.41-1.29.57-2a32.23,32.23,0,0,0,.73-4.42,84.13,84.13,0,0,0,.17-10.66c-.22-8-.64-16.21-.79-24.56-.39-16.65,0-34.12,4.08-51.71a113.21,113.21,0,0,1,9.2-25.73c.25-.52.49-1,.76-1.55l.85-1.51,1.7-3,.86-1.5c.27-.5.59-1,1-1.58a32.82,32.82,0,0,1,2.93-4,20.66,20.66,0,0,1,5.29-4.43,18.62,18.62,0,0,1,15.89-1.57,21.62,21.62,0,0,1,6,3.32,25.48,25.48,0,0,1,7,8.8,26.77,26.77,0,0,1,1.07,2.55l.45,1.33.27,1c.16.68.35,1.37.48,2l.36,2a58.47,58.47,0,0,1,.17,15,130.15,130.15,0,0,1-2.21,13.08c-.86,4.11-1.79,8.05-2.54,11.81-1.5,7.52-2.33,14.55-.59,19.73l.34,1c.13.32.28.61.41.93.28.69.5,1,.38,1s-.24-.12-.55-.24a3.38,3.38,0,0,0-.52-.16,1.66,1.66,0,0,0-.5-.06c-.69,0-1.2.26-1.17.34s.33,0,.71-.3a7.66,7.66,0,0,0,1.25-1.22,12.79,12.79,0,0,0,1.19-1.69c.18-.3.34-.61.49-.91l.23-.46.25-.62A90.29,90.29,0,0,0,248.38,163a84.43,84.43,0,0,1,3.88-12.44A33.69,33.69,0,0,1,260,139.45a22.14,22.14,0,0,1,5.62-3.9,14.63,14.63,0,0,1,6.66-1.53l.22,2.39c-3.63.91-6.41,3.55-8.49,6.57a28.49,28.49,0,0,0-4.24,10.11c-1.63,7.25-.89,15.37-2.82,24.52l-.18.85-.27,1c-.19.67-.41,1.31-.65,1.94a26,26,0,0,1-1.75,3.7,22,22,0,0,1-2.55,3.59,15.5,15.5,0,0,1-4.16,3.39l-.69.37c-.25.12-.53.23-.79.33a9.68,9.68,0,0,1-1.71.54,11.75,11.75,0,0,1-3.91.26,14.23,14.23,0,0,1-2-.37,11.82,11.82,0,0,1-1.94-.73,13.34,13.34,0,0,1-3-2,19.21,19.21,0,0,1-3.29-3.92c-.37-.58-.76-1.15-1.11-1.74L228,183a36.32,36.32,0,0,1-2.69-7.53,52.31,52.31,0,0,1-1.12-7.44,86.25,86.25,0,0,1,.27-13.74c.36-4.35.89-8.47,1.34-12.45s.78-7.77.83-11.29a36.35,36.35,0,0,0-.85-9.45l-.27-1c-.09-.32-.22-.61-.32-.92l-.15-.45-.08-.11c0-.08-.13-.17-.16-.26-.26-.36-.7-.72-.71-.62s.16.22.59.39a4.41,4.41,0,0,0,2.06.31,5.7,5.7,0,0,0,2-.55c.45-.28.72-.52.67-.44l-.6,1c-.17.29-.37.67-.57,1.08l-.6,1.2-1.2,2.4-.6,1.2c-.19.41-.35.83-.52,1.24a101.24,101.24,0,0,0-6.55,20.7c-3.06,14.46-3.67,30-4,46-.1,8-.15,16.23-.32,24.58a102.15,102.15,0,0,1-1,13.86,54.88,54.88,0,0,1-1.74,7.61c-.39,1.28-.85,2.57-1.37,3.85a40.69,40.69,0,0,1-1.81,3.86,37.91,37.91,0,0,1-5,7.16,35.77,35.77,0,0,1-6.67,5.92,28.69,28.69,0,0,1-9,4.16c-.9.21-1.81.39-2.73.52a26.81,26.81,0,0,1-2.9.19,22.11,22.11,0,0,1-5.84-.76,25.17,25.17,0,0,1-9.22-4.81,33.27,33.27,0,0,1-3.19-3c-1-1-1.71-2-2.53-3a53,53,0,0,1-4.33-6.24,61.11,61.11,0,0,1-3.24-6.67,59.62,59.62,0,0,1-2.38-6.82c-.57-2.29-1.18-4.58-1.52-6.87s-.62-4.56-.88-6.83c-.09-1.13-.13-2.26-.19-3.38l-.09-1.69v-1.67a121.12,121.12,0,0,1,2.76-26c1.69-8.44,4.14-16.41,6.51-24.36s4.91-15.72,7.07-23.55a189.47,189.47,0,0,0,5.21-23.61,63.47,63.47,0,0,0,.93-11.56,13.36,13.36,0,0,0-1-4.76,5.9,5.9,0,0,0-1-1.63,5.47,5.47,0,0,0-1.39-1.13,3.64,3.64,0,0,0-2.95-.4,6.68,6.68,0,0,0-2.86,2.22,39.16,39.16,0,0,0-3,4.57q-.78,1.26-1.51,2.56t-1.43,2.6a116.15,116.15,0,0,0-8.93,21.8,119.17,119.17,0,0,0-4.45,22.74,205.85,205.85,0,0,0-.81,23.25c.24,15.68,1.55,31.88,1.28,48.79a199.17,199.17,0,0,1-1.81,25.69l-.21,1.62c-.1.73-.26,1.61-.46,2.4a22.87,22.87,0,0,1-1.88,5.18,17.47,17.47,0,0,1-2,3,14.69,14.69,0,0,1-3.68,3.27,13.39,13.39,0,0,1-5.86,1.92,13.1,13.1,0,0,1-5.91-.93,16.48,16.48,0,0,1-3-1.62l-1.48-1.05c-1-.69-1.94-1.39-2.85-2.16s-1.85-1.5-2.71-2.32-1.76-1.58-2.57-2.44a73.1,73.1,0,0,1-15.45-22.9,84,84,0,0,1-4.28-12.81,88.5,88.5,0,0,1-2.15-13.13A85.77,85.77,0,0,1,97.67,158Z"/><path class="cls-2" d="M101.48,154.3a94,94,0,0,0-2.06,22.07,71.73,71.73,0,0,0,3.76,20.75,61.69,61.69,0,0,0,23.76,31.38c.7.43,1.34.93,2,1.34l1,.64a7.56,7.56,0,0,0,.79.46.94.94,0,0,0-.26-.16,5.17,5.17,0,0,0-.93-.35,7.14,7.14,0,0,0-3.39-.07,7,7,0,0,0-2.78,1.33,5.88,5.88,0,0,0-1.1,1.13c-.33.47-.26.4-.26.19l0-.4.06-.87c.15-1.76.25-3.53.33-5.31.28-7.12.19-14.38-.11-21.8-.61-14.8-1.53-30.37.2-46.41a127.12,127.12,0,0,1,4.76-23.87A122.19,122.19,0,0,1,136.72,112a146,146,0,0,1,12.93-20,33.65,33.65,0,0,1,4.42-5,14.06,14.06,0,0,1,3.4-2.23,11.25,11.25,0,0,1,4.36-1,12,12,0,0,1,7.88,2.87,12.76,12.76,0,0,1,2.64,3.06,14.76,14.76,0,0,1,1.53,3.49,23.33,23.33,0,0,1,.94,6.7,53.07,53.07,0,0,1-.36,6.1c-.35,3.9-.9,7.76-1.51,11.59-1.22,7.67-2.83,15.21-4.34,22.7s-3,14.93-4.09,22.32a136.9,136.9,0,0,0-1.65,21.86,84,84,0,0,0,2.63,20.64,43.59,43.59,0,0,0,8.12,16.63,29.62,29.62,0,0,0,2.9,3.05,9.82,9.82,0,0,0,2.32,1.63c.55.23.66.12.64.07s.19-.11.68-.39a11,11,0,0,0,3.62-3.77,11.8,11.8,0,0,0,.68-1.31c.1-.23.17-.41.27-.67s.2-.53.29-.81a22.23,22.23,0,0,0,.83-3.62,50.76,50.76,0,0,0,.33-9.14l-.23-5.47-.29-5.64c-.42-7.56-.77-15.28-.91-23.17a199.87,199.87,0,0,1,1-24.15c.46-4.09,1.06-8.22,1.89-12.35a114.81,114.81,0,0,1,3.22-12.33,97,97,0,0,1,4.75-12l1.44-2.92,1.54-2.87c.52-1,1.09-1.88,1.64-2.82s1.16-2,2.08-3.25a24.18,24.18,0,0,1,3.85-4.32,19.87,19.87,0,0,1,2.95-2.12,19,19,0,0,1,3.62-1.63,18,18,0,0,1,8.24-.71,19.33,19.33,0,0,1,6.79,2.38,23.47,23.47,0,0,1,8,7.76,25.07,25.07,0,0,1,2.34,4.65c.16.41.3.84.44,1.27s.2.67.29,1c.19.65.33,1.29.48,1.94a52.5,52.5,0,0,1,.92,14.32,107.51,107.51,0,0,1-1.57,12.42c-1.34,7.8-3.07,15-3.68,21.63a35.58,35.58,0,0,0,.06,9.06,18.59,18.59,0,0,0,1,3.7c.12.28.23.56.36.83s.15.29.13.35,0,0-.18-.14-.16-.17-.49-.49a7.44,7.44,0,0,0-1.69-1.2c-.92-.43.37.15,1,.6a7.39,7.39,0,0,1,1.21,1.08,6.7,6.7,0,0,1,.48.59c.14.18.19.27.27.39l.19.31.14.25a2.54,2.54,0,0,0-.33-.38,3.34,3.34,0,0,0-1.23-.82c-.63-.19-.6,0-.38.05a3,3,0,0,0,1.07.05,10.36,10.36,0,0,0,1.94-.49s0,.08,0,.23,0,.17,0,.28,0,0,0-.06l.06-.16.12-.33,1-2.62,1.91-5.34,3.84-10.78,2-5.41,1-2.72c.16-.41.39-1,.64-1.56a16.57,16.57,0,0,1,5.75-6.83,20.14,20.14,0,0,1,6-2.72,30.2,30.2,0,0,1,6.08-1,45.48,45.48,0,0,1,5.92,0l.16,2.4a38.57,38.57,0,0,0-10.33,3.35,14.28,14.28,0,0,0-3.87,2.84,9.53,9.53,0,0,0-2.15,3.64c-.11.33-.2.67-.28,1l-.24,1.16-.57,2.76-1.11,5.57L252.22,167,251,172.67l-.63,2.85-.08.36,0,.18a2.83,2.83,0,0,1-.07.28,10.74,10.74,0,0,1-.59,1.6,12,12,0,0,1-1.62,2.57,15.45,15.45,0,0,1-3.78,3.26,18.77,18.77,0,0,1-4,1.89,17.55,17.55,0,0,1-4.56.88,12.9,12.9,0,0,1-5.94-1,10.74,10.74,0,0,1-3.53-2.49c-.27-.3-.53-.61-.78-.94,0,0,0,0-.07,0s0,0,0,0,0,0,.05.11a2.16,2.16,0,0,0,.25.32,5.58,5.58,0,0,0,.95.84c.49.38,1.66.91.64.43a8.49,8.49,0,0,1-2-1.41c-.41-.4-.53-.54-.72-.76l-.61-.72a9.05,9.05,0,0,1-.64-.85c-.38-.53-.72-1.09-1.07-1.64a31.86,31.86,0,0,1-3.07-7,51.49,51.49,0,0,1-2.05-13.6c-.18-8.62.79-16.44,1.32-23.73.27-3.63.41-7.13.32-10.33a30.18,30.18,0,0,0-1.22-8.34c-.1-.27-.18-.56-.29-.81s-.11-.3-.14-.34l-.05-.07a3.14,3.14,0,0,0-.32-.38c-.23-.27-.59-.36-.19,0a3.4,3.4,0,0,0,1.42.55,5.86,5.86,0,0,0,2.61-.16,5.35,5.35,0,0,0,1-.43,3.72,3.72,0,0,0,.66-.42c.32-.25.31-.27.15,0s-.49.85-.87,1.63-.76,1.44-1.11,2.18l-1,2.22-1,2.26a94.91,94.91,0,0,0-3.19,9.35c-.89,3.2-1.66,6.47-2.26,9.82s-1.12,6.75-1.48,10.22c-.69,6.94-1.1,14.1-1.16,21.44s-.06,14.83-.09,22.48l0,5.77c0,1.94,0,3.85-.07,5.95a72.47,72.47,0,0,1-1.44,13.59,44.82,44.82,0,0,1-2.26,7.36c-.24.61-.53,1.22-.8,1.83s-.62,1.29-1,1.91a34.92,34.92,0,0,1-7.92,9.81A29.57,29.57,0,0,1,189,246a23.27,23.27,0,0,1-10.41,1.88,22.46,22.46,0,0,1-10.18-3.2,29.45,29.45,0,0,1-6.59-5.45,50.1,50.1,0,0,1-4.46-5.65,53.47,53.47,0,0,1-6.15-12.42,64.88,64.88,0,0,1-2.95-12.84,95.26,95.26,0,0,1,.33-24.84,162.27,162.27,0,0,1,5.1-23.25c2.1-7.49,4.43-14.79,6.54-22.08s4-14.56,5.45-21.89q1-5.5,1.6-11c.35-3.65.46-7.19-.45-9.84a5.73,5.73,0,0,0-2-2.87,3.65,3.65,0,0,0-2.66-.81,3.17,3.17,0,0,0-1.12.4,6.12,6.12,0,0,0-1.25,1,22,22,0,0,0-2.73,3.89,99.94,99.94,0,0,0-9.27,19.79A110.15,110.15,0,0,0,143,137.79a153.89,153.89,0,0,0-1,21.37c.22,14.4,1.78,29.25,2,44.87a211.28,211.28,0,0,1-.76,23.84c-.2,2-.42,4-.69,6.06l-.1.77c-.05.4-.11.8-.19,1.19-.15.79-.33,1.57-.57,2.38a19.64,19.64,0,0,1-2.47,5.42,14.89,14.89,0,0,1-3,3.28,13.14,13.14,0,0,1-5.29,2.62,12.5,12.5,0,0,1-1.54.26,12.22,12.22,0,0,1-1.63.07,12.79,12.79,0,0,1-3-.44,14.37,14.37,0,0,1-3.8-1.66c-.84-.52-1.13-.76-1.6-1.09l-1.32-1c-.89-.62-1.73-1.33-2.58-2a75.54,75.54,0,0,1-9.29-9.11,72.27,72.27,0,0,1-7.44-10.58,69.9,69.9,0,0,1-7.92-48.49,71.07,71.07,0,0,1,8.49-22.19Z"/><path class="cls-3" d="M122.62,235.75a4.33,4.33,0,0,0,2.28,3.47,6.46,6.46,0,0,0,4.21.6,4.17,4.17,0,0,0,1.6-.56,2.74,2.74,0,0,0-1.77-5c-1.21.12-2.17,1-3.21,1.62s-2.51,1-3.36.11"/><path class="cls-3" d="M95.42,196.11c-.9.77-.73,2.18-.47,3.34l.94,4.34c1.11,5.09,2.36,10.47,6,14.23.22.23.55.46.82.3a.71.71,0,0,0,.25-.56c.61-5.33-1.81-10.51-4.51-15.14a16.42,16.42,0,0,1-2.5-5.78"/><path class="cls-3" d="M152.4,95.81a13.21,13.21,0,0,0-5.37,7,52,52,0,0,0-2,8.72,107.21,107.21,0,0,1-7,22.94c-1.36-.28-1.48-2.17-1.28-3.54l1.44-9.7a44.94,44.94,0,0,1,1.85-8.55c1.46-4.1,4.08-7.68,6.66-11.19,1.84-2.5,3.81-5.1,6.66-6.31"/><path class="cls-3" d="M163.14,229.71A13.39,13.39,0,0,0,169.7,240a20.35,20.35,0,0,0,24.43-3.83c3-3.54,4.28-8.7,2.61-13a54.28,54.28,0,0,1-14.85,13.32c-4.08,2.48-9.06,4.39-13.24,1.08-2.19-1.73-3.35-4.3-5.5-6.05"/><path class="cls-3" d="M194.42,121.54a60.56,60.56,0,0,0-5.14,16A30.63,30.63,0,0,0,191,154a1.53,1.53,0,0,0,.81,1c.58.18,1.13-.34,1.49-.83,2.49-3.43,3.17-7.81,3.93-12a178.52,178.52,0,0,1,6.23-24.41,1.35,1.35,0,0,0,.06-1c-.27-.52-1-.45-1.59-.26-3.75,1.29-6.41,4.55-8.87,7.66"/><path class="cls-3" d="M215.59,95c-2.19,1.89-5.16,5.4-2,7.92,1.55,1.23,3.64,1.47,5.54,2a15,15,0,0,1,7.77,5.56c3.06,4.25,3.79,10,7.37,13.79a1.62,1.62,0,0,0,.9.58c.62.08,1.12-.5,1.39-1.07,1-2.13.61-4.65,0-6.92-2.14-7.46-11.52-24.81-21.63-19.28"/><path class="cls-3" d="M235.21,177a2.06,2.06,0,0,0-1.31,2.82,3.53,3.53,0,0,0,2.89,1.86c3.09.37,5.86-1.83,8.05-4a12.19,12.19,0,0,0,2.73-3.62,4.68,4.68,0,0,0-.17-4.38,1.18,1.18,0,0,0-.71-.56,1.43,1.43,0,0,0-1.1.48l-6.73,5.71c-1.31,1.11-3.11,2.29-4.61,1.45"/></svg>