<svg id="Layer_1" data-name="Layer 1" xmlns="http://www.w3.org/2000/svg" xmlns:xlink="http://www.w3.org/1999/xlink" viewBox="0 0 350 350"><defs><style>.cls-1{fill:none;}.cls-2{fill:#9cc430;}.cls-3{clip-path:url(#clip-path);}.cls-4{fill:#a3d038;}.cls-5{fill:#e2f490;}.cls-6{clip-path:url(#clip-path-2);}</style><clipPath id="clip-path"><path class="cls-1" d="M203.18,150l10.72-11.55c1.29-1.39,2.67-3,2.51-4.92-.14-1.73-1.55-3.07-2.94-4.11a31.63,31.63,0,0,0-34.66-1.55c-2.73,1.68-5.38,3.86-8.58,4.14-5.27.45-10.5-4.44-15.38-2.4-4.55,1.9-7,9.24-11.76,7.77-1.44-.45-2.47-1.69-3.63-2.66a11.42,11.42,0,0,0-14-.14c-2.26,1.81-4.11,4.65-7,4.87-4,.3-6.38-4.48-10.09-6-6.48-2.61-12.51,5.54-19.48,5.93-3.45.2-6.68-1.55-10-2.57s-7.48-1.07-9.6,1.67c-1.16,1.49-1.43,3.48-2.44,5.07-2.73,4.29-9,3.78-14,3.25s-11.72.62-12.6,5.63a30.74,30.74,0,0,1-.37,3.73C38.08,162,26,159.49,25.58,165.57c-.29,4.18,6.3,7.13,4.82,11.05S21,180.43,22,184.4c1.26,1.63,4,.77,5.71,2,2.42,1.72.49,5.66-2,7.26s-5.82,2.85-6.46,5.75a86.78,86.78,0,0,0,18.64,1.42c1.54,2.83-4.47,4-5.35,7.15s3.88,4.67,7.12,4.09,7.72-1,8.69,2.18a15.93,15.93,0,0,1,.23,2.9c.35,3.06,3.48,5.19,6.55,5.47s6.07-.83,9-1.92c-1.63,3.07.6,7.13,3.84,8.39s6.94.35,10-1.22c1.54-.78,3.13-1.75,4.85-1.55,2.21.26,3.67,2.33,5,4.1,2.25,3,5.18,5.77,8.85,6.39s8-1.85,8.16-5.58a14.52,14.52,0,0,1,0-3.23c.51-1.89,2.8-2.83,4.74-2.52a12.11,12.11,0,0,1,5.14,2.73c3.43.62,4.86-4.19,4.89-7.67s1.65-8.28,5-7.49c3.2.75,4.11,6.31,7.37,5.9,3-.38,2.53-5.1.58-7.46s-4.69-5.22-3.3-7.95a19,19,0,0,1,10.75.93,33.17,33.17,0,0,1,8.57-26,5.76,5.76,0,0,1,2.26-1.68c4-1.33,9.13,5,11.5,1.59.7-1,.51-2.41.94-3.58,1.62-4.34,8.87-1.76,12.38-4.79,1.78-1.53,2.16-4.19,3.77-5.9,5.12-5.45,16.92,2.69,20.88-3.65a13.7,13.7,0,0,0,1.29-4.37c1.53-6.8,7-11.9,12.19-16.54"/></clipPath><clipPath id="clip-path-2"><path class="cls-1" d="M152,208.15,141.28,219.7c-1.29,1.39-2.67,3-2.51,4.92.14,1.73,1.55,3.07,2.94,4.11a31.63,31.63,0,0,0,34.66,1.55c2.73-1.68,5.38-3.86,8.58-4.14,5.27-.45,10.5,4.44,15.38,2.4,4.55-1.9,7-9.24,11.76-7.77,1.44.45,2.47,1.69,3.63,2.66a11.42,11.42,0,0,0,14,.14c2.26-1.81,4.11-4.65,7-4.87,4-.3,6.38,4.48,10.09,6,6.48,2.61,12.51-5.54,19.48-5.93,3.45-.2,6.68,1.55,10,2.57s7.48,1.07,9.6-1.67c1.16-1.49,1.43-3.48,2.44-5.07,2.73-4.29,9-3.78,14-3.25s11.72-.62,12.6-5.63a30.74,30.74,0,0,1,.37-3.73c1.78-5.83,13.86-3.35,14.28-9.43.29-4.18-6.3-7.13-4.82-11.05s9.43-3.81,8.4-7.78c-1.26-1.63-4-.77-5.71-2-2.42-1.72-.49-5.66,2-7.26s5.82-2.85,6.46-5.75a86.78,86.78,0,0,0-18.64-1.42c-1.54-2.83,4.47-4,5.35-7.15s-3.88-4.67-7.12-4.09-7.72,1-8.69-2.18a15.93,15.93,0,0,1-.23-2.9c-.35-3.06-3.48-5.19-6.55-5.47s-6.07.83-9,1.92c1.63-3.07-.6-7.13-3.84-8.39s-6.94-.35-10,1.22c-1.54.78-3.13,1.75-4.85,1.55-2.21-.26-3.67-2.33-5-4.1-2.25-3-5.18-5.77-8.85-6.39s-8,1.85-8.16,5.58a14.52,14.52,0,0,1,0,3.23c-.51,1.89-2.8,2.83-4.74,2.52a12.11,12.11,0,0,1-5.14-2.73c-3.43-.62-4.86,4.19-4.89,7.67s-1.65,8.28-5,7.49c-3.2-.75-4.11-6.31-7.37-5.9-3,.38-2.53,5.1-.58,7.46s4.69,5.22,3.3,7.95a19,19,0,0,1-10.75-.93,33.17,33.17,0,0,1-8.57,26,5.76,5.76,0,0,1-2.26,1.68c-4,1.33-9.13-5-11.5-1.59-.7,1-.51,2.41-.94,3.58-1.62,4.34-8.87,1.76-12.38,4.79-1.78,1.53-2.16,4.19-3.77,5.9-5.12,5.45-16.92-2.69-20.88,3.65a13.7,13.7,0,0,0-1.29,4.37c-1.53,6.8-7,11.9-12.19,16.54"/></clipPath></defs><title>LettuceFull</title><path class="cls-2" d="M195.88,136.17l10.72-11.55c1.29-1.39,4.81,2.55,4.65.66-.14-1.73-12-7.88-13.39-8.93C188,109,180.41,113.11,171.51,114c-3.19.33-5.38,3.86-8.58,4.14-5.27.45-10.5-4.44-15.38-2.4-4.55,1.9-7,9.24-11.76,7.77-1.44-.45-2.47-1.69-3.63-2.66a11.42,11.42,0,0,0-14-.14c-2.26,1.81-4.11,4.65-7,4.87-4,.3-6.38-4.48-10.09-6-6.48-2.61-12.51,5.54-19.48,5.93-3.45.2-6.68-1.55-10-2.57s-7.48-1.07-9.6,1.67c-1.16,1.49-1.43,3.48-2.44,5.07-2.73,4.29-9,3.78-14,3.25s-11.72.62-12.6,5.63a30.74,30.74,0,0,1-.37,3.73c-1.78,5.83-13.86,3.35-14.28,9.43C18,156,31,159.9,29.47,163.82s-13.61,7-12.58,11c1.26,1.63,4,.84,5.68,2,2.42,1.72.08,4.9-2.43,6.49s-5.44,5.21-6.09,8.11c6.14,1.14,10.27-4.21,16.51-4.41,1.54,2.83-1.84,5.77-2.71,8.87s1.23,8.7,4.46,8.11,7.74-6.71,8.71-3.57c.29.93,4.16,1,4.27,1.95.35,3.06-.56,6.14,2.51,6.43s6.07-.83,9-1.92c-1.63,3.07.6,7.13,3.84,8.39s6.94.35,10-1.22c1.54-.78,3.13-1.75,4.85-1.55,2.21.26,3.67,2.33,5,4.1,2.25,3,5.18,5.77,8.85,6.39s8-1.85,8.16-5.58a14.52,14.52,0,0,1,0-3.23c.51-1.89,2.8-2.83,4.74-2.52a12.11,12.11,0,0,1,5.14,2.73c3.43.62,4.86-4.19,4.89-7.67s1.65-8.28,5-7.49c3.2.75,4.11,6.31,7.37,5.9,3-.38,2.53-5.1.58-7.46s-4.69-5.22-3.3-7.95a19,19,0,0,1,10.75.93,33.17,33.17,0,0,1,8.57-26,5.76,5.76,0,0,1,2.26-1.68c4-1.33,9.13,5,11.5,1.59.7-1,.51-2.41.94-3.58,1.62-4.34,8.87-1.76,12.38-4.79,1.78-1.53,2.16-4.19,3.77-5.9,5.12-5.45,16.92,2.69,20.88-3.65a13.7,13.7,0,0,0,1.29-4.37c1.53-6.8,7-11.9,12.19-16.54"/><g class="cls-3"><path class="cls-4" d="M203.18,150l10.72-11.55c1.29-1.39,2.67-3,2.51-4.92-.14-1.73-1.55-3.07-2.94-4.11a31.63,31.63,0,0,0-34.66-1.55c-2.73,1.68-5.38,3.86-8.58,4.14-5.27.45-10.5-4.44-15.38-2.4-4.55,1.9-7,9.24-11.76,7.77-1.44-.45-2.47-1.69-3.63-2.66a11.42,11.42,0,0,0-14-.14c-2.26,1.81-4.11,4.65-7,4.87-4,.3-6.38-4.48-10.09-6-6.48-2.61-12.51,5.54-19.48,5.93-3.45.2-6.68-1.55-10-2.57s-7.48-1.07-9.6,1.67c-1.16,1.49-1.43,3.48-2.44,5.07-2.73,4.29-9,3.78-14,3.25s-11.72.62-12.6,5.63a30.74,30.74,0,0,1-.37,3.73C38.08,162,26,159.49,25.58,165.57c-.29,4.18,6.3,7.13,4.82,11.05S21,180.43,22,184.4c1.26,1.63,4,.77,5.71,2,2.42,1.72.49,5.66-2,7.26s-5.82,2.85-6.46,5.75a86.78,86.78,0,0,0,18.64,1.42c1.54,2.83-6.3,4.15-7.17,7.25s5.71,4.57,8.95,4,7.72-1,8.69,2.18a15.93,15.93,0,0,1,.23,2.9c.35,3.06,3.48,5.19,6.55,5.47s6.07-.83,9-1.92c-1.63,3.07.6,7.13,3.84,8.39s6.94.35,10-1.22c1.54-.78,3.13-1.75,4.85-1.55,2.21.26,3.67,2.33,5,4.1,2.25,3,5.18,5.77,8.85,6.39s8-1.85,8.16-5.58a14.52,14.52,0,0,1,0-3.23c.51-1.89,2.8-2.83,4.74-2.52a12.11,12.11,0,0,1,5.14,2.73c3.43.62,4.86-4.19,4.89-7.67s1.65-8.28,5-7.49c3.2.75,4.11,6.31,7.37,5.9,3-.38,2.53-5.1.58-7.46s-4.69-5.22-3.3-7.95a19,19,0,0,1,10.75.93,33.17,33.17,0,0,1,8.57-26,5.76,5.76,0,0,1,2.26-1.68c4-1.33,9.13,5,11.5,1.59.7-1,.51-2.41.94-3.58,1.62-4.34,8.87-1.76,12.38-4.79,1.78-1.53,2.16-4.19,3.77-5.9,5.12-5.45,16.92,2.69,20.88-3.65a13.7,13.7,0,0,0,1.29-4.37c1.53-6.8,7-11.9,12.19-16.54"/><polyline class="cls-5" points="218.14 131.37 62.34 200.34 208.81 123.66"/><path class="cls-5" d="M93.06,145.33c2.54-.15,5.07-.24,7.6-.32s5.06-.19,7.59-.25,5.06-.18,7.58-.24,5.05-.18,7.58-.21c5.06-.09,10.13-.12,15.18-.45,2.52-.2,5-.44,7.56-.72s5-.71,7.52-1.06,5-.86,7.49-1.25l7.47-1.3,7.45-1.41c2.47-.52,5-1,7.43-1.47,9.92-1.94,19.8-4.1,29.73-6.19l.05.19a250,250,0,0,1-29.36,8.09q-3.73.76-7.48,1.43l-7.52,1.21c-2.51.38-5,.69-7.55,1s-5.05.51-7.58.77-5.06.4-7.58.65-5.05.43-7.58.69-5,.51-7.57.79-5.06.48-7.59.68c-5.07.33-10.15.4-15.22.34-2.54-.06-5.08-.12-7.61-.24s-5.07-.32-7.6-.55Z"/><path class="cls-5" d="M62.64,158.52c5.54-1.16,11.1-2.17,16.67-3.08s11.15-1.78,16.76-2.47,11.24-1.18,16.84-1.91,11.17-1.66,16.73-2.64,11.13-1.94,16.71-2.8,11.16-1.75,16.75-2.55c11.18-1.58,22.38-3,33.65-4l0,.2c-11.07,2.29-22.21,4.2-33.37,6-5.58.85-11.19,1.56-16.78,2.3s-11.21,1.41-16.82,2-11.22,1.31-16.8,2.19-11.13,2-16.69,2.92S85.13,156.27,79.53,157s-11.22,1.3-16.86,1.75Z"/><path class="cls-5" d="M50.46,173c4.33-1,8.68-1.9,13-2.69,2.18-.41,4.36-.79,6.55-1.15s4.37-.72,6.57-1c4.39-.58,8.81-1,13.19-1.7s8.73-1.56,13.06-2.51,8.66-1.9,13-2.76,8.68-1.78,13-2.58c8.72-1.58,17.46-3.06,26.27-4.23l0,.2c-8.56,2.4-17.21,4.38-25.91,6.13-4.35.86-8.72,1.6-13.1,2.34s-8.76,1.4-13.16,2-8.78,1.24-13.14,2.07c-2.18.4-4.35.87-6.52,1.34l-6.52,1.36c-4.36.83-8.75,1.47-13.14,2.06s-8.81,1.05-13.25,1.36Z"/><path class="cls-5" d="M49.89,186.31a56.81,56.81,0,0,0,9.23-.58c3-.42,6-1.08,9.09-1.65l4.59-.82c1.54-.27,3.07-.56,4.59-.91,3-.7,6-1.6,9-2.58s5.91-2,8.89-2.87,5.94-1.87,8.93-2.73c6-1.7,12-3.32,18.11-4.66l.06.19a164.34,164.34,0,0,1-17.57,6.51c-3,.92-6,1.71-9,2.49s-6.06,1.49-9.12,2.11-6.1,1.31-9.1,2.16-5.95,1.89-9,2.73a48.51,48.51,0,0,1-9.31,1.57,29.09,29.09,0,0,1-9.42-.76Z"/><path class="cls-5" d="M89.19,214.34a59,59,0,0,1,3.67-6,65.29,65.29,0,0,1,4.24-5.63c1.54-1.78,3.25-3.42,4.76-5.21s2.91-3.68,4.26-5.61,2.73-3.84,4.21-5.66,2.93-3.68,4.49-5.43a98,98,0,0,1,10.1-9.86l.15.14c-2.7,3.89-5.64,7.53-8.64,11.12-1.51,1.79-3.1,3.51-4.67,5.25s-3.16,3.46-4.8,5.14a59.61,59.61,0,0,0-4.6,5.32c-1.41,1.87-2.61,3.91-4,5.83-.67,1-1.37,1.9-2.1,2.81s-1.46,1.83-2.22,2.73c-1.51,1.79-3,3.57-4.74,5.23Z"/><path class="cls-5" d="M125.62,197c1.33-2.59,2.83-5.07,4.4-7.5a78.19,78.19,0,0,1,5.09-7c1.87-2.23,3.92-4.3,5.85-6.45l5.75-6.53a69.43,69.43,0,0,1,13.19-11.39c2.37-1.63,4.67-3.28,6.86-5.1a33.27,33.27,0,0,1,7.18-5l.1.17a56.57,56.57,0,0,0-6.21,6,52.09,52.09,0,0,1-6.69,5.68c-2.34,1.72-4.76,3.26-7,5s-4.49,3.54-6.66,5.43a50.58,50.58,0,0,0-6,6.17c-.91,1.12-1.76,2.28-2.58,3.47s-1.63,2.38-2.44,3.57c-1.65,2.36-3.39,4.65-5.15,6.93s-3.55,4.56-5.5,6.72Z"/><path class="cls-5" d="M205.89,135.18c-2,1.68-4.05,3.19-6.11,4.71s-4.13,3-6.28,4.4-4.4,2.65-6.47,4.17a57.54,57.54,0,0,0-5.87,5c-1.86,1.77-3.69,3.57-5.58,5.29L170,164c-3.75,3.41-7.55,7.14-12.26,9.43l-.11-.17c3.93-3.33,7.19-7.19,10.9-10.81,1.85-1.8,3.81-3.48,5.78-5.14s4-3.24,6.13-4.72,4.18-3,6.17-4.64,3.87-3.41,5.9-5a62.74,62.74,0,0,1,6.4-4.34,58.34,58.34,0,0,1,6.86-3.59Z"/></g><path class="cls-2" d="M154,213.83,143.3,225.38c-1.29,1.39-4.81-2.55-4.65-.66.14,1.73,12,7.88,13.39,8.93,9.84,7.36,17.45,3.25,26.35,2.31,3.19-.33,5.38-3.86,8.58-4.14,5.27-.45,10.5,4.44,15.38,2.4,4.55-1.9,7-9.24,11.76-7.77,1.44.45,2.47,1.69,3.63,2.66a11.42,11.42,0,0,0,14,.14c2.26-1.81,4.11-4.65,7-4.87,4-.3,6.38,4.48,10.09,6,6.48,2.61,12.51-5.54,19.48-5.93,3.45-.2,6.68,1.55,10,2.57s7.48,1.07,9.6-1.67c1.16-1.49,1.43-3.48,2.44-5.07,2.73-4.29,9-3.78,14-3.25s11.72-.62,12.6-5.63a30.74,30.74,0,0,1,.37-3.73c1.78-5.83,13.86-3.35,14.28-9.43.29-4.18-12.68-8.12-11.2-12s13.61-7,12.58-11c-1.26-1.63-4-.84-5.68-2-2.42-1.72-.08-4.9,2.43-6.49s5.44-5.21,6.09-8.11c-6.14-1.14-10.27,4.21-16.51,4.41-1.54-2.83,1.84-5.77,2.71-8.87s-1.23-8.7-4.46-8.11-7.74,6.71-8.71,3.57c-.29-.93-4.16-1-4.27-1.95-.35-3.06.56-6.14-2.51-6.43s-6.07.83-9,1.92c1.63-3.07-.6-7.13-3.84-8.39s-6.94-.35-10,1.22c-1.54.78-3.13,1.75-4.85,1.55-2.21-.26-3.67-2.33-5-4.1-2.25-3-5.18-5.77-8.85-6.39s-8,1.85-8.16,5.58a14.52,14.52,0,0,1,0,3.23c-.51,1.89-2.8,2.83-4.74,2.52a12.11,12.11,0,0,1-5.14-2.73c-3.43-.62-4.86,4.19-4.89,7.67s-1.65,8.28-5,7.49c-3.2-.75-4.11-6.31-7.37-5.9-3,.38-2.53,5.1-.58,7.46s4.69,5.22,3.3,7.95a19,19,0,0,1-10.75-.93,33.17,33.17,0,0,1-8.57,26,5.76,5.76,0,0,1-2.26,1.68c-4,1.33-9.13-5-11.5-1.59-.7,1-.51,2.41-.94,3.58-1.62,4.34-8.87,1.76-12.38,4.79-1.78,1.53-2.16,4.19-3.77,5.9-5.12,5.45-16.92-2.69-20.88,3.65a13.7,13.7,0,0,0-1.29,4.37c-1.53,6.8-7,11.9-12.19,16.54"/><g class="cls-6"><path class="cls-4" d="M152,208.15,141.28,219.7c-1.29,1.39-2.67,3-2.51,4.92.14,1.73,1.55,3.07,2.94,4.11a31.63,31.63,0,0,0,34.66,1.55c2.73-1.68,5.38-3.86,8.58-4.14,5.27-.45,10.5,4.44,15.38,2.4,4.55-1.9,7-9.24,11.76-7.77,1.44.45,2.47,1.69,3.63,2.66a11.42,11.42,0,0,0,14,.14c2.26-1.81,4.11-4.65,7-4.87,4-.3,6.38,4.48,10.09,6,6.48,2.61,12.51-5.54,19.48-5.93,3.45-.2,6.68,1.55,10,2.57s7.48,1.07,9.6-1.67c1.16-1.49,1.43-3.48,2.44-5.07,2.73-4.29,9-3.78,14-3.25s11.72-.62,12.6-5.63a30.74,30.74,0,0,1,.37-3.73c1.78-5.83,13.86-3.35,14.28-9.43.29-4.18-6.3-7.13-4.82-11.05s9.43-3.81,8.4-7.78c-1.26-1.63-4-.77-5.71-2-2.42-1.72-.49-5.66,2-7.26s5.82-2.85,6.46-5.75a86.78,86.78,0,0,0-18.64-1.42c-1.54-2.83,6.3-4.15,7.17-7.25s-5.71-4.57-8.95-4-7.72,1-8.69-2.18a15.93,15.93,0,0,1-.23-2.9c-.35-3.06-3.48-5.19-6.55-5.47s-6.07.83-9,1.92c1.63-3.07-.6-7.13-3.84-8.39s-6.94-.35-10,1.22c-1.54.78-3.13,1.75-4.85,1.55-2.21-.26-3.67-2.33-5-4.1-2.25-3-5.18-5.77-8.85-6.39s-8,1.85-8.16,5.58a14.52,14.52,0,0,1,0,3.23c-.51,1.89-2.8,2.83-4.74,2.52a12.11,12.11,0,0,1-5.14-2.73c-3.43-.62-4.86,4.19-4.89,7.67s-1.65,8.28-5,7.49c-3.2-.75-4.11-6.31-7.37-5.9-3,.38-2.53,5.1-.58,7.46s4.69,5.22,3.3,7.95a19,19,0,0,1-10.75-.93,33.17,33.17,0,0,1-8.57,26,5.76,5.76,0,0,1-2.26,1.68c-4,1.33-9.13-5-11.5-1.59-.7,1-.51,2.41-.94,3.58-1.62,4.34-8.87,1.76-12.38,4.79-1.78,1.53-2.16,4.19-3.77,5.9-5.12,5.45-16.92-2.69-20.88,3.65a13.7,13.7,0,0,0-1.29,4.37c-1.53,6.8-7,11.9-12.19,16.54"/><polyline class="cls-5" points="137.03 226.75 292.83 157.78 146.37 234.46"/><path class="cls-5" d="M262.11,212.78c-2.54.15-5.07.24-7.6.32s-5.06.19-7.59.25-5.06.18-7.58.24-5.05.18-7.58.21c-5.06.09-10.13.12-15.18.45-2.52.2-5,.44-7.56.72s-5,.71-7.52,1.06-5,.86-7.49,1.25l-7.47,1.3L179.09,220c-2.47.52-5,1-7.43,1.47-9.92,1.94-19.8,4.1-29.73,6.19l-.05-.19a250,250,0,0,1,29.36-8.09q3.73-.76,7.48-1.43l7.52-1.21c2.51-.38,5-.69,7.55-1s5.05-.51,7.58-.77,5.06-.4,7.58-.65,5.05-.43,7.58-.69,5-.51,7.57-.79,5.06-.48,7.59-.68c5.07-.33,10.15-.4,15.22-.34,2.54.06,5.08.12,7.61.24s5.07.32,7.6.55Z"/><path class="cls-5" d="M292.54,199.6c-5.54,1.16-11.1,2.17-16.67,3.08s-11.15,1.78-16.76,2.47-11.24,1.18-16.84,1.91-11.17,1.66-16.73,2.64-11.13,1.94-16.71,2.8-11.16,1.75-16.75,2.55c-11.18,1.58-22.38,3-33.65,4l0-.2c11.07-2.29,22.21-4.2,33.37-6,5.58-.85,11.19-1.56,16.78-2.3s11.21-1.41,16.82-2,11.22-1.31,16.8-2.19,11.13-2,16.69-2.92,11.17-1.66,16.77-2.36,11.22-1.3,16.86-1.75Z"/><path class="cls-5" d="M304.72,185.07c-4.33,1-8.68,1.9-13,2.69-2.18.41-4.36.79-6.55,1.15s-4.37.72-6.57,1c-4.39.58-8.81,1-13.19,1.7s-8.73,1.56-13.06,2.51-8.66,1.9-13,2.76-8.68,1.78-13,2.58c-8.72,1.58-17.46,3.06-26.27,4.23l0-.2c8.56-2.4,17.21-4.38,25.91-6.13,4.35-.86,8.73-1.6,13.1-2.34s8.76-1.4,13.16-2,8.78-1.24,13.14-2.07c2.18-.4,4.35-.87,6.52-1.34l6.52-1.36c4.36-.83,8.75-1.47,13.14-2.06s8.81-1.05,13.25-1.36Z"/><path class="cls-5" d="M305.28,171.81a56.81,56.81,0,0,0-9.23.58c-3,.42-6,1.08-9.09,1.65l-4.59.82c-1.54.27-3.07.56-4.59.91-3,.7-6,1.6-9,2.58s-5.91,2-8.89,2.87S254,183.09,251,184c-6,1.7-12,3.32-18.11,4.66l-.06-.19a164.35,164.35,0,0,1,17.57-6.51c3-.92,6-1.71,9-2.49s6.06-1.49,9.12-2.11,6.1-1.31,9.1-2.16,5.95-1.89,9-2.73a48.51,48.51,0,0,1,9.31-1.57,29.09,29.09,0,0,1,9.42.76Z"/><path class="cls-5" d="M266,143.78a59,59,0,0,1-3.67,6,65.28,65.28,0,0,1-4.24,5.63c-1.54,1.78-3.25,3.42-4.76,5.21s-2.91,3.68-4.26,5.61-2.73,3.84-4.21,5.66-2.93,3.68-4.49,5.43a98,98,0,0,1-10.1,9.86l-.15-.14c2.7-3.89,5.64-7.53,8.64-11.12,1.51-1.79,3.1-3.51,4.67-5.25s3.16-3.46,4.8-5.14a59.61,59.61,0,0,0,4.6-5.32c1.41-1.87,2.61-3.91,4-5.83.67-1,1.37-1.9,2.1-2.81s1.46-1.83,2.22-2.73c1.51-1.79,3-3.57,4.74-5.23Z"/><path class="cls-5" d="M229.56,161.09c-1.33,2.59-2.83,5.07-4.4,7.5a78.19,78.19,0,0,1-5.09,7c-1.87,2.23-3.92,4.3-5.85,6.45l-5.75,6.53A69.43,69.43,0,0,1,195.28,200c-2.37,1.63-4.67,3.28-6.86,5.1a33.27,33.27,0,0,1-7.18,5l-.1-.17a56.56,56.56,0,0,0,6.21-6,52.09,52.09,0,0,1,6.69-5.68c2.34-1.72,4.76-3.26,7-5s4.49-3.54,6.66-5.43a50.58,50.58,0,0,0,6-6.17c.91-1.12,1.76-2.28,2.58-3.47s1.63-2.38,2.44-3.57c1.65-2.36,3.39-4.65,5.15-6.93s3.55-4.56,5.5-6.72Z"/><path class="cls-5" d="M149.28,222.94c2-1.68,4.05-3.19,6.11-4.71s4.13-3,6.28-4.4,4.4-2.65,6.47-4.17a57.54,57.54,0,0,0,5.87-5c1.86-1.77,3.69-3.57,5.58-5.29l5.56-5.28c3.75-3.41,7.55-7.14,12.26-9.43l.11.17c-3.93,3.33-7.19,7.19-10.9,10.81-1.85,1.8-3.81,3.48-5.78,5.14s-4,3.24-6.13,4.72-4.18,3-6.17,4.64-3.87,3.41-5.9,5a62.74,62.74,0,0,1-6.4,4.34,58.34,58.34,0,0,1-6.86,3.59Z"/></g></svg>