<svg id="Layer_1" data-name="Layer 1" xmlns="http://www.w3.org/2000/svg" xmlns:xlink="http://www.w3.org/1999/xlink" viewBox="0 0 350 350"><defs><style>.cls-1{fill:none;}.cls-2{clip-path:url(#clip-path);}.cls-3{fill:#daad51;}.cls-4{fill:#742a24;}.cls-5{fill:#aa653e;}.cls-6{clip-path:url(#clip-path-2);}</style><clipPath id="clip-path"><path class="cls-1" d="M59.92,142.57c-4.22,3.52-6.12,11.4-7.57,16.61-4,14.2-9,14.16-9,14.16l-.86,4.46c-.49,2.51,4.39,6.18,5.82,6.81,4.34,1.92,10.45,1,15.12-.53.94-.32,2-.67,2.77-.16s.92,1.34,1.34,2.07c1.7,3,5.79,2.5,8.79.67s5.61-4.7,8.75-6.11c7.36-3.29,10.42,3.88,16.47,5.46,4.45,1.16,9.27-2.34,12.95-6.23a18.23,18.23,0,0,1,3.73-3.39c3-1.76,6.42-.78,9.17.78s5.31,3.7,8.42,4.25c10.69,1.9,7.23-15.21,16-16.86a16.88,16.88,0,0,1,10.59,1.77c12.14,6,23.52,18.31,38.17,17.07,4.47-.38,8.89-2.27,13.34-3.34a36,36,0,0,1,16.06-.26c3,.64,8.49,3.16,11.6,1,2.95-2.08,3.1-6.82,6.46-8.5a11.25,11.25,0,0,1,4.22-1c10.69-.86,20.44,1.85,30.18,5.3l-4.71-43.27c-.31-2.83-10.13-5.54-12-6a23.88,23.88,0,0,0-21.73,4.56c-3.44,2.74-6.62,6-10.22,8.42-1.82,1.23-4.09,2.24-5.72,1.12-2.26-1.57-1.44-5.68-2-8.76a6.34,6.34,0,0,0-10.28-4,9.11,9.11,0,0,0-2.79,4.32c-.45,1.49-.51,3.06-.94,4.55-3.07,10.68-15.56-3.13-19-4.81-2.67-1.3-6.92-2-9.79.27-3.78,3-.92,6.8-3.49,10.49-10.52,15.08-19.14,2.88-27.22-5.06a23.72,23.72,0,0,0-17.75-6.7c-3.82.17-9.25,1-12.78,3.29-5.07,3.35-7.92,11.45-12.9,15.84-6.45,5.69-13.76,7.52-20,2.86-3.25-2.4-5.85-5.74-8.88-8.47-4.68-4.23-13-7.27-19.32-3.39A8.57,8.57,0,0,0,59.92,142.57Z"/></clipPath><clipPath id="clip-path-2"><path class="cls-1" d="M89.29,218.41c-4.56-2.31-7.46-9.05-9.57-13.48-5.75-12-10.58-11-10.58-11L67.7,190.1c-.81-2.17,3.42-6.51,4.71-7.38,3.94-2.63,10-3.11,14.7-2.66a3.48,3.48,0,0,0,2.7-.43,5.58,5.58,0,0,0,1-2.15c1.24-3,5.26-3.46,8.42-2.43s6.06,3.1,9.29,3.72c7.57,1.46,9.56-5.68,15.21-8.36,4.15-2,9.29.2,13.37,3a16.06,16.06,0,0,0,4.07,2.3c3.15,1,6.32-.62,8.77-2.61s4.64-4.45,7.58-5.59c10.09-3.93,9.05,12.28,17.76,12a18.42,18.42,0,0,0,10-3.79c10.95-7.93,20.3-21.46,34.65-23.38,4.38-.58,8.91.21,13.37.26a38.45,38.45,0,0,0,15.58-3.09c2.78-1.19,7.79-4.62,11.1-3.28,3.13,1.27,3.92,5.54,7.4,6.36a11.47,11.47,0,0,0,4.21,0c10.46-1.44,19.54-5.92,28.49-11.06l1.27,40.17c.08,2.62-9.06,7.12-10.77,7.93-6.83,3.26-14.32,3.88-21.65.38-3.7-1.77-7.22-4.05-11-5.51-1.92-.74-4.27-1.18-5.68.17-2,1.89-.63,5.45-.74,8.35-.17,4.59-5.33,7.83-9.41,5.74a7.62,7.62,0,0,1-3.28-3.33c-.63-1.26-.91-2.66-1.53-3.93-4.41-9-14.64,6.06-17.76,8.3-2.41,1.74-6.43,3.22-9.51,1.79-4.06-1.89-1.81-6-4.79-8.78C193,181.26,186.31,194.1,179.56,203a26,26,0,0,1-16.27,9.75c-3.72.64-9.08,1.05-12.81-.33-5.36-2-9.21-8.73-14.63-11.67-7-3.82-14.33-4-19.79,1.56-2.82,2.85-4.89,6.41-7.45,9.52-4,4.81-11.57,9.27-18.24,7.07A7.79,7.79,0,0,1,89.29,218.41Z"/></clipPath></defs><title>Bacon</title><g class="cls-2"><path class="cls-3" d="M60.38,144.36c-4.17,3.36-6,11-7.36,16C49.24,174.08,44.24,174,44.24,174l-.81,4.31c-.46,2.43,4.46,6,5.89,6.67,4.35,1.91,10.45,1.14,15.09-.33.93-.29,2-.63,2.77-.13s.94,1.31,1.36,2c1.73,2.88,5.81,2.49,8.79.75s5.54-4.49,8.66-5.81c7.31-3.1,10.45,3.89,16.52,5.49,4.45,1.18,9.23-2.16,12.86-5.89a17.38,17.38,0,0,1,3.68-3.24c3-1.67,6.4-.68,9.17.86s5.34,3.64,8.46,4.22c10.7,2,7-14.65,15.77-16.15a17.51,17.51,0,0,1,10.59,1.84c12.2,5.94,23.71,18,38.33,17,4.46-.31,8.85-2.09,13.29-3.08a37,37,0,0,1,16-.06c3,.66,8.52,3.17,11.6,1.08,2.92-2,3-6.57,6.35-8.15a11.36,11.36,0,0,1,4.2-.88c10.67-.7,20.44,2,30.2,5.5l-5.23-42c-.34-2.74-10.19-5.49-12-6a24.11,24.11,0,0,0-21.65,4.15c-3.41,2.61-6.54,5.72-10.1,8-1.8,1.17-4.06,2.12-5.7,1-2.28-1.55-1.51-5.53-2.09-8.51-.91-4.73-6.58-7-10.31-4a8.52,8.52,0,0,0-2.73,4.15c-.43,1.44-.48,3-.89,4.4-2.93,10.32-15.58-3.22-19.06-4.89-2.69-1.3-6.94-2-9.77.14-3.74,2.82-.83,6.58-3.36,10.12-10.32,14.49-19.08,2.56-27.24-5.23a24.66,24.66,0,0,0-17.81-6.71c-3.81.12-9.23.81-12.72,3-5,3.19-7.78,11-12.7,15.19-6.37,5.44-13.65,7.12-20,2.53-3.27-2.37-5.91-5.63-9-8.32-4.73-4.16-13-7.2-19.33-3.52A8.27,8.27,0,0,0,60.38,144.36Z"/><path class="cls-4" d="M60.87,139.94c-4.17,3.36-6,11-7.36,16-3.78,13.71-8.77,13.61-8.77,13.61l-.81,4.31c-.46,2.43,4.46,6,5.89,6.67,4.35,1.91,10.45,1.14,15.09-.33.93-.29,2-.63,2.77-.13s.94,1.31,1.36,2c1.73,2.88,5.81,2.49,8.79.75s5.54-4.49,8.66-5.81c7.31-3.1,10.45,3.89,16.52,5.49,4.45,1.18,9.23-2.16,12.86-5.89a17.38,17.38,0,0,1,3.68-3.24c3-1.67,6.4-.68,9.17.86s5.34,3.64,8.46,4.22c10.7,2,7-14.65,15.77-16.15a17.51,17.51,0,0,1,10.59,1.84c12.2,5.94,23.71,18,38.33,17,4.46-.31,8.85-2.09,13.29-3.08a37,37,0,0,1,16-.06c3,.66,8.52,3.17,11.6,1.08,2.92-2,3-6.57,6.35-8.15a11.36,11.36,0,0,1,4.2-.88c10.67-.7,20.44,2,30.2,5.5l-5.23-42c-.34-2.74-10.19-5.49-12-6a24.11,24.11,0,0,0-21.65,4.15c-3.41,2.61-6.54,5.72-10.1,8-1.8,1.17-4.06,2.12-5.7,1-2.28-1.55-1.51-5.53-2.09-8.51-.91-4.73-6.58-7-10.31-4a8.52,8.52,0,0,0-2.73,4.15c-.43,1.44-.48,3-.89,4.4-2.93,10.32-15.58-3.22-19.06-4.89-2.69-1.3-6.94-2-9.77.14-3.74,2.82-.83,6.58-3.36,10.12-10.32,14.49-19.08,2.56-27.24-5.23a24.66,24.66,0,0,0-17.81-6.71c-3.81.12-9.23.81-12.72,3-5,3.19-7.78,11-12.7,15.19-6.37,5.44-13.65,7.12-20,2.53-3.27-2.37-5.91-5.63-9-8.32-4.73-4.16-13-7.2-19.33-3.52A8.27,8.27,0,0,0,60.87,139.94Z"/><path class="cls-3" d="M59.59,139.49c-2.31,1.85-5,2.68-4.51,6.1.65,4.29,5.48,3.17,8.34,3.78,3,.64,5.23,3.26,7.86,4.92,2.32,1.46,5,2.17,7.46,3.32A4.36,4.36,0,0,1,80.6,159c1.44,2.09-.28,5.28-.51,8.05a2,2,0,0,0,.09,1c.45,1.05,1.92.45,2.89-.19,3.84-2.52,8.69-4,12.89-4.91a3.54,3.54,0,0,1,2.49.07,8.55,8.55,0,0,0,1.19.81c.81.29,1.72-.3,2.48-.88,4.71-3.6,7.93-8.78,12.36-12.4a24.66,24.66,0,0,1,4.18-2.39c2.53-1.36,4.84-3.27,7.38-4.6a10.09,10.09,0,0,1,10.35.34c1.74,1.13,3.56,2.87,5.59,2a13.14,13.14,0,0,1,1.92-.94,3,3,0,0,1,1.73.26c4,1.54,7.34,4.68,11.43,6,2.73.87,5.84,1,8,3,6.21,5.78,14.6,3.27,22.68,2.82a52.15,52.15,0,0,0,21.68-5.67c7.05-3.48,14.46-6.45,22-6.57a50.18,50.18,0,0,1,11.48,1.54c1.9.41,6.37,2.63,8.12,1a3.79,3.79,0,0,0,.86-1.43c.83-2.16.84-4.6,1.89-6.65,2.28-4.45,4.95-4.37,7.9-1.72,2.59,2.32,4.32,5.62,7.68,6.73,3.53,1.16,7.85.49,11.06,2.45-2.2.23-2.47-2-.13-3l-2,1.16a4.68,4.68,0,0,0,3.23-.74,5.84,5.84,0,0,0-4.81-1.36,7.53,7.53,0,0,0,2.33,1.12c.14,0-2.47-11.26-4-12.59a13.14,13.14,0,0,0-4.35-2.31c-6.79-2.48-14.39-4.06-21.47-1-5.7,2.45-10.3,7.57-15.57,11.19-1.79,1.23-4,2.31-5.73,1.35-2.7-1.5-1.81-6.16-2.74-9.42a6.12,6.12,0,0,0-5.82-4.59,7.68,7.68,0,0,0-6.49,4.82c-.86,2-.94,4.34-1.85,6.35-3.77,8.26-14.77-4.28-18.49-6.08-2.69-1.3-6.94-2-9.77.14-3.74,2.82-.83,6.58-3.36,10.12-10.32,14.49-19.08,2.56-27.24-5.23a24.66,24.66,0,0,0-17.81-6.71c-3.81.12-9.23.81-12.72,3-5,3.19-7.78,11-12.7,15.19-6.37,5.44-13.65,7.12-20,2.53-3.27-2.37-5.91-5.63-9-8.32-4.73-4.16-13-7.2-19.33-3.52A8.3,8.3,0,0,0,59.59,139.49Z"/><path class="cls-5" d="M47.56,166.81c10.61.93,19.88,8.76,30.65,7.36,7.18-.93,14.66-5.93,21.21-3.33,1.58.63,3.06,1.69,4.79,1.62,2.08-.09,3.93-1.78,5.66-3.28,12.35-10.7,28.47-15.29,42.8-12.19,8,1.74,15.32,5.7,23.07,8.34s16.44,3.89,24.4.25c4.61-2.11,8.94-5.83,13.77-6.21,4.31-.33,8.12,2.07,12,3.71s8.77,2.39,12.33-.72c1-.91,1.88-2.1,2.93-3,3.27-2.83,7.61-2.37,11.51-2.14A63.76,63.76,0,0,0,283.45,151c1.58.62-.26,3.34-1.92,4.12-8.06,3.78-16.2,7.59-24.64,9.35-4.11.85-8.33,1.24-12.2,3.24-1.89,1-3.64,2.32-5.55,3.2-9.73,4.51-19.95-3.77-30-.73-3.12.94-6,2.93-9.12,3.93-6.82,2.18-13.6-.63-19.82-3.4l-21-9.36c-4.49-2-9.11-4-14.1-4a29.21,29.21,0,0,0-11.46,2.91,126.15,126.15,0,0,0-14.45,8L114.67,171c-4,2.43-8.18,4.92-12.53,5s-8.12-2.26-12.32-2.8c-3.59-.46-7.3.39-11,.86a52.62,52.62,0,0,1-28.71-4.24c-1.34-.62-2.88-2-2.16-3.56"/></g><g class="cls-6"><path class="cls-3" d="M89.49,216.69c-4.49-2.18-7.26-8.7-9.28-13-5.51-11.63-10.33-10.51-10.33-10.51l-1.37-3.74c-.77-2.11,3.5-6.4,4.8-7.27,4-2.63,10-3.2,14.65-2.83a3.57,3.57,0,0,0,2.69-.46,5.61,5.61,0,0,0,1-2.11c1.29-3,5.29-3.46,8.41-2.5s6,2.92,9.17,3.47c7.49,1.29,9.59-5.69,15.25-8.4,4.15-2,9.23,0,13.24,2.67a15.38,15.38,0,0,0,4,2.17c3.12.89,6.29-.71,8.76-2.68s4.68-4.41,7.62-5.57c10.09-4,8.79,11.81,17.45,11.36a19.13,19.13,0,0,0,10-3.86c11-7.91,20.52-21.24,34.81-23.34,4.36-.64,8.85.06,13.28,0a39.61,39.61,0,0,0,15.53-3.27c2.78-1.21,7.82-4.63,11.08-3.38,3.09,1.19,3.8,5.33,7.24,6.07a11.63,11.63,0,0,0,4.19-.07c10.42-1.57,19.51-6.09,28.49-11.24l.6,39.12c0,2.55-9.12,7.08-10.83,7.91-6.84,3.29-14.29,4-21.52.72-3.65-1.66-7.11-3.83-10.86-5.19-1.9-.69-4.22-1.08-5.65.26-2,1.88-.72,5.32-.87,8.14-.25,4.47-5.43,7.71-9.45,5.75a7.14,7.14,0,0,1-3.2-3.19c-.61-1.22-.86-2.58-1.45-3.8-4.23-8.74-14.65,6.14-17.78,8.38-2.42,1.73-6.44,3.25-9.48,1.9-4-1.78-1.69-5.78-4.62-8.47-11.94-11-18.81,1.63-25.66,10.39a27.06,27.06,0,0,1-16.33,9.76c-3.71.69-9,1.18-12.72-.11-5.29-1.85-9-8.35-14.34-11.13-6.9-3.61-14.17-3.62-19.69,1.85-2.85,2.82-5,6.33-7.56,9.39-4,4.75-11.65,9.22-18.24,7.19A7.56,7.56,0,0,1,89.49,216.69Z"/><path class="cls-4" d="M90.56,220.59c-4.49-2.18-7.26-8.7-9.28-13C75.77,196,70.95,197.11,70.95,197.11l-1.37-3.74c-.77-2.11,3.5-6.4,4.8-7.27,4-2.63,10-3.2,14.65-2.83a3.57,3.57,0,0,0,2.69-.46,5.61,5.61,0,0,0,1-2.11c1.29-3,5.29-3.46,8.41-2.5s6,2.92,9.17,3.47c7.49,1.29,9.59-5.69,15.25-8.4,4.15-2,9.23,0,13.24,2.67a15.38,15.38,0,0,0,4,2.17c3.12.89,6.29-.71,8.76-2.68s4.68-4.41,7.62-5.57c10.09-4,8.79,11.81,17.45,11.36a19.13,19.13,0,0,0,10-3.86c11-7.91,20.52-21.24,34.81-23.34,4.36-.64,8.85.06,13.28,0a39.61,39.61,0,0,0,15.53-3.27c2.78-1.21,7.82-4.63,11.08-3.38,3.09,1.19,3.8,5.33,7.24,6.07a11.63,11.63,0,0,0,4.19-.07c10.42-1.57,19.51-6.09,28.49-11.24l.6,39.12c0,2.55-9.12,7.08-10.83,7.91-6.84,3.29-14.29,4-21.52.72-3.65-1.66-7.11-3.83-10.86-5.19-1.9-.69-4.22-1.08-5.65.26-2,1.88-.72,5.32-.87,8.14-.25,4.47-5.43,7.71-9.45,5.75a7.14,7.14,0,0,1-3.2-3.19c-.61-1.22-.86-2.58-1.45-3.8-4.23-8.74-14.65,6.14-17.78,8.38-2.42,1.73-6.44,3.25-9.48,1.9-4-1.78-1.69-5.78-4.62-8.47-11.94-11-18.81,1.63-25.66,10.39a27.06,27.06,0,0,1-16.33,9.76c-3.71.69-9,1.18-12.72-.11-5.29-1.85-9-8.35-14.34-11.13-6.9-3.61-14.17-3.62-19.69,1.85-2.85,2.82-5,6.33-7.56,9.39-4,4.75-11.65,9.22-18.24,7.19A7.56,7.56,0,0,1,90.56,220.59Z"/><path class="cls-3" d="M89.39,221.27c-2.49-1.2-5.23-1.39-5.19-4.6.05-4,4.87-4,7.56-5.15,2.85-1.21,4.62-4,6.94-6.09,2-1.8,4.53-3,6.77-4.55a4.69,4.69,0,0,0,1.61-1.62c1.11-2.19-1-4.72-1.58-7.19a1.77,1.77,0,0,1,0-.89c.3-1,1.8-.81,2.82-.43,4.06,1.49,8.95,1.81,13.14,1.78a3.79,3.79,0,0,0,2.4-.58,9.29,9.29,0,0,1,1-1,2.86,2.86,0,0,1,2.52.28c5,2.29,8.86,6.31,13.64,8.67a23.1,23.1,0,0,0,4.37,1.3c2.63.71,5.12,2,7.76,2.64a10.76,10.76,0,0,0,10-2.45c1.53-1.38,3.06-3.34,5.13-3a12.56,12.56,0,0,0,2,.45,3.32,3.32,0,0,0,1.64-.6c3.67-2.23,6.47-5.76,10.25-7.79,2.52-1.36,5.52-2.09,7.33-4.34,5.23-6.52,13.69-6,21.57-7.25a52.72,52.72,0,0,1,21.75.65c7.3,1.69,14.86,2.84,22.16,1.39a54.8,54.8,0,0,0,10.9-3.78c1.79-.77,5.81-3.7,7.73-2.58a3.15,3.15,0,0,1,1,1.11c1.09,1.79,1.43,4,2.73,5.64,2.81,3.56,5.38,2.93,7.88-.08,2.19-2.64,3.42-6,6.52-7.69,3.25-1.79,7.53-2.07,10.37-4.51-2.16.25-2.11,2.35.28,2.76l-2.1-.63a4.76,4.76,0,0,1,3.23,0,6.39,6.39,0,0,1-4.47,2.23,8.29,8.29,0,0,1,2.1-1.5c.13-.06-.87,10.71-2.14,12.22a14.42,14.42,0,0,1-3.9,3c-6.24,3.66-13.38,6.66-20.64,5.37-5.85-1-11-4.72-16.58-6.91-1.89-.74-4.19-1.27-5.73,0-2.41,1.92-.92,6-1.38,9.1a6.48,6.48,0,0,1-5,5.37,7,7,0,0,1-6.93-3c-1.11-1.67-1.49-3.74-2.65-5.37-4.76-6.7-13.71,6.94-17.08,9.34-2.42,1.73-6.44,3.25-9.48,1.9-4-1.78-1.69-5.78-4.62-8.47-11.94-11-18.81,1.63-25.66,10.39A27.06,27.06,0,0,1,163,214.5c-3.71.69-9,1.18-12.72-.11-5.29-1.85-9-8.35-14.34-11.13-6.9-3.61-14.17-3.62-19.69,1.85-2.85,2.82-5,6.33-7.56,9.39-4,4.75-11.65,9.22-18.24,7.19A7.58,7.58,0,0,1,89.39,221.27Z"/><path class="cls-5" d="M74,199c10.14-3,18.06-12.05,28.67-13,7.07-.64,15,2.33,21-1.38,1.44-.89,2.74-2.17,4.42-2.46,2-.35,4,.8,5.92,1.8,13.4,7.13,29.62,8,43.07,2.17,7.52-3.23,14.06-8.34,21.2-12.33s15.38-6.93,23.58-5.28c4.75,1,9.44,3.43,14.16,2.77,4.22-.59,7.58-3.56,11.13-5.85s8.17-4,12-1.9c1.13.61,2.11,1.51,3.24,2.11,3.54,1.89,7.68.57,11.43-.45a65.4,65.4,0,0,1,30.61-.77c1.45-.89-.71-3-2.41-3.33-8.31-1.76-16.71-3.52-25.11-3.36-4.09.08-8.23.6-12.25-.41-2-.49-3.83-1.34-5.81-1.75-10-2.07-18.8,7.55-28.94,6.88-3.15-.21-6.21-1.41-9.36-1.67-6.89-.57-13.08,3.39-18.73,7.19l-19,12.82c-4.08,2.75-8.27,5.54-13.1,6.56a29.59,29.59,0,0,1-11.48-.26,118.76,118.76,0,0,1-15.06-4.23l-4.78-1.57c-4.18-1.37-8.58-2.76-12.8-1.92s-7.55,3.73-11.55,5.09c-3.41,1.16-7.12,1.16-10.73,1.49a57.38,57.38,0,0,0-27.21,9.79c-1.22.84-2.52,2.42-1.61,3.67"/></g></svg>