<svg id="Layer_1" data-name="Layer 1" xmlns="http://www.w3.org/2000/svg" viewBox="0 0 350 350"><defs><style>.cls-1{fill:#cbbb3a;}.cls-2{fill:#f8e63a;}.cls-3{fill:#fff;}</style></defs><title>Mustard</title><path class="cls-1" d="M144.31,105.15c-2,.54-3.94,1-5.88,1.61-1,.27-1.93.6-2.88.92s-1.91.62-2.84,1c-1.88.67-3.72,1.44-5.55,2.19l-2.7,1.22c-.89.42-1.77.87-2.66,1.29a92.71,92.71,0,0,0-19.26,12.85,81.87,81.87,0,0,0-8,8,72.67,72.67,0,0,0-6.7,8.84,61.71,61.71,0,0,0-8.4,19.57c-.22.84-.35,1.7-.51,2.55s-.27,1.7-.38,2.56-.21,1.7-.27,2.56l-.11,1.25c0,.3,0,.21,0-.35a6.73,6.73,0,0,0-3.12-5,5.78,5.78,0,0,0-1.72-.74c-.34-.09-.53-.09-.55-.12s.24-.08.59-.22c.2-.07.32-.13.58-.24l1.33-.55a230.86,230.86,0,0,0,21.12-10c14-7.46,28.24-15.9,44.07-22.47a151.94,151.94,0,0,1,24.66-8A132,132,0,0,1,191,120.52a159,159,0,0,1,25.6,1.4c1.05.13,2.1.3,3.15.46s2.1.32,3.14.51a48.88,48.88,0,0,1,6.65,1.47,17.78,17.78,0,0,1,3.7,1.61,12.53,12.53,0,0,1,3.47,3,12,12,0,0,1,2.49,8.65,13.15,13.15,0,0,1-1.12,4.17,13.65,13.65,0,0,1-2.31,3.5,22.72,22.72,0,0,1-5.83,4.5,47.22,47.22,0,0,1-6,2.75c-2,.72-3.93,1.5-5.91,2.18s-4,1.36-6,2-4,1.24-6,1.84c-4,1.13-8,2.27-12,3.32-8,2.12-15.93,4.15-23.74,6.42-3.89,1.15-7.77,2.32-11.55,3.65-1.91.63-3.77,1.34-5.64,2s-3.68,1.41-5.48,2.19c-3.62,1.52-7.11,3.25-10.51,5.05-.85.46-1.67,1-2.5,1.42s-1.66.95-2.46,1.46l-2.41,1.5-2.32,1.59-1.16.79-1.1.85c-.73.57-1.48,1.11-2.19,1.69-1.37,1.2-2.8,2.34-4,3.61s-2.47,2.52-3.66,3.78c-.55.66-1.06,1.34-1.6,2a19.29,19.29,0,0,0-1.48,2,41.5,41.5,0,0,0-2.54,4.16,37.36,37.36,0,0,0-1.83,4.32c-.24.72-.56,1.47-.7,2.12a13.37,13.37,0,0,0-.33,1.75,3.31,3.31,0,0,0,.11,1.79.45.45,0,0,0,.17.18s.11.06.12.12a1.07,1.07,0,0,1,.21.2,8.34,8.34,0,0,0,1.95,1.19,15.19,15.19,0,0,0,6.72,1.22c.52,0,1.21-.09,1.87-.19s1.34-.23,2-.39a32.3,32.3,0,0,0,4.26-1.36,84.13,84.13,0,0,0,9.56-4.7c7-3.85,14.15-7.95,21.5-11.89,14.64-7.93,30.4-15.49,47.9-19.92a113.2,113.2,0,0,1,27.1-3.52c.58,0,1.15,0,1.73,0l1.73.07,3.46.15,1.73.08c.57,0,1.16.07,1.84.13a32.86,32.86,0,0,1,4.89.79A20.68,20.68,0,0,1,252,180.8a18.62,18.62,0,0,1,8.64,13.43,21.61,21.61,0,0,1-.24,6.81,25.48,25.48,0,0,1-4.64,10.25A26.81,26.81,0,0,1,254,213.4l-1,1-.8.71c-.53.46-1.06.94-1.6,1.36L249,217.72a58.48,58.48,0,0,1-13.3,7,130.22,130.22,0,0,1-12.66,4c-4,1.11-8,2.07-11.67,3.11-7.38,2.08-14,4.56-17.83,8.46l-.71.74c-.22.26-.42.53-.64.79-.49.57-.66.9-.7.78s0-.27,0-.6a3.45,3.45,0,0,0-.1-.53,1.65,1.65,0,0,0-.17-.47c-.29-.63-.77-1-.84-.88s.14.3.59.5a7.64,7.64,0,0,0,1.66.56,12.8,12.8,0,0,0,2,.29c.35,0,.7,0,1,0h.51l.66-.06a90.31,90.31,0,0,0,11.38-2.15A84.38,84.38,0,0,1,221,237a33.69,33.69,0,0,1,13.46,1.82,22.13,22.13,0,0,1,6,3.23,14.63,14.63,0,0,1,4.4,5.23l-2,1.29c-2.46-2.82-6.08-4.09-9.72-4.57a28.49,28.49,0,0,0-10.93.83c-7.2,1.85-14.09,6.2-23.11,8.65l-.84.23-1,.21c-.68.13-1.35.23-2,.3a26,26,0,0,1-4.09.13,22,22,0,0,1-4.36-.64,15.49,15.49,0,0,1-4.91-2.16l-.64-.45c-.22-.17-.44-.37-.66-.55a9.7,9.7,0,0,1-1.26-1.27,11.75,11.75,0,0,1-2-3.36,14.22,14.22,0,0,1-.58-2,11.82,11.82,0,0,1-.23-2.06,13.36,13.36,0,0,1,.43-3.62,19.2,19.2,0,0,1,2-4.72c.34-.59.68-1.2,1-1.78l1.17-1.69a36.31,36.31,0,0,1,5.48-5.83,52.35,52.35,0,0,1,6.11-4.39,86.26,86.26,0,0,1,12.35-6c4-1.66,7.95-3.07,11.69-4.48s7.27-2.84,10.43-4.4a36.36,36.36,0,0,0,8-5.06l.75-.69c.25-.23.45-.47.67-.7l.33-.34a.56.56,0,0,1,.06-.12c.06,0,.09-.19.16-.26.21-.4.32-1,.23-.92s-.13.24-.08.7a4.41,4.41,0,0,0,.66,2,5.7,5.7,0,0,0,1.42,1.57c.45.28.79.4.69.4l-1.19-.06c-.34,0-.77,0-1.23,0l-1.34,0-2.68,0h-1.34c-.45,0-.9.07-1.34.1a101.24,101.24,0,0,0-21.42,3.6c-14.27,3.85-28.35,10.38-42.78,17.44-7.2,3.57-14.52,7.26-22,10.91A102.18,102.18,0,0,1,132,239a55,55,0,0,1-7.57,1.91c-1.32.23-2.68.41-4,.53a40.53,40.53,0,0,1-4.26.15,37.9,37.9,0,0,1-8.65-1.17,35.75,35.75,0,0,1-8.31-3.24A28.7,28.7,0,0,1,91.33,231c-.59-.7-1.17-1.43-1.71-2.2a26.72,26.72,0,0,1-1.49-2.5,22.09,22.09,0,0,1-2-5.55,25.17,25.17,0,0,1,.08-10.4,33.3,33.3,0,0,1,1.19-4.2c.45-1.32,1-2.43,1.51-3.61a53,53,0,0,1,3.58-6.69A61,61,0,0,1,97,190a59.6,59.6,0,0,1,5-5.23c1.79-1.55,3.54-3.13,5.42-4.48s3.78-2.63,5.68-3.89c1-.59,2-1.14,2.92-1.71l1.46-.84,1.49-.77a121.12,121.12,0,0,1,24.39-9.37c8.29-2.33,16.5-3.79,24.66-5.3s16.23-2.79,24.19-4.43a189.45,189.45,0,0,0,23.4-6.11,63.45,63.45,0,0,0,10.72-4.44,13.36,13.36,0,0,0,3.79-3,5.91,5.91,0,0,0,1-1.65,5.47,5.47,0,0,0,.37-1.75,3.64,3.64,0,0,0-1-2.8,6.69,6.69,0,0,0-3.28-1.54,39.16,39.16,0,0,0-5.45-.62q-1.48-.12-3-.18t-3-.09a116.13,116.13,0,0,0-23.47,2,119.2,119.2,0,0,0-22.27,6.4A205.82,205.82,0,0,0,149,149.95c-13.85,7.35-27.68,15.9-42.86,23.36a199.18,199.18,0,0,1-23.7,10.09L80.9,184c-.7.24-1.55.5-2.35.69a22.88,22.88,0,0,1-5.47.69,17.46,17.46,0,0,1-3.6-.36,14.68,14.68,0,0,1-4.59-1.79,13.39,13.39,0,0,1-4.38-4.34,13.09,13.09,0,0,1-1.87-5.69,16.49,16.49,0,0,1,.07-3.42l.27-1.8c.17-1.18.35-2.36.62-3.52s.5-2.33.83-3.46.61-2.29,1-3.4a73.09,73.09,0,0,1,13.36-24.18,84,84,0,0,1,9.46-9.64A88.5,88.5,0,0,1,95,115.83a85.77,85.77,0,0,1,49.14-13.07Z"/><path class="cls-2" d="M149.09,104.48a94,94,0,0,0-20.59,8.21,71.73,71.73,0,0,0-16.76,12.8,61.69,61.69,0,0,0-17.11,35.44c-.07.82-.22,1.62-.26,2.43l-.09,1.22a7.6,7.6,0,0,0-.05.92,1,1,0,0,0,0-.31,5.18,5.18,0,0,0-.11-1,7.13,7.13,0,0,0-1.48-3,7,7,0,0,0-2.45-1.87,5.89,5.89,0,0,0-1.51-.46c-.57-.08-.47-.05-.28-.14l.38-.15.8-.34c1.63-.67,3.26-1.39,4.88-2.12,6.47-3,12.89-6.38,19.36-10,12.9-7.28,26.35-15.19,41.41-20.95a127.1,127.1,0,0,1,23.42-6.63,122.13,122.13,0,0,1,24.17-1.88A145.9,145.9,0,0,1,226.55,119a33.69,33.69,0,0,1,6.45,1.67,14.09,14.09,0,0,1,3.54,2,11.27,11.27,0,0,1,2.88,3.43,12,12,0,0,1,1,8.32,12.76,12.76,0,0,1-1.52,3.74,14.74,14.74,0,0,1-2.41,3A23.31,23.31,0,0,1,231,145a53,53,0,0,1-5.6,2.46c-3.63,1.46-7.32,2.73-11,3.94-7.38,2.4-14.83,4.41-22.19,6.47s-14.66,4.12-21.74,6.52a136.87,136.87,0,0,0-20.22,8.49,84,84,0,0,0-17.18,11.74,43.59,43.59,0,0,0-11.1,14.8,29.59,29.59,0,0,0-1.4,4,9.82,9.82,0,0,0-.39,2.81c0,.59.19.65.23.6s.19.12.65.43a11,11,0,0,0,5,1.51,11.81,11.81,0,0,0,1.48,0l.72-.06c.29,0,.57-.06.86-.11a22.26,22.26,0,0,0,3.6-.91,50.73,50.73,0,0,0,8.29-3.86l4.76-2.7,4.89-2.83c6.54-3.82,13.26-7.64,20.21-11.36a199.8,199.8,0,0,1,22-10.07c3.85-1.46,7.8-2.8,11.85-3.94a114.74,114.74,0,0,1,12.44-2.75A96.92,96.92,0,0,1,230,168.88l3.26,0,3.26.06c1.09,0,2.17.11,3.26.17s2.27.15,3.84.37a24.19,24.19,0,0,1,5.59,1.46,19.87,19.87,0,0,1,3.23,1.66,19,19,0,0,1,3.1,2.48,18,18,0,0,1,4.38,7,19.33,19.33,0,0,1,1,7.13,23.47,23.47,0,0,1-3.27,10.65,25.07,25.07,0,0,1-3.08,4.21c-.29.33-.61.65-.93,1s-.51.48-.77.72c-.5.46-1,.88-1.51,1.31A52.5,52.5,0,0,1,239,214.39a107.53,107.53,0,0,1-11.77,4.25c-7.56,2.36-14.77,4.1-20.94,6.57a35.57,35.57,0,0,0-8,4.18,18.58,18.58,0,0,0-2.85,2.55c-.19.23-.4.46-.57.7s-.19.27-.26.28,0,0,0-.23.08-.22.22-.66a7.42,7.42,0,0,0,.29-2.05c0-1,0,.39-.1,1.12a7.38,7.38,0,0,1-.41,1.57,6.7,6.7,0,0,1-.3.7c-.1.21-.16.29-.23.42l-.19.31-.16.24a2.52,2.52,0,0,0,.19-.47,3.34,3.34,0,0,0,.17-1.47c-.12-.65-.27-.53-.22-.32a3,3,0,0,0,.44,1,10.42,10.42,0,0,0,1.32,1.51s-.07.05-.21.1l-.27.09c-.06,0,0,0,.07,0l.17,0,.34,0,2.78-.33,5.62-.74,11.35-1.49,5.72-.7,2.89-.32c.44,0,1.08-.11,1.68-.14a16.76,16.76,0,0,1,1.82,0,16.57,16.57,0,0,1,6.89,2,20.14,20.14,0,0,1,5.18,4.14,30.17,30.17,0,0,1,3.62,5A45.5,45.5,0,0,1,246,247.4l-2.06,1.23a38.57,38.57,0,0,0-7.68-7.68A14.29,14.29,0,0,0,232,238.8a9.53,9.53,0,0,0-4.21-.25c-.34.05-.68.12-1,.21l-1.14.31-2.72.74-5.47,1.55-11,3.12L200.83,246l-2.83.74-.36.09-.18,0-.28.06a10.78,10.78,0,0,1-1.7.2,12,12,0,0,1-3-.28,15.45,15.45,0,0,1-4.62-1.88,18.74,18.74,0,0,1-3.51-2.73,17.56,17.56,0,0,1-2.86-3.66,12.9,12.9,0,0,1-1.81-5.75,10.74,10.74,0,0,1,.61-4.27c.14-.38.31-.75.48-1.12,0-.06,0,0,0-.08s0,0,0,0,0,0-.08.1a2.18,2.18,0,0,0-.17.37,5.58,5.58,0,0,0-.32,1.23c-.12.61-.06,1.9-.1.77a8.49,8.49,0,0,1,.36-2.4c.17-.55.24-.71.35-1l.36-.87a9,9,0,0,1,.47-1c.3-.58.64-1.14,1-1.7a31.87,31.87,0,0,1,4.79-5.9,51.48,51.48,0,0,1,11.18-8c7.59-4.08,15-6.78,21.73-9.63,3.36-1.42,6.53-2.88,9.34-4.41a30.19,30.19,0,0,0,6.87-4.89c.2-.21.41-.42.59-.63s.22-.24.24-.28l0-.08a3.12,3.12,0,0,0,.19-.46c.13-.33.05-.69-.06-.19a3.39,3.39,0,0,0,.16,1.51A5.86,5.86,0,0,0,239,192.2a5.36,5.36,0,0,0,.85.73,3.72,3.72,0,0,0,.68.39c.37.17.38.15.06.14s-1,0-1.85,0-1.63,0-2.45,0l-2.45.09-2.45.17a94.89,94.89,0,0,0-9.78,1.42c-3.26.67-6.52,1.47-9.77,2.46s-6.52,2.08-9.78,3.34c-6.5,2.55-13.06,5.45-19.62,8.73s-13.23,6.7-20.06,10.16l-5.14,2.61c-1.73.87-3.43,1.74-5.33,2.64a72.47,72.47,0,0,1-12.76,4.9,44.83,44.83,0,0,1-7.58,1.34c-.65.06-1.33.09-2,.12s-1.43,0-2.13,0a34.92,34.92,0,0,1-12.34-2.59,29.56,29.56,0,0,1-7.8-4.67,23.26,23.26,0,0,1-6.41-8.41,22.46,22.46,0,0,1-1.79-10.52,29.45,29.45,0,0,1,1.85-8.35,50.09,50.09,0,0,1,3-6.55,53.46,53.46,0,0,1,8.26-11.13,64.89,64.89,0,0,1,10.09-8.47,95.25,95.25,0,0,1,22.27-11,162.23,162.23,0,0,1,23-6.05c7.63-1.54,15.19-2.79,22.64-4.23s14.81-3,22-5.11q5.36-1.59,10.54-3.6c3.41-1.35,6.61-2.87,8.56-4.89a5.73,5.73,0,0,0,1.65-3.07,3.65,3.65,0,0,0-.49-2.74,3.15,3.15,0,0,0-.87-.82,6.07,6.07,0,0,0-1.49-.65,22,22,0,0,0-4.7-.66,100,100,0,0,0-21.84.76,110.11,110.11,0,0,0-20.86,5.2,153.85,153.85,0,0,0-19.5,8.81c-12.72,6.75-25.23,14.9-39,22.2a211.24,211.24,0,0,1-21.57,10.18c-1.89.74-3.78,1.47-5.71,2.15l-.73.27c-.38.14-.76.26-1.14.38-.77.23-1.55.42-2.38.58a19.63,19.63,0,0,1-6,.27,14.89,14.89,0,0,1-4.27-1.14,13.14,13.14,0,0,1-4.75-3.52,12.55,12.55,0,0,1-.94-1.25,12.2,12.2,0,0,1-.81-1.42,12.78,12.78,0,0,1-1-2.9,14.36,14.36,0,0,1-.25-4.14c.08-1,.16-1.35.24-1.92l.25-1.61c.15-1.08.4-2.14.61-3.21a75.55,75.55,0,0,1,3.88-12.42,72.26,72.26,0,0,1,6-11.44,69.91,69.91,0,0,1,39.57-29.13,71.08,71.08,0,0,1,23.63-2.54Z"/><path class="cls-3" d="M86.2,160.39A4.33,4.33,0,0,0,84.15,164a6.46,6.46,0,0,0,1.39,4,4.17,4.17,0,0,0,1.23,1.17,2.74,2.74,0,0,0,3.66-3.86c-.65-1-1.88-1.48-2.9-2.12s-2-1.79-1.63-2.95"/><path class="cls-3" d="M109.11,118.13c-1.09-.45-2.27.35-3.19,1.1L102.49,122c-4,3.31-8.25,6.87-9.94,11.8-.1.3-.16.7.11.86a.71.71,0,0,0,.61,0c5-1.89,8.53-6.4,11.43-10.91a16.42,16.42,0,0,1,4-4.86"/><path class="cls-3" d="M224.35,123.19a13.21,13.21,0,0,0-8.64-1.62,52,52,0,0,0-8.69,2.16,107.21,107.21,0,0,1-23.63,4.17c-.37-1.34,1.25-2.31,2.57-2.75l9.3-3.13a44.94,44.94,0,0,1,8.46-2.25c4.32-.56,8.7.14,13,.84,3.06.5,6.28,1.07,8.65,3.06"/><path class="cls-3" d="M110,193.72a13.39,13.39,0,0,0-6.18,10.53,20.35,20.35,0,0,0,14.54,20c4.53,1.07,9.7-.15,12.8-3.62a54.28,54.28,0,0,1-18.62-7.16c-4.06-2.5-8-6.07-7-11.3.55-2.74,2.3-4.95,2.88-7.65"/><path class="cls-3" d="M220.58,172.32A60.56,60.56,0,0,0,204,175a30.63,30.63,0,0,0-13.93,9.05,1.53,1.53,0,0,0-.49,1.16c.1.6.82.85,1.42.95,4.19.66,8.4-.73,12.46-2a178.52,178.52,0,0,1,24.57-5.57,1.35,1.35,0,0,0,.95-.42c.34-.48-.07-1.13-.49-1.53-2.86-2.75-7-3.63-10.86-4.41"/><path class="cls-3" d="M253.85,179.08c-2.68-1.1-7.15-2.14-8,1.85-.39,1.95.35,3.91.7,5.87a15,15,0,0,1-1.41,9.45c-2.39,4.66-7.15,7.91-8.92,12.84a1.62,1.62,0,0,0-.11,1.06c.21.59,1,.77,1.58.75,2.36-.07,4.42-1.58,6.14-3.19,5.66-5.3,16.84-21.55,7.32-28"/><path class="cls-3" d="M189.79,233.87a2.06,2.06,0,0,0-3.11.12,3.53,3.53,0,0,0-.34,3.42c1.08,2.92,4.3,4.38,7.26,5.33a12.19,12.19,0,0,0,4.47.78,4.68,4.68,0,0,0,3.82-2.14,1.18,1.18,0,0,0,.18-.89c-.12-.4-.54-.6-.93-.76L193,236.34c-1.59-.66-3.45-1.73-3.39-3.45"/></svg>