<svg id="Layer_1" data-name="Layer 1" xmlns="http://www.w3.org/2000/svg" viewBox="0 0 350 350"><defs><style>.cls-1{fill:#df936d;}.cls-2{fill:#eacaaf;}.cls-3{fill:#fff;}</style></defs><title>Chipotle</title><path class="cls-1" d="M189.85,102.89c-1.87-.84-3.7-1.71-5.57-2.47-.92-.41-1.87-.76-2.81-1.11s-1.87-.73-2.82-1c-1.88-.68-3.79-1.24-5.68-1.83l-2.87-.77c-1-.25-1.92-.45-2.87-.68a92.75,92.75,0,0,0-23-2.25,81.87,81.87,0,0,0-11.26,1.09,72.68,72.68,0,0,0-10.78,2.6,61.71,61.71,0,0,0-18.9,9.83c-.71.51-1.35,1.09-2,1.65s-1.29,1.15-1.91,1.74-1.24,1.19-1.83,1.81l-.87.9c-.2.22-.1.2.24-.27a6.73,6.73,0,0,0,.76-5.86,5.79,5.79,0,0,0-.86-1.66c-.21-.29-.35-.4-.35-.44s.24.09.6.21c.2.07.33.1.6.19L99,105a230.84,230.84,0,0,0,22.67,5.65c15.55,3.08,31.93,5.58,48.34,10.52a152,152,0,0,1,24.16,9.41,132,132,0,0,1,22.07,13.8,159.08,159.08,0,0,1,18.93,17.29c.73.77,1.44,1.56,2.15,2.35s1.42,1.57,2.11,2.38a48.82,48.82,0,0,1,4.21,5.35,17.77,17.77,0,0,1,1.85,3.59,12.52,12.52,0,0,1,.81,4.48,12,12,0,0,1-3.55,8.27,13.14,13.14,0,0,1-3.51,2.52,13.63,13.63,0,0,1-4,1.25,22.73,22.73,0,0,1-7.36-.2,47.15,47.15,0,0,1-6.43-1.7c-2-.7-4-1.32-6-2.06s-3.92-1.46-5.85-2.25-3.86-1.56-5.79-2.36c-3.81-1.65-7.62-3.3-11.37-5-7.52-3.41-15-6.88-22.44-10.06-3.74-1.57-7.48-3.12-11.25-4.49-1.88-.72-3.76-1.35-5.64-2s-3.74-1.24-5.63-1.77c-3.76-1.11-7.56-2-11.34-2.75-.95-.18-1.89-.32-2.84-.49s-1.89-.32-2.83-.43l-2.82-.37-2.81-.24-1.4-.12-1.39,0c-.92,0-1.85-.07-2.76-.08-1.82.06-3.65,0-5.41.23s-3.51.39-5.23.61c-.85.16-1.67.36-2.5.53a19.37,19.37,0,0,0-2.43.63,41.34,41.34,0,0,0-4.6,1.61A37.34,37.34,0,0,0,95,161.19c-.64.4-1.36.79-1.88,1.2a13.4,13.4,0,0,0-1.36,1.15,3.31,3.31,0,0,0-1,1.46.45.45,0,0,0,0,.25s0,.12,0,.17a1.08,1.08,0,0,1,0,.29,8.33,8.33,0,0,0,.76,2.15,15.19,15.19,0,0,0,4.43,5.2c.42.31,1,.7,1.57,1s1.18.67,1.81,1a32.23,32.23,0,0,0,4.16,1.64,84.12,84.12,0,0,0,10.38,2.42c7.89,1.48,16,2.8,24.17,4.42,16.35,3.14,33.34,7.26,49.68,14.92a113.2,113.2,0,0,1,23.2,14.43c.45.36.91.7,1.35,1.07l1.3,1.15,2.58,2.3,1.29,1.15c.43.37.85.79,1.34,1.27a32.83,32.83,0,0,1,3.28,3.71,20.68,20.68,0,0,1,3.21,6.11,18.62,18.62,0,0,1-1.82,15.86,21.62,21.62,0,0,1-4.5,5.12,25.48,25.48,0,0,1-10.08,5,26.85,26.85,0,0,1-2.72.5l-1.4.16-1.06,0c-.7,0-1.41.05-2.1,0l-2.06-.08a58.46,58.46,0,0,1-14.73-3,130.28,130.28,0,0,1-12.32-4.93c-3.83-1.7-7.49-3.45-11-5-7-3.06-13.73-5.35-19.15-4.75l-1,.12c-.34.06-.66.14-1,.2-.73.13-1.08.28-1,.16s.17-.21.35-.48a3.41,3.41,0,0,0,.26-.47,1.65,1.65,0,0,0,.17-.47c.17-.67,0-1.23-.09-1.21s-.08.32.14.76a7.62,7.62,0,0,0,.93,1.48,12.76,12.76,0,0,0,1.4,1.52c.25.24.52.47.78.67l.4.32.55.37a90.32,90.32,0,0,0,10.16,5.54,84.38,84.38,0,0,1,11.34,6.42,33.68,33.68,0,0,1,9.26,9.93,22.14,22.14,0,0,1,2.62,6.32,14.63,14.63,0,0,1,.09,6.83l-2.38-.29c-.12-3.74-2.12-7-4.63-9.69a28.49,28.49,0,0,0-9-6.28c-6.74-3.12-14.83-4.12-23.37-7.94l-.8-.36-.92-.47c-.61-.33-1.19-.68-1.76-1a26,26,0,0,1-3.25-2.49,22,22,0,0,1-3-3.26A15.49,15.49,0,0,1,126.2,240l-.22-.75c-.06-.27-.11-.56-.16-.84a9.67,9.67,0,0,1-.17-1.78,11.75,11.75,0,0,1,.57-3.87,14.21,14.21,0,0,1,.78-1.88,11.82,11.82,0,0,1,1.13-1.74,13.36,13.36,0,0,1,2.63-2.53,19.18,19.18,0,0,1,4.53-2.39c.64-.24,1.28-.5,1.93-.71l2-.57a36.32,36.32,0,0,1,7.93-1,52.3,52.3,0,0,1,7.51.48A86.27,86.27,0,0,1,168,225.56c4.18,1.27,8.09,2.66,11.89,3.94s7.43,2.41,10.86,3.2a36.34,36.34,0,0,0,9.42,1.16l1-.06c.34,0,.64-.08,1-.11l.47-.05.12-.05c.08,0,.19-.09.29-.11.41-.18.85-.53.76-.56s-.25.1-.51.49a4.41,4.41,0,0,0-.74,1.94,5.7,5.7,0,0,0,.1,2.12c.18.5.36.82.29.75l-.88-.8c-.25-.22-.58-.51-.94-.79l-1.05-.84L198,234.11l-1-.84c-.36-.27-.74-.51-1.1-.77A101.26,101.26,0,0,0,177,221.72c-13.48-6.05-28.52-9.92-44.15-13.59-7.84-1.8-15.83-3.58-24-5.51a102.11,102.11,0,0,1-13.33-4,54.89,54.89,0,0,1-7.07-3.31c-1.17-.65-2.33-1.38-3.47-2.15a40.71,40.71,0,0,1-3.39-2.58,37.89,37.89,0,0,1-6-6.38,35.76,35.76,0,0,1-4.38-7.77,28.69,28.69,0,0,1-2.15-9.71c0-.92,0-1.85.07-2.78a26.75,26.75,0,0,1,.43-2.87,22.1,22.1,0,0,1,2-5.55,25.17,25.17,0,0,1,6.65-8,33.27,33.27,0,0,1,3.58-2.49c1.18-.74,2.3-1.25,3.45-1.84a53,53,0,0,1,7-2.91,61.07,61.07,0,0,1,7.2-1.76,59.62,59.62,0,0,1,7.17-.88c2.36-.07,4.73-.18,7,0s4.59.35,6.86.59c1.12.15,2.23.35,3.35.53l1.67.27,1.64.35A121.12,121.12,0,0,1,152,147.56c7.89,3.44,15.17,7.52,22.44,11.51S188.8,167.19,196,171A189.49,189.49,0,0,0,218,181a63.47,63.47,0,0,0,11.1,3.35,13.36,13.36,0,0,0,4.86.05,5.89,5.89,0,0,0,1.8-.65,5.46,5.46,0,0,0,1.4-1.12,3.64,3.64,0,0,0,1-2.8,6.68,6.68,0,0,0-1.57-3.27,39.13,39.13,0,0,0-3.82-3.93q-1.07-1-2.18-2t-2.24-1.95a116.15,116.15,0,0,0-19.42-13.33,119.18,119.18,0,0,0-21.29-9.16,205.84,205.84,0,0,0-22.55-5.71c-15.37-3.08-31.49-5.22-48-9.06a199.28,199.28,0,0,1-24.73-7.2l-1.54-.54c-.69-.26-1.52-.6-2.25-1a22.88,22.88,0,0,1-4.67-2.93,17.49,17.49,0,0,1-2.56-2.56A14.69,14.69,0,0,1,79,113a13.39,13.39,0,0,1-.64-6.13,13.09,13.09,0,0,1,2.16-5.59,16.49,16.49,0,0,1,2.22-2.6L84,97.45c.88-.8,1.77-1.6,2.71-2.33s1.86-1.49,2.84-2.16,1.92-1.39,2.93-2A73.09,73.09,0,0,1,118.17,80.7a84,84,0,0,1,13.43-1.47,88.49,88.49,0,0,1,13.29.68,85.77,85.77,0,0,1,46.31,21Z"/><path class="cls-2" d="M194,105.4a94,94,0,0,0-21.14-6.68A71.71,71.71,0,0,0,151.75,98a61.69,61.69,0,0,0-35.69,16.59c-.57.59-1.19,1.11-1.74,1.72l-.84.88a7.6,7.6,0,0,0-.62.67s.08-.06.21-.22a5.19,5.19,0,0,0,.54-.84,7.14,7.14,0,0,0,.78-3.3,7,7,0,0,0-.71-3,5.89,5.89,0,0,0-.87-1.31c-.39-.42-.33-.34-.13-.29l.39.12.83.24c1.69.51,3.4,1,5.12,1.45,6.9,1.78,14,3.22,21.33,4.5,14.59,2.54,30,4.93,45.32,10a127.13,127.13,0,0,1,22.32,9.7,122.21,122.21,0,0,1,19.9,13.85,146,146,0,0,1,16.85,16.87,33.65,33.65,0,0,1,3.93,5.37,14.06,14.06,0,0,1,1.46,3.8,11.26,11.26,0,0,1,.05,4.48,12,12,0,0,1-4.47,7.09,12.77,12.77,0,0,1-3.55,1.93,14.77,14.77,0,0,1-3.73.76,23.33,23.33,0,0,1-6.75-.49,53.12,53.12,0,0,1-5.89-1.64c-3.74-1.17-7.39-2.52-11-3.92-7.23-2.81-14.27-6-21.27-9s-14-6.1-21-8.72a136.9,136.9,0,0,0-21-6.23,84,84,0,0,0-20.73-1.79,43.58,43.58,0,0,0-18,4.43,29.66,29.66,0,0,0-3.6,2.19,9.82,9.82,0,0,0-2.08,1.93c-.34.48-.26.62-.2.61s.07.21.24.74a11,11,0,0,0,2.91,4.33,11.83,11.83,0,0,0,1.14.95c.2.15.36.26.6.4s.48.31.73.45a22.26,22.26,0,0,0,3.36,1.58,50.78,50.78,0,0,0,8.86,2.26l5.39.93,5.58.91c7.48,1.18,15.1,2.48,22.84,4A199.83,199.83,0,0,1,182,189.1c3.9,1.31,7.81,2.77,11.67,4.45A114.87,114.87,0,0,1,205,199.3a97.09,97.09,0,0,1,10.76,7.19l2.55,2,2.48,2.11c.82.71,1.61,1.46,2.41,2.2s1.66,1.55,2.74,2.72a24.2,24.2,0,0,1,3.41,4.67,19.86,19.86,0,0,1,1.45,3.33,19,19,0,0,1,.83,3.88,18,18,0,0,1-1,8.2,19.34,19.34,0,0,1-3.76,6.13,23.47,23.47,0,0,1-9.28,6.18,25.1,25.1,0,0,1-5,1.31c-.44.07-.89.12-1.34.17s-.7,0-1.05.07c-.68,0-1.34,0-2,.06A52.49,52.49,0,0,1,194,247.41a107.53,107.53,0,0,1-11.8-4.16c-7.34-3-14-6.18-20.37-8.17a35.56,35.56,0,0,0-8.87-1.86,18.61,18.61,0,0,0-3.82.17c-.29.06-.6.1-.89.18s-.32.08-.37.05,0,0,.18-.15.2-.12.58-.37a7.42,7.42,0,0,0,1.53-1.4c.61-.81-.22.33-.79.8a7.39,7.39,0,0,1-1.31,1,6.72,6.72,0,0,1-.68.35c-.21.1-.31.13-.44.18l-.34.12-.28.09a2.54,2.54,0,0,0,.44-.24,3.35,3.35,0,0,0,1.07-1c.32-.58.13-.58,0-.38a3,3,0,0,0-.28,1,10.39,10.39,0,0,0,.07,2s-.09,0-.23-.06l-.27-.11c-.06,0,0,0,.05,0l.15.09.29.19,2.36,1.5,4.82,3,9.73,6,4.87,3.08,2.44,1.58c.37.24.91.6,1.38,1A16.58,16.58,0,0,1,178.7,259a20.14,20.14,0,0,1,1.38,6.48,30.18,30.18,0,0,1-.35,6.15,45.5,45.5,0,0,1-1.26,5.79L176.1,277A38.57,38.57,0,0,0,175,266.23a14.29,14.29,0,0,0-2-4.38A9.53,9.53,0,0,0,170,259c-.3-.18-.61-.34-.93-.49L168,258l-2.57-1.14-5.21-2.27-10.5-4.56-5.27-2.35-2.66-1.22-.33-.16-.17-.08-.25-.13a10.75,10.75,0,0,1-1.44-.92,12,12,0,0,1-2.17-2.13,15.45,15.45,0,0,1-2.39-4.38,18.76,18.76,0,0,1-1-4.34,17.56,17.56,0,0,1,.1-4.64,12.9,12.9,0,0,1,2.23-5.6,10.74,10.74,0,0,1,3.18-2.92c.35-.2.71-.39,1.08-.56.06,0,0,0,.05-.06s0,0,0,0,0,0-.12,0a2.17,2.17,0,0,0-.36.17,5.6,5.6,0,0,0-1,.75c-.48.4-1.25,1.43-.56.53a8.5,8.5,0,0,1,1.8-1.63c.48-.32.64-.4.89-.54l.83-.44a9.09,9.09,0,0,1,1-.44c.6-.26,1.22-.47,1.83-.69a31.85,31.85,0,0,1,7.44-1.53,51.49,51.49,0,0,1,13.73.87c8.46,1.65,15.9,4.25,22.92,6.31,3.49,1,6.88,1.9,10,2.5a30.18,30.18,0,0,0,8.41.57c.29,0,.58-.06.85-.11l.37-.06.08,0a3.11,3.11,0,0,0,.44-.24c.31-.17.47-.5.08-.18a3.4,3.4,0,0,0-.83,1.27,5.86,5.86,0,0,0-.4,2.58,5.35,5.35,0,0,0,.2,1.1,3.73,3.73,0,0,0,.28.73c.18.36.2.36,0,.14s-.73-.65-1.41-1.2-1.25-1-1.9-1.54l-2-1.48-2-1.42a94.89,94.89,0,0,0-8.47-5.09c-2.94-1.55-6-3-9.12-4.28s-6.36-2.52-9.68-3.61c-6.64-2.14-13.55-4.05-20.71-5.67s-14.48-3.19-22-4.84l-5.64-1.24c-1.89-.43-3.76-.83-5.8-1.33a72.43,72.43,0,0,1-13-4.28,44.84,44.84,0,0,1-6.71-3.76c-.55-.36-1.08-.77-1.62-1.16s-1.13-.88-1.66-1.34a34.9,34.9,0,0,1-7.91-9.82,29.56,29.56,0,0,1-3.08-8.55A23.26,23.26,0,0,1,86.18,161a22.47,22.47,0,0,1,5.28-9.28,29.45,29.45,0,0,1,6.72-5.29,50.13,50.13,0,0,1,6.47-3.17,53.45,53.45,0,0,1,13.44-3.39,64.88,64.88,0,0,1,13.17-.17,95.28,95.28,0,0,1,24.21,5.57,162.28,162.28,0,0,1,21.65,9.9c6.88,3.64,13.52,7.46,20.2,11.06s13.38,7,20.24,10q5.16,2.16,10.43,3.89c3.49,1.11,6.93,2,9.72,1.64a5.73,5.73,0,0,0,3.22-1.33,3.65,3.65,0,0,0,1.35-2.43,3.16,3.16,0,0,0-.16-1.18,6.1,6.1,0,0,0-.74-1.44,22,22,0,0,0-3.22-3.49,99.93,99.93,0,0,0-17.39-13.24,110.15,110.15,0,0,0-19.44-9.19,153.92,153.92,0,0,0-20.67-5.52c-14.12-2.83-29-4.45-44.28-7.54a211.35,211.35,0,0,1-23.14-5.78c-1.93-.62-3.86-1.26-5.78-2l-.74-.26c-.38-.14-.75-.28-1.12-.43-.74-.31-1.47-.66-2.21-1.06a19.64,19.64,0,0,1-4.78-3.56A14.89,14.89,0,0,1,96,119.75,13.13,13.13,0,0,1,94.59,114a12.51,12.51,0,0,1,.07-1.56,12.21,12.21,0,0,1,.28-1.61A12.78,12.78,0,0,1,96,108a14.36,14.36,0,0,1,2.43-3.36c.68-.71,1-.94,1.41-1.33l1.21-1.09c.8-.74,1.66-1.41,2.5-2.09a75.55,75.55,0,0,1,10.87-7.16,72.26,72.26,0,0,1,11.91-5,69.9,69.9,0,0,1,49.07,2.51,71.08,71.08,0,0,1,19.9,13Z"/><path class="cls-3" d="M109.89,108.85a4.33,4.33,0,0,0-3.87,1.49,6.46,6.46,0,0,0-1.47,4,4.17,4.17,0,0,0,.21,1.68,2.74,2.74,0,0,0,5.28-.67c.14-1.2-.52-2.33-.91-3.48s-.41-2.65.61-3.31"/><path class="cls-3" d="M154.38,90.65c-.56-1-2-1.17-3.16-1.17h-4.44c-5.21,0-10.73.1-15.17,2.83-.27.17-.57.44-.46.74a.71.71,0,0,0,.49.36c5.08,1.72,10.65.45,15.75-1.21A16.42,16.42,0,0,1,153.57,91"/><path class="cls-3" d="M240.37,167.54a13.21,13.21,0,0,0-5.66-6.72,52,52,0,0,0-8.09-3.83,107.21,107.21,0,0,1-20.93-11.74c.57-1.27,2.43-1,3.73-.5l9.18,3.46a44.94,44.94,0,0,1,8,3.61c3.7,2.3,6.64,5.61,9.53,8.88,2.05,2.32,4.18,4.8,4.76,7.85"/><path class="cls-3" d="M107.22,149.73A13.39,13.39,0,0,0,95.77,154a20.35,20.35,0,0,0-1.42,24.69c2.83,3.7,7.6,6,12.2,5.31a54.28,54.28,0,0,1-9.88-17.33c-1.56-4.51-2.38-9.78,1.75-13.17,2.16-1.77,4.91-2.37,7.08-4.09"/><path class="cls-3" d="M206.34,203.17a60.56,60.56,0,0,0-14.51-8.4A30.63,30.63,0,0,0,175.32,193a1.53,1.53,0,0,0-1.11.59c-.3.53.09,1.18.5,1.63,2.83,3.16,7,4.75,10.89,6.37a178.52,178.52,0,0,1,22.55,11.25,1.35,1.35,0,0,0,1,.27c.57-.16.66-.92.59-1.5-.47-3.93-3.1-7.23-5.61-10.29"/><path class="cls-3" d="M227.81,229.48c-1.38-2.54-4.18-6.18-7.33-3.61-1.53,1.26-2.21,3.25-3.17,5a15,15,0,0,1-7.08,6.42c-4.8,2.09-10.55,1.59-15,4.29a1.62,1.62,0,0,0-.76.75c-.21.59.25,1.2.75,1.58,1.87,1.44,4.42,1.58,6.77,1.42,7.74-.52,26.68-6,23.41-17.06"/><path class="cls-3" d="M143.53,231.32a2.06,2.06,0,0,0-2.48-1.88,3.53,3.53,0,0,0-2.43,2.43c-1,2.94.55,6.11,2.25,8.73a12.19,12.19,0,0,0,3,3.44,4.68,4.68,0,0,0,4.31.76,1.18,1.18,0,0,0,.7-.57,1.43,1.43,0,0,0-.23-1.18l-4.16-7.79c-.81-1.52-1.58-3.52-.44-4.82"/></svg>