<svg id="Layer_1" data-name="Layer 1" xmlns="http://www.w3.org/2000/svg" xmlns:xlink="http://www.w3.org/1999/xlink" viewBox="0 0 350 350"><defs><style>.cls-1{fill:none;}.cls-2{fill:#c97641;}.cls-3{clip-path:url(#clip-path);}.cls-4{fill:#d7803f;}.cls-5{fill:#ecbf98;}.cls-6{clip-path:url(#clip-path-2);}.cls-7{clip-path:url(#clip-path-3);}</style><clipPath id="clip-path"><path class="cls-1" d="M139.5,181.51s-18.76-4.22-25.25-7c-.4-.17-14.19-7.34-21.64-9.44-7.94-2.24-17.32-4-26,3.23s-39.92,30.55-39.2,39.74S32.48,220,41.86,218.27s20-5.22,32.23,3.23,20.2,11.67,45.45,10.43,34.87.25,47.38,8.44,27.18,9.93,39.2-3.23,19-16.64,26-18.63,13-7,11.06-9.93S213.58,190.2,176.78,187,139.5,181.51,139.5,181.51Z"/></clipPath><clipPath id="clip-path-2"><path class="cls-1" d="M193.23,139.46s-18.76-4.22-25.25-7c-.4-.17-14.19-7.34-21.64-9.44-7.94-2.24-17.32-4-26,3.23S80.43,156.85,81.15,166,86.2,178,95.58,176.22s20-5.22,32.23,3.23,20.2,11.67,45.45,10.43,34.87.25,47.38,8.44,27.18,9.93,39.2-3.23,19-16.64,26-18.63,13-7,11.06-9.93-29.58-18.38-66.38-21.61S193.23,139.46,193.23,139.46Z"/></clipPath><clipPath id="clip-path-3"><path class="cls-1" d="M201.61,96.68s-18.76-4.22-25.25-7c-.4-.17-14.19-7.34-21.64-9.44-7.94-2.24-17.32-4-26,3.23s-39.92,30.55-39.2,39.74,5.05,11.92,14.43,10.18,20-5.22,32.23,3.23,20.2,11.67,45.45,10.43,34.87.25,47.38,8.44,27.18,9.93,39.2-3.23,19-16.64,26-18.63,13-7,11.06-9.93-29.58-18.38-66.38-21.61S201.61,96.68,201.61,96.68Z"/></clipPath></defs><title>SalmonFull</title><path class="cls-2" d="M133.47,188.73s-18.57-4-25-6.67c-.39-.16-14-7-21.42-9-7.86-2.14-17.14-3.81-25.71,3.09s-39.52,29.28-38.8,38.09,5,11.43,14.28,9.76,19.76-5,31.9,3.09,20,11.19,45,10,34.52.24,46.89,8.09,26.9,9.52,38.8-3.09,18.81-15.95,25.71-17.85,12.85-6.67,11-9.52-29.28-17.62-65.7-20.71S133.47,188.73,133.47,188.73Z"/><g class="cls-3"><path class="cls-4" d="M139.5,181.51s-18.76-4.22-25.25-7c-.4-.17-14.19-7.34-21.64-9.44-7.94-2.24-17.32-4-26,3.23s-39.92,30.55-39.2,39.74S32.48,220,41.86,218.27s20-5.22,32.23,3.23,20.2,11.67,45.45,10.43,34.87.25,47.38,8.44,27.18,9.93,39.2-3.23,19-16.64,26-18.63,13-7,11.06-9.93S213.58,190.2,176.78,187,139.5,181.51,139.5,181.51Z"/><path class="cls-4" d="M139.74,181.51s-18.76-4.22-25.25-7c-.4-.17-14.19-7.34-21.64-9.44-7.94-2.24-17.32-4-26,3.23S27,198.89,27.67,208.08,32.72,220,42.1,218.27s20-5.22,32.23,3.23,20.2,11.67,45.45,10.43,34.87.25,47.38,8.44,27.18,9.93,39.2-3.23,19-16.64,26-18.63,13-7,11.06-9.93S213.82,190.2,177,187,139.74,181.51,139.74,181.51Z"/><path class="cls-5" d="M28.29,201.74a41.75,41.75,0,0,1,6.24-6.59q1.69-1.47,3.47-2.82a29.12,29.12,0,0,1,3.72-2.46c2.62-1.45,5.52-2.49,8-4.06a42.85,42.85,0,0,0,7-5.52c1.11-1,2.19-2.07,3.33-3s2.32-1.88,3.5-2.79a77.19,77.19,0,0,1,7.45-5.16,55.19,55.19,0,0,1,17.19-5.89l.21.45a75,75,0,0,1-7.31,5.31c-2.47,1.64-4.94,3.18-7.37,4.72s-5,3-7.53,4.49c-1.29.75-2.55,1.52-3.89,2.19s-2.69,1.31-4,2a39.74,39.74,0,0,0-7.65,4.58c-2.35,1.82-4.33,4.17-6.56,6.15A30.48,30.48,0,0,1,40.58,196q-1.85,1.24-3.78,2.36a44.47,44.47,0,0,1-8.21,3.83Z"/><path class="cls-5" d="M34,217.61A28.43,28.43,0,0,1,37,213a42,42,0,0,1,3.64-4.14c1.29-1.3,2.64-2.53,4-3.69a38.14,38.14,0,0,1,4.37-3.23c3-1.94,6.43-3.42,9.4-5.46a60.2,60.2,0,0,0,8.3-6.9c1.32-1.24,2.59-2.54,3.94-3.74s2.73-2.36,4.11-3.52a80.78,80.78,0,0,1,8.64-6.5q4.54-2.94,9.32-5.53a86.83,86.83,0,0,1,9.86-4.66l.27.42a88.62,88.62,0,0,1-7.92,7.5q-4.11,3.51-8.46,6.63c-1.46,1-2.93,2-4.46,3-.77.46-1.5,1-2.24,1.48l-2.23,1.5c-1.49,1-3,2-4.52,2.93s-3.12,1.8-4.69,2.7a59.93,59.93,0,0,0-9,6c-2.78,2.28-5.19,5-7.83,7.48a50.65,50.65,0,0,1-4.13,3.39c-1.41,1.08-2.84,2.12-4.27,3.16s-2.86,2.08-4.33,3.1-2.92,2.07-4.48,3.08Z"/><path class="cls-5" d="M53.26,215.34A109.67,109.67,0,0,1,68.05,201.6c1.34-1,2.67-2.05,4-3s2.76-1.93,4.16-2.88A77.09,77.09,0,0,1,85,190.51a79,79,0,0,1,19.3-6.55,50.43,50.43,0,0,1,20.37-.44,31.9,31.9,0,0,1,9.79,3.81,41.46,41.46,0,0,1,8.2,6.55A87.55,87.55,0,0,1,155,210.25c1.73,2.88,3.41,5.75,5,8.66s3.28,5.82,4.86,8.76c3.16,5.89,6.26,11.82,9,18l-.43.26c-4.23-5.24-8.13-10.67-12-16.15s-7.52-11.06-11.1-16.67-7-11.15-11.23-15.95a46,46,0,0,0-7-6.44,31.85,31.85,0,0,0-8.32-4.53,33,33,0,0,0-19.27-.62c-6.4,1.65-12.1,5.13-17.63,8.61-2.78,1.74-5.54,3.54-8.36,5.26-1.4.88-2.8,1.76-4.18,2.67l-4.18,2.68L62,210.22c-2.77,1.84-5.55,3.7-8.4,5.5Z"/><path class="cls-5" d="M68.14,219.32a66.79,66.79,0,0,1,9.46-10.8,71,71,0,0,1,11.33-8.78c2.06-1.22,4.2-2.32,6.35-3.37s4.29-2.12,6.5-3.13a26.65,26.65,0,0,1,7-2.25,19.67,19.67,0,0,1,7.5.41,25.09,25.09,0,0,1,7,2.9,26,26,0,0,1,3.08,2.14c1,.78,1.94,1.55,2.83,2.41a58.26,58.26,0,0,1,9.43,11.2c2.62,4,4.87,8.24,7,12.41s4.34,8.31,6.63,12.5l-.39.32a67.78,67.78,0,0,1-9.58-10.72l-2.11-2.88-2-2.9-4-5.74a97.13,97.13,0,0,0-8.33-10.83,49.6,49.6,0,0,0-4.87-4.61,26,26,0,0,0-5.56-3.6,13.29,13.29,0,0,0-6.44-1.31,15.46,15.46,0,0,0-6.45,2,39.85,39.85,0,0,0-5.73,4l-5.45,4.47c-1.82,1.47-3.68,2.86-5.58,4.22l-5.65,4.13c-1.89,1.38-3.78,2.77-5.71,4.12s-3.85,2.74-5.88,4Z"/><path class="cls-5" d="M72.63,223.2c2.54-2.42,5-4.61,7.55-6.83,1.26-1.1,2.54-2.2,3.85-3.27a38.25,38.25,0,0,1,4.12-3c2.92-1.84,6.15-3.24,9.18-4.93a16,16,0,0,1,5.07-1.87,15.8,15.8,0,0,1,5.53.05,17.36,17.36,0,0,1,5.29,1.87,23,23,0,0,1,4.44,3.32,65.76,65.76,0,0,1,6.91,7.77c2,2.6,4.09,5.16,6.23,7.72s4.39,5.07,6.62,7.75l-.29.4a40.42,40.42,0,0,1-9-5.3,49.85,49.85,0,0,1-7.65-7.2c-2.28-2.66-4.08-5.46-6.17-7.86a31.81,31.81,0,0,0-3.3-3.29,17.9,17.9,0,0,0-3.85-2.58,9.41,9.41,0,0,0-4.53-1,8.57,8.57,0,0,0-4.44,1.59c-2.76,1.88-5,4.54-7.46,6.85a39.73,39.73,0,0,1-3.94,3.23c-1.37,1-2.8,2-4.28,2.89a31.66,31.66,0,0,1-9.62,4.13Z"/><path class="cls-5" d="M83.41,229.85a16.93,16.93,0,0,1,4.28-4.17,20.23,20.23,0,0,1,2.52-1.5,10.64,10.64,0,0,1,2.78-1c2-.41,4.1-.23,6-.47s3.82-.69,5.85-1.09a14.77,14.77,0,0,1,6.19,0,20,20,0,0,1,5.8,1.93,23.6,23.6,0,0,1,4.83,3.5,22.53,22.53,0,0,1,3.83,4.61l-.28.41a35.38,35.38,0,0,1-5.64-1.67c-1.76-.66-3.44-1.36-5.07-2.05s-3.15-1.53-4.76-2.19-3.23-1.25-5-1.8a9.31,9.31,0,0,0-5.43-.07c-1.79.52-3.29,1.84-4.85,2.79A14.27,14.27,0,0,1,92,228.23q-1.27.51-2.61.93a21.43,21.43,0,0,1-5.77,1.12Z"/><path class="cls-5" d="M143.06,179.65a56,56,0,0,1,7,7.66q1.57,2,3,4.14a39.2,39.2,0,0,1,2.66,4.37c1.58,3,2.76,6.34,4.49,9.28a54.2,54.2,0,0,0,6,8.28c1.1,1.32,2.26,2.6,3.32,3.94s2.07,2.72,3.08,4.1c2,2.77,4,5.5,5.82,8.43a60.37,60.37,0,0,1,4.7,9.33,31.74,31.74,0,0,1,2.33,10.3l-.48.13c-1.74-3-3.47-5.86-5.35-8.62L174,232.72c-1.9-2.8-3.6-5.78-5.29-8.74-.85-1.48-1.7-3-2.48-4.49s-1.5-3.09-2.25-4.64a54.2,54.2,0,0,0-5.09-8.89c-2-2.78-4.51-5.2-6.64-7.89a39.21,39.21,0,0,1-2.9-4.22q-1.34-2.18-2.55-4.44a56,56,0,0,1-4.14-9.51Z"/><path class="cls-5" d="M161.95,184a51.16,51.16,0,0,1,4.9,8.19q1,2.11,2,4.24a38,38,0,0,1,1.67,4.35c.93,3,1.51,6.13,2.8,9a29,29,0,0,0,2.24,4.1,11.16,11.16,0,0,0,2.91,3.25,3.89,3.89,0,0,0,1.61.65c.23.05.35-.09,0-.07a1,1,0,0,0-.47.24c-.09.08-.1.09-.1,0s0-.56.09-.89.08-.71.1-1.07c.05-.71.08-1.44.09-2.18,0-3-.28-6.14.21-9.54a34.81,34.81,0,0,1,2.94-9.42c.67-1.47,1.38-2.87,2.17-4.29a13.06,13.06,0,0,1,1.42-2.13,5.4,5.4,0,0,1,2.08-1.58l.29.4a9.14,9.14,0,0,0-1.38,4.16c-.24,1.55-.54,3.12-.83,4.63-.57,3.05-1.13,6-1.39,8.87s-.37,5.95-.8,9.25c-.12.83-.23,1.66-.43,2.49-.09.42-.2.84-.32,1.25a11.34,11.34,0,0,1-.47,1.39,4,4,0,0,1-.65,1.05,2.94,2.94,0,0,1-1.42.9,3.26,3.26,0,0,1-2.3-.29,7.1,7.1,0,0,1-2.33-1.87,21.14,21.14,0,0,1-2.5-4.41c-.69-1.43-1.42-2.82-2.21-4.19-1.57-2.74-3.63-5.27-5.19-8.06a29.6,29.6,0,0,1-2-4.33q-.84-2.22-1.48-4.51a44.82,44.82,0,0,1-1.74-9.42Z"/><path class="cls-5" d="M193.07,248.92a32.27,32.27,0,0,1-2.66-9c-.25-1.53-.42-3.06-.52-4.59a28.21,28.21,0,0,1,0-4.59c.27-3.07,1-6.09,1.16-9.17s.13-6.15.59-9.39a18.69,18.69,0,0,1,1.33-4.79,19.78,19.78,0,0,1,2.59-4.27,25.15,25.15,0,0,1,7.39-6.54,32.84,32.84,0,0,1,9-3.39,43.55,43.55,0,0,1,9.29-1.11l.14.48c-2.68,1.66-5.45,3-8.09,4.33s-5.19,2.73-7.54,4.26a38.84,38.84,0,0,0-6.57,5.06,30.34,30.34,0,0,0-2.66,3.15,21.52,21.52,0,0,0-2.2,3.59,17.91,17.91,0,0,0-1.6,8.64c.14,3,1,6,1.4,9.05a34.79,34.79,0,0,1,.28,4.51c0,1.5,0,3,0,4.51a75,75,0,0,1-.73,9.15Z"/><path class="cls-5" d="M203.57,244.53a18.12,18.12,0,0,1-4.15-7.44,22.41,22.41,0,0,1-.82-4.23,15,15,0,0,1,.13-4.35,13.87,13.87,0,0,1,1.55-4.27,20.67,20.67,0,0,1,2.63-3.56c.94-1.07,1.92-2.06,2.92-3s2-2,3-2.93a25.29,25.29,0,0,1,7-4.85,41.48,41.48,0,0,1,7.86-2.88c2.64-.66,5.22-1.13,7.77-1.69a65.64,65.64,0,0,0,7.7-2.09l.3.4a19.74,19.74,0,0,1-6.61,5.39,45.43,45.43,0,0,1-7.7,3.12c-2.57.81-5.11,1.36-7.54,2.12s-4.82,1.7-7.26,2.74a14.41,14.41,0,0,0-6.19,4.69,7.83,7.83,0,0,0-1.3,3.48,20.62,20.62,0,0,0,0,3.66c.08,1.22.13,2.49.15,3.75s.11,2.52.21,3.8c.18,2.56.52,5.13.78,8Z"/></g><path class="cls-2" d="M187.19,146.69s-18.57-4-25-6.67c-.39-.16-14-7-21.42-9-7.86-2.14-17.14-3.81-25.71,3.09s-39.52,29.28-38.8,38.09,5,11.43,14.28,9.76,19.76-5,31.9,3.09,20,11.19,45,10,34.52.24,46.89,8.09,26.9,9.52,38.8-3.09,18.81-15.95,25.71-17.85,12.85-6.67,11-9.52-29.28-17.62-65.7-20.71S187.19,146.69,187.19,146.69Z"/><g class="cls-6"><path class="cls-4" d="M193.23,139.46s-18.76-4.22-25.25-7c-.4-.17-14.19-7.34-21.64-9.44-7.94-2.24-17.32-4-26,3.23S80.43,156.85,81.15,166,86.2,178,95.58,176.22s20-5.22,32.23,3.23,20.2,11.67,45.45,10.43,34.87.25,47.38,8.44,27.18,9.93,39.2-3.23,19-16.64,26-18.63,13-7,11.06-9.93-29.58-18.38-66.38-21.61S193.23,139.46,193.23,139.46Z"/><path class="cls-4" d="M193.47,139.46s-18.76-4.22-25.25-7c-.4-.17-14.19-7.34-21.64-9.44-7.94-2.24-17.32-4-26,3.23S80.67,156.85,81.39,166,86.45,178,95.82,176.22s20-5.22,32.23,3.23,20.2,11.67,45.45,10.43,34.87.25,47.38,8.44,27.18,9.93,39.2-3.23,19-16.64,26-18.63,13-7,11.06-9.93-29.58-18.38-66.38-21.61S193.47,139.46,193.47,139.46Z"/><path class="cls-5" d="M82,159.69a41.75,41.75,0,0,1,6.24-6.59q1.69-1.47,3.47-2.82a29.12,29.12,0,0,1,3.72-2.46c2.62-1.45,5.52-2.49,8-4.06a42.85,42.85,0,0,0,7-5.52c1.11-1,2.19-2.07,3.33-3s2.32-1.88,3.5-2.79a77.19,77.19,0,0,1,7.45-5.16A55.19,55.19,0,0,1,142,121.35l.21.45a75,75,0,0,1-7.31,5.31c-2.47,1.64-4.94,3.18-7.37,4.72s-5,3-7.53,4.49c-1.29.75-2.55,1.52-3.89,2.19s-2.69,1.31-4,2a39.74,39.74,0,0,0-7.65,4.58c-2.35,1.82-4.33,4.17-6.56,6.15a30.48,30.48,0,0,1-3.55,2.68q-1.85,1.24-3.78,2.36a44.47,44.47,0,0,1-8.21,3.83Z"/><path class="cls-5" d="M87.74,175.56a28.43,28.43,0,0,1,3-4.66,42,42,0,0,1,3.64-4.14c1.29-1.3,2.64-2.53,4-3.69a38.14,38.14,0,0,1,4.37-3.23c3-1.94,6.43-3.42,9.4-5.46a60.21,60.21,0,0,0,8.3-6.9c1.32-1.24,2.59-2.54,3.94-3.74s2.73-2.36,4.11-3.52a80.78,80.78,0,0,1,8.64-6.5q4.54-2.94,9.32-5.53a86.83,86.83,0,0,1,9.86-4.66l.27.42a88.62,88.62,0,0,1-7.92,7.5q-4.11,3.51-8.46,6.63c-1.46,1-2.93,2-4.46,3-.77.46-1.5,1-2.24,1.48l-2.23,1.5c-1.49,1-3,2-4.52,2.93s-3.12,1.8-4.69,2.7a59.93,59.93,0,0,0-9,6c-2.78,2.28-5.19,5-7.83,7.48a50.65,50.65,0,0,1-4.13,3.39c-1.41,1.08-2.84,2.12-4.27,3.16s-2.86,2.08-4.33,3.1-2.92,2.07-4.48,3.08Z"/><path class="cls-5" d="M107,173.29a109.67,109.67,0,0,1,14.79-13.74c1.34-1,2.67-2.05,4-3s2.76-1.93,4.16-2.88a77.09,77.09,0,0,1,8.73-5.17,79,79,0,0,1,19.3-6.55,50.43,50.43,0,0,1,20.37-.44,31.9,31.9,0,0,1,9.79,3.81,41.46,41.46,0,0,1,8.2,6.55A87.55,87.55,0,0,1,208.7,168.2c1.73,2.88,3.41,5.75,5,8.66s3.28,5.82,4.86,8.76c3.16,5.89,6.26,11.82,9,18l-.43.26c-4.23-5.24-8.13-10.67-12-16.15s-7.52-11.06-11.1-16.67-7-11.15-11.23-15.95a46,46,0,0,0-7-6.44,31.85,31.85,0,0,0-8.32-4.53,33,33,0,0,0-19.27-.62c-6.4,1.65-12.1,5.13-17.63,8.61-2.78,1.74-5.54,3.54-8.36,5.26-1.4.88-2.8,1.76-4.18,2.67L124,162.7l-8.32,5.47c-2.77,1.84-5.55,3.7-8.4,5.5Z"/><path class="cls-5" d="M121.86,177.27a66.79,66.79,0,0,1,9.46-10.8,71,71,0,0,1,11.33-8.78c2.06-1.22,4.2-2.32,6.35-3.37s4.29-2.12,6.5-3.13a26.65,26.65,0,0,1,7-2.25,19.67,19.67,0,0,1,7.5.41,25.09,25.09,0,0,1,7,2.9,26,26,0,0,1,3.08,2.14c1,.78,1.94,1.55,2.83,2.41A58.26,58.26,0,0,1,192.3,168c2.62,4,4.87,8.24,7,12.41s4.34,8.31,6.63,12.5l-.39.32A67.78,67.78,0,0,1,196,182.5l-2.11-2.88-2-2.9-4-5.74a97.13,97.13,0,0,0-8.33-10.83,49.6,49.6,0,0,0-4.87-4.61,26,26,0,0,0-5.56-3.6,13.29,13.29,0,0,0-6.44-1.31,15.46,15.46,0,0,0-6.45,2,39.85,39.85,0,0,0-5.73,4L145,161.11c-1.82,1.47-3.68,2.86-5.58,4.22l-5.65,4.13c-1.89,1.38-3.78,2.77-5.71,4.12s-3.85,2.74-5.88,4Z"/><path class="cls-5" d="M126.36,181.15c2.54-2.42,5-4.61,7.55-6.83,1.26-1.1,2.54-2.2,3.85-3.27a38.25,38.25,0,0,1,4.12-3c2.92-1.84,6.15-3.24,9.18-4.93a16,16,0,0,1,5.07-1.87,15.8,15.8,0,0,1,5.53.05,17.36,17.36,0,0,1,5.29,1.87,23,23,0,0,1,4.44,3.32,65.76,65.76,0,0,1,6.91,7.77c2,2.6,4.09,5.16,6.23,7.72s4.39,5.07,6.62,7.75l-.29.4a40.42,40.42,0,0,1-9-5.3,49.85,49.85,0,0,1-7.65-7.2c-2.28-2.66-4.08-5.46-6.17-7.86a31.82,31.82,0,0,0-3.3-3.29,17.89,17.89,0,0,0-3.85-2.58,9.41,9.41,0,0,0-4.53-1,8.57,8.57,0,0,0-4.44,1.59c-2.76,1.88-5,4.54-7.46,6.85a39.74,39.74,0,0,1-3.94,3.23c-1.37,1-2.8,2-4.28,2.89a31.66,31.66,0,0,1-9.62,4.13Z"/><path class="cls-5" d="M137.14,187.8a16.93,16.93,0,0,1,4.28-4.17,20.23,20.23,0,0,1,2.52-1.5,10.64,10.64,0,0,1,2.78-1c2-.41,4.1-.23,6-.47s3.82-.69,5.85-1.09a14.77,14.77,0,0,1,6.19,0,20,20,0,0,1,5.8,1.93,23.6,23.6,0,0,1,4.83,3.5,22.53,22.53,0,0,1,3.83,4.61l-.28.41a35.38,35.38,0,0,1-5.64-1.67c-1.76-.66-3.44-1.36-5.07-2.05s-3.15-1.53-4.76-2.19-3.23-1.25-5-1.8a9.31,9.31,0,0,0-5.43-.07c-1.79.52-3.29,1.84-4.85,2.79a14.27,14.27,0,0,1-2.46,1.18q-1.27.51-2.61.93a21.43,21.43,0,0,1-5.77,1.12Z"/><path class="cls-5" d="M196.78,137.6a56,56,0,0,1,7,7.66q1.57,2,3,4.14a39.21,39.21,0,0,1,2.66,4.37c1.58,3,2.76,6.34,4.49,9.28a54.2,54.2,0,0,0,6,8.28c1.1,1.32,2.26,2.6,3.32,3.94s2.07,2.72,3.08,4.1c2,2.77,4,5.5,5.82,8.43a60.37,60.37,0,0,1,4.7,9.33,31.74,31.74,0,0,1,2.33,10.3l-.48.13c-1.74-3-3.47-5.86-5.35-8.62l-5.71-8.27c-1.9-2.8-3.6-5.78-5.29-8.74-.85-1.48-1.7-3-2.48-4.49s-1.5-3.09-2.25-4.64a54.2,54.2,0,0,0-5.09-8.89c-2-2.78-4.51-5.2-6.64-7.89a39.21,39.21,0,0,1-2.9-4.22q-1.34-2.18-2.55-4.44a56,56,0,0,1-4.14-9.51Z"/><path class="cls-5" d="M215.67,142a51.16,51.16,0,0,1,4.9,8.19q1,2.11,2,4.24a38,38,0,0,1,1.67,4.35c.93,3,1.51,6.13,2.8,9a29,29,0,0,0,2.24,4.1,11.16,11.16,0,0,0,2.91,3.25,3.89,3.89,0,0,0,1.61.65c.23.05.35-.09,0-.07a1,1,0,0,0-.47.24c-.09.08-.1.09-.1,0s0-.56.09-.89.08-.71.1-1.07c.05-.71.08-1.44.09-2.18,0-3-.28-6.14.21-9.54a34.81,34.81,0,0,1,2.94-9.42c.67-1.47,1.38-2.87,2.17-4.29a13.05,13.05,0,0,1,1.42-2.13,5.4,5.4,0,0,1,2.08-1.58l.29.4a9.14,9.14,0,0,0-1.38,4.16c-.24,1.55-.54,3.12-.83,4.63-.57,3.05-1.13,6-1.39,8.87s-.37,5.95-.8,9.25c-.12.83-.23,1.66-.43,2.49-.09.42-.2.84-.32,1.25a11.33,11.33,0,0,1-.47,1.39,4,4,0,0,1-.65,1.05,2.94,2.94,0,0,1-1.42.9,3.26,3.26,0,0,1-2.3-.29,7.1,7.1,0,0,1-2.33-1.87,21.14,21.14,0,0,1-2.5-4.41c-.69-1.43-1.42-2.82-2.21-4.19-1.57-2.74-3.63-5.27-5.19-8.06a29.6,29.6,0,0,1-2-4.33q-.84-2.22-1.48-4.51a44.82,44.82,0,0,1-1.74-9.42Z"/><path class="cls-5" d="M246.79,206.87a32.27,32.27,0,0,1-2.66-9c-.25-1.53-.42-3.06-.52-4.59a28.21,28.21,0,0,1,0-4.59c.27-3.07,1-6.09,1.16-9.17s.13-6.15.59-9.39a18.69,18.69,0,0,1,1.33-4.79,19.78,19.78,0,0,1,2.59-4.27,25.15,25.15,0,0,1,7.39-6.54,32.84,32.84,0,0,1,9-3.39,43.55,43.55,0,0,1,9.29-1.11l.14.48c-2.68,1.66-5.45,3-8.09,4.33s-5.19,2.73-7.54,4.26a38.84,38.84,0,0,0-6.57,5.06,30.34,30.34,0,0,0-2.66,3.15,21.52,21.52,0,0,0-2.2,3.59,17.91,17.91,0,0,0-1.6,8.64c.14,3,1,6,1.4,9.05a34.79,34.79,0,0,1,.28,4.51c0,1.5,0,3,0,4.51a75,75,0,0,1-.73,9.15Z"/><path class="cls-5" d="M257.3,202.48a18.12,18.12,0,0,1-4.15-7.44,22.41,22.41,0,0,1-.82-4.23,15,15,0,0,1,.13-4.35,13.87,13.87,0,0,1,1.55-4.27,20.67,20.67,0,0,1,2.63-3.56c.94-1.07,1.92-2.06,2.92-3s2-2,3-2.93a25.29,25.29,0,0,1,7-4.85,41.48,41.48,0,0,1,7.86-2.88c2.64-.66,5.22-1.13,7.77-1.69a65.64,65.64,0,0,0,7.7-2.09l.3.4a19.74,19.74,0,0,1-6.61,5.39,45.43,45.43,0,0,1-7.7,3.12c-2.57.81-5.11,1.36-7.54,2.12s-4.82,1.7-7.26,2.74a14.41,14.41,0,0,0-6.19,4.69,7.83,7.83,0,0,0-1.3,3.48,20.61,20.61,0,0,0,0,3.66c.08,1.22.13,2.49.15,3.75s.11,2.52.21,3.8c.18,2.56.52,5.13.78,8Z"/></g><path class="cls-2" d="M195.58,103.91s-18.57-4-25-6.67c-.39-.16-14-7-21.42-9-7.86-2.14-17.14-3.81-25.71,3.09s-39.52,29.28-38.8,38.09,5,11.43,14.28,9.76,19.76-5,31.9,3.09,20,11.19,45,10,34.52.24,46.89,8.09,26.9,9.52,38.8-3.09,18.81-15.95,25.71-17.85,12.85-6.67,11-9.52-29.28-17.62-65.7-20.71S195.58,103.91,195.58,103.91Z"/><g class="cls-7"><path class="cls-4" d="M201.61,96.68s-18.76-4.22-25.25-7c-.4-.17-14.19-7.34-21.64-9.44-7.94-2.24-17.32-4-26,3.23s-39.92,30.55-39.2,39.74,5.05,11.92,14.43,10.18,20-5.22,32.23,3.23,20.2,11.67,45.45,10.43,34.87.25,47.38,8.44,27.18,9.93,39.2-3.23,19-16.64,26-18.63,13-7,11.06-9.93-29.58-18.38-66.38-21.61S201.61,96.68,201.61,96.68Z"/><path class="cls-4" d="M201.85,96.68s-18.76-4.22-25.25-7c-.4-.17-14.19-7.34-21.64-9.44-7.94-2.24-17.32-4-26,3.23s-39.92,30.55-39.2,39.74,5.05,11.92,14.43,10.18,20-5.22,32.23,3.23,20.2,11.67,45.45,10.43,34.87.25,47.38,8.44,27.18,9.93,39.2-3.23,19-16.64,26-18.63,13-7,11.06-9.93-29.58-18.38-66.38-21.61S201.85,96.68,201.85,96.68Z"/><path class="cls-5" d="M90.4,116.91a41.75,41.75,0,0,1,6.24-6.59q1.69-1.47,3.47-2.82a29.13,29.13,0,0,1,3.72-2.46c2.62-1.45,5.52-2.49,8-4.06a42.85,42.85,0,0,0,7-5.52c1.11-1,2.19-2.07,3.33-3s2.32-1.88,3.5-2.79a77.19,77.19,0,0,1,7.45-5.16,55.19,55.19,0,0,1,17.19-5.89l.21.45a75,75,0,0,1-7.31,5.31c-2.47,1.64-4.94,3.18-7.37,4.72s-5,3-7.53,4.49c-1.29.75-2.55,1.52-3.89,2.19s-2.69,1.31-4,2a39.74,39.74,0,0,0-7.65,4.58c-2.35,1.82-4.33,4.17-6.56,6.15a30.48,30.48,0,0,1-3.55,2.68q-1.85,1.24-3.78,2.36a44.47,44.47,0,0,1-8.21,3.83Z"/><path class="cls-5" d="M96.12,132.78a28.43,28.43,0,0,1,3-4.66,42,42,0,0,1,3.64-4.14c1.29-1.3,2.64-2.53,4-3.69a38.14,38.14,0,0,1,4.37-3.23c3-1.94,6.43-3.42,9.4-5.46a60.21,60.21,0,0,0,8.3-6.9c1.32-1.24,2.59-2.54,3.94-3.74s2.73-2.36,4.11-3.52a80.78,80.78,0,0,1,8.64-6.5q4.54-2.94,9.32-5.53a86.83,86.83,0,0,1,9.86-4.66l.27.42a88.62,88.62,0,0,1-7.92,7.5q-4.11,3.51-8.46,6.63c-1.46,1-2.93,2-4.46,3-.77.46-1.5,1-2.24,1.48l-2.23,1.5c-1.49,1-3,2-4.52,2.93s-3.12,1.8-4.69,2.7a59.93,59.93,0,0,0-9,6c-2.78,2.28-5.19,5-7.83,7.48a50.65,50.65,0,0,1-4.13,3.39c-1.41,1.08-2.84,2.12-4.27,3.16S102.45,129,101,130s-2.92,2.07-4.48,3.08Z"/><path class="cls-5" d="M115.37,130.51a109.67,109.67,0,0,1,14.79-13.74c1.34-1,2.67-2.05,4-3s2.76-1.93,4.16-2.88a77.09,77.09,0,0,1,8.73-5.17,79,79,0,0,1,19.3-6.55,50.43,50.43,0,0,1,20.37-.44,31.9,31.9,0,0,1,9.79,3.81,41.46,41.46,0,0,1,8.2,6.55,87.55,87.55,0,0,1,12.32,16.37c1.73,2.88,3.41,5.75,5,8.66s3.28,5.82,4.86,8.76c3.16,5.89,6.26,11.82,9,18l-.43.26c-4.23-5.24-8.13-10.67-12-16.15s-7.52-11.06-11.1-16.67-7-11.15-11.23-15.95a46,46,0,0,0-7-6.44,31.85,31.85,0,0,0-8.32-4.53,33,33,0,0,0-19.27-.62c-6.4,1.65-12.1,5.13-17.63,8.61-2.78,1.74-5.54,3.54-8.36,5.26-1.4.88-2.8,1.76-4.18,2.67l-4.18,2.68-8.32,5.47c-2.77,1.84-5.55,3.7-8.4,5.5Z"/><path class="cls-5" d="M130.25,134.49a66.79,66.79,0,0,1,9.46-10.8A71,71,0,0,1,151,114.91c2.06-1.22,4.2-2.32,6.35-3.37s4.29-2.12,6.5-3.13a26.65,26.65,0,0,1,7-2.25,19.67,19.67,0,0,1,7.5.41,25.09,25.09,0,0,1,7,2.9,26,26,0,0,1,3.08,2.14c1,.78,1.94,1.55,2.83,2.41a58.26,58.26,0,0,1,9.43,11.2c2.62,4,4.87,8.24,7,12.41s4.34,8.31,6.63,12.5l-.39.32a67.78,67.78,0,0,1-9.58-10.72l-2.11-2.88-2-2.9-4-5.74a97.13,97.13,0,0,0-8.33-10.83,49.6,49.6,0,0,0-4.87-4.61,26,26,0,0,0-5.56-3.6,13.29,13.29,0,0,0-6.44-1.31,15.46,15.46,0,0,0-6.45,2,39.85,39.85,0,0,0-5.73,4l-5.45,4.47c-1.82,1.47-3.68,2.86-5.58,4.22l-5.65,4.13c-1.89,1.38-3.78,2.77-5.71,4.12s-3.85,2.74-5.88,4Z"/><path class="cls-5" d="M134.74,138.37c2.54-2.42,5-4.61,7.55-6.83,1.26-1.1,2.54-2.2,3.85-3.27a38.25,38.25,0,0,1,4.12-3c2.92-1.84,6.15-3.24,9.18-4.93a16,16,0,0,1,5.07-1.87,15.8,15.8,0,0,1,5.53.05,17.36,17.36,0,0,1,5.29,1.87,23,23,0,0,1,4.44,3.32,65.76,65.76,0,0,1,6.91,7.77c2,2.6,4.09,5.16,6.23,7.72s4.39,5.07,6.62,7.75l-.29.4a40.42,40.42,0,0,1-9-5.3,49.85,49.85,0,0,1-7.65-7.2c-2.28-2.66-4.08-5.46-6.17-7.86a31.82,31.82,0,0,0-3.3-3.29,17.9,17.9,0,0,0-3.85-2.58,9.41,9.41,0,0,0-4.53-1,8.57,8.57,0,0,0-4.44,1.59c-2.76,1.88-5,4.54-7.46,6.85a39.73,39.73,0,0,1-3.94,3.23c-1.37,1-2.8,2-4.28,2.89a31.66,31.66,0,0,1-9.62,4.13Z"/><path class="cls-5" d="M145.52,145a16.93,16.93,0,0,1,4.28-4.17,20.23,20.23,0,0,1,2.52-1.5,10.64,10.64,0,0,1,2.78-1c2-.41,4.1-.23,6-.47s3.82-.69,5.85-1.09a14.77,14.77,0,0,1,6.19,0,20,20,0,0,1,5.8,1.93,23.6,23.6,0,0,1,4.83,3.5,22.53,22.53,0,0,1,3.83,4.61l-.28.41a35.38,35.38,0,0,1-5.64-1.67c-1.76-.66-3.44-1.36-5.07-2.05s-3.15-1.53-4.76-2.19-3.23-1.25-5-1.8a9.31,9.31,0,0,0-5.43-.07c-1.79.52-3.29,1.84-4.85,2.79a14.27,14.27,0,0,1-2.46,1.18q-1.27.51-2.61.93a21.43,21.43,0,0,1-5.77,1.12Z"/><path class="cls-5" d="M205.17,94.82a56,56,0,0,1,7,7.66q1.57,2,3,4.14a39.2,39.2,0,0,1,2.66,4.37c1.58,3,2.76,6.34,4.49,9.28a54.2,54.2,0,0,0,6,8.28c1.1,1.32,2.26,2.6,3.32,3.94s2.07,2.72,3.08,4.1c2,2.77,4,5.5,5.82,8.43a60.37,60.37,0,0,1,4.7,9.33,31.74,31.74,0,0,1,2.33,10.3l-.48.13c-1.74-3-3.47-5.86-5.35-8.62l-5.71-8.27c-1.9-2.8-3.6-5.78-5.29-8.74-.85-1.48-1.7-3-2.48-4.49s-1.5-3.09-2.25-4.64a54.2,54.2,0,0,0-5.09-8.89c-2-2.78-4.51-5.2-6.64-7.89a39.21,39.21,0,0,1-2.9-4.22q-1.34-2.18-2.55-4.44a56,56,0,0,1-4.14-9.51Z"/><path class="cls-5" d="M224.06,99.19a51.16,51.16,0,0,1,4.9,8.19q1,2.11,2,4.24A38,38,0,0,1,232.6,116c.93,3,1.51,6.13,2.8,9a29,29,0,0,0,2.24,4.1,11.16,11.16,0,0,0,2.91,3.25,3.89,3.89,0,0,0,1.61.65c.23.05.35-.09,0-.07a1,1,0,0,0-.47.24c-.09.08-.1.09-.1,0s0-.56.09-.89.08-.71.1-1.07c.05-.71.08-1.44.09-2.18,0-3-.28-6.14.21-9.54A34.81,34.81,0,0,1,245,110c.67-1.47,1.38-2.87,2.17-4.29a13.06,13.06,0,0,1,1.42-2.13A5.4,5.4,0,0,1,250.7,102l.29.4a9.14,9.14,0,0,0-1.38,4.16c-.24,1.55-.54,3.12-.83,4.63-.57,3.05-1.13,6-1.39,8.87s-.37,5.95-.8,9.25c-.12.83-.23,1.66-.43,2.49-.09.42-.2.84-.32,1.25a11.33,11.33,0,0,1-.47,1.39,4,4,0,0,1-.65,1.05,2.94,2.94,0,0,1-1.42.9,3.26,3.26,0,0,1-2.3-.29,7.1,7.1,0,0,1-2.33-1.87,21.14,21.14,0,0,1-2.5-4.41c-.69-1.43-1.42-2.82-2.21-4.19-1.57-2.74-3.63-5.27-5.19-8.06a29.6,29.6,0,0,1-2-4.33q-.84-2.22-1.48-4.51a44.82,44.82,0,0,1-1.74-9.42Z"/><path class="cls-5" d="M255.18,164.09a32.27,32.27,0,0,1-2.66-9c-.25-1.53-.42-3.06-.52-4.59a28.22,28.22,0,0,1,0-4.59c.27-3.07,1-6.09,1.16-9.17s.13-6.15.59-9.39a18.69,18.69,0,0,1,1.33-4.79,19.78,19.78,0,0,1,2.59-4.27,25.15,25.15,0,0,1,7.39-6.54,32.84,32.84,0,0,1,9-3.39,43.55,43.55,0,0,1,9.29-1.11l.14.48c-2.68,1.66-5.45,3-8.09,4.33s-5.19,2.73-7.54,4.26a38.83,38.83,0,0,0-6.57,5.06,30.34,30.34,0,0,0-2.66,3.15,21.52,21.52,0,0,0-2.2,3.59,17.91,17.91,0,0,0-1.6,8.64c.14,3,1,6,1.4,9.05a34.79,34.79,0,0,1,.28,4.51c0,1.5,0,3,0,4.51a75,75,0,0,1-.73,9.15Z"/><path class="cls-5" d="M265.68,159.7a18.12,18.12,0,0,1-4.15-7.44,22.4,22.4,0,0,1-.82-4.23,15,15,0,0,1,.13-4.35,13.87,13.87,0,0,1,1.55-4.27,20.67,20.67,0,0,1,2.63-3.56c.94-1.07,1.92-2.06,2.92-3s2-2,3-2.93a25.29,25.29,0,0,1,7-4.85,41.48,41.48,0,0,1,7.86-2.88c2.64-.66,5.22-1.13,7.77-1.69a65.64,65.64,0,0,0,7.7-2.09l.3.4a19.74,19.74,0,0,1-6.61,5.39,45.43,45.43,0,0,1-7.7,3.12c-2.57.81-5.11,1.36-7.54,2.12s-4.82,1.7-7.26,2.74a14.41,14.41,0,0,0-6.19,4.69,7.83,7.83,0,0,0-1.3,3.48,20.62,20.62,0,0,0,0,3.66c.08,1.22.13,2.49.15,3.75s.11,2.52.21,3.8c.18,2.56.52,5.13.78,8Z"/></g></svg>