<svg id="Layer_1" data-name="Layer 1" xmlns="http://www.w3.org/2000/svg" viewBox="0 0 350 350"><defs><style>.cls-1{fill:#ad5952;}.cls-2{fill:#f7fbf0;}.cls-3{fill:#f2cfcd;}.cls-4{fill:#eaa9a3;}.cls-5{opacity:0.5;}.cls-6{opacity:0.31;}.cls-7{opacity:0.37;}.cls-8{fill:#fff;}.cls-9{opacity:0.27;}.cls-10{fill:#722a28;}.cls-11{fill:#f6e1c1;}.cls-12{fill:#e1d2ab;}.cls-13{fill:#47331d;}.cls-14{fill:#b6826f;}.cls-15{fill:#8f675b;}.cls-16{opacity:0.34;}.cls-17{fill:#715249;}</style></defs><title>RoastBeef</title><path class="cls-1" d="M166.34,114.37c-21.22,11.55-29-9-52.07-1.86-10.72,3.31-19.49,11.4-30.26,14.56-18.28,5.36-40-4.05-56,6.25C15.25,141.48,12,159,14.5,173.88c2.51,15.05,9.48,29,16.74,42.38,7.06,13.07,16.06,27.17,30.54,30.49,16.06,3.68,32.39-7.57,48.7-5.28,13.65,1.91,24.24,12.79,37.15,17.59,13.71,5.1,29.05,3,43.15-.91s27.79-9.58,42.29-11.58c15.34-2.11,30.94,0,46.4-.72s31.89-4.86,42-16.59c8.35-9.7,11-22.91,13.4-35.49,1.07-5.69,2.15-11.59.78-17.22-2.59-10.66-12.86-17.22-21.27-24.27-20.16-16.92-34.33-42.65-59.32-50.93-13.63-4.52-28.45-3-42.68-1.1-12.26,1.63-43,10-52.77,18.35"/><path class="cls-2" d="M166.34,108.38c-21.22,11.55-29-9-52.07-1.86-10.72,3.31-19.49,11.4-30.26,14.56-18.28,5.36-40-4.05-56,6.25C15.25,135.49,12,153,14.5,167.9,17,183,24,196.85,31.23,210.28c7.06,13.07,16.06,27.17,30.54,30.49,16.06,3.68,32.39-7.57,48.7-5.28,13.65,1.91,24.24,12.79,37.15,17.59,13.71,5.1,29.05,3,43.15-.91s27.79-9.58,42.29-11.58c15.34-2.11,30.94,0,46.4-.72s31.89-4.86,42-16.59c8.35-9.7,11-22.91,13.4-35.49,1.07-5.69,2.15-11.59.78-17.22-2.59-10.66-12.86-17.22-21.27-24.27C294.2,129.38,280,103.65,255.05,95.37c-13.63-4.52-28.45-3-42.68-1.1-12.26,1.63-43,10-52.77,18.35"/><path class="cls-3" d="M166.34,103.89c-21.22,11.55-29-9-52.07-1.86-10.72,3.31-19.49,11.4-30.26,14.56-18.28,5.36-40-4.05-56,6.25C15.25,131,12,148.51,14.5,163.41c2.51,15.05,9.48,29,16.74,42.38,7.06,13.07,16.06,27.17,30.54,30.49,16.06,3.68,32.39-7.57,48.7-5.28,13.65,1.91,24.24,12.79,37.15,17.59,13.71,5.1,29.05,3,43.15-.91s27.79-9.58,42.29-11.58c15.34-2.11,30.94,0,46.4-.72s31.89-4.86,42-16.59c8.35-9.7,11-22.91,13.4-35.49,1.07-5.69,2.15-11.59.78-17.22-2.59-10.66-12.86-17.22-21.27-24.27C294.2,124.89,280,99.16,255.05,90.88c-13.63-4.52-28.45-3-42.68-1.1-12.26,1.63-43,10-52.77,18.35"/><path class="cls-4" d="M272.81,146.38c2,22.56-14.95,42.89-34.56,54.21-6.89,4-14.22,7.22-20.66,11.88-2.26,1.64-4.64,4.25-3.64,6.86.69,1.8,2.71,2.66,4.55,3.26,15.52,5,33,4.65,47.68-2.51s26-21.39,28.3-37.54c2.9-20.68-8.51-40.39-19.51-58.14-2.7-4.35-6.37-9.25-11.48-9"/><g class="cls-5"><path class="cls-4" d="M188.83,207.07c-3.24-4.52-9.48-5.91-15-5.27S163.1,204.69,157.7,206c-6.5,1.58-13.24,1.8-19.93,1.75-2,0-4.16,0-5.71,1.25a5.66,5.66,0,0,0-1.91,3.83c-.49,4.51,3,8.69,7.17,10.48s8.87,1.71,13.4,1.55q15.33-.52,30.63-1.76a14.1,14.1,0,0,0,3.35-.55c3.33-1.11,5.41-4.6,5.89-8.07s-.33-7-1.13-10.4"/></g><g class="cls-5"><path class="cls-4" d="M231.59,128.47a39.55,39.55,0,0,0-25,14.84,34.89,34.89,0,0,0-6.33,28.19,7.46,7.46,0,0,0,2,4.15c1.3,1.12,3.13,1.34,4.84,1.5,6.11.58,12.46,1.14,18.25-.93,4-1.44,7.47-4,10.85-6.63,6.78-5.19,13.88-10.95,16.4-19.11.89-2.87,1.11-6.13-.31-8.78a15.71,15.71,0,0,0-3.5-4c-4.75-4.32-10.1-8.89-16.51-9"/></g><g class="cls-6"><path class="cls-4" d="M243.57,101.43A28,28,0,0,0,231.36,100a4.92,4.92,0,0,0-2.5.78,3.59,3.59,0,0,0-.62,4.48,8.55,8.55,0,0,0,3.68,3.16A30.82,30.82,0,0,0,244.54,112c2.79.17,6.59-1.19,6.09-3.94a5.05,5.05,0,0,0-1.11-2.06c-2-2.61-4.22-5.39-7.41-6.16"/></g><g class="cls-6"><path class="cls-4" d="M52.42,175.2a6.11,6.11,0,0,0-6.59-.66,4.74,4.74,0,0,0-2,6A5.76,5.76,0,0,0,46.72,183c2.74,1.22,6.33.9,8.28-1.38s1.3-6.5-1.53-7.5"/></g><g class="cls-6"><path class="cls-4" d="M95.32,180.67a109.58,109.58,0,0,0-26.1-1.23,4.13,4.13,0,0,0-2.3.64c-1.72,1.35-.44,4.11,1.08,5.67a30.36,30.36,0,0,0,29.27,7.88c2.6-.72,5.57-2.57,5.2-5.24-.25-1.78-1.9-3-3.41-3.92l-9-5.78"/></g><path class="cls-4" d="M60.84,196.82l-13.27-3.6a2.55,2.55,0,0,0-1.37-.11c-1.19.35-1.21,2-.86,3.23,2.21,7.51,8.79,13.15,16.09,16s15.3,3.23,23.13,3.18,15.89-.55,23.43-2.91,14.66-6.75,19.07-13.3c-6.54-.9-13.17-.07-19.73.7-16.26,1.91-33.72,3.22-48.06-4.67"/><g class="cls-6"><path class="cls-4" d="M38.47,140.41c5.1,7.54,14.39,10.88,23.16,13.31a267,267,0,0,0,74.95,9.63c11.21-.16,23.05-1.26,32.16-7.79a31.21,31.21,0,0,0,12.45-20.11c.64-3.94.47-8.15-1.38-11.69-4.06-7.78-14.68-9.65-23.2-7.55s-16.07,7.07-24.46,9.65c-13.85,4.25-28.87,1.67-43.15,4.07-16.58,2.78-32.38,12.23-49.06,10.13"/></g><g class="cls-7"><path class="cls-8" d="M41.68,214.32A40,40,0,0,0,58,223.83l2.29.57,1.14.29c.38.08.78.14,1.16.21l2.32.42c.78.13,1.57.19,2.35.28a85.49,85.49,0,0,0,9.48.44c3.18-.06,6.37-.22,9.56-.52s6.4-.62,9.61-1,6.47-.82,9.75-1.12,6.57-.48,9.87-.59a162.69,162.69,0,0,1,19.77.68c3.28.34,6.55.68,9.8,1.17s6.49.94,9.72,1.52,6.44,1.16,9.66,1.77,6.41,1.36,9.57,1.84a86.8,86.8,0,0,0,19.27.59c6.44-.41,12.85-1.32,19.29-2.17s12.93-1.71,19.51-2.3l4.95-.38,5-.24c3.33-.09,6.62-.08,9.87-.07a135.32,135.32,0,0,0,19-.83A60.46,60.46,0,0,0,288.61,219l4.14-2.18,4-2.49,3.81-2.75,3.62-3a66.44,66.44,0,0,0,19.92-32.08l.59.11c-1.38,13.13-7.84,25.71-17.23,35.37l-3.67,3.5-3.93,3.22-4.18,2.9-4.4,2.59a60.47,60.47,0,0,1-19.39,6.55,109.86,109.86,0,0,1-20,.76c-6.55-.22-12.85-.31-19.29.08s-12.9,1-19.42,1.43-13.11.75-19.71.66a114.71,114.71,0,0,1-19.7-1.87l-9.59-2.06q-4.77-1-9.6-1.65c-1.6-.24-3.22-.41-4.83-.57s-3.23-.32-4.84-.42q-4.85-.31-9.7-.31c-6.47,0-12.91.43-19.33,1s-12.78,1.33-19.31,2c-3.27.31-6.55.63-9.86.8s-6.64.17-10,.09a69.24,69.24,0,0,1-10-1.1,50.31,50.31,0,0,1-9.73-2.74,36,36,0,0,1-15.72-12.14Z"/></g><g class="cls-7"><path class="cls-8" d="M134.94,194c10.11-3.43,18.85-9.47,26.55-16.52a155.09,155.09,0,0,0,11-11.25c3.5-3.92,6.89-8,10.21-12.07s6.63-8.17,9.57-12.47a73,73,0,0,0,7.53-13.54,46.9,46.9,0,0,0,3.5-15,34.43,34.43,0,0,0-2.46-15.37,31.24,31.24,0,0,1,4.42,15.39,44.7,44.7,0,0,1-2.55,16.08,67.72,67.72,0,0,1-7.3,14.54,158,158,0,0,1-9.63,12.9c-3.41,4.09-6.85,8.18-10.52,12.08a124,124,0,0,1-11.72,11.05,77.14,77.14,0,0,1-13.43,9A53,53,0,0,1,134.94,194Z"/></g><g class="cls-7"><path class="cls-8" d="M183.18,192.76a35.4,35.4,0,0,1-.63-13.32,49.26,49.26,0,0,1,3.69-13,72.86,72.86,0,0,1,6.56-11.78c2.51-3.71,5.29-7.2,8.09-10.63s5.71-6.73,8.67-10,6-6.51,9.32-9.51c6.5-6.05,13.8-11.48,22-14.92a115.09,115.09,0,0,0-19.77,17.14c-3,3.2-5.88,6.43-8.68,9.8s-5.66,6.7-8.44,10.08-5.54,6.74-8.07,10.25a85.63,85.63,0,0,0-6.84,10.94C185.16,175.41,182.68,183.91,183.18,192.76Z"/></g><g class="cls-9"><path class="cls-8" d="M279.55,224.21a37.73,37.73,0,0,1,6-8.36q1.67-1.84,3.46-3.51a24.93,24.93,0,0,1,3.79-3.08c2.73-1.81,6-3.17,8.37-5.43a22.67,22.67,0,0,0,5.5-8.09l.92-2.28c.28-.77.57-1.53.88-2.26s.58-1.49.91-2.2l.91-2.17c1.15-2.92,2-5.86,3-8.73s2-5.76,2.85-8.77,1.57-6.13,2.36-9.59l.79-.14a23.14,23.14,0,0,1,3.15,10.26,31.77,31.77,0,0,1-1,10.74,35.76,35.76,0,0,1-4.48,9.68l-1.45,2.21c-.51.72-1.06,1.41-1.62,2.09s-1.19,1.3-1.81,1.93-1.29,1.21-1.93,1.8a54.37,54.37,0,0,0-7.15,7.27c-2.1,2.62-3.6,5.91-5.76,8.6a21.6,21.6,0,0,1-3.64,3.54,43.35,43.35,0,0,1-4.14,2.93,33.47,33.47,0,0,1-9.47,4.2Z"/></g><path class="cls-10" d="M166.34,114.37c-21.22,11.55-29-9-52.07-1.86-10.72,3.31-19.49,11.4-30.26,14.56-18.28,5.36-40-4.05-56,6.25C15.25,141.48,12,159,14.5,173.88c2.51,15.05,9.48,29,16.74,42.38,7.06,13.07,16.06,27.17,30.54,30.49,16.06,3.68,32.39-7.57,48.7-5.28,13.65,1.91,24.24,12.79,37.15,17.59,13.71,5.1,29.05,3,43.15-.91s27.79-9.58,42.29-11.58c15.34-2.11,30.94,0,46.4-.72s31.89-4.86,42-16.59c8.35-9.7,11-22.91,13.4-35.49,1.07-5.69,2.15-11.59.78-17.22-2.59-10.66-12.86-17.22-21.27-24.27-20.16-16.92-34.33-42.65-59.32-50.93-13.63-4.52-28.45-3-42.68-1.1-12.26,1.63-43,10-52.77,18.35"/><path class="cls-2" d="M166.34,108.38c-21.22,11.55-29-9-52.07-1.86-10.72,3.31-19.49,11.4-30.26,14.56-18.28,5.36-40-4.05-56,6.25C15.25,135.49,12,153,14.5,167.9,17,183,24,196.85,31.23,210.28c7.06,13.07,16.06,27.17,30.54,30.49,16.06,3.68,32.39-7.57,48.7-5.28,13.65,1.91,24.24,12.79,37.15,17.59,13.71,5.1,29.05,3,43.15-.91s27.79-9.58,42.29-11.58c15.34-2.11,30.94,0,46.4-.72s31.89-4.86,42-16.59c8.35-9.7,11-22.91,13.4-35.49,1.07-5.69,2.15-11.59.78-17.22-2.59-10.66-12.86-17.22-21.27-24.27C294.2,129.38,280,103.65,255.05,95.37c-13.63-4.52-28.45-3-42.68-1.1-12.26,1.63-43,10-52.77,18.35"/><path class="cls-11" d="M166.34,103.89c-21.22,11.55-29-9-52.07-1.86-10.72,3.31-19.49,11.4-30.26,14.56-18.28,5.36-40-4.05-56,6.25C15.25,131,12,148.51,14.5,163.41c2.51,15.05,9.48,29,16.74,42.38,7.06,13.07,16.06,27.17,30.54,30.49,16.06,3.68,32.39-7.57,48.7-5.28,13.65,1.91,24.24,12.79,37.15,17.59,13.71,5.1,29.05,3,43.15-.91s27.79-9.58,42.29-11.58c15.34-2.11,30.94,0,46.4-.72s31.89-4.86,42-16.59c8.35-9.7,11-22.91,13.4-35.49,1.07-5.69,2.15-11.59.78-17.22-2.59-10.66-12.86-17.22-21.27-24.27C294.2,124.89,280,99.16,255.05,90.88c-13.63-4.52-28.45-3-42.68-1.1-12.26,1.63-43,10-52.77,18.35"/><path class="cls-12" d="M272.81,146.38c2,22.56-14.95,42.89-34.56,54.21-6.89,4-14.22,7.22-20.66,11.88-2.26,1.64-4.64,4.25-3.64,6.86.69,1.8,2.71,2.66,4.55,3.26,15.52,5,33,4.65,47.68-2.51s26-21.39,28.3-37.54c2.9-20.68-8.51-40.39-19.51-58.14-2.7-4.35-6.37-9.25-11.48-9"/><g class="cls-5"><path class="cls-12" d="M188.83,207.07c-3.24-4.52-9.48-5.91-15-5.27S163.1,204.69,157.7,206c-6.5,1.58-13.24,1.8-19.93,1.75-2,0-4.16,0-5.71,1.25a5.66,5.66,0,0,0-1.91,3.83c-.49,4.51,3,8.69,7.17,10.48s8.87,1.71,13.4,1.55q15.33-.52,30.63-1.76a14.1,14.1,0,0,0,3.35-.55c3.33-1.11,5.41-4.6,5.89-8.07s-.33-7-1.13-10.4"/></g><g class="cls-5"><path class="cls-12" d="M231.59,128.47a39.55,39.55,0,0,0-25,14.84,34.89,34.89,0,0,0-6.33,28.19,7.46,7.46,0,0,0,2,4.15c1.3,1.12,3.13,1.34,4.84,1.5,6.11.58,12.46,1.14,18.25-.93,4-1.44,7.47-4,10.85-6.63,6.78-5.19,13.88-10.95,16.4-19.11.89-2.87,1.11-6.13-.31-8.78a15.71,15.71,0,0,0-3.5-4c-4.75-4.32-10.1-8.89-16.51-9"/></g><g class="cls-6"><path class="cls-4" d="M243.57,101.43A28,28,0,0,0,231.36,100a4.92,4.92,0,0,0-2.5.78,3.59,3.59,0,0,0-.62,4.48,8.55,8.55,0,0,0,3.68,3.16A30.82,30.82,0,0,0,244.54,112c2.79.17,6.59-1.19,6.09-3.94a5.05,5.05,0,0,0-1.11-2.06c-2-2.61-4.22-5.39-7.41-6.16"/></g><g class="cls-6"><path class="cls-4" d="M52.42,175.2a6.11,6.11,0,0,0-6.59-.66,4.74,4.74,0,0,0-2,6A5.76,5.76,0,0,0,46.72,183c2.74,1.22,6.33.9,8.28-1.38s1.3-6.5-1.53-7.5"/></g><g class="cls-6"><path class="cls-4" d="M95.32,180.67a109.58,109.58,0,0,0-26.1-1.23,4.13,4.13,0,0,0-2.3.64c-1.72,1.35-.44,4.11,1.08,5.67a30.36,30.36,0,0,0,29.27,7.88c2.6-.72,5.57-2.57,5.2-5.24-.25-1.78-1.9-3-3.41-3.92l-9-5.78"/></g><path class="cls-12" d="M60.84,196.82l-13.27-3.6a2.55,2.55,0,0,0-1.37-.11c-1.19.35-1.21,2-.86,3.23,2.21,7.51,8.79,13.15,16.09,16s15.3,3.23,23.13,3.18,15.89-.55,23.43-2.91,14.66-6.75,19.07-13.3c-6.54-.9-13.17-.07-19.73.7-16.26,1.91-33.72,3.22-48.06-4.67"/><g class="cls-6"><path class="cls-12" d="M38.47,140.41c5.1,7.54,14.39,10.88,23.16,13.31a267,267,0,0,0,74.95,9.63c11.21-.16,23.05-1.26,32.16-7.79a31.21,31.21,0,0,0,12.45-20.11c.64-3.94.47-8.15-1.38-11.69-4.06-7.78-14.68-9.65-23.2-7.55s-16.07,7.07-24.46,9.65c-13.85,4.25-28.87,1.67-43.15,4.07-16.58,2.78-32.38,12.23-49.06,10.13"/></g><g class="cls-7"><path class="cls-8" d="M41.68,214.32A40,40,0,0,0,58,223.83l2.29.57,1.14.29c.38.08.78.14,1.16.21l2.32.42c.78.13,1.57.19,2.35.28a85.49,85.49,0,0,0,9.48.44c3.18-.06,6.37-.22,9.56-.52s6.4-.62,9.61-1,6.47-.82,9.75-1.12,6.57-.48,9.87-.59a162.69,162.69,0,0,1,19.77.68c3.28.34,6.55.68,9.8,1.17s6.49.94,9.72,1.52,6.44,1.16,9.66,1.77,6.41,1.36,9.57,1.84a86.8,86.8,0,0,0,19.27.59c6.44-.41,12.85-1.32,19.29-2.17s12.93-1.71,19.51-2.3l4.95-.38,5-.24c3.33-.09,6.62-.08,9.87-.07a135.32,135.32,0,0,0,19-.83A60.46,60.46,0,0,0,288.61,219l4.14-2.18,4-2.49,3.81-2.75,3.62-3a66.44,66.44,0,0,0,19.92-32.08l.59.11c-1.38,13.13-7.84,25.71-17.23,35.37l-3.67,3.5-3.93,3.22-4.18,2.9-4.4,2.59a60.47,60.47,0,0,1-19.39,6.55,109.86,109.86,0,0,1-20,.76c-6.55-.22-12.85-.31-19.29.08s-12.9,1-19.42,1.43-13.11.75-19.71.66a114.71,114.71,0,0,1-19.7-1.87l-9.59-2.06q-4.77-1-9.6-1.65c-1.6-.24-3.22-.41-4.83-.57s-3.23-.32-4.84-.42q-4.85-.31-9.7-.31c-6.47,0-12.91.43-19.33,1s-12.78,1.33-19.31,2c-3.27.31-6.55.63-9.86.8s-6.64.17-10,.09a69.24,69.24,0,0,1-10-1.1,50.31,50.31,0,0,1-9.73-2.74,36,36,0,0,1-15.72-12.14Z"/></g><g class="cls-7"><path class="cls-8" d="M134.94,194c10.11-3.43,18.85-9.47,26.55-16.52a155.09,155.09,0,0,0,11-11.25c3.5-3.92,6.89-8,10.21-12.07s6.63-8.17,9.57-12.47a73,73,0,0,0,7.53-13.54,46.9,46.9,0,0,0,3.5-15,34.43,34.43,0,0,0-2.46-15.37,31.24,31.24,0,0,1,4.42,15.39,44.7,44.7,0,0,1-2.55,16.08,67.72,67.72,0,0,1-7.3,14.54,158,158,0,0,1-9.63,12.9c-3.41,4.09-6.85,8.18-10.52,12.08a124,124,0,0,1-11.72,11.05,77.14,77.14,0,0,1-13.43,9A53,53,0,0,1,134.94,194Z"/></g><g class="cls-7"><path class="cls-8" d="M183.18,192.76a35.4,35.4,0,0,1-.63-13.32,49.26,49.26,0,0,1,3.69-13,72.86,72.86,0,0,1,6.56-11.78c2.51-3.71,5.29-7.2,8.09-10.63s5.71-6.73,8.67-10,6-6.51,9.32-9.51c6.5-6.05,13.8-11.48,22-14.92a115.09,115.09,0,0,0-19.77,17.14c-3,3.2-5.88,6.43-8.68,9.8s-5.66,6.7-8.44,10.08-5.54,6.74-8.07,10.25a85.63,85.63,0,0,0-6.84,10.94C185.16,175.41,182.68,183.91,183.18,192.76Z"/></g><g class="cls-9"><path class="cls-8" d="M279.55,224.21a37.73,37.73,0,0,1,6-8.36q1.67-1.84,3.46-3.51a24.93,24.93,0,0,1,3.79-3.08c2.73-1.81,6-3.17,8.37-5.43a22.67,22.67,0,0,0,5.5-8.09l.92-2.28c.28-.77.57-1.53.88-2.26s.58-1.49.91-2.2l.91-2.17c1.15-2.92,2-5.86,3-8.73s2-5.76,2.85-8.77,1.57-6.13,2.36-9.59l.79-.14a23.14,23.14,0,0,1,3.15,10.26,31.77,31.77,0,0,1-1,10.74,35.76,35.76,0,0,1-4.48,9.68l-1.45,2.21c-.51.72-1.06,1.41-1.62,2.09s-1.19,1.3-1.81,1.93-1.29,1.21-1.93,1.8a54.37,54.37,0,0,0-7.15,7.27c-2.1,2.62-3.6,5.91-5.76,8.6a21.6,21.6,0,0,1-3.64,3.54,43.35,43.35,0,0,1-4.14,2.93,33.47,33.47,0,0,1-9.47,4.2Z"/></g><path class="cls-13" d="M166.46,118.86c-21.22,11.55-29-9-52.07-1.86-10.72,3.31-19.49,11.4-30.26,14.56-18.28,5.36-40-4.05-56,6.25-12.7,8.17-15.95,25.68-13.46,40.57,2.51,15.05,9.48,29,16.74,42.38,7.06,13.07,16.06,27.17,30.54,30.49,16.06,3.68,32.39-7.57,48.7-5.28,13.65,1.91,24.24,12.79,37.15,17.59,13.71,5.1,29.05,3,43.15-.91s27.79-9.58,42.29-11.58c15.34-2.11,30.94,0,46.4-.72s31.89-4.86,42-16.59c8.35-9.7,11-22.91,13.4-35.49,1.07-5.69,2.15-11.59.78-17.22-2.59-10.66-12.86-17.22-21.27-24.27-20.16-16.92-34.33-42.65-59.32-50.93-13.63-4.52-28.45-3-42.68-1.1-12.26,1.63-43,10-52.77,18.35"/><path class="cls-2" d="M166.46,112.87c-21.22,11.55-29-9-52.07-1.86-10.72,3.31-19.49,11.4-30.26,14.56-18.28,5.36-40-4.05-56,6.25-12.7,8.17-15.95,25.68-13.46,40.57,2.51,15.05,9.48,29,16.74,42.38,7.06,13.07,16.06,27.17,30.54,30.49,16.06,3.68,32.39-7.57,48.7-5.28,13.65,1.91,24.24,12.79,37.15,17.59,13.71,5.1,29.05,3,43.15-.91s27.79-9.58,42.29-11.58c15.34-2.11,30.94,0,46.4-.72s31.89-4.86,42-16.59c8.35-9.7,11-22.91,13.4-35.49,1.07-5.69,2.15-11.59.78-17.22-2.59-10.66-12.86-17.22-21.27-24.27-20.16-16.92-34.33-42.65-59.32-50.93-13.63-4.52-28.45-3-42.68-1.1-12.26,1.63-43,10-52.77,18.35"/><path class="cls-14" d="M166.46,108.38c-21.22,11.55-29-9-52.07-1.86-10.72,3.31-19.49,11.4-30.26,14.56-18.28,5.36-40-4.05-56,6.25C15.38,135.49,12.13,153,14.62,167.9c2.51,15.05,9.48,29,16.74,42.38,7.06,13.07,16.06,27.17,30.54,30.49,16.06,3.68,32.39-7.57,48.7-5.28,13.65,1.91,24.24,12.79,37.15,17.59,13.71,5.1,29.05,3,43.15-.91s27.79-9.58,42.29-11.58c15.34-2.11,30.94,0,46.4-.72s31.89-4.86,42-16.59c8.35-9.7,11-22.91,13.4-35.49,1.07-5.69,2.15-11.59.78-17.22-2.59-10.66-12.86-17.22-21.27-24.27-20.16-16.92-34.33-42.65-59.32-50.93-13.63-4.52-28.45-3-42.68-1.1-12.26,1.63-43,10-52.77,18.35"/><path class="cls-15" d="M272.93,150.87c2,22.56-14.95,42.89-34.56,54.21-6.89,4-14.22,7.22-20.66,11.88-2.26,1.64-4.64,4.25-3.64,6.86.69,1.8,2.71,2.66,4.55,3.26,15.52,5,33,4.65,47.68-2.51s26-21.39,28.3-37.54c2.9-20.68-8.51-40.39-19.51-58.14-2.7-4.35-6.37-9.25-11.48-9"/><path class="cls-15" d="M228.71,150a39.55,39.55,0,0,0-25,14.84A34.89,34.89,0,0,0,197.36,193a7.46,7.46,0,0,0,2,4.15c1.3,1.12,3.13,1.34,4.84,1.5,6.11.58,12.46,1.14,18.25-.93,4-1.44,7.47-4,10.85-6.63,6.78-5.19,13.88-10.95,16.4-19.11.89-2.87,1.11-6.13-.31-8.78a15.71,15.71,0,0,0-3.5-4c-4.75-4.32-10.1-8.89-16.51-9"/><g class="cls-6"><path class="cls-4" d="M243.69,105.92a28,28,0,0,0-12.21-1.43,4.92,4.92,0,0,0-2.5.78,3.59,3.59,0,0,0-.62,4.48,8.55,8.55,0,0,0,3.68,3.16,30.82,30.82,0,0,0,12.62,3.55c2.79.17,6.59-1.19,6.09-3.94a5.05,5.05,0,0,0-1.11-2.06c-2-2.61-4.22-5.39-7.41-6.16"/></g><g class="cls-6"><path class="cls-4" d="M52.55,179.69A6.11,6.11,0,0,0,46,179a4.74,4.74,0,0,0-2,6,5.76,5.76,0,0,0,2.83,2.42c2.74,1.22,6.33.9,8.28-1.38s1.3-6.5-1.53-7.5"/></g><g class="cls-6"><path class="cls-4" d="M95.45,185.16a109.58,109.58,0,0,0-26.1-1.23,4.13,4.13,0,0,0-2.3.64c-1.72,1.35-.44,4.11,1.08,5.67a30.36,30.36,0,0,0,29.27,7.88c2.6-.72,5.57-2.57,5.2-5.24-.25-1.78-1.9-3-3.41-3.92l-9-5.78"/></g><path class="cls-15" d="M61,201.31l-13.27-3.6a2.55,2.55,0,0,0-1.37-.11c-1.19.35-1.21,2-.86,3.23,2.21,7.51,8.79,13.15,16.09,16S76.86,220,84.69,220s15.89-.55,23.43-2.91,14.66-6.75,19.07-13.3c-6.54-.9-13.17-.07-19.73.7-16.26,1.91-33.72,3.22-48.06-4.67"/><g class="cls-6"><path class="cls-4" d="M38.59,144.9c5.1,7.54,14.39,10.88,23.16,13.31a267,267,0,0,0,74.95,9.63c11.21-.16,23.05-1.26,32.16-7.79a31.21,31.21,0,0,0,12.45-20.11c.64-3.94.47-8.15-1.38-11.69-4.06-7.78-14.68-9.65-23.2-7.55s-16.07,7.07-24.46,9.65c-13.85,4.25-28.87,1.67-43.15,4.07-16.58,2.78-32.38,12.23-49.06,10.13"/></g><g class="cls-16"><path class="cls-17" d="M41.57,223.88A24.74,24.74,0,0,0,49.88,228,37.86,37.86,0,0,0,59,229.5a93.93,93.93,0,0,0,18.55-1.33c6.17-.92,12.31-2.11,18.55-3.09,3.12-.5,6.28-.9,9.46-1.11,1.59-.15,3.18-.21,4.78-.26s3.19-.06,4.79-.05a115.42,115.42,0,0,1,19,1.83c6.26,1.07,12.41,2.46,18.52,3.76s12.2,2.59,18.32,3.52a123.07,123.07,0,0,0,18.38,1.29c12.37.1,24.81-1.17,37.39-1.93,6.28-.36,12.63-.58,19-.5s12.55.35,18.73.21a82.91,82.91,0,0,0,18.24-2.26,73.06,73.06,0,0,0,17.22-6.49,59.73,59.73,0,0,0,14.86-10.91,39.48,39.48,0,0,0,9.69-15.74,35.56,35.56,0,0,1-3.27,8.85,45.34,45.34,0,0,1-5.39,7.83,60.06,60.06,0,0,1-14.68,12.12,75.24,75.24,0,0,1-17.59,7.51,83.05,83.05,0,0,1-18.93,3c-6.36.35-12.66.24-18.89.27s-12.41.36-18.63.84c-12.45.88-25,2.22-37.72,2.2a127.93,127.93,0,0,1-19.11-1.47c-6.27-1-12.47-2.3-18.59-3.73s-12.19-2.9-18.27-4.07A125.57,125.57,0,0,0,115,227.54a116.26,116.26,0,0,0-18.49.76c-6.19.69-12.4,1.65-18.68,2.28a91.73,91.73,0,0,1-19,.29,38.51,38.51,0,0,1-9.27-2.12A25.12,25.12,0,0,1,41.57,223.88Z"/></g><g class="cls-16"><path class="cls-17" d="M135.06,198.45c10.05-3.63,18.67-9.73,26.29-16.81s14.35-15.18,21-23.34,13.12-16.38,17.13-25.83a47.24,47.24,0,0,0,3.62-14.87,34.87,34.87,0,0,0-2.21-15.37,30.9,30.9,0,0,1,4.67,15.39,44.5,44.5,0,0,1-2.43,16.22,65.85,65.85,0,0,1-7.27,14.67,143.86,143.86,0,0,1-9.64,13c-6.76,8.22-13.93,16.32-22.37,23.11a75.9,75.9,0,0,1-13.56,8.88A51.77,51.77,0,0,1,135.06,198.45Z"/></g><g class="cls-16"><path class="cls-17" d="M183.3,197.25a34.66,34.66,0,0,1-.87-13.36,48.65,48.65,0,0,1,3.58-13.1c3.53-8.41,9-15.76,14.61-22.56a197,197,0,0,1,18.1-19.5c6.56-6,14-11.38,22.24-14.65a123,123,0,0,0-19.49,17.41c-5.87,6.39-11.38,13.2-17,19.92s-10.94,13.48-14.94,21S183,188.37,183.3,197.25Z"/></g><g class="cls-16"><path class="cls-17" d="M291.88,220.77c2.61-6.19,5.64-12.1,8.36-18.08a135,135,0,0,0,7.06-18.11,70.74,70.74,0,0,0,3-18.86,52.29,52.29,0,0,0-3.16-19.14c4.19,5.3,6.42,12.13,7.09,19A54.13,54.13,0,0,1,312.09,186a80.37,80.37,0,0,1-8.39,18.53A123.41,123.41,0,0,1,291.88,220.77Z"/></g></svg>