<svg id="Layer_1" data-name="Layer 1" xmlns="http://www.w3.org/2000/svg" xmlns:xlink="http://www.w3.org/1999/xlink" viewBox="0 0 350 350"><defs><style>.cls-1{fill:none;}.cls-2{fill:#949280;}.cls-3{fill:#e0e0e0;}.cls-4{fill:#fff;}.cls-5{clip-path:url(#clip-path);}.cls-6{fill:#c79432;}.cls-7{fill:#d4b935;}.cls-8{fill:#ead153;}.cls-9{fill:#fdfdfc;}</style><clipPath id="clip-path"><ellipse class="cls-1" cx="165.97" cy="128.49" rx="46.05" ry="39.04"/></clipPath></defs><title>Egg</title><path class="cls-2" d="M111.29,110.36c-10.49,6.88-22,4.69-33.82,6.69-11.18,1.88-22.47,5.6-30.63,13.83-7.37,7.45-11.29,17.73-13,28.06-2.82,16.65.94,36.3,15.29,45.2,13.69,8.49,31.38,4.28,47.3,6.71a56.1,56.1,0,0,1,30.29,15c10.25,9.91,16.57,23.62,27.95,32.22,12.41,9.38,29.88,11.14,44.29,5.32s25.54-18.75,30.12-33.61c5.8-18.85,1.59-39.56,6.6-58.63a62.52,62.52,0,0,1,17.59-29.53c5.78-5.42,13-10.33,14.89-18,2.2-8.9-3.74-17.78-10.51-24-12.34-11.26-28.21-18-44.39-22.16-25-6.42-53.9-6.28-74,9.89-9.31,7.47-16.57,18.56-27.89,23"/><path class="cls-3" d="M111.67,102.31c-10.49,6.88-22,4.69-33.82,6.69-11.18,1.88-22.47,5.6-30.63,13.83-7.37,7.45-11.29,17.73-13,28.06-2.82,16.65.94,36.3,15.29,45.2,13.69,8.49,31.38,4.28,47.3,6.71a56.1,56.1,0,0,1,30.29,15C137.3,227.73,143.63,241.44,155,250c12.41,9.38,29.88,11.14,44.29,5.32s25.54-18.75,30.12-33.61c5.8-18.85,1.59-39.56,6.6-58.63a62.52,62.52,0,0,1,17.59-29.53c5.78-5.42,13-10.33,14.89-18,2.2-8.9-3.74-17.78-10.51-24-12.34-11.26-28.21-18-44.39-22.16-25-6.42-53.9-6.28-74,9.89-9.31,7.47-16.57,18.56-27.89,23"/><path class="cls-4" d="M84.62,183.85c-7.87-3.45-14.39-5.86-19.06-11.17C62.31,169,55,149,49,150.85c-1.24.38-1.8,1.77-2.17,3-2.65,9-3,18.89,3.4,26.45,14.88,17.56,40.87,6.48,58.71,17,3.22,1.91,6.05,4.43,9.27,6.34s7.06,3.22,10.7,2.33c-2.44-7.29-8.72-12.81-15.73-16-9.74-4.37-20,.45-28.52-6.23"/><path class="cls-4" d="M107.45,127.06c-2.78,4-15.3-2.48-13.44,3.39,1.68,5.28,12.86,7.84,16.68,11.54,4.53,4.38,6,11,9.35,16.32,3.94,6.31,10.48,10.74,17.54,13.1s14.64,2.77,22.07,2.31c2.06-.13,4.46-.55,5.36-2.41-11.44-1.51-23.4-3.22-32.74-10-4.09-3-7.48-6.77-10.83-10.55-2.55-2.87-5.15-5.83-6.53-9.42-3-7.78.42-16.47,0-24.79.08,1.25-6.72,8.23-7.57,10.54"/><path class="cls-4" d="M197,231.52c-.91-.83-2.34-.64-3.53-.31-13.76,3.74-25.49,15-39.55,4-.61.85.31,1.95,1.15,2.57a132.64,132.64,0,0,0,14.52,9.43c4.28,2.4,9.18,4.62,13.94,3.44a14.23,14.23,0,0,0,8.07-6.17c.63-.95,7.1-14,3.72-13.69"/><path class="cls-4" d="M209.45,177.09c-12.56,13.68-28.2,19.51-45.93,23.09-3.59.72-5.55,3.49-2.78,6.8a12.76,12.76,0,0,0,4.69,3.1c6.88,3.14,14.14,5.71,21.68,6.28s15.44-1,21.53-5.48c7.72-5.68,11.64-15.2,13.65-24.57s2.48-19.06,5.14-28.27c5.57-19.26,20.16-34.61,27.91-53.1-2.86-1.11-6,.54-8.48,2.35-10.22,7.49-17.24,18.07-22.09,29.58l-11,26.12c-3.26,7.75-5.44,17.21-12.91,22"/><g class="cls-5"><ellipse class="cls-6" cx="165.97" cy="128.3" rx="46.05" ry="39.04"/><circle class="cls-7" cx="152.06" cy="107.39" r="51.9"/><ellipse class="cls-8" cx="158.2" cy="114.2" rx="27.34" ry="23.02"/><ellipse class="cls-9" cx="144.86" cy="104.03" rx="5.76" ry="4.8"/><ellipse class="cls-9" cx="153.88" cy="111.32" rx="3.91" ry="3.26"/></g></svg>