<svg id="Layer_1" data-name="Layer 1" xmlns="http://www.w3.org/2000/svg" viewBox="0 0 350 350"><defs><style>.cls-1{fill:#954026;}.cls-2{fill:#d56d47;}.cls-3{fill:#f5efb5;}</style></defs><title>PeperonniFull</title><path class="cls-1" d="M233.86,111.66c-.94-14.9-32.45-44.53-71-44.53S96,98,93.7,109.46c-.49,2.41-.91,17.64-.47,20,4.71,25.49,34.08,41.14,69.38,41.14,35.6,0,66.46-16.17,70.79-42C233.75,126.46,234,113.89,233.86,111.66Z"/><ellipse class="cls-2" cx="163.54" cy="115.11" rx="70.32" ry="47.98"/><ellipse class="cls-3" cx="147.79" cy="114.64" rx="8" ry="4.7"/><ellipse class="cls-3" cx="182.36" cy="143.58" rx="4.47" ry="3.04"/><ellipse class="cls-3" cx="211.52" cy="110.95" rx="5.41" ry="3.68"/><ellipse class="cls-3" cx="180" cy="103.82" rx="2.12" ry="1.88"/><ellipse class="cls-3" cx="114.86" cy="104.99" rx="4.7" ry="3.06"/><ellipse class="cls-3" cx="157.66" cy="89.94" rx="7.06" ry="3.06"/><ellipse class="cls-3" cx="173.18" cy="76.54" rx="3.76" ry="1.88"/><ellipse class="cls-3" cx="143.79" cy="140.27" rx="6.35" ry="4.47"/><ellipse class="cls-1" cx="116.98" cy="126.39" rx="6.82" ry="4.7"/><ellipse class="cls-1" cx="129.44" cy="91.35" rx="5.64" ry="2.59"/><ellipse class="cls-1" cx="159.31" cy="142.39" rx="6.35" ry="3.76"/><ellipse class="cls-1" cx="198.35" cy="137.68" rx="3.53" ry="2.35"/><ellipse class="cls-1" cx="184.47" cy="114.64" rx="4.23" ry="1.41"/><ellipse class="cls-1" cx="195.53" cy="93.94" rx="3.06" ry="1.88"/><path class="cls-1" d="M318.79,155.59c-.94-14.9-32.45-44.53-71-44.53S181,141.88,178.63,153.39c-.49,2.41-.91,17.64-.47,20,4.71,25.49,34.08,41.14,69.38,41.14,35.6,0,66.46-16.17,70.79-42C318.68,170.39,318.93,157.81,318.79,155.59Z"/><ellipse class="cls-2" cx="248.48" cy="159.03" rx="70.32" ry="47.98"/><ellipse class="cls-3" cx="232.72" cy="158.56" rx="8" ry="4.7"/><ellipse class="cls-3" cx="267.29" cy="187.5" rx="4.47" ry="3.04"/><ellipse class="cls-3" cx="296.45" cy="154.88" rx="5.41" ry="3.68"/><ellipse class="cls-3" cx="264.94" cy="147.74" rx="2.12" ry="1.88"/><ellipse class="cls-3" cx="199.8" cy="148.92" rx="4.7" ry="3.06"/><ellipse class="cls-3" cx="242.6" cy="133.87" rx="7.06" ry="3.06"/><ellipse class="cls-3" cx="258.12" cy="120.46" rx="3.76" ry="1.88"/><ellipse class="cls-3" cx="228.72" cy="184.2" rx="6.35" ry="4.47"/><ellipse class="cls-1" cx="201.91" cy="170.32" rx="6.82" ry="4.7"/><ellipse class="cls-1" cx="214.38" cy="135.28" rx="5.64" ry="2.59"/><ellipse class="cls-1" cx="244.24" cy="186.31" rx="6.35" ry="3.76"/><ellipse class="cls-1" cx="283.28" cy="181.61" rx="3.53" ry="2.35"/><ellipse class="cls-1" cx="269.41" cy="158.56" rx="4.23" ry="1.41"/><ellipse class="cls-1" cx="280.46" cy="137.87" rx="3.06" ry="1.88"/><path class="cls-1" d="M160,182.71c-.94-14.9-32.45-44.53-71-44.53S22.23,169,19.87,180.51c-.49,2.41-.91,17.64-.47,20,4.71,25.49,34.08,41.14,69.38,41.14,35.6,0,66.46-16.17,70.79-42C159.93,197.52,160.18,184.94,160,182.71Z"/><ellipse class="cls-2" cx="89.72" cy="186.16" rx="70.32" ry="47.98"/><ellipse class="cls-3" cx="73.96" cy="185.69" rx="8" ry="4.7"/><ellipse class="cls-3" cx="108.53" cy="214.63" rx="4.47" ry="3.04"/><ellipse class="cls-3" cx="137.7" cy="182" rx="5.41" ry="3.68"/><ellipse class="cls-3" cx="106.18" cy="174.87" rx="2.12" ry="1.88"/><ellipse class="cls-3" cx="41.04" cy="176.05" rx="4.7" ry="3.06"/><ellipse class="cls-3" cx="83.84" cy="160.99" rx="7.06" ry="3.06"/><ellipse class="cls-3" cx="99.36" cy="147.59" rx="3.76" ry="1.88"/><ellipse class="cls-3" cx="69.97" cy="211.32" rx="6.35" ry="4.47"/><ellipse class="cls-1" cx="43.16" cy="197.45" rx="6.82" ry="4.7"/><ellipse class="cls-1" cx="55.62" cy="162.41" rx="5.64" ry="2.59"/><ellipse class="cls-1" cx="85.49" cy="213.44" rx="6.35" ry="3.76"/><ellipse class="cls-1" cx="124.53" cy="208.74" rx="3.53" ry="2.35"/><ellipse class="cls-1" cx="110.65" cy="185.69" rx="4.23" ry="1.41"/><ellipse class="cls-1" cx="121.7" cy="164.99" rx="3.06" ry="1.88"/><path class="cls-1" d="M245.79,215.59c-.94-14.9-32.45-44.53-71-44.53S108,201.88,105.63,213.39c-.49,2.41-.91,17.64-.47,20,4.71,25.49,34.08,41.14,69.38,41.14,35.6,0,66.46-16.17,70.79-42C245.68,230.39,245.93,217.81,245.79,215.59Z"/><ellipse class="cls-2" cx="175.48" cy="219.03" rx="70.32" ry="47.98"/><ellipse class="cls-3" cx="159.72" cy="218.56" rx="8" ry="4.7"/><ellipse class="cls-3" cx="194.29" cy="247.5" rx="4.47" ry="3.04"/><ellipse class="cls-3" cx="223.45" cy="214.88" rx="5.41" ry="3.68"/><ellipse class="cls-3" cx="191.94" cy="207.74" rx="2.12" ry="1.88"/><ellipse class="cls-3" cx="126.8" cy="208.92" rx="4.7" ry="3.06"/><ellipse class="cls-3" cx="169.6" cy="193.87" rx="7.06" ry="3.06"/><ellipse class="cls-3" cx="185.12" cy="180.46" rx="3.76" ry="1.88"/><ellipse class="cls-3" cx="155.72" cy="244.2" rx="6.35" ry="4.47"/><ellipse class="cls-1" cx="128.91" cy="230.32" rx="6.82" ry="4.7"/><ellipse class="cls-1" cx="141.38" cy="195.28" rx="5.64" ry="2.59"/><ellipse class="cls-1" cx="171.24" cy="246.31" rx="6.35" ry="3.76"/><ellipse class="cls-1" cx="210.28" cy="241.61" rx="3.53" ry="2.35"/><ellipse class="cls-1" cx="196.41" cy="218.56" rx="4.23" ry="1.41"/><ellipse class="cls-1" cx="207.46" cy="197.87" rx="3.06" ry="1.88"/></svg>