<svg id="Layer_1" data-name="Layer 1" xmlns="http://www.w3.org/2000/svg" viewBox="0 0 350 350"><defs><style>.cls-1{fill:#ae7777;}.cls-2{fill:#d6878d;}.cls-3{fill:#f2d2d7;}.cls-4{fill:#cda5ad;}.cls-5{fill:#954026;}.cls-6{fill:#d56d47;}.cls-7{fill:#f5efb5;}</style></defs><title>Pepperonni</title><path class="cls-1" d="M324.65,159.47c-2-31.67-69-94.67-151-94.67s-142,65.54-147,90c-1,5.12-1.93,37.5-1,42.54,10,54.2,72.46,87.46,147.5,87.46,75.68,0,141.31-34.38,150.5-89.26C324.42,190.94,325,164.21,324.65,159.47Z"/><ellipse class="cls-2" cx="175.15" cy="166.8" rx="149.5" ry="102"/><ellipse class="cls-3" cx="130.65" cy="181.8" rx="17" ry="10"/><ellipse class="cls-4" cx="237.15" cy="227.33" rx="9.5" ry="6.47"/><ellipse class="cls-3" cx="237.15" cy="154.97" rx="11.5" ry="7.83"/><ellipse class="cls-4" cx="210.15" cy="142.8" rx="4.5" ry="4"/><ellipse class="cls-4" cx="71.65" cy="145.3" rx="10" ry="6.5"/><ellipse class="cls-3" cx="140.65" cy="101.3" rx="15" ry="6.5"/><ellipse class="cls-4" cx="195.65" cy="84.8" rx="8" ry="4"/><ellipse class="cls-3" cx="148.65" cy="210.43" rx="8" ry="5.63"/><ellipse class="cls-3" cx="76.15" cy="190.8" rx="14.5" ry="10"/><ellipse class="cls-3" cx="102.65" cy="116.3" rx="12" ry="5.5"/><ellipse class="cls-3" cx="209.15" cy="210.8" rx="13.5" ry="8"/><ellipse class="cls-3" cx="281.15" cy="200.8" rx="7.5" ry="5"/><ellipse class="cls-4" cx="216.65" cy="184.8" rx="9" ry="3"/><ellipse class="cls-3" cx="243.15" cy="121.8" rx="6.5" ry="4"/><ellipse class="cls-3" cx="176.65" cy="173.8" rx="17" ry="10"/><ellipse class="cls-4" cx="292.15" cy="145.97" rx="11.5" ry="7.83"/><ellipse class="cls-3" cx="164.65" cy="147.3" rx="10" ry="6.5"/><ellipse class="cls-3" cx="197.65" cy="121.3" rx="15" ry="6.5"/><ellipse class="cls-3" cx="230.65" cy="92.8" rx="8" ry="4"/><ellipse class="cls-4" cx="100.15" cy="219.8" rx="14.5" ry="10"/><ellipse class="cls-4" cx="117.65" cy="153.3" rx="12" ry="5.5"/><ellipse class="cls-3" cx="174.15" cy="238.8" rx="13.5" ry="8"/><ellipse class="cls-3" cx="254.65" cy="173.8" rx="9" ry="3"/><path class="cls-5" d="M324.81,159.67c-2-31.67-69-94.67-151-94.67s-142,65.54-147,90c-1,5.12-1.93,37.5-1,42.54,10,54.2,72.46,87.46,147.5,87.46,75.68,0,141.31-34.38,150.5-89.26C324.58,191.15,325.11,164.41,324.81,159.67Z"/><ellipse class="cls-6" cx="175.31" cy="167" rx="149.5" ry="102"/><ellipse class="cls-7" cx="141.81" cy="166" rx="17" ry="10"/><ellipse class="cls-7" cx="215.31" cy="227.53" rx="9.5" ry="6.47"/><ellipse class="cls-7" cx="277.31" cy="158.17" rx="11.5" ry="7.83"/><ellipse class="cls-7" cx="210.31" cy="143" rx="4.5" ry="4"/><ellipse class="cls-7" cx="71.81" cy="145.5" rx="10" ry="6.5"/><ellipse class="cls-7" cx="162.81" cy="113.5" rx="15" ry="6.5"/><ellipse class="cls-7" cx="195.81" cy="85" rx="8" ry="4"/><ellipse class="cls-7" cx="133.31" cy="220.5" rx="13.5" ry="9.5"/><ellipse class="cls-5" cx="76.31" cy="191" rx="14.5" ry="10"/><ellipse class="cls-5" cx="102.81" cy="116.5" rx="12" ry="5.5"/><ellipse class="cls-5" cx="166.31" cy="225" rx="13.5" ry="8"/><ellipse class="cls-5" cx="249.31" cy="215" rx="7.5" ry="5"/><ellipse class="cls-5" cx="219.81" cy="166" rx="9" ry="3"/><ellipse class="cls-5" cx="243.31" cy="122" rx="6.5" ry="4"/></svg>