<svg id="Layer_1" data-name="Layer 1" xmlns="http://www.w3.org/2000/svg" viewBox="0 0 350 350"><defs><style>.cls-1{fill:#ae7777;}.cls-2{fill:#d6878d;}.cls-3{fill:#f2d2d7;}.cls-4{fill:#cda5ad;}</style></defs><title>SalamiFull</title><path class="cls-1" d="M164,176.24c-.92-14.54-31.67-43.46-69.32-43.46S29.5,162.86,27.21,174.09c-.48,2.35-.89,17.22-.46,19.53,4.6,24.88,33.27,40.15,67.72,40.15,34.74,0,64.87-15.78,69.09-41C163.91,190.69,164.15,178.41,164,176.24Z"/><ellipse class="cls-2" cx="95.38" cy="179.6" rx="68.63" ry="46.83"/><ellipse class="cls-3" cx="74.95" cy="186.49" rx="7.8" ry="4.59"/><ellipse class="cls-4" cx="123.85" cy="207.39" rx="4.36" ry="2.97"/><ellipse class="cls-3" cx="123.85" cy="174.17" rx="5.28" ry="3.6"/><ellipse class="cls-4" cx="111.45" cy="168.58" rx="2.07" ry="1.84"/><ellipse class="cls-4" cx="47.87" cy="169.73" rx="4.59" ry="2.98"/><ellipse class="cls-3" cx="79.54" cy="149.53" rx="6.89" ry="2.98"/><ellipse class="cls-4" cx="104.79" cy="141.96" rx="3.67" ry="1.84"/><ellipse class="cls-3" cx="83.22" cy="199.63" rx="3.67" ry="2.58"/><ellipse class="cls-3" cx="49.93" cy="190.62" rx="6.66" ry="4.59"/><ellipse class="cls-3" cx="62.1" cy="156.42" rx="5.51" ry="2.53"/><ellipse class="cls-3" cx="110.99" cy="199.8" rx="6.2" ry="3.67"/><ellipse class="cls-3" cx="144.05" cy="195.21" rx="3.44" ry="2.3"/><ellipse class="cls-4" cx="114.44" cy="187.86" rx="4.13" ry="1.38"/><ellipse class="cls-3" cx="126.6" cy="158.94" rx="2.98" ry="1.84"/><ellipse class="cls-3" cx="96.07" cy="182.81" rx="7.8" ry="4.59"/><ellipse class="cls-4" cx="149.1" cy="170.04" rx="5.28" ry="3.6"/><ellipse class="cls-3" cx="90.56" cy="170.65" rx="4.59" ry="2.98"/><ellipse class="cls-3" cx="105.71" cy="158.71" rx="6.89" ry="2.98"/><ellipse class="cls-3" cx="120.86" cy="145.63" rx="3.67" ry="1.84"/><ellipse class="cls-4" cx="60.95" cy="203.93" rx="6.66" ry="4.59"/><ellipse class="cls-4" cx="68.99" cy="173.4" rx="5.51" ry="2.52"/><ellipse class="cls-3" cx="94.92" cy="212.66" rx="6.2" ry="3.67"/><ellipse class="cls-3" cx="131.88" cy="182.81" rx="4.13" ry="1.38"/><path class="cls-1" d="M238,104.24c-.92-14.54-31.67-43.46-69.32-43.46s-65.19,30.09-67.49,41.32c-.48,2.35-.89,17.22-.46,19.53,4.6,24.88,33.27,40.15,67.72,40.15,34.74,0,64.87-15.78,69.09-41C237.91,118.69,238.15,106.41,238,104.24Z"/><ellipse class="cls-2" cx="169.38" cy="107.6" rx="68.63" ry="46.83"/><ellipse class="cls-3" cx="148.95" cy="114.49" rx="7.8" ry="4.59"/><ellipse class="cls-4" cx="197.85" cy="135.39" rx="4.36" ry="2.97"/><ellipse class="cls-3" cx="197.85" cy="102.17" rx="5.28" ry="3.6"/><ellipse class="cls-4" cx="185.45" cy="96.58" rx="2.07" ry="1.84"/><ellipse class="cls-4" cx="121.87" cy="97.73" rx="4.59" ry="2.98"/><ellipse class="cls-3" cx="153.54" cy="77.53" rx="6.89" ry="2.98"/><ellipse class="cls-4" cx="178.79" cy="69.96" rx="3.67" ry="1.84"/><ellipse class="cls-3" cx="157.22" cy="127.63" rx="3.67" ry="2.58"/><ellipse class="cls-3" cx="123.93" cy="118.62" rx="6.66" ry="4.59"/><ellipse class="cls-3" cx="136.1" cy="84.42" rx="5.51" ry="2.53"/><ellipse class="cls-3" cx="184.99" cy="127.8" rx="6.2" ry="3.67"/><ellipse class="cls-3" cx="218.05" cy="123.21" rx="3.44" ry="2.3"/><ellipse class="cls-4" cx="188.44" cy="115.86" rx="4.13" ry="1.38"/><ellipse class="cls-3" cx="200.6" cy="86.94" rx="2.98" ry="1.84"/><ellipse class="cls-3" cx="170.07" cy="110.81" rx="7.8" ry="4.59"/><ellipse class="cls-4" cx="223.1" cy="98.04" rx="5.28" ry="3.6"/><ellipse class="cls-3" cx="164.56" cy="98.65" rx="4.59" ry="2.98"/><ellipse class="cls-3" cx="179.71" cy="86.71" rx="6.89" ry="2.98"/><ellipse class="cls-3" cx="194.86" cy="73.63" rx="3.67" ry="1.84"/><ellipse class="cls-4" cx="134.95" cy="131.93" rx="6.66" ry="4.59"/><ellipse class="cls-4" cx="142.99" cy="101.4" rx="5.51" ry="2.52"/><ellipse class="cls-3" cx="168.92" cy="140.66" rx="6.2" ry="3.67"/><ellipse class="cls-3" cx="205.88" cy="110.81" rx="4.13" ry="1.38"/><path class="cls-1" d="M258,206.24c-.92-14.54-31.67-43.46-69.32-43.46s-65.19,30.09-67.49,41.32c-.48,2.35-.89,17.22-.46,19.53,4.6,24.88,33.27,40.15,67.72,40.15,34.74,0,64.87-15.78,69.09-41C257.91,220.69,258.15,208.41,258,206.24Z"/><ellipse class="cls-2" cx="189.38" cy="209.6" rx="68.63" ry="46.83"/><ellipse class="cls-3" cx="168.95" cy="216.49" rx="7.8" ry="4.59"/><ellipse class="cls-4" cx="217.85" cy="237.39" rx="4.36" ry="2.97"/><ellipse class="cls-3" cx="217.85" cy="204.17" rx="5.28" ry="3.6"/><ellipse class="cls-4" cx="205.45" cy="198.58" rx="2.07" ry="1.84"/><ellipse class="cls-4" cx="141.87" cy="199.73" rx="4.59" ry="2.98"/><ellipse class="cls-3" cx="173.54" cy="179.53" rx="6.89" ry="2.98"/><ellipse class="cls-4" cx="198.79" cy="171.96" rx="3.67" ry="1.84"/><ellipse class="cls-3" cx="177.22" cy="229.63" rx="3.67" ry="2.58"/><ellipse class="cls-3" cx="143.93" cy="220.62" rx="6.66" ry="4.59"/><ellipse class="cls-3" cx="156.1" cy="186.42" rx="5.51" ry="2.53"/><ellipse class="cls-3" cx="204.99" cy="229.8" rx="6.2" ry="3.67"/><ellipse class="cls-3" cx="238.05" cy="225.21" rx="3.44" ry="2.3"/><ellipse class="cls-4" cx="208.44" cy="217.86" rx="4.13" ry="1.38"/><ellipse class="cls-3" cx="220.6" cy="188.94" rx="2.98" ry="1.84"/><ellipse class="cls-3" cx="190.07" cy="212.81" rx="7.8" ry="4.59"/><ellipse class="cls-4" cx="243.1" cy="200.04" rx="5.28" ry="3.6"/><ellipse class="cls-3" cx="184.56" cy="200.65" rx="4.59" ry="2.98"/><ellipse class="cls-3" cx="199.71" cy="188.71" rx="6.89" ry="2.98"/><ellipse class="cls-3" cx="214.86" cy="175.63" rx="3.67" ry="1.84"/><ellipse class="cls-4" cx="154.95" cy="233.93" rx="6.66" ry="4.59"/><ellipse class="cls-4" cx="162.99" cy="203.4" rx="5.51" ry="2.52"/><ellipse class="cls-3" cx="188.92" cy="242.66" rx="6.2" ry="3.67"/><ellipse class="cls-3" cx="225.88" cy="212.81" rx="4.13" ry="1.38"/><path class="cls-1" d="M325,146.24c-.92-14.54-31.67-43.46-69.32-43.46s-65.19,30.09-67.49,41.32c-.48,2.35-.89,17.22-.46,19.53,4.6,24.88,33.27,40.15,67.72,40.15,34.74,0,64.87-15.78,69.09-41C324.91,160.69,325.15,148.41,325,146.24Z"/><ellipse class="cls-2" cx="256.38" cy="149.6" rx="68.63" ry="46.83"/><ellipse class="cls-3" cx="235.95" cy="156.49" rx="7.8" ry="4.59"/><ellipse class="cls-4" cx="284.85" cy="177.39" rx="4.36" ry="2.97"/><ellipse class="cls-3" cx="284.85" cy="144.17" rx="5.28" ry="3.6"/><ellipse class="cls-4" cx="272.45" cy="138.58" rx="2.07" ry="1.84"/><ellipse class="cls-4" cx="208.87" cy="139.73" rx="4.59" ry="2.98"/><ellipse class="cls-3" cx="240.54" cy="119.53" rx="6.89" ry="2.98"/><ellipse class="cls-4" cx="265.79" cy="111.96" rx="3.67" ry="1.84"/><ellipse class="cls-3" cx="244.22" cy="169.63" rx="3.67" ry="2.58"/><ellipse class="cls-3" cx="210.93" cy="160.62" rx="6.66" ry="4.59"/><ellipse class="cls-3" cx="223.1" cy="126.42" rx="5.51" ry="2.53"/><ellipse class="cls-3" cx="271.99" cy="169.8" rx="6.2" ry="3.67"/><ellipse class="cls-3" cx="305.05" cy="165.21" rx="3.44" ry="2.3"/><ellipse class="cls-4" cx="275.44" cy="157.86" rx="4.13" ry="1.38"/><ellipse class="cls-3" cx="287.6" cy="128.94" rx="2.98" ry="1.84"/><ellipse class="cls-3" cx="257.07" cy="152.81" rx="7.8" ry="4.59"/><ellipse class="cls-4" cx="310.1" cy="140.04" rx="5.28" ry="3.6"/><ellipse class="cls-3" cx="251.56" cy="140.65" rx="4.59" ry="2.98"/><ellipse class="cls-3" cx="266.71" cy="128.71" rx="6.89" ry="2.98"/><ellipse class="cls-3" cx="281.86" cy="115.63" rx="3.67" ry="1.84"/><ellipse class="cls-4" cx="221.95" cy="173.93" rx="6.66" ry="4.59"/><ellipse class="cls-4" cx="229.99" cy="143.4" rx="5.51" ry="2.52"/><ellipse class="cls-3" cx="255.92" cy="182.66" rx="6.2" ry="3.67"/><ellipse class="cls-3" cx="292.88" cy="152.81" rx="4.13" ry="1.38"/></svg>