<svg id="Layer_1" data-name="Layer 1" xmlns="http://www.w3.org/2000/svg" xmlns:xlink="http://www.w3.org/1999/xlink" viewBox="0 0 350 350"><defs><style>.cls-1{fill:none;}.cls-2{fill:#c97641;}.cls-3{clip-path:url(#clip-path);}.cls-4{fill:#d7803f;}.cls-5{fill:#ecbf98;}.cls-6{clip-path:url(#clip-path-2);}</style><clipPath id="clip-path"><path class="cls-1" d="M140.84,157.37s-21.83-4.91-29.38-8.09c-.46-.19-16.51-8.54-25.19-11-9.23-2.6-20.15-4.62-30.22,3.76S9.59,177.6,10.43,188.29s5.88,13.87,16.79,11.85,23.23-6.07,37.5,3.76S88.23,217.48,117.61,216s40.58.29,55.13,9.83,31.62,11.56,45.61-3.76,22.11-19.36,30.22-21.67,15.11-8.09,12.87-11.56S227,167.48,184.21,163.73,140.84,157.37,140.84,157.37Z"/></clipPath><clipPath id="clip-path-2"><path class="cls-1" d="M219,143.58s-21.83-4.91-29.38-8.09c-.46-.19-16.51-8.54-25.19-11-9.23-2.6-20.15-4.62-30.22,3.76S87.72,163.81,88.56,174.5s5.88,13.87,16.79,11.85,23.23-6.07,37.5,3.76,23.51,13.58,52.89,12.14,40.58.29,55.13,9.83,31.62,11.56,45.61-3.76S318.59,189,326.7,186.64s15.11-8.09,12.87-11.56-34.42-21.39-77.24-25.14S219,143.58,219,143.58Z"/></clipPath></defs><title>Salmon</title><path class="cls-2" d="M133.81,165.78s-21.6-4.71-29.08-7.76c-.46-.19-16.35-8.18-24.93-10.53-9.14-2.49-19.94-4.43-29.91,3.6s-46,34.07-45.15,44.32,5.82,13.3,16.62,11.36,23-5.82,37.12,3.6,23.27,13,52.35,11.63,40.16.28,54.57,9.42,31.3,11.08,45.15-3.6,21.88-18.56,29.91-20.77,15-7.76,12.74-11.08-34.07-20.5-76.45-24.1S133.81,165.78,133.81,165.78Z"/><g class="cls-3"><path class="cls-4" d="M140.84,157.37s-21.83-4.91-29.38-8.09c-.46-.19-16.51-8.54-25.19-11-9.23-2.6-20.15-4.62-30.22,3.76S9.59,177.6,10.43,188.29s5.88,13.87,16.79,11.85,23.23-6.07,37.5,3.76S88.23,217.48,117.61,216s40.58.29,55.13,9.83,31.62,11.56,45.61-3.76,22.11-19.36,30.22-21.67,15.11-8.09,12.87-11.56S227,167.48,184.21,163.73,140.84,157.37,140.84,157.37Z"/><path class="cls-4" d="M141.12,157.37s-21.83-4.91-29.38-8.09c-.46-.19-16.51-8.54-25.19-11-9.23-2.6-20.15-4.62-30.22,3.76S9.87,177.6,10.71,188.29s5.88,13.87,16.79,11.85,23.23-6.07,37.5,3.76S88.51,217.48,117.89,216s40.58.29,55.13,9.83,31.62,11.56,45.61-3.76,22.11-19.36,30.22-21.67,15.11-8.09,12.87-11.56-34.42-21.39-77.24-25.14S141.12,157.37,141.12,157.37Z"/><path class="cls-5" d="M11.46,180.94a55.45,55.45,0,0,1,7.42-7.45q2-1.68,4.07-3.24a39.22,39.22,0,0,1,4.32-2.88c3-1.73,6.31-3.05,9.24-4.9a58.23,58.23,0,0,0,8.23-6.35c1.31-1.15,2.59-2.35,3.93-3.45s2.72-2.16,4.11-3.2,2.83-2.06,4.26-3.07,2.87-2,4.42-2.88a64.46,64.46,0,0,1,9.64-4.35,67.38,67.38,0,0,1,10.15-2.85l.21.45a103.33,103.33,0,0,1-8.63,5.93c-2.9,1.85-5.8,3.62-8.66,5.41s-5.78,3.55-8.76,5.28c-1.49.88-3,1.78-4.49,2.6s-3.1,1.58-4.64,2.39a53.39,53.39,0,0,0-8.85,5.41c-2.75,2.09-5.12,4.73-7.76,7a41.44,41.44,0,0,1-4.15,3.1q-2.14,1.45-4.38,2.78a59.65,59.65,0,0,1-9.4,4.68Z"/><path class="cls-5" d="M18.12,199.41a35.87,35.87,0,0,1,3.62-5.29A52.83,52.83,0,0,1,26,189.38c1.51-1.49,3.09-2.91,4.72-4.25a50.41,50.41,0,0,1,5.06-3.77c3.51-2.3,7.37-4.13,10.8-6.51a82.67,82.67,0,0,0,9.71-8c1.55-1.42,3.06-2.89,4.65-4.27s3.2-2.71,4.82-4a124.16,124.16,0,0,1,10-7.62q5.23-3.5,10.75-6.56A101.12,101.12,0,0,1,98,138.9l.27.42c-3,3-6.25,5.69-9.48,8.35s-6.53,5.2-9.89,7.67c-1.69,1.22-3.38,2.42-5.13,3.56s-3.43,2.36-5.17,3.52-3.45,2.35-5.22,3.45S59.75,168,58,169.1a82.35,82.35,0,0,0-10.37,7c-3.25,2.63-6.13,5.73-9.24,8.54-1.55,1.4-3.17,2.69-4.82,3.93l-4.95,3.72-5,3.7c-1.67,1.24-3.34,2.49-5.1,3.71Z"/><path class="cls-5" d="M40.51,196.76A137.28,137.28,0,0,1,57.88,181c1.56-1.18,3.12-2.37,4.71-3.51s3.22-2.23,4.84-3.33a96.72,96.72,0,0,1,10.13-6,90.42,90.42,0,0,1,22.32-7.79,56.76,56.76,0,0,1,23.61-.43,37.1,37.1,0,0,1,11.28,4.49,48.46,48.46,0,0,1,9.45,7.62,103.81,103.81,0,0,1,14.25,19c2,3.34,4,6.68,5.91,10.06s3.85,6.75,5.72,10.16c3.74,6.82,7.41,13.68,10.76,20.74l-.43.26c-4.8-6.17-9.27-12.53-13.68-18.94s-8.67-12.92-12.81-19.46-8.16-13-13.16-18.59a53,53,0,0,0-8.21-7.5,37,37,0,0,0-9.8-5.21,39.39,39.39,0,0,0-22.51-.64c-7.47,1.9-14.17,5.84-20.65,9.85l-9.76,6.11c-1.63,1-3.25,2.06-4.86,3.12s-3.24,2.09-4.85,3.15l-4.82,3.21-4.81,3.24c-3.2,2.18-6.4,4.38-9.66,6.53Z"/><path class="cls-5" d="M57.83,201.39A84.69,84.69,0,0,1,69,189a89.78,89.78,0,0,1,13.18-10.18c2.38-1.44,4.84-2.75,7.32-4s4.94-2.54,7.5-3.71a29.7,29.7,0,0,1,8.08-2.6,22.28,22.28,0,0,1,8.65.55,29.17,29.17,0,0,1,8,3.43,30.76,30.76,0,0,1,3.54,2.5c1.11.9,2.23,1.8,3.25,2.8a69.43,69.43,0,0,1,10.88,13c3.06,4.69,5.7,9.54,8.29,14.36s5.18,9.61,8,14.4l-.39.32a83.74,83.74,0,0,1-10.9-12.62l-2.41-3.37-2.34-3.39L135,193.81a107.13,107.13,0,0,0-9.78-12.63,55.89,55.89,0,0,0-5.76-5.36,30.11,30.11,0,0,0-6.59-4.13,15.9,15.9,0,0,0-7.58-1.45,18.62,18.62,0,0,0-7.55,2.35,49.32,49.32,0,0,0-6.73,4.6l-6.42,5.11c-2.14,1.69-4.31,3.31-6.51,4.91L71.49,192c-2.18,1.63-4.37,3.27-6.59,4.88s-4.42,3.27-6.72,4.83Z"/><path class="cls-5" d="M63,205.91c1.51-1.37,3-2.62,4.51-3.9s3-2.55,4.45-3.83,3-2.53,4.52-3.77a51.52,51.52,0,0,1,4.78-3.53c3.36-2.18,7-3.91,10.54-5.9a16.9,16.9,0,0,1,12.2-2,20.17,20.17,0,0,1,6,2.23,27,27,0,0,1,5.07,3.86,81.36,81.36,0,0,1,8,9.05c2.37,3,4.82,6,7.37,8.94s5.22,5.81,7.9,8.82l-.29.4a50.24,50.24,0,0,1-10.32-6.36,62,62,0,0,1-8.79-8.42c-2.63-3.09-4.77-6.34-7.24-9.14a35.39,35.39,0,0,0-3.93-3.83,20.69,20.69,0,0,0-4.6-2.94,11.35,11.35,0,0,0-5.36-1.08,10.39,10.39,0,0,0-5.22,1.87c-3.23,2.17-5.91,5.17-8.82,7.81a54,54,0,0,1-4.6,3.75c-1.59,1.19-3.24,2.33-4.94,3.4A47.35,47.35,0,0,1,69,204.25a31.07,31.07,0,0,1-5.72,2.11Z"/><path class="cls-5" d="M75.59,213.65a21.87,21.87,0,0,1,5.1-4.6,26.07,26.07,0,0,1,2.94-1.7,13.8,13.8,0,0,1,3.21-1.19c2.27-.53,4.68-.43,6.91-.74s4.43-.78,6.77-1.17a17.89,17.89,0,0,1,7.11.14,24.35,24.35,0,0,1,6.67,2.27,29.6,29.6,0,0,1,5.64,4,28.85,28.85,0,0,1,4.6,5.12l-.28.41a47.92,47.92,0,0,1-6.41-2.18c-2-.82-4-1.67-5.88-2.51s-3.72-1.78-5.63-2.52-3.84-1.39-5.9-1.95a11.89,11.89,0,0,0-6.36,0c-2.09.58-3.89,2-5.73,3.05a20.53,20.53,0,0,1-2.88,1.36q-1.48.6-3,1.13a28.54,28.54,0,0,1-6.6,1.55Z"/><path class="cls-5" d="M144.94,155.23a54.4,54.4,0,0,1,4.14,4.41c1.32,1.51,2.55,3.07,3.75,4.66s2.36,3.2,3.47,4.84a53.05,53.05,0,0,1,3.12,5.07c1.89,3.51,3.37,7.27,5.4,10.68a74.43,74.43,0,0,0,6.94,9.68c1.26,1.55,2.56,3.07,3.77,4.65s2.38,3.19,3.54,4.8c2.31,3.23,4.64,6.43,6.73,9.83a76.22,76.22,0,0,1,5.56,10.77,38.74,38.74,0,0,1,3,11.85l-.48.13c-1.89-3.56-3.84-6.91-6-10.17s-4.36-6.44-6.56-9.71-4.2-6.72-6.2-10.15c-1-1.72-2-3.43-2.94-5.19s-1.8-3.56-2.7-5.34a74.43,74.43,0,0,0-6-10.29c-2.28-3.25-5.12-6.14-7.55-9.29a53.05,53.05,0,0,1-3.35-4.92q-1.57-2.53-3-5.14c-1-1.74-1.88-3.51-2.72-5.33a54.39,54.39,0,0,1-2.33-5.58Z"/><path class="cls-5" d="M166.92,160.31a47.89,47.89,0,0,1,2.93,4.75c.91,1.61,1.72,3.24,2.52,4.88s1.54,3.3,2.26,5a53,53,0,0,1,2,5.06c1.13,3.44,1.93,7.07,3.45,10.38a37.57,37.57,0,0,0,2.6,4.78A13.71,13.71,0,0,0,186,199a4.89,4.89,0,0,0,1.93.86c.29.08.48-.06.18-.05a.88.88,0,0,0-.39.18c-.07.05-.07,0-.06-.06s.08-.69.14-1.08.1-.83.13-1.26c.07-.84.11-1.7.14-2.57.09-3.46-.26-7.17.29-11.08a42.62,42.62,0,0,1,3.3-10.92c.75-1.71,1.54-3.36,2.42-5a15.14,15.14,0,0,1,1.57-2.49,6.27,6.27,0,0,1,2.33-1.87l.29.4a10.35,10.35,0,0,0-1.78,4.81c-.32,1.79-.71,3.6-1.08,5.36-.19.88-.36,1.76-.53,2.64s-.35,1.74-.5,2.6c-.28,1.73-.55,3.43-.71,5.12-.34,3.35-.41,7-.88,10.79-.13,1-.25,1.91-.47,2.88-.1.48-.22,1-.35,1.44a12.64,12.64,0,0,1-.52,1.58,4.28,4.28,0,0,1-.7,1.14,3.1,3.1,0,0,1-1.49,1,3.57,3.57,0,0,1-2.49-.31,8.07,8.07,0,0,1-2.65-2.07,23.82,23.82,0,0,1-2.94-5c-.82-1.65-1.67-3.27-2.58-4.87-1.8-3.2-4.08-6.2-5.84-9.46a39.13,39.13,0,0,1-2.26-5q-1-2.58-1.77-5.23c-.53-1.76-1-3.54-1.38-5.35a45.16,45.16,0,0,1-.9-5.51Z"/><path class="cls-5" d="M203.2,235.8a41.21,41.21,0,0,1-2.82-10.45c-.27-1.77-.45-3.55-.56-5.34a37.44,37.44,0,0,1,0-5.34c.26-3.56,1-7.09,1.14-10.66s.17-7.15.77-10.87a21.87,21.87,0,0,1,1.62-5.47,23.85,23.85,0,0,1,3-4.88,29.93,29.93,0,0,1,8.53-7.48,39.72,39.72,0,0,1,10.32-4,55.61,55.61,0,0,1,10.72-1.55l.14.48c-3.16,1.8-6.41,3.23-9.52,4.77a91.8,91.8,0,0,0-8.89,4.88,42.21,42.21,0,0,0-7.72,6,32,32,0,0,0-3.09,3.76,24.73,24.73,0,0,0-2.49,4.27A22.36,22.36,0,0,0,202.55,204c.14,3.5,1,7,1.42,10.54a48.24,48.24,0,0,1,.3,5.26c0,1.75,0,3.5,0,5.25-.06,3.51-.16,7-.57,10.63Z"/><path class="cls-5" d="M215.43,230.68a22.3,22.3,0,0,1-4.55-8.7,27.22,27.22,0,0,1-.91-4.89,18.58,18.58,0,0,1,.12-5,16.47,16.47,0,0,1,1.68-4.92,22.36,22.36,0,0,1,3-4.14c1.08-1.24,2.22-2.39,3.38-3.51s2.32-2.24,3.54-3.33a35.43,35.43,0,0,1,3.86-3.06,32,32,0,0,1,4.33-2.41,52.15,52.15,0,0,1,9.12-3.29c3.06-.77,6.07-1.38,9-2.07a67.16,67.16,0,0,0,8.87-2.71l.3.4a23.69,23.69,0,0,1-7.78,6,55.67,55.67,0,0,1-9,3.52c-3,.93-6,1.59-8.8,2.53-1.42.47-2.81,1-4.21,1.57s-2.83,1.11-4.22,1.79A18,18,0,0,0,216,204a9.68,9.68,0,0,0-1.62,4.06,21.93,21.93,0,0,0-.12,4.31l.15,4.41c.06,1.48.16,3,.29,4.46.27,3,.74,6,1.18,9.22Z"/></g><path class="cls-2" d="M211.94,152s-21.6-4.71-29.08-7.76c-.46-.19-16.35-8.18-24.93-10.53-9.14-2.49-19.94-4.43-29.91,3.6s-46,34.07-45.15,44.32,5.82,13.3,16.62,11.36,23-5.82,37.12,3.6,23.27,13,52.35,11.63,40.16.28,54.57,9.42,31.3,11.08,45.15-3.6,21.88-18.56,29.91-20.77,15-7.76,12.74-11.08-34.07-20.5-76.45-24.1S211.94,152,211.94,152Z"/><g class="cls-6"><path class="cls-4" d="M219,143.58s-21.83-4.91-29.38-8.09c-.46-.19-16.51-8.54-25.19-11-9.23-2.6-20.15-4.62-30.22,3.76S87.72,163.81,88.56,174.5s5.88,13.87,16.79,11.85,23.23-6.07,37.5,3.76,23.51,13.58,52.89,12.14,40.58.29,55.13,9.83,31.62,11.56,45.61-3.76S318.59,189,326.7,186.64s15.11-8.09,12.87-11.56-34.42-21.39-77.24-25.14S219,143.58,219,143.58Z"/><path class="cls-4" d="M219.25,143.58s-21.83-4.91-29.38-8.09c-.46-.19-16.51-8.54-25.19-11-9.23-2.6-20.15-4.62-30.22,3.76S88,163.81,88.84,174.5s5.88,13.87,16.79,11.85,23.23-6.07,37.5,3.76,23.51,13.58,52.89,12.14,40.58.29,55.13,9.83,31.62,11.56,45.61-3.76S318.87,189,327,186.64s15.11-8.09,12.87-11.56-34.42-21.39-77.24-25.14S219.25,143.58,219.25,143.58Z"/><path class="cls-5" d="M89.59,167.16A55.45,55.45,0,0,1,97,159.71q2-1.68,4.07-3.24a39.22,39.22,0,0,1,4.32-2.88c3-1.73,6.31-3.05,9.24-4.9a58.23,58.23,0,0,0,8.23-6.35c1.31-1.15,2.59-2.35,3.93-3.45s2.72-2.16,4.11-3.2,2.83-2.06,4.26-3.07,2.87-2,4.42-2.88a64.46,64.46,0,0,1,9.64-4.35,67.38,67.38,0,0,1,10.15-2.85l.21.45a103.34,103.34,0,0,1-8.63,5.93c-2.9,1.85-5.8,3.62-8.66,5.41s-5.78,3.55-8.76,5.28c-1.49.88-3,1.78-4.49,2.6s-3.1,1.58-4.64,2.39a53.39,53.39,0,0,0-8.85,5.41c-2.75,2.09-5.12,4.73-7.76,7a41.44,41.44,0,0,1-4.15,3.1q-2.14,1.45-4.38,2.78a59.65,59.65,0,0,1-9.4,4.68Z"/><path class="cls-5" d="M96.25,185.62a35.87,35.87,0,0,1,3.62-5.29,52.83,52.83,0,0,1,4.29-4.73c1.51-1.49,3.09-2.91,4.72-4.25a50.41,50.41,0,0,1,5.06-3.77c3.51-2.3,7.37-4.13,10.8-6.51a82.67,82.67,0,0,0,9.71-8c1.55-1.42,3.06-2.89,4.65-4.27s3.2-2.71,4.82-4a124.16,124.16,0,0,1,10-7.62q5.23-3.5,10.75-6.56a101.12,101.12,0,0,1,11.41-5.51l.27.42c-3,3-6.25,5.69-9.48,8.35s-6.53,5.2-9.89,7.67c-1.69,1.22-3.38,2.42-5.13,3.56s-3.43,2.36-5.17,3.52-3.45,2.35-5.22,3.45-3.6,2.15-5.39,3.23a82.35,82.35,0,0,0-10.37,7c-3.25,2.63-6.13,5.73-9.24,8.54-1.55,1.4-3.17,2.69-4.82,3.93l-4.95,3.72-5,3.7c-1.67,1.24-3.34,2.49-5.1,3.71Z"/><path class="cls-5" d="M118.64,183A137.28,137.28,0,0,1,136,167.21c1.56-1.18,3.12-2.37,4.71-3.51s3.22-2.23,4.84-3.33a96.72,96.72,0,0,1,10.13-6A90.42,90.42,0,0,1,178,146.56a56.76,56.76,0,0,1,23.61-.43,37.1,37.1,0,0,1,11.28,4.49,48.46,48.46,0,0,1,9.45,7.62,103.81,103.81,0,0,1,14.25,19c2,3.34,4,6.68,5.91,10.06s3.85,6.75,5.72,10.16c3.74,6.82,7.41,13.68,10.76,20.74l-.43.26c-4.8-6.17-9.27-12.53-13.68-18.94s-8.67-12.92-12.81-19.46-8.16-13-13.16-18.59a53,53,0,0,0-8.21-7.5,37,37,0,0,0-9.8-5.21,39.39,39.39,0,0,0-22.51-.64c-7.47,1.9-14.17,5.84-20.65,9.85L148,164.09c-1.63,1-3.25,2.06-4.86,3.12s-3.24,2.09-4.85,3.15l-4.82,3.21-4.81,3.24c-3.2,2.18-6.4,4.38-9.66,6.53Z"/><path class="cls-5" d="M136,187.6a84.69,84.69,0,0,1,11.18-12.35,89.78,89.78,0,0,1,13.18-10.18c2.38-1.44,4.84-2.75,7.32-4s4.94-2.54,7.5-3.71a29.7,29.7,0,0,1,8.08-2.6,22.28,22.28,0,0,1,8.65.55,29.17,29.17,0,0,1,8,3.43,30.76,30.76,0,0,1,3.54,2.5c1.11.9,2.23,1.8,3.25,2.8a69.43,69.43,0,0,1,10.88,13c3.06,4.69,5.7,9.54,8.29,14.36s5.18,9.61,8,14.4l-.39.32a83.74,83.74,0,0,1-10.9-12.62l-2.41-3.37-2.34-3.39L213.1,180a107.13,107.13,0,0,0-9.78-12.63,55.89,55.89,0,0,0-5.76-5.36,30.11,30.11,0,0,0-6.59-4.13,15.9,15.9,0,0,0-7.58-1.45,18.62,18.62,0,0,0-7.55,2.35,49.32,49.32,0,0,0-6.73,4.6l-6.42,5.11c-2.14,1.69-4.31,3.31-6.51,4.91l-6.56,4.85c-2.18,1.63-4.37,3.27-6.59,4.88s-4.42,3.27-6.72,4.83Z"/><path class="cls-5" d="M141.18,192.13c1.51-1.37,3-2.62,4.51-3.9s3-2.55,4.45-3.83,3-2.53,4.52-3.77a51.52,51.52,0,0,1,4.78-3.53c3.36-2.18,7-3.91,10.54-5.9a16.9,16.9,0,0,1,12.2-2,20.17,20.17,0,0,1,6,2.23,27,27,0,0,1,5.07,3.86,81.36,81.36,0,0,1,8,9.05c2.37,3,4.82,6,7.37,8.94s5.22,5.81,7.9,8.82l-.29.4a50.24,50.24,0,0,1-10.32-6.36,62,62,0,0,1-8.79-8.42c-2.63-3.09-4.77-6.34-7.24-9.14a35.39,35.39,0,0,0-3.93-3.83,20.69,20.69,0,0,0-4.6-2.94,11.35,11.35,0,0,0-5.36-1.08,10.39,10.39,0,0,0-5.22,1.87c-3.23,2.17-5.91,5.17-8.82,7.81a54,54,0,0,1-4.6,3.75c-1.59,1.19-3.24,2.33-4.94,3.4a47.35,47.35,0,0,1-5.31,2.92,31.07,31.07,0,0,1-5.72,2.11Z"/><path class="cls-5" d="M153.72,199.86a21.87,21.87,0,0,1,5.1-4.6,26.07,26.07,0,0,1,2.94-1.7,13.8,13.8,0,0,1,3.21-1.19c2.27-.53,4.68-.43,6.91-.74s4.43-.78,6.77-1.17a17.89,17.89,0,0,1,7.11.14,24.35,24.35,0,0,1,6.67,2.27,29.6,29.6,0,0,1,5.64,4,28.85,28.85,0,0,1,4.6,5.12l-.28.41a47.92,47.92,0,0,1-6.41-2.18c-2-.82-4-1.67-5.88-2.51s-3.72-1.78-5.63-2.52-3.84-1.39-5.9-1.95a11.89,11.89,0,0,0-6.36,0c-2.09.58-3.89,2-5.73,3.05a20.53,20.53,0,0,1-2.88,1.36q-1.48.6-3,1.13a28.54,28.54,0,0,1-6.6,1.55Z"/><path class="cls-5" d="M223.07,141.44a54.4,54.4,0,0,1,4.14,4.41c1.32,1.51,2.55,3.07,3.75,4.66s2.36,3.2,3.47,4.84a53.05,53.05,0,0,1,3.12,5.07c1.89,3.51,3.37,7.27,5.4,10.68a74.43,74.43,0,0,0,6.94,9.68c1.26,1.55,2.56,3.07,3.77,4.65s2.38,3.19,3.54,4.8c2.31,3.23,4.64,6.43,6.73,9.83a76.22,76.22,0,0,1,5.56,10.77,38.74,38.74,0,0,1,3,11.85l-.48.13c-1.89-3.56-3.84-6.91-6-10.17s-4.36-6.44-6.56-9.71-4.2-6.72-6.2-10.15c-1-1.72-2-3.43-2.94-5.19s-1.8-3.56-2.7-5.34a74.43,74.43,0,0,0-6-10.29c-2.28-3.25-5.12-6.14-7.55-9.29a53.05,53.05,0,0,1-3.35-4.92q-1.57-2.53-3-5.14c-1-1.74-1.88-3.51-2.72-5.33a54.4,54.4,0,0,1-2.33-5.58Z"/><path class="cls-5" d="M245,146.52a47.89,47.89,0,0,1,2.93,4.75c.91,1.61,1.72,3.24,2.52,4.88s1.54,3.3,2.26,5a53,53,0,0,1,2,5.06c1.13,3.44,1.93,7.07,3.45,10.38a37.58,37.58,0,0,0,2.6,4.78,13.71,13.71,0,0,0,3.36,3.88,4.89,4.89,0,0,0,1.93.86c.29.08.48-.06.18-.05a.88.88,0,0,0-.39.18c-.07.05-.07,0-.06-.06s.08-.69.14-1.08.1-.83.13-1.26c.07-.84.11-1.7.14-2.57.09-3.46-.26-7.17.29-11.08a42.62,42.62,0,0,1,3.3-10.92c.75-1.71,1.54-3.36,2.42-5a15.15,15.15,0,0,1,1.57-2.49,6.27,6.27,0,0,1,2.33-1.87l.29.4a10.35,10.35,0,0,0-1.78,4.81c-.32,1.79-.71,3.6-1.08,5.36-.19.88-.36,1.76-.53,2.64s-.35,1.74-.5,2.6c-.28,1.73-.55,3.43-.71,5.12-.34,3.35-.41,7-.88,10.79-.13,1-.25,1.91-.47,2.88-.1.48-.22,1-.35,1.44a12.63,12.63,0,0,1-.52,1.58,4.28,4.28,0,0,1-.7,1.14,3.1,3.1,0,0,1-1.49,1,3.57,3.57,0,0,1-2.49-.31,8.07,8.07,0,0,1-2.65-2.07,23.82,23.82,0,0,1-2.94-5c-.82-1.65-1.67-3.27-2.58-4.87-1.8-3.2-4.08-6.2-5.84-9.46a39.13,39.13,0,0,1-2.26-5q-1-2.58-1.77-5.23c-.53-1.76-1-3.54-1.38-5.35a45.16,45.16,0,0,1-.9-5.51Z"/><path class="cls-5" d="M281.33,222a41.21,41.21,0,0,1-2.82-10.45c-.26-1.77-.45-3.55-.56-5.34a37.44,37.44,0,0,1,0-5.34c.26-3.56,1-7.09,1.14-10.66s.17-7.15.77-10.87a21.87,21.87,0,0,1,1.62-5.47,23.85,23.85,0,0,1,3-4.88,29.93,29.93,0,0,1,8.53-7.48,39.72,39.72,0,0,1,10.32-4A55.61,55.61,0,0,1,314,156l.14.48c-3.16,1.8-6.41,3.23-9.52,4.77a91.8,91.8,0,0,0-8.89,4.88,42.21,42.21,0,0,0-7.72,6,32,32,0,0,0-3.09,3.76,24.72,24.72,0,0,0-2.49,4.27,22.36,22.36,0,0,0-1.78,10.11c.14,3.5,1,7,1.42,10.54a48.24,48.24,0,0,1,.3,5.26c0,1.75,0,3.5,0,5.25-.06,3.51-.16,7-.57,10.63Z"/><path class="cls-5" d="M293.56,216.89a22.3,22.3,0,0,1-4.55-8.7,27.22,27.22,0,0,1-.91-4.89,18.58,18.58,0,0,1,.12-5,16.47,16.47,0,0,1,1.68-4.92,22.35,22.35,0,0,1,3-4.14c1.08-1.24,2.22-2.39,3.38-3.51s2.32-2.24,3.54-3.33a35.43,35.43,0,0,1,3.86-3.06,32,32,0,0,1,4.33-2.41,52.16,52.16,0,0,1,9.12-3.29c3.06-.77,6.07-1.38,9-2.07a67.16,67.16,0,0,0,8.87-2.71l.3.4a23.69,23.69,0,0,1-7.78,6,55.66,55.66,0,0,1-9,3.52c-3,.93-6,1.59-8.8,2.53-1.42.47-2.81,1-4.21,1.57s-2.83,1.11-4.22,1.79a18,18,0,0,0-7.18,5.56,9.68,9.68,0,0,0-1.62,4.06,21.93,21.93,0,0,0-.12,4.31l.15,4.41c.06,1.48.16,3,.29,4.46.27,3,.74,6,1.18,9.22Z"/></g></svg>