<svg id="Layer_1" data-name="Layer 1" xmlns="http://www.w3.org/2000/svg" xmlns:xlink="http://www.w3.org/1999/xlink" viewBox="0 0 350 350"><defs><style>.cls-1{fill:none;}.cls-2{clip-path:url(#clip-path);}.cls-3{fill:#ad5455;}.cls-4{fill:#f5dbd0;}.cls-5{fill:#b9847e;}.cls-6{fill:#d7cabc;}.cls-7{clip-path:url(#clip-path-2);}</style><clipPath id="clip-path"><path class="cls-1" d="M42.91,127.5s-20.52-2-11.83,8.37c5.68,6.75,11.07,13.63,16.44,20.5s8.94,11.64,19.1,14.46c12.51,3.48,25.5,4.91,38.33,5.67,10.29.61,21.83,1,30.57-2.84,9.27-4.11,18.17-9.14,29-11.09,5.41-1,11.32-1.09,16.88-1.74,6.17-.72,12.42-1.41,18.85-.89,4.39.35,8.8,1.27,13.14,1.17,8-.18,11.78-3.93,17.42-7.16,8.56-4.91,22.43-2.81,32.69-.16,4.45,1.15,8.68,3.83,13.12,2.16,3-1.12,4.1-3.6,6.39-5.24,2.67-1.9,13.56-2.39,13.56-2.39s10.83-3.43,3.72-15.15c-5.52-9.09-19.23-16.53-31.65-17.9-12.68-1.4-21,5.21-33.41,3.5-14.95-2-27.95-8.84-43.11-3.35s-21.33,10.11-27.56,8.6-23.29-7.65-34-1.51-29.81,8.39-35.14,7.31c-5.7-1.16-12.09-.88-17.81-1.09C66.26,128.32,54.26,128.93,42.91,127.5Z"/></clipPath><clipPath id="clip-path-2"><path class="cls-1" d="M54.21,161.54s-20.52-2-11.83,8.37c5.68,6.75,11.07,13.63,16.44,20.5s8.94,11.64,19.1,14.46c12.51,3.48,25.5,4.91,38.33,5.67,10.29.61,21.83,1,30.57-2.84,9.27-4.11,18.17-9.14,29-11.09,5.41-1,11.32-1.09,16.88-1.74,6.17-.72,12.42-1.41,18.85-.89,4.39.35,8.8,1.27,13.14,1.17,8-.18,11.78-3.93,17.42-7.16,8.56-4.91,22.43-2.81,32.69-.16,4.45,1.15,8.68,3.83,13.12,2.16,3-1.12,4.1-3.6,6.39-5.24,2.67-1.9,13.56-2.39,13.56-2.39s10.83-3.43,3.72-15.15c-5.52-9.09-19.23-16.53-31.65-17.9-12.68-1.4-21,5.21-33.41,3.5-14.95-2-27.95-8.84-43.11-3.35s-21.33,10.11-27.56,8.6-23.29-7.65-34-1.51-29.81,8.39-35.14,7.31c-5.7-1.16-12.09-.88-17.81-1.09C77.55,162.36,65.55,163,54.21,161.54Z"/></clipPath></defs><title>HamSerrano</title><g class="cls-2"><path class="cls-3" d="M43.24,127.32s-20.52-2-11.83,8.37c5.68,6.75,11.07,13.63,16.44,20.5s8.94,11.64,19.1,14.46c12.51,3.48,25.5,4.91,38.33,5.67,10.29.61,21.83,1,30.57-2.84,9.27-4.11,18.17-9.14,29-11.09,5.41-1,11.32-1.09,16.88-1.74,6.17-.72,12.42-1.41,18.85-.89,4.39.35,8.8,1.27,13.14,1.17,8-.18,11.78-3.93,17.42-7.16,8.56-4.91,22.43-2.81,32.69-.16,4.45,1.15,8.68,3.83,13.12,2.16,3-1.12,4.1-3.6,6.39-5.24,2.67-1.9,13.56-2.39,13.56-2.39s10.83-3.43,3.72-15.15c-5.52-9.09-19.23-16.53-31.65-17.9-12.68-1.4-21,5.21-33.41,3.5-14.95-2-27.95-8.84-43.11-3.35s-21.33,10.11-27.56,8.6-23.29-7.65-34-1.51-29.81,8.39-35.14,7.31c-5.7-1.16-12.09-.88-17.81-1.09C66.58,128.14,54.59,128.75,43.24,127.32Z"/><path class="cls-4" d="M38.81,154s18.28,3.46,23.35,3.53,10.33.89,10.52-6.77,20.34-5,20.34-5,9,2.31,19.64-6.61c0,0,3.39,8.39-8.06,9.68s-22.8.43-23.69,4.83c0,0,7.53,4.65,27.45-3.34a85.66,85.66,0,0,0,20.44-13.91c10.39-9.45,7.7-14.56,18.53-12.85,0,0-9.12,1.52-.71,8.52,0,0,3.11,3,8.61,1,0,0,8.65,5.84,15.44,5.78,0,0,4.7-1.45,11.22-3.5,0,0,4.09-.13,7.62,4.19,0,0,5.49,3,7.92-7.3,0,0-4.87-9.41,18.81-9.18,0,0,3.86-.66,25.81,6.43,0,0,5.68.43,5.45-6.84,0,0,2.8-3.76,11.3,4.46,0,0,4.32,5.45,17,3,0,0,8.33-2.64,18.56,3.76,0,0,12.65,6.17,13.44,5.61s-2.61,6.21-2.61,6.21-21.28,9.65-21.42,10.34-79.62,9.86-86.13,10.22-45.92,2.49-62.67,3.18-2.88-2.51-38.48,2.55-44.11,1.89-44.11,1.89L36.85,153.65Z"/><path class="cls-5" d="M67.66,166s42.5,4.7,53,.21,9-11.39,13.17-14.94S154.68,144,160,145.1s15.12,2.57,18.42,2,11.77-5.2,21.66-5.4,27.39.66,36-5.92,10.86-9.3,29.84-7.16A272.67,272.67,0,0,1,300.78,135l2.35,22.74-85.28,17.7s-75.57,6.95-77.1,7.37S88.5,186.15,86,185.64s-28.16-4-28.38-5.75S67.66,166,67.66,166Z"/><path class="cls-6" d="M80.2,171.35S127,176.7,142,169s13.59-14,19.29-14.78,17.58.54,22.33-.7,13.15-5,29.4-4.76,19.56,6.16,37.89-10.73c1.56.87,1.07-5.28,37.6,2.67,0,0,6.26-.1,14.86.26s9.34,3.54,9.34,3.54l-32.37,38.23-104,15.46s-86.83-11.27-88.56-13S80.2,171.35,80.2,171.35Z"/><path class="cls-6" d="M32.94,145.78s7.18-6.86,10.63-8.12,4.15-3.32,21.6-2.23,23,1,30.29-3.65c0,0-1.25,9-29.14,6.57s-30.6,9.46-30.6,9.46Z"/></g><g class="cls-7"><path class="cls-3" d="M54.53,161.36s-20.52-2-11.83,8.37c5.68,6.75,11.07,13.63,16.44,20.5s8.94,11.64,19.1,14.46c12.51,3.48,25.5,4.91,38.33,5.67,10.29.61,21.83,1,30.57-2.84,9.27-4.11,18.17-9.14,29-11.09,5.41-1,11.32-1.09,16.88-1.74,6.17-.72,12.42-1.41,18.85-.89,4.39.35,8.8,1.27,13.14,1.17,8-.18,11.78-3.93,17.42-7.16,8.56-4.91,22.43-2.81,32.69-.16,4.45,1.15,8.68,3.83,13.12,2.16,3-1.12,4.1-3.6,6.39-5.24,2.67-1.9,13.56-2.39,13.56-2.39S319,178.75,311.9,167c-5.52-9.09-19.23-16.53-31.65-17.9-12.68-1.4-21,5.21-33.41,3.5-14.95-2-27.95-8.84-43.11-3.35s-21.33,10.11-27.56,8.6-23.29-7.65-34-1.51-29.81,8.39-35.14,7.31c-5.7-1.16-12.09-.88-17.81-1.09C77.88,162.18,65.88,162.79,54.53,161.36Z"/><path class="cls-4" d="M50.1,188.09s18.28,3.46,23.35,3.53,10.33.89,10.52-6.77,20.34-5,20.34-5,9,2.31,19.64-6.61c0,0,3.39,8.39-8.06,9.68s-22.8.43-23.69,4.83c0,0,7.53,4.65,27.45-3.34a85.66,85.66,0,0,0,20.44-13.91c10.39-9.45,7.7-14.56,18.53-12.85,0,0-9.12,1.52-.71,8.52,0,0,3.11,3,8.61,1,0,0,8.65,5.84,15.44,5.78,0,0,4.7-1.45,11.22-3.5,0,0,4.09-.13,7.62,4.19,0,0,5.49,3,7.92-7.3,0,0-4.87-9.41,18.81-9.18,0,0,3.86-.66,25.81,6.43,0,0,5.68.43,5.45-6.84,0,0,2.8-3.76,11.3,4.46,0,0,4.32,5.45,17,3,0,0,8.33-2.64,18.56,3.76,0,0,12.65,6.17,13.44,5.61s-2.61,6.21-2.61,6.21-21.28,9.65-21.42,10.34-79.62,9.86-86.13,10.22-45.92,2.49-62.67,3.18S143.41,201,107.81,206s-44.11,1.89-44.11,1.89L48.14,187.69Z"/><path class="cls-5" d="M79,200.07s42.5,4.7,53,.21,9-11.39,13.17-14.94,20.88-7.27,26.17-6.19,15.12,2.57,18.42,2,11.77-5.2,21.66-5.4,27.39.66,36-5.92,10.86-9.3,29.84-7.16A272.67,272.67,0,0,1,312.07,169l2.35,22.74-85.28,17.7s-75.57,6.95-77.1,7.37-52.25,3.36-54.75,2.85-28.16-4-28.38-5.75S79,200.07,79,200.07Z"/><path class="cls-6" d="M91.49,205.39s46.77,5.35,61.84-2.31,13.59-14,19.29-14.78,17.58.54,22.33-.7,13.15-5,29.4-4.76,19.56,6.16,37.89-10.73c1.56.87,1.07-5.28,37.6,2.67,0,0,6.26-.1,14.86.26s9.34,3.54,9.34,3.54l-32.37,38.23-104,15.46s-86.83-11.27-88.56-13S91.49,205.39,91.49,205.39Z"/><path class="cls-6" d="M44.23,179.82s7.18-6.86,10.63-8.12,4.15-3.32,21.6-2.23,23,1,30.29-3.65c0,0-1.25,9-29.14,6.57S47,181.85,47,181.85Z"/></g></svg>