<svg id="Layer_1" data-name="Layer 1" xmlns="http://www.w3.org/2000/svg" viewBox="0 0 350 350"><defs><style>.cls-1{fill:#f6e1c1;}.cls-2{fill:#ecd2ce;}.cls-3{fill:#723a3a;}.cls-4{fill:none;stroke:#723a3a;stroke-miterlimit:10;stroke-width:9px;}</style></defs><title>TurkeyBreastFull</title><path class="cls-1" d="M115.27,198.24l113.27-68.08s91,25.24,97.43,41.67-15.26,21.72-15.26,21.72l-108,62.8-90.38-45.19S106.47,203.52,115.27,198.24Z"/><path class="cls-2" d="M212.2,235.75a79.34,79.34,0,0,1,12-10q3.17-2.21,6.46-4.2a55.42,55.42,0,0,1,6.79-3.62c4.71-2.1,9.8-3.51,14.37-5.85a76.07,76.07,0,0,0,12.91-8.41c2-1.59,4.07-3.2,6.17-4.71s4.25-2.9,6.4-4.3c4.3-2.81,8.59-5.63,13.11-8.06s9.15-4.64,13.9-6.66c2.38-1,4.77-2,7.23-2.85s4.92-1.72,7.49-2.39l.4.69c-1.88,1.88-3.85,3.59-5.86,5.24s-4,3.25-6.12,4.78q-6.23,4.6-12.8,8.59c-4.39,2.66-9,4.93-13.6,7.2-2.3,1.14-4.59,2.3-7,3.33s-4.78,2-7.19,2.92a76.07,76.07,0,0,0-13.8,6.85c-4.33,2.75-8.14,6.42-12.34,9.41a55.42,55.42,0,0,1-6.57,4q-3.38,1.83-6.9,3.43a79.34,79.34,0,0,1-14.7,5.27Z"/><path class="cls-3" d="M112.63,211.44c-.12,0,0,0,.06.05l.18.08.36.16.73.3,1.47.6,3,1.18,5.89,2.38c3.94,1.56,7.82,3.23,11.73,4.84q11.71,4.88,23.29,10t23.08,10.45q11.49,5.32,22.9,10.82l-4.39.26.44-.33.54-.45a12.63,12.63,0,0,0,1-1,7.76,7.76,0,0,0,1.35-1.95,3.07,3.07,0,0,0,.33-1.46A3,3,0,0,0,204,246a13,13,0,0,0-4.1-3.63,40.76,40.76,0,0,0-6.06-3.06c-2.17-.9-4.42-1.69-6.74-2.45l-7.22-2.44c-4.78-1.7-9.53-3.46-14.24-5.33-9.42-3.71-18.68-7.76-27.82-12s-18.18-8.79-27-13.81c9.65,3,19.16,6.32,28.71,9.45s19.05,6.35,28.57,9.43c4.76,1.53,9.53,3,14.3,4.48l7.16,2.12c2.49.7,5,1.53,7.51,2.5a49.37,49.37,0,0,1,7.47,3.58,27.46,27.46,0,0,1,3.64,2.62,17.36,17.36,0,0,1,3.35,3.78,12,12,0,0,1,1.92,5.62,11.76,11.76,0,0,1-1.13,5.85,16.65,16.65,0,0,1-2.91,4.24,21.58,21.58,0,0,1-1.71,1.65c-.3.26-.6.51-.92.75l-.49.37c-.19.13-.3.22-.59.41l-2.11,1.39-2.28-1.12q-11.36-5.6-22.62-11.41T156.32,237.1q-11.15-6-22.15-12.38c-3.65-2.15-7.33-4.23-10.94-6.46-1.81-1.11-3.62-2.2-5.42-3.33l-2.68-1.72-1.33-.87-.66-.45-.32-.23-.16-.12-.08-.07s0,0,0,0Z"/><path class="cls-4" d="M39.73,147.17l105.35-63s81.46,28.16,86.66,44.58-14.69,20.84-14.69,20.84l-100.35,58-80.14-47.8S31.54,152.05,39.73,147.17Z"/><path class="cls-1" d="M30.17,150.11,143.44,82s91,25.24,97.43,41.67-15.26,21.72-15.26,21.72l-108,62.8L27.23,163S21.36,155.39,30.17,150.11Z"/><path class="cls-2" d="M124.17,188.21a79.34,79.34,0,0,1,12-10q3.17-2.21,6.46-4.2a55.42,55.42,0,0,1,6.79-3.62c4.71-2.1,9.8-3.51,14.37-5.85a76.07,76.07,0,0,0,12.91-8.41c2-1.59,4.07-3.2,6.17-4.71s4.25-2.9,6.4-4.3c4.3-2.81,8.59-5.63,13.11-8.06s9.15-4.64,13.9-6.66c2.38-1,4.77-2,7.23-2.85s4.92-1.72,7.49-2.39l.4.69c-1.88,1.88-3.85,3.59-5.86,5.24s-4,3.25-6.12,4.78q-6.23,4.6-12.8,8.59c-4.39,2.66-9,4.93-13.6,7.2-2.3,1.14-4.59,2.3-7,3.33s-4.78,2-7.19,2.92a76.07,76.07,0,0,0-13.8,6.85c-4.33,2.75-8.14,6.42-12.34,9.41a55.42,55.42,0,0,1-6.57,4q-3.38,1.83-6.9,3.43a79.34,79.34,0,0,1-14.7,5.27Z"/><path class="cls-3" d="M24.59,163.9c-.12,0,0,0,.06.05l.18.08.36.16.73.3,1.47.6,3,1.18,5.89,2.38c3.94,1.56,7.82,3.23,11.73,4.84q11.71,4.88,23.29,10T94.33,194q11.49,5.32,22.9,10.82l-4.39.26.44-.33.54-.45a12.64,12.64,0,0,0,1-1,7.76,7.76,0,0,0,1.35-1.95,3.07,3.07,0,0,0,.33-1.46,3,3,0,0,0-.52-1.44,13,13,0,0,0-4.1-3.63,40.76,40.76,0,0,0-6.06-3.06c-2.17-.9-4.42-1.69-6.74-2.45l-7.22-2.44c-4.78-1.7-9.53-3.46-14.24-5.33-9.42-3.71-18.68-7.76-27.82-12s-18.18-8.79-27-13.81c9.65,3,19.16,6.32,28.71,9.45s19.05,6.35,28.57,9.43c4.76,1.53,9.53,3,14.3,4.48l7.16,2.12c2.49.7,5,1.53,7.51,2.5a49.37,49.37,0,0,1,7.47,3.58,27.46,27.46,0,0,1,3.64,2.62,17.36,17.36,0,0,1,3.35,3.78,12,12,0,0,1,1.92,5.62,11.76,11.76,0,0,1-1.13,5.85,16.65,16.65,0,0,1-2.91,4.24,21.58,21.58,0,0,1-1.71,1.65c-.3.26-.6.51-.92.75l-.49.37c-.19.13-.3.22-.59.41l-2.11,1.39-2.28-1.12q-11.36-5.6-22.62-11.41T68.28,189.56q-11.15-6-22.15-12.38C42.49,175,38.8,173,35.2,170.72c-1.81-1.11-3.62-2.2-5.42-3.33l-2.68-1.72-1.33-.87-.66-.45-.32-.23-.16-.12-.08-.07s0,0,0,0Z"/></svg>