<svg id="Layer_1" data-name="Layer 1" xmlns="http://www.w3.org/2000/svg" viewBox="0 0 350 350"><defs><style>.cls-1{fill:#e1a837;}.cls-2{fill:#e7be4e;}.cls-3{fill:#f5e5bb;}</style></defs><title>American</title><path class="cls-1" d="M171,80.5c-5.39-1.84-10.83,2-15.33,5.72l-33.09,27c-6.38,5.22-12.83,10.47-20.05,14.14-4.09,2.08-8.41,3.63-12.37,6-6.51,3.9-11.77,9.83-17.49,15a97.49,97.49,0,0,1-23.77,15.88c-2.69,1.26-5.46,2.42-7.76,4.4a91.85,91.85,0,0,1-17.85,12.56c-3.23,3.47-2.45,10,8.69,16.2A58.82,58.82,0,0,0,42.6,202c46.54,14.89,85.22,50.53,129,73.59,2.44,1.28,5,2.56,7.7,2.42s5.27-1.75,7.63-3.34c43.1-29,83-63.61,127.28-90.32,4.31-2.6,9.26-6.19,9.17-11.63-.1-6-6.2-9.45-11.33-11.62-37.3-15.78-72.25-37.6-107-59.34L187,90.53,167.42,78.3"/><path class="cls-2" d="M166.38,74.15c-5.39-1.84-10.83,2-15.33,5.72l-33.09,27c-6.38,5.22-12.83,10.47-20.05,14.14-4.09,2.08-8.41,3.63-12.37,6-6.51,3.9-11.77,9.83-17.49,15a97.49,97.49,0,0,1-23.77,15.88c-2.69,1.26-5.46,2.42-7.76,4.4-5.88,5.06-6.5,15.37-13.24,18.91-.24,4.19.9,7.52,4.09,9.85s7,3.41,10.62,4.58c46.54,14.89,85.22,50.53,129,73.59,2.44,1.28,5,2.56,7.7,2.42s5.27-1.75,7.63-3.34c43.1-29,84.58-62.26,128.87-89,4.31-2.6,12.1-1.32,12-6.77-.1-6-10.63-15.66-15.76-17.83-37.3-15.78-72.25-37.6-107-59.34l-18-11.25L162.81,72"/><path class="cls-3" d="M39.73,193.61a9.41,9.41,0,0,1,5.86-.22A21.15,21.15,0,0,1,51,195.76c1.67,1,3.22,2.06,4.74,3.06s3,1.9,4.62,2.75c3.18,1.73,6.55,3.36,9.81,5.38a26.6,26.6,0,0,1,8.5,7.73,68,68,0,0,0-9.95-4.94,110.87,110.87,0,0,1-10.28-4.66,37.16,37.16,0,0,1-4.9-3.18c-1.53-1.18-2.93-2.4-4.33-3.56C46.42,196,43.61,193.85,39.73,193.61Z"/><path class="cls-3" d="M83.25,217.69a4.36,4.36,0,0,1,2.54-.92,4.94,4.94,0,0,1,2.31.49,4.88,4.88,0,0,1,1.82,1.5,4.4,4.4,0,0,1,.87,2.56,7.76,7.76,0,0,1-2.56.09,6.09,6.09,0,0,1-1.87-.55,6.27,6.27,0,0,1-1.59-1.12A8.15,8.15,0,0,1,83.25,217.69Z"/><path class="cls-3" d="M99.19,224.46c2.88,1.57,5.54,3.29,8.2,5l7.89,5.05,7.92,5c2.66,1.67,5.35,3.31,8,5.19a35.82,35.82,0,0,1-9.45-2.38,50,50,0,0,1-8.66-4.42,52.12,52.12,0,0,1-7.67-6A39,39,0,0,1,99.19,224.46Z"/></svg>