<svg id="Layer_1" data-name="Layer 1" xmlns="http://www.w3.org/2000/svg" viewBox="0 0 350 350"><defs><style>.cls-1{fill:#e5dbd1;}.cls-2{fill:#f8f2e5;}.cls-3{fill:#fff;}</style></defs><title>CreamChesse</title><path class="cls-1" d="M127.95,136.82c-10.88,2.4-23.73-3.64-32.69,3-2.5,1.85-4.28,4.47-6.19,6.93-7.62,9.85-17.58,17.57-27.43,25.18A18.49,18.49,0,0,1,56,175.31c-2.3.71-4.77.49-7.15.78-5.56.67-10.41,4-14.79,7.49-6.22,5-12.23,10.75-14.91,18.25a26.22,26.22,0,0,0,9.41,29.48c8.32,5.8,19.23,6.13,29.32,5.15s20.29-3,30.28-1.26c13,2.32,24,10.88,36.66,14.73a53.53,53.53,0,0,0,48.71-9.64c7.22-5.93,13-13.85,21.29-18.09,11.7-6,26.38-3.55,38-9.73,10.15-5.41,16.2-16.49,26.1-22.34,6.29-3.72,13.67-5,20.41-7.87A49.66,49.66,0,0,0,304,159.41c3.46-6.72,5.21-15.22,1.17-21.61-4.49-7.1-14.05-8.7-22.45-8.91s-17.59,0-24.17-5.18c-4.34-3.45-6.83-8.82-11.21-12.22s-10.35-4.46-16-4.76a84.87,84.87,0,0,0-49.74,13c-7.8,5-14.9,11.25-23.54,14.53-5.67,2.15-11.77,2.9-17.79,3.62s-6.44-1.67-12.32-1"/><path class="cls-2" d="M129.26,128.08c-10.88,2.4-23.73-3.64-32.69,3-2.5,1.85-4.28,4.47-6.19,6.93-7.62,9.85-17.58,17.57-27.43,25.18a18.49,18.49,0,0,1-5.65,3.37c-2.3.71-4.77.49-7.15.78-5.56.67-10.41,4-14.79,7.49-6.22,5-12.23,10.75-14.91,18.25a26.22,26.22,0,0,0,9.41,29.48c8.32,5.8,19.23,6.13,29.32,5.15s20.29-3,30.28-1.26c13,2.32,24,10.88,36.66,14.73a53.53,53.53,0,0,0,48.71-9.64c7.22-5.93,13-13.85,21.29-18.09,11.7-6,26.38-3.55,38-9.73,10.15-5.41,16.2-16.49,26.1-22.34,6.29-3.72,13.67-5,20.41-7.87a49.66,49.66,0,0,0,24.73-22.84c3.46-6.72,5.21-15.22,1.17-21.61-4.49-7.1-14.05-8.7-22.45-8.91s-17.59,0-24.17-5.18c-4.34-3.45-6.83-8.82-11.21-12.22s-10.35-4.46-16-4.76a84.87,84.87,0,0,0-49.74,13c-7.8,5-14.9,11.25-23.54,14.53-5.67,2.15-11.77,2.9-17.79,3.62s-6.44-1.67-12.32-1"/><path class="cls-3" d="M27.4,207.3a7.68,7.68,0,0,0,2.85,1.83,13.28,13.28,0,0,0,3.17.64,54.33,54.33,0,0,0,6.73,0c4.63-.17,9.22-.35,13.8-.57,2.29-.09,4.56-.26,7-.31a31.27,31.27,0,0,1,7.53.65A18.87,18.87,0,0,1,80.57,218a27.71,27.71,0,0,0-12.74-3.81,47.25,47.25,0,0,0-6.53.36l-3.47.37c-1.19.1-2.39.19-3.59.25a73.12,73.12,0,0,1-14.36-.73,30,30,0,0,1-7.22-1.82,11.52,11.52,0,0,1-3.3-2.08A6.55,6.55,0,0,1,27.4,207.3Z"/><path class="cls-3" d="M92.15,217a21.4,21.4,0,0,1,9.23.35,73.06,73.06,0,0,1,8.33,2.58c2.61.93,5.14,1.83,7.74,2.55a38.69,38.69,0,0,0,8.4,1.46,13.6,13.6,0,0,1-8.9,3.23,25.23,25.23,0,0,1-9.27-1.6,49.88,49.88,0,0,1-8-3.84C97.17,220.24,94.79,218.73,92.15,217Z"/><path class="cls-3" d="M154.17,219.93a40.21,40.21,0,0,0,12-4,100.56,100.56,0,0,0,10.68-6.44A121.24,121.24,0,0,1,188,202.54a31.91,31.91,0,0,1,12.9-4c-3.71,2.6-7,5.23-10.31,8s-6.67,5.48-10.39,8a42.38,42.38,0,0,1-12.37,5.86C163.37,221.52,158.39,221.73,154.17,219.93Z"/><path class="cls-3" d="M119.32,158.38a5,5,0,0,0,1.93,2.71,12.71,12.71,0,0,0,2.94,1.64,33.73,33.73,0,0,0,6.43,2.19,55,55,0,0,0,13.39,1.4c9,0,18.13-1.7,27.68-2.23,2.38-.12,4.79-.18,7.21-.12a64.3,64.3,0,0,1,7.3.64,50.45,50.45,0,0,1,14,4.37c4.33,2,8.39,4.18,12.6,5.93a38.81,38.81,0,0,0,6.46,2.16,29.57,29.57,0,0,0,6.87.76,23,23,0,0,1-7.08.89,35.77,35.77,0,0,1-7.15-1c-4.69-1.11-9.11-2.88-13.45-4.35a55.14,55.14,0,0,0-12.95-3.11,82.31,82.31,0,0,0-13.44-.17c-4.56.23-9.18.69-13.88,1a95.35,95.35,0,0,1-14.33,0,47.23,47.23,0,0,1-14.12-3.32,31.77,31.77,0,0,1-6.33-3.53,13.56,13.56,0,0,1-2.74-2.43A5.18,5.18,0,0,1,119.32,158.38Z"/><path class="cls-3" d="M218,150c6.41-.4,12.67-.49,18.9-.79s12.42-.58,18.6-1.05,12.35-1.05,18.54-1.71c3.1-.32,6.28-.71,9.52-.79a31.39,31.39,0,0,1,9.63,1c-6.38.72-12.09,2.81-18.31,4.39a111.92,111.92,0,0,1-38.13,2.82A84.89,84.89,0,0,1,218,150Z"/></svg>