<svg id="Layer_1" data-name="Layer 1" xmlns="http://www.w3.org/2000/svg" viewBox="0 0 350 350"><defs><style>.cls-1{fill:#e5dbd1;}.cls-2{fill:#f4e8e0;}.cls-3{fill:#fff;}</style></defs><title>Mozzarella</title><path class="cls-1" d="M267.68,97.16c-66.47-14.33-143.09-8-190.79,43.65-13.63,14.76-29.49,18.54-34.52,38.69-11,44,32.76,70,58.53,79.23s53.93,5.92,80.59.26c29.64-6.28,59.42-15.64,84-34.49s43.37-48.61,43.89-81c.35-21.38-11.52-46.08-31.45-47.08-9.65-.49-21.05,4.2-27.94-3.06"/><path class="cls-2" d="M261.87,91.83A310.21,310.21,0,0,0,189,85.71a231.89,231.89,0,0,0-35.78,4.08c-29.4,5.78-57.85,18.15-80.28,38C54.52,144.11,39.88,167.63,43,192c2.79,22,19.82,40.28,39.94,49.55,28.56,13.15,61.81,10.4,92.63,4.16,25.83-5.23,51.52-12.86,74.06-26.51s41.84-33.84,50.65-58.67c5.29-14.9,6.55-31.84.12-46.28a42.1,42.1,0,0,0-18.93-20.11,34.39,34.39,0,0,0-13.31-3.81c-2.21-.15-30.54-3.11-32.56-2.37-2.23.82,22.08,4.14,19.71,4.13-4.17,0,16.32,7.44,13.25,4.42"/><path class="cls-3" d="M93,160a1.5,1.5,0,0,0,0-3,1.5,1.5,0,0,0,0,3Z"/><path class="cls-3" d="M192.74,105.19c-25.1-1.15-50.15,6.65-72.66,19.83-18,10.55-35.74,26.47-40.72,49.48,4.87-2.26,8.55-7,12.32-11.25,27.92-31.78,67.09-45.58,105.36-52.87-1-3.69-4.3-6.31-7.58-6"/></svg>