<svg id="Layer_1" data-name="Layer 1" xmlns="http://www.w3.org/2000/svg" viewBox="0 0 350 350"><defs><style>.cls-1{fill:#e2c540;}.cls-2{fill:#f2d562;}</style></defs><title>SwissFull</title><ellipse class="cls-1" cx="142.41" cy="181.65" rx="5.26" ry="4.8" transform="translate(-42.47 43.46) rotate(-15.13)"/><path class="cls-1" d="M225.41,176.37a8.38,8.38,0,0,1-7.89.5,11.39,11.39,0,0,1-5-5.24c-1-1.86-.91-5.6-1.57-6.8l-11.41-5.49c-4.63-2.23-12.9-8.48-17-5.89a23.22,23.22,0,0,1-16,3.27,5.23,5.23,0,0,1-2.14-.69,7.27,7.27,0,0,1-1.55-1.47c-1.92-2.28-4.29-6.07-4.85-9.4-.18-1.07-.93-10.35.56-9.71-6.24-2.64-11.7-1.71-17.95-4.35-3.09-1.31-6.71-3.6-9.83-4.15-6.6-1.17-11.41,4.93-17.83,4.34a7.77,7.77,0,0,1-4.55-1.74,15.94,15.94,0,0,1-3.18-4.45c-1.66-3-3.21-7.14-1.53-10-3.69-1.69-9.16-5.91-12.81-6-2.56,2.23-4.49,6.91-6.43,10-3.11,5-6.22,9.93-9.26,15a9.39,9.39,0,0,1,2.68,1.67,5.34,5.34,0,0,1,1.63,3.28,5.16,5.16,0,0,1-1.31,3.59c-5.38,7-12.35,9.11-19.89,10.89l-31,44.83,13.87,8.28c2.71,1.62,5.6,3.84,8.38,5,4.34,1.81,8.81-2.4,13.09-3.36,2.25-.51,4.67-.77,7,.51,2.58,1.41,4.64,4.47,6.5,7.45a24.23,24.23,0,0,1,2.57,5,8.55,8.55,0,0,1,.25,5.44c.6-1.59,32.87,15.82,35.69,17.18,7.75,3.74,15.49,7.5,23.25,11.2.74.35,3.1-3,3.61-3.4,2-1.64,4.35-2.85,7-1.89,3.31,1.2,5.91,5.31,8.15,9.17a8.41,8.41,0,0,1,1.12,2.59c.18.94,0,2-.68,2.21.9-.31,3.78,2,4.85,2.49,2,1,5.55,3.27,7.55,2.94s4.26-3.32,6.19-4.29c5.12-2.57,11.87-4.11,17.79-.87,1,.55,9.51-6.3,9.34-11.22-.17-4.71-4.09-11-1.74-15a7.57,7.57,0,0,1,2.71-2.49A32.48,32.48,0,0,1,215,231c1.57-.29,3.36-.06,4.63-.92,2.54-1.72,4.59-5.93,6.6-8.61q4.12-5.5,8.07-11.24Q242,199,248.93,187C241.32,181.72,233.3,174.23,225.41,176.37ZM63.11,191.91c-5.11,1.38-10.13-.76-11.22-4.78s2.17-8.4,7.28-9.78,10.13.76,11.22,4.78S68.21,190.52,63.11,191.91ZM99,187.69c-4.48,1.21-8.94-.9-10-4.71s1.77-7.88,6.24-9.09,8.94.9,10,4.71S103.48,186.48,99,187.69Zm32.58,35.93c-6.33,1.71-12.65-1.27-14.1-6.65s2.5-11.14,8.83-12.85,12.65,1.27,14.1,6.65S137.91,221.91,131.58,223.62Zm12-37.31c-2.47.67-4.94-.5-5.51-2.6s1-4.35,3.45-5,4.94.5,5.51,2.6S146,185.64,143.54,186.31Zm-2.69-25.88c-4.5,1.22-8.91-.6-9.85-4.07s2-7.26,6.46-8.48,8.91.6,9.85,4.07S145.36,159.22,140.85,160.43Zm49.2,69a9.85,9.85,0,1,1,7.15-12.13A10,10,0,0,1,190,229.43Zm-12.73-44.28c-7.16,1.94-14.16-.9-15.63-6.33s3.15-11.41,10.31-13.35,14.16.9,15.63,6.33S184.48,183.21,177.32,185.15ZM228.41,202c-3.42.92-6.82-.66-7.6-3.54s1.36-6,4.78-6.89,6.82.66,7.6,3.54S231.83,201,228.41,202Z"/><path class="cls-2" d="M226,172.08a8.38,8.38,0,0,1-7.89.5,11.39,11.39,0,0,1-5-5.24c-1-1.86-.91-5.6-1.57-6.8L200.11,155c-4.63-2.23-12.9-8.48-17-5.89a23.22,23.22,0,0,1-16,3.27,5.23,5.23,0,0,1-2.14-.69,7.27,7.27,0,0,1-1.55-1.47c-1.92-2.28-4.29-6.07-4.85-9.4-.18-1.07-.15-6.78,1.35-6.15l-18.73-7.92c-3.09-1.31-6.71-3.6-9.83-4.15-6.6-1.17-11.41,4.93-17.83,4.34a7.77,7.77,0,0,1-4.55-1.74,15.94,15.94,0,0,1-3.18-4.45c-1.66-3-3.21-7.14-1.53-10-3.69-1.69-9.16-5.91-12.81-6-2.56,2.23-4.49,6.91-6.43,10-3.11,5-6.79,14.17-9.83,19.23.92.43,3.5-1.67,3.84-.42.1.39.38.26.48,1.53a3.94,3.94,0,0,1-.76,3.18c-5.38,7-12.35,9.11-19.89,10.89L29.37,195.33c4.62,2.76,7.75,4.26,12.38,7,2.71,1.62,5.6,3.84,8.38,5,4.34,1.81,8.81-2.4,13.09-3.36,2.25-.51,4.67-.77,7,.51,2.58,1.41,4.64,4.47,6.5,7.45a24.23,24.23,0,0,1,2.57,5,8.55,8.55,0,0,1,.25,5.44c.6-1.59,32.87,15.82,35.69,17.18,7.75,3.74,15.49,7.5,23.25,11.2.74.35,3.1-3,3.61-3.4,2-1.64,4.35-2.85,7-1.89,3.31,1.2,5.91,5.31,8.15,9.17a8.41,8.41,0,0,1,1.12,2.59c.18.94,0,2-.68,2.21.9-.31,3.78,2,4.85,2.49,2,1,5.55,3.27,7.55,2.94s4.26-3.32,6.19-4.29c5.12-2.57,11.87-4.11,17.79-.87,1,.55,9.51-6.3,9.34-11.22-.17-4.71-4.09-11-1.74-15a7.57,7.57,0,0,1,2.71-2.49,32.48,32.48,0,0,1,11.18-4.37c1.57-.29,3.36-.06,4.63-.92,2.54-1.72,4.59-5.93,6.6-8.61q4.12-5.5,8.07-11.24c5.12-7.45,9.43-10.86,14.07-18.9C241.31,181.77,233.87,169.94,226,172.08ZM63,191.92c-5.26,1.42-10.57-1.31-11.86-6.11s1.91-9.83,7.17-11.26,10.57,1.31,11.86,6.11S68.29,190.5,63,191.92Zm36.13-4.59c-4.68,1.26-9.4-1.17-10.55-5.44s1.7-8.75,6.38-10,9.4,1.17,10.55,5.44S103.85,186.07,99.17,187.33Zm31.42,35.61c-6.71,1.81-13.49-1.68-15.15-7.8s2.44-12.56,9.16-14.37,13.49,1.68,15.15,7.8S137.3,221.13,130.59,222.94Zm10-62.13c-4.68,1.26-9.4-1.17-10.55-5.44s1.7-8.75,6.38-10,9.4,1.17,10.55,5.44S145.3,159.54,140.62,160.81Zm48.87,65.05c-5.53,1.49-11.12-1.38-12.48-6.43s2-10.35,7.54-11.84S195.66,209,197,214,195,224.37,189.49,225.86Zm-12.15-40.3c-7.21,1.95-14.5-1.8-16.28-8.38s2.63-13.49,9.84-15.44,14.5,1.8,16.28,8.38S184.54,183.61,177.33,185.56Zm50.55,15.94a6,6,0,1,1,4.74-7.44A6.25,6.25,0,0,1,227.89,201.5Z"/><ellipse class="cls-1" cx="231.37" cy="134.82" rx="3.88" ry="4.63" transform="translate(-19.79 41.95) rotate(-9.94)"/><path class="cls-1" d="M293.22,140.17a5.09,5.09,0,0,1-5.88-.51,12.22,12.22,0,0,1-3.56-5.6c-.66-1.89-.52-5.42-1-6.65l-8.32-6.63c-3.38-2.69-9.34-9.66-12.48-7.72a13.41,13.41,0,0,1-12,1.11,3.92,3.92,0,0,1-1.57-.93,7.64,7.64,0,0,1-1.11-1.59,27.34,27.34,0,0,1-3.33-9.52c-.1-1-.4-9.93.7-9.15-4.57-3.28-8.65-3.09-13.22-6.37-2.26-1.63-4.88-4.26-7.19-5.17-4.87-1.93-8.62,3.25-13.38,1.89a6.07,6.07,0,0,1-3.33-2.22,18.5,18.5,0,0,1-2.24-4.62c-1.15-3.09-2.18-7.18-.85-9.64-2.7-2.07-6.64-6.75-9.35-7.3-2,1.8-3.54,6-5.07,8.7-2.45,4.33-4.91,8.64-7.31,13.06a8.55,8.55,0,0,1,1.95,1.92,6.49,6.49,0,0,1,1.12,3.31,5.14,5.14,0,0,1-1.08,3.24c-4.2,6-9.44,7.1-15.1,7.85l-24.36,38.66,10.07,9.58c2,1.88,4,4.34,6.08,5.79,3.17,2.26,6.62-1.17,9.83-1.56a6.12,6.12,0,0,1,5.19,1.36c1.88,1.66,3.32,4.82,4.61,7.88a29.66,29.66,0,0,1,1.76,5.06,10.34,10.34,0,0,1,0,5.19c.49-1.43,24,19.12,26,20.76,5.65,4.51,11.3,9.06,17,13.53.54.43,2.39-2.44,2.78-2.77,1.54-1.3,3.32-2.16,5.26-.91,2.43,1.55,4.24,5.78,5.79,9.72a10.42,10.42,0,0,1,.76,2.6c.11.92-.09,1.89-.57,2,.68-.18,2.75,2.35,3.53,3,1.5,1.17,4,3.8,5.53,3.74s3.27-2.62,4.72-3.3c3.88-1.8,8.94-2.42,13.25,1.4.74.65,7.25-4.79,7.26-9.48,0-4.49-2.72-11-.86-14.4a5.28,5.28,0,0,1,2.08-2,18.61,18.61,0,0,1,8.44-2.75c1.18-.08,2.5.36,3.47-.3,1.94-1.32,3.58-5.06,5.16-7.35q3.22-4.7,6.32-9.66,6-9.65,11.56-20.23C304.89,147.24,299.15,139.14,293.22,140.17Zm-121.09-5.53a7.27,7.27,0,1,1,5.69-8.37A7.16,7.16,0,0,1,172.13,134.64Zm26.81.48c-3.36.59-6.62-2-7.28-5.71s1.54-7.26,4.9-7.84,6.62,2,7.28,5.71S202.3,134.54,198.93,135.13Zm23.18,38.16c-4.76.83-9.36-2.78-10.29-8.07S214,155,218.76,154.12s9.36,2.78,10.29,8.07S226.87,172.46,222.12,173.29Zm10-33.91a3.82,3.82,0,1,1,2.71-4.33A3.62,3.62,0,0,1,232.08,139.38Zm-1.26-24.89a6.26,6.26,0,1,1,5-7.23A6.24,6.24,0,0,1,230.83,114.49Zm34.58,71.62c-4,.71-8-2.9-8.94-8.06s1.63-9.91,5.66-10.62,8,2.9,8.94,8.06S269.44,185.4,265.41,186.11Zm-8.18-43.61a9.82,9.82,0,1,1,8-11.38A9.85,9.85,0,0,1,257.22,142.5Zm37.49,22.34a5.23,5.23,0,1,1,3.75-5.94A5,5,0,0,1,294.72,164.84Z"/><path class="cls-2" d="M293.76,136.17a5.09,5.09,0,0,1-5.88-.51,12.22,12.22,0,0,1-3.56-5.6c-.66-1.89-.52-5.42-1-6.65L275,116.78c-3.38-2.69-9.34-9.66-12.48-7.72a13.41,13.41,0,0,1-12,1.11,3.92,3.92,0,0,1-1.57-.93,7.64,7.64,0,0,1-1.11-1.59,27.34,27.34,0,0,1-3.33-9.52c-.1-1,.08-6.45,1.18-5.66l-13.7-9.85c-2.26-1.63-4.88-4.26-7.19-5.17-4.87-1.93-8.62,3.25-13.38,1.89a6.07,6.07,0,0,1-3.33-2.22,18.5,18.5,0,0,1-2.24-4.62c-1.15-3.09-2.18-7.18-.85-9.64-2.7-2.07-6.64-6.75-9.35-7.3-2,1.8-3.54,6-5.07,8.7-2.45,4.33-5.46,12.6-7.86,17,.67.52,2.65-1.15,2.87.08a3.39,3.39,0,0,1,.32,1.51,4.19,4.19,0,0,1-.66,2.93c-4.2,6-9.44,7.1-15.1,7.85l-23.29,40c3.36,3.19,5.64,5,9,8.21,2,1.88,4,4.34,6.08,5.79,3.17,2.26,6.62-1.17,9.83-1.56a6.12,6.12,0,0,1,5.19,1.36c1.88,1.66,3.32,4.82,4.61,7.88a29.66,29.66,0,0,1,1.76,5.06,10.34,10.34,0,0,1,0,5.19c.49-1.43,24,19.12,26,20.76,5.65,4.51,11.3,9.06,17,13.53.54.43,2.39-2.44,2.78-2.77,1.54-1.3,3.32-2.16,5.26-.91,2.43,1.55,4.24,5.78,5.79,9.72a10.42,10.42,0,0,1,.76,2.6c.11.92-.09,1.89-.57,2,.68-.18,2.75,2.35,3.53,3,1.5,1.17,4,3.8,5.53,3.74s3.27-2.62,4.72-3.3c3.88-1.8,8.94-2.42,13.25,1.4.74.65,7.25-4.79,7.26-9.48,0-4.49-2.72-11-.86-14.4a5.28,5.28,0,0,1,2.08-2,18.61,18.61,0,0,1,8.44-2.75c1.18-.08,2.5.36,3.47-.3,1.94-1.32,3.58-5.06,5.16-7.35q3.22-4.7,6.32-9.66c4-6.43,7.32-9.13,11-16.17C304.88,147.29,299.69,135.13,293.76,136.17Zm-121.68-1.52c-3.95.69-7.82-2.57-8.64-7.28s1.71-9.09,5.65-9.78,7.82,2.57,8.64,7.28S176,134,172.08,134.65Zm27,.16c-3.51.62-7-2.28-7.69-6.48s1.52-8.09,5-8.7,7,2.28,7.69,6.48S202.58,134.19,199.07,134.81Zm22.33,37.71c-5,.88-10-3.28-11-9.29s2.18-11.61,7.22-12.49,10,3.28,11,9.29S226.44,171.64,221.4,172.52Zm9.24-57.7c-3.51.62-7-2.28-7.69-6.48s1.52-8.09,5-8.7,7,2.28,7.69,6.48S234.15,114.2,230.64,114.82Zm34.45,67.83c-4.15.73-8.22-2.7-9.09-7.66s1.79-9.56,5.95-10.29,8.22,2.7,9.09,7.66S269.25,181.92,265.09,182.65Zm-7.87-39.75c-5.42.95-10.73-3.52-11.86-10s2.34-12.48,7.76-13.43,10.73,3.52,11.86,10S262.64,141.94,257.22,142.89Zm37.12,21.44c-2.61.46-5.17-1.7-5.71-4.81s1.13-6,3.74-6.47,5.17,1.7,5.71,4.81S296.95,163.88,294.34,164.33Z"/><ellipse class="cls-1" cx="178.82" cy="107.23" rx="3.39" ry="4.05" transform="translate(-15.82 32.47) rotate(-9.94)"/><path class="cls-1" d="M232.94,111.91a4.45,4.45,0,0,1-5.15-.45,10.7,10.7,0,0,1-3.11-4.9c-.57-1.65-.45-4.75-.85-5.81l-7.28-5.8c-3-2.36-8.18-8.45-10.92-6.75a11.73,11.73,0,0,1-10.46,1,3.43,3.43,0,0,1-1.38-.81,6.69,6.69,0,0,1-1-1.39,23.92,23.92,0,0,1-2.92-8.33c-.09-.91-.35-8.69.61-8-4-2.87-7.57-2.7-11.56-5.57-2-1.42-4.27-3.72-6.29-4.52-4.26-1.69-7.55,2.85-11.7,1.65A5.31,5.31,0,0,1,158,60.24a16.19,16.19,0,0,1-2-4c-1-2.71-1.91-6.28-.74-8.44-2.36-1.81-5.81-5.91-8.18-6.38-1.72,1.57-3.1,5.24-4.44,7.61-2.15,3.79-4.3,7.56-6.4,11.43a7.48,7.48,0,0,1,1.7,1.68,5.68,5.68,0,0,1,1,2.9,4.49,4.49,0,0,1-.95,2.84c-3.67,5.25-8.26,6.22-13.21,6.87l-21.31,33.83,8.81,8.39a58.59,58.59,0,0,0,5.32,5.07c2.78,2,5.79-1,8.6-1.36a5.36,5.36,0,0,1,4.55,1.19c1.64,1.46,2.9,4.22,4,6.9a26,26,0,0,1,1.54,4.42,9,9,0,0,1,0,4.54c.43-1.25,21,16.73,22.78,18.17,4.95,3.95,9.89,7.92,14.84,11.84.48.38,2.09-2.14,2.44-2.43,1.35-1.14,2.9-1.89,4.61-.8,2.12,1.36,3.71,5.05,5.07,8.5a9.12,9.12,0,0,1,.67,2.27c.09.8-.08,1.65-.5,1.76.59-.16,2.41,2.06,3.09,2.59,1.31,1,3.53,3.32,4.84,3.27s2.86-2.29,4.13-2.88c3.39-1.57,7.83-2.12,11.6,1.22.64.57,6.35-4.19,6.36-8.29,0-3.93-2.38-9.59-.75-12.61a4.62,4.62,0,0,1,1.82-1.77,16.28,16.28,0,0,1,7.38-2.4c1-.07,2.19.32,3-.26,1.69-1.15,3.14-4.43,4.51-6.43q2.82-4.11,5.53-8.45,5.28-8.44,10.11-17.7C243.15,118.09,238.13,111,232.94,111.91Zm-106-4.84a6.36,6.36,0,1,1,5-7.33A6.27,6.27,0,0,1,127,107.07Zm23.46.42c-2.94.52-5.8-1.72-6.37-5s1.35-6.35,4.29-6.86,5.8,1.72,6.37,5S153.38,107,150.43,107.49Zm20.28,33.39c-4.16.73-8.19-2.43-9-7.07s1.9-9,6.07-9.71,8.19,2.43,9,7.07S174.88,140.16,170.72,140.89Zm8.72-29.67a3.35,3.35,0,1,1,2.37-3.79A3.17,3.17,0,0,1,179.44,111.22Zm-1.1-21.78a5.47,5.47,0,1,1,4.42-6.33A5.46,5.46,0,0,1,178.34,89.43ZM208.6,152.1c-3.53.62-7-2.54-7.82-7.05s1.43-8.67,5-9.29,7,2.54,7.82,7.05S212.13,151.49,208.6,152.1Zm-7.16-38.16a8.59,8.59,0,1,1,7-10A8.62,8.62,0,0,1,201.44,113.94Zm32.81,19.55a4.58,4.58,0,1,1,3.28-5.2A4.36,4.36,0,0,1,234.25,133.49Z"/><path class="cls-2" d="M233.41,108.41a4.45,4.45,0,0,1-5.15-.45,10.7,10.7,0,0,1-3.11-4.9c-.57-1.65-.45-4.75-.85-5.81L217,91.44c-3-2.36-8.18-8.45-10.92-6.75a11.73,11.73,0,0,1-10.46,1,3.43,3.43,0,0,1-1.38-.81,6.69,6.69,0,0,1-1-1.39,23.92,23.92,0,0,1-2.92-8.33c-.09-.91.07-5.65,1-5l-12-8.62c-2-1.42-4.27-3.72-6.29-4.52-4.26-1.69-7.55,2.85-11.7,1.65a5.31,5.31,0,0,1-2.92-1.95,16.19,16.19,0,0,1-2-4c-1-2.71-1.91-6.28-.74-8.44-2.36-1.81-5.81-5.91-8.18-6.38-1.72,1.57-3.1,5.24-4.44,7.61-2.15,3.79-4.78,11-6.88,14.89.59.46,2.32-1,2.51.07a3,3,0,0,1,.28,1.32,3.67,3.67,0,0,1-.57,2.56c-3.67,5.25-8.26,6.22-13.21,6.87l-20.38,35c2.94,2.8,4.94,4.39,7.87,7.18a58.59,58.59,0,0,0,5.32,5.07c2.78,2,5.79-1,8.6-1.36a5.36,5.36,0,0,1,4.55,1.19c1.64,1.46,2.9,4.22,4,6.9a26,26,0,0,1,1.54,4.42,9,9,0,0,1,0,4.54c.43-1.25,21,16.73,22.78,18.17,4.95,3.95,9.89,7.92,14.84,11.84.48.38,2.09-2.14,2.44-2.43,1.35-1.14,2.9-1.89,4.61-.8,2.12,1.36,3.71,5.05,5.07,8.5a9.12,9.12,0,0,1,.67,2.27c.09.8-.08,1.65-.5,1.76.59-.16,2.41,2.06,3.09,2.59,1.31,1,3.53,3.32,4.84,3.27s2.86-2.29,4.13-2.88c3.39-1.57,7.83-2.12,11.6,1.22.64.57,6.35-4.19,6.36-8.29,0-3.93-2.38-9.59-.75-12.61a4.62,4.62,0,0,1,1.82-1.77,16.28,16.28,0,0,1,7.38-2.4c1-.07,2.19.32,3-.26,1.69-1.15,3.14-4.43,4.51-6.43q2.82-4.11,5.53-8.45c3.52-5.63,6.4-8,9.63-14.15C243.14,118.13,238.6,107.5,233.41,108.41Zm-106.48-1.33c-3.45.61-6.84-2.25-7.56-6.37s1.49-8,4.95-8.56,6.84,2.25,7.56,6.37S130.39,106.47,126.93,107.08Zm23.62.14c-3.07.54-6.09-2-6.73-5.67s1.33-7.08,4.4-7.62,6.09,2,6.73,5.67S153.62,106.67,150.55,107.21Zm19.54,33c-4.41.77-8.73-2.87-9.66-8.13s1.91-10.16,6.32-10.93,8.73,2.87,9.66,8.13S174.5,139.44,170.09,140.21Zm8.09-50.49c-3.07.54-6.09-2-6.73-5.67s1.33-7.08,4.4-7.62,6.09,2,6.73,5.67S181.25,89.18,178.18,89.72Zm30.15,59.35c-3.63.64-7.2-2.36-8-6.7s1.57-8.37,5.2-9,7.2,2.36,8,6.7S212,148.44,208.32,149.07Zm-6.89-34.79c-4.74.83-9.39-3.08-10.38-8.74s2-10.92,6.79-11.75,9.39,3.08,10.38,8.74S206.18,113.46,201.43,114.29ZM233.92,133c-2.28.4-4.52-1.49-5-4.21s1-5.26,3.27-5.66,4.52,1.49,5,4.21S236.2,132.65,233.92,133Z"/></svg>