<svg id="Layer_1" data-name="Layer 1" xmlns="http://www.w3.org/2000/svg" viewBox="0 0 350 350"><defs><style>.cls-1{fill:#e2c540;}.cls-2{fill:#f2d562;}</style></defs><title>Swiss</title><ellipse class="cls-1" cx="180.33" cy="167.34" rx="7.25" ry="6.61" transform="translate(-37.42 52.86) rotate(-15.13)"/><path class="cls-1" d="M294.55,160.07a11.54,11.54,0,0,1-10.86.69,15.68,15.68,0,0,1-6.86-7.22c-1.31-2.57-1.25-7.7-2.17-9.35L259,136.63c-6.38-3.07-17.75-11.67-23.42-8.11a32,32,0,0,1-22,4.5,7.19,7.19,0,0,1-2.95-1,10,10,0,0,1-2.13-2c-2.64-3.14-5.9-8.36-6.67-12.93-.25-1.47-1.28-14.24.78-13.37-8.59-3.63-16.11-2.35-24.7-6-4.25-1.8-9.24-5-13.52-5.72-9.08-1.6-15.7,6.79-24.53,6a10.69,10.69,0,0,1-6.26-2.4,21.93,21.93,0,0,1-4.38-6.13c-2.28-4.19-4.42-9.83-2.1-13.71-5.08-2.33-12.6-8.14-17.63-8.26C106,70.6,103.3,77,100.63,81.3,96.35,88.14,92.06,95,87.89,101.92a12.92,12.92,0,0,1,3.69,2.3,7.35,7.35,0,0,1,2.24,4.51A7.11,7.11,0,0,1,92,113.67c-7.4,9.68-17,12.54-27.37,15L21.94,190.35,41,201.74c3.73,2.23,7.7,5.28,11.53,6.88,6,2.5,12.12-3.3,18-4.63,3.1-.7,6.43-1.05,9.64.7,3.55,1.95,6.38,6.15,8.94,10.26a33.35,33.35,0,0,1,3.53,6.87c.85,2.5,1.15,5.36.35,7.48.82-2.18,45.23,21.77,49.11,23.64,10.66,5.14,21.32,10.33,32,15.42,1,.49,4.27-4.1,5-4.68,2.76-2.25,6-3.92,9.65-2.6,4.56,1.65,8.13,7.31,11.21,12.62a11.57,11.57,0,0,1,1.55,3.56c.25,1.29-.07,2.75-.94,3,1.23-.42,5.2,2.73,6.67,3.42,2.82,1.33,7.64,4.5,10.39,4.05s5.87-4.57,8.52-5.9c7-3.53,16.34-5.66,24.49-1.2,1.39.76,13.09-8.66,12.85-15.44-.23-6.48-5.63-15.16-2.39-20.58a10.42,10.42,0,0,1,3.72-3.42,44.69,44.69,0,0,1,15.39-6c2.16-.4,4.62-.08,6.37-1.27,3.49-2.37,6.32-8.17,9.09-11.86q5.67-7.56,11.1-15.47,10.57-15.38,20.16-32C316.45,167.43,305.42,157.13,294.55,160.07ZM71.19,181.45c-7,1.9-13.94-1-15.44-6.58s3-11.56,10-13.46,13.94,1,15.44,6.58S78.22,179.55,71.19,181.45Zm49.4-5.8c-6.16,1.67-12.31-1.23-13.73-6.48s2.43-10.84,8.59-12.51,12.31,1.23,13.73,6.48S126.76,174,120.6,175.65Zm44.83,49.45c-8.71,2.36-17.4-1.74-19.41-9.16s3.44-15.33,12.15-17.69,17.4,1.74,19.41,9.16S174.15,222.74,165.43,225.09Zm16.46-51.34c-3.41.92-6.8-.68-7.58-3.58s1.34-6,4.75-6.91,6.8.68,7.58,3.58S185.3,172.83,181.89,173.75Zm-3.7-35.61c-6.2,1.68-12.27-.83-13.56-5.6s2.69-10,8.89-11.66,12.27.83,13.56,5.6S184.39,136.46,178.19,138.14Zm67.7,95a13.55,13.55,0,1,1,9.84-16.69A13.7,13.7,0,0,1,245.89,233.1Zm-17.51-60.94c-9.86,2.66-19.49-1.24-21.51-8.72s4.33-15.7,14.19-18.37,19.49,1.24,21.51,8.72S238.23,169.49,228.38,172.15Zm70.31,23.15c-4.7,1.27-9.39-.91-10.46-4.88s1.87-8.21,6.58-9.48,9.39.91,10.46,4.88S303.39,194,298.69,195.3Z"/><path class="cls-2" d="M295.33,154.16a11.54,11.54,0,0,1-10.86.69,15.68,15.68,0,0,1-6.86-7.22c-1.31-2.57-1.25-7.7-2.17-9.35l-15.7-7.55c-6.38-3.07-17.75-11.67-23.42-8.11a32,32,0,0,1-22,4.5,7.19,7.19,0,0,1-2.95-1,10,10,0,0,1-2.13-2c-2.64-3.14-5.9-8.36-6.67-12.93-.25-1.47-.2-9.33,1.86-8.46L178.69,91.86c-4.25-1.8-9.24-5-13.52-5.72-9.08-1.6-15.7,6.79-24.53,6a10.69,10.69,0,0,1-6.26-2.4A21.93,21.93,0,0,1,130,83.59c-2.28-4.19-4.42-9.83-2.1-13.71-5.08-2.33-12.6-8.14-17.63-8.26-3.52,3.07-6.18,9.51-8.85,13.78-4.27,6.84-9.35,19.5-13.52,26.46,1.27.59,4.82-2.3,5.29-.57.14.53.53.35.67,2.1.16,2.06-.06,3.09-1,4.38-7.4,9.68-17,12.54-27.37,15L24.76,186.16c6.36,3.8,10.67,5.87,17,9.66,3.73,2.23,7.7,5.28,11.53,6.88,6,2.5,12.12-3.3,18-4.63,3.1-.7,6.43-1.05,9.64.7,3.55,1.95,6.38,6.15,8.94,10.26a33.35,33.35,0,0,1,3.53,6.87c.85,2.5,1.15,5.36.35,7.48.82-2.18,45.23,21.77,49.11,23.64,10.66,5.14,21.32,10.33,32,15.42,1,.49,4.27-4.1,5-4.68,2.76-2.25,6-3.92,9.65-2.6,4.56,1.65,8.13,7.31,11.21,12.62a11.57,11.57,0,0,1,1.55,3.56c.25,1.29-.07,2.75-.94,3,1.23-.42,5.2,2.73,6.67,3.42,2.82,1.33,7.64,4.5,10.39,4.05s5.87-4.57,8.52-5.9c7-3.53,16.34-5.66,24.49-1.2,1.39.76,13.09-8.66,12.85-15.44-.23-6.48-5.63-15.16-2.39-20.58a10.42,10.42,0,0,1,3.72-3.42,44.69,44.69,0,0,1,15.39-6c2.16-.4,4.62-.08,6.37-1.27,3.49-2.37,6.32-8.17,9.09-11.86q5.67-7.56,11.1-15.47c7-10.26,13-14.94,19.36-26C316.43,167.5,306.2,151.22,295.33,154.16ZM71.1,181.47c-7.23,2-14.54-1.81-16.33-8.41s2.63-13.53,9.87-15.49S79.19,159.39,81,166,78.34,179.52,71.1,181.47Zm49.73-6.32c-6.43,1.74-12.94-1.61-14.52-7.48s2.34-12,8.78-13.78,12.94,1.61,14.52,7.48S127.26,173.42,120.83,175.15Zm43.24,49c-9.24,2.5-18.57-2.31-20.85-10.74s3.36-17.28,12.6-19.78,18.57,2.31,20.85,10.74S173.3,221.66,164.07,224.16Zm13.8-85.51c-6.43,1.74-12.94-1.61-14.52-7.48s2.34-12,8.78-13.78,12.94,1.61,14.52,7.48S184.3,136.91,177.87,138.65Zm67.25,89.53c-7.61,2.06-15.3-1.9-17.18-8.85s2.77-14.24,10.38-16.29,15.3,1.9,17.18,8.85S252.73,226.12,245.12,228.18Zm-16.73-55.46c-9.93,2.68-20-2.48-22.4-11.54s3.61-18.57,13.54-21.26,20,2.48,22.4,11.54S238.32,170,228.39,172.72ZM298,194.66c-4.78,1.29-9.61-1.2-10.79-5.56s1.74-8.95,6.52-10.24,9.61,1.2,10.79,5.56S302.75,193.37,298,194.66Z"/></svg>